<svg width="120" height="120" viewBox="0 0 120 120" fill="none" xmlns="http://www.w3.org/2000/svg">
<circle opacity="0.07" cx="60" cy="60" r="60" fill="#ED6373"/>
<path d="M85.6669 66.1257C84.3544 64.5215 82.1669 64.2298 80.5627 65.5423L70.2085 73.5631C69.6252 74.0006 69.0419 74.1465 68.4585 74.1465H61.021C60.0002 74.1465 59.1252 73.2715 59.1252 72.3965C59.1252 71.5215 60.0002 70.5007 60.8752 70.5007H67.146C69.1877 70.5007 70.7919 68.8965 70.7919 66.8548C70.7919 64.8132 69.1877 63.209 67.146 63.209H53.0002H51.9794C50.0835 63.209 48.1877 63.9381 46.5835 65.1048L41.4794 69.0423C41.1877 69.334 41.0419 69.7715 41.3335 70.0631L51.1044 82.459C51.2502 82.6048 51.396 82.7506 51.6877 82.7506L63.646 82.8965H67.0002C69.0419 82.8965 70.9377 82.3132 72.5419 81.0007L85.0835 71.084C86.6877 69.9173 86.8335 67.7298 85.6669 66.1257Z" fill="#ED6373"/>
<path d="M38.5625 72.3965C38.2709 72.1048 37.8334 71.959 37.5417 72.2507L35.2084 74.0006C34.9167 74.2923 34.7709 74.7298 35.0625 75.0215L44.6875 87.1257C44.9792 87.4173 45.4167 87.5632 45.7084 87.2715L48.0417 85.5215C48.3334 85.2298 48.4792 84.7923 48.1875 84.5007L38.5625 72.3965ZM73.7084 44.1048C73.7084 44.3965 74 44.6882 74.2917 44.6882H78.8125C79.25 44.6882 79.5417 44.2507 79.3959 43.959C78.6667 40.1673 76.3334 36.8132 72.9792 34.9173C72.3959 34.6257 71.8125 35.209 72.1042 35.6465C72.9792 38.1257 73.5625 41.0423 73.7084 44.1048ZM59.4167 48.6257C59.4167 48.334 59.125 48.0423 58.8334 48.0423H54.3125C53.875 48.0423 53.5834 48.4798 53.7292 48.7715C54.4584 52.5632 56.7917 55.9173 60.1459 57.8132C60.7292 58.1048 61.3125 57.5215 61.0209 57.084C60.1459 54.6048 59.5625 51.6882 59.4167 48.6257ZM60 34.9173C56.6459 36.8132 54.3125 40.0215 53.5834 43.959C53.4375 44.3965 53.875 44.6882 54.1667 44.6882H58.6875C58.9792 44.6882 59.2709 44.3965 59.2709 44.1048C59.4167 41.0423 60 38.1257 60.7292 35.7923C61.1667 35.209 60.5834 34.6257 60 34.9173ZM66.5625 33.8965C65.25 33.8965 63.2084 37.6882 62.7709 44.1048C62.7709 44.3965 63.0625 44.834 63.5 44.834H69.9167C70.3542 44.834 70.6459 44.5423 70.6459 44.1048C69.9167 37.6882 67.875 33.8965 66.5625 33.8965ZM78.8125 48.0423H74.2917C74 48.0423 73.7084 48.334 73.7084 48.6257C73.5625 51.6882 72.9792 54.6048 72.25 56.9382C72.1042 57.5215 72.6875 57.959 73.125 57.6673C76.4792 55.7715 78.8125 52.5632 79.5417 48.6257C79.5417 48.334 79.25 48.0423 78.8125 48.0423ZM69.7709 47.8965H63.3542C62.9167 47.8965 62.625 48.1882 62.625 48.6257C63.0625 55.0423 65.25 58.834 66.4167 58.834C67.5834 58.834 69.7709 55.0423 70.2084 48.6257C70.5 48.1882 70.0625 47.8965 69.7709 47.8965Z" fill="#ED6373"/>
</svg>
