<svg width="120" height="120" viewBox="0 0 120 120" fill="none" xmlns="http://www.w3.org/2000/svg">
<circle opacity="0.07" cx="60" cy="60" r="60" fill="#3E54D8"/>
<path d="M47.3124 67.291C47.1666 66.9994 46.8749 66.8535 46.5833 66.8535H43.0833C36.8124 66.8535 31.7083 71.9577 31.7083 78.2285V83.3327C31.7083 84.2077 32.4374 85.0827 33.4583 85.0827H52.2708C52.7083 85.0827 53.1458 84.6452 52.9999 84.0619L47.3124 67.291ZM57.0833 34.4785C49.3541 34.4785 43.0833 40.7493 43.0833 48.4785C43.0833 56.2077 49.3541 62.4785 57.0833 62.4785C64.8124 62.4785 71.0833 56.2077 71.0833 48.4785C71.0833 40.7493 64.8124 34.4785 57.0833 34.4785Z" fill="#3E54D8"/>
<path d="M57.0833 67.1465C55.9166 67.1465 54.8958 68.1673 54.8958 69.334V81.0007C54.8958 82.1673 55.9166 83.1882 57.0833 83.1882C58.2499 83.1882 59.2708 82.1673 59.2708 81.0007V69.334C59.2708 68.1673 58.2499 67.1465 57.0833 67.1465ZM86.2499 69.1882C85.6666 67.7298 86.9791 64.8132 85.8124 63.6465C84.6458 62.4798 81.8749 63.7923 80.2708 63.209C78.8124 62.6257 77.7916 59.709 76.0416 59.709C74.4374 59.709 73.2707 62.6257 71.8124 63.209C70.3541 63.7923 67.4374 62.4798 66.2708 63.6465C65.1041 64.8132 66.4166 67.584 65.8333 69.1882C65.2499 70.6465 62.3333 71.6673 62.3333 73.4173C62.3333 75.0215 65.2499 76.1882 65.8333 77.6465C66.4166 79.1048 65.1041 82.0215 66.2708 83.1882C67.4374 84.3548 70.2082 83.0423 71.8124 83.6257C73.2707 84.209 74.2916 87.1257 76.0416 87.1257C77.6458 87.1257 78.8124 84.209 80.2708 83.6257C81.7291 83.0423 84.6458 84.3548 85.8124 83.1882C86.9791 81.8757 85.6666 78.959 86.2499 77.5007C86.8333 76.0423 89.7499 75.0215 89.7499 73.2715C89.8958 71.6673 86.8333 70.6465 86.2499 69.1882ZM76.1874 81.2923C75.0207 81.2923 73.9999 80.2715 73.9999 79.1048C73.9999 77.9382 75.0207 76.9173 76.1874 76.9173C77.3541 76.9173 78.3749 77.9382 78.3749 79.1048C78.3749 80.2715 77.3541 81.2923 76.1874 81.2923ZM78.3749 72.2507C78.3749 73.4173 77.3541 74.4382 76.1874 74.4382C75.0207 74.4382 73.9999 73.4173 73.9999 72.2507V67.0007C73.9999 65.834 75.0207 64.8132 76.1874 64.8132C77.3541 64.8132 78.3749 65.834 78.3749 67.0007V72.2507Z" fill="#3E54D8"/>
</svg>
