<svg width="120" height="120" viewBox="0 0 120 120" fill="none" xmlns="http://www.w3.org/2000/svg">
<circle opacity="0.07" cx="60" cy="60" r="60" fill="#F3B63F"/>
<path d="M75.8958 65.2493L65.5416 73.2702C64.9583 73.7077 64.3749 73.8535 63.7916 73.8535H56.3541C55.3333 73.8535 54.6041 72.9785 54.6041 71.9577C54.6041 70.9369 55.4791 70.2077 56.4999 70.2077H62.7708C64.8124 70.2077 66.4166 68.6035 66.4166 66.5618C66.4166 64.5202 64.8124 62.916 62.7708 62.916H48.3333H47.3124C45.4166 62.916 43.5208 63.4993 41.9166 64.8118L36.9583 68.7493C36.6666 69.041 36.5208 69.4785 36.8124 69.7702L46.5833 82.166C46.7291 82.3119 46.8749 82.4577 47.1666 82.4577L59.1249 82.6035H62.4791C64.5208 82.6035 66.4166 82.0202 68.0208 80.7077L80.5624 70.791C82.1666 69.4785 82.4583 67.291 81.1458 65.6868C79.6874 64.2285 77.4999 63.9368 75.8958 65.2493ZM84.6458 51.6868L74.8749 39.291C74.7291 39.1452 74.5833 38.9993 74.2916 38.9993L62.3333 38.8535H58.9791C56.9374 38.8535 55.0416 39.4368 53.4374 40.7493L41.0416 50.5202C39.4374 51.8327 39.1458 54.0202 40.4583 55.6243C41.7708 57.2285 43.9583 57.5202 45.5624 56.2077L55.9166 48.1868C56.4999 47.7493 57.0833 47.6035 57.6666 47.6035H65.1041C66.1249 47.6035 66.8541 48.4785 66.8541 49.4993C66.8541 50.5202 65.9791 51.2493 64.9583 51.2493H58.6874C56.6458 51.2493 55.0416 52.8535 55.0416 54.8952C55.0416 56.9368 56.6458 58.541 58.6874 58.541H68.8958H73.8541C75.7499 58.541 77.6458 57.9577 79.2499 56.6452L84.3541 52.7077C84.7916 52.416 84.9374 51.9785 84.6458 51.6868Z" fill="#F2B640"/>
<path d="M33.8958 72.1043C33.75 71.8126 33.1666 71.6668 32.875 71.9585L30.5416 73.7085C30.25 74.0001 30.1041 74.4376 30.3958 74.7293L40.0208 86.8335C40.3125 87.1251 40.75 87.271 41.0416 86.9793L43.375 85.2293C43.6666 84.9376 43.8125 84.5001 43.5208 84.2085L33.8958 72.1043ZM90.9166 46.7293L81.2916 34.6251C81 34.3335 80.5625 34.1876 80.2708 34.4793L77.9375 36.2293C77.6458 36.521 77.5 36.9585 77.7916 37.2501L87.4166 49.3543C87.7083 49.646 88.1458 49.7918 88.4375 49.5001L90.7708 47.7501C91.2083 47.4585 91.2083 47.021 90.9166 46.7293Z" fill="#F2B640"/>
</svg>
