<svg width="199" height="51" viewBox="0 0 199 51" fill="none" xmlns="http://www.w3.org/2000/svg">
<g opacity="0.9">
<path d="M19.2334 19.4235C20.5166 19.8299 21.5218 20.5143 22.2489 21.4767C22.9761 22.4177 23.3396 23.5832 23.3396 24.9733C23.3396 26.9409 22.5697 28.4594 21.0299 29.5287C19.5114 30.5766 17.2873 31.1006 14.3573 31.1006H2.74442V8.64474H13.7157C16.4532 8.64474 18.5491 9.16871 20.0033 10.2166C21.479 11.2646 22.2168 12.6868 22.2168 14.4833C22.2168 15.574 21.9495 16.5471 21.4148 17.4025C20.9016 18.258 20.1744 18.9317 19.2334 19.4235ZM7.90926 12.5585V17.8516H13.0741C14.3573 17.8516 15.3304 17.6271 15.9934 17.178C16.6563 16.7288 16.9878 16.0659 16.9878 15.189C16.9878 14.3122 16.6563 13.6599 15.9934 13.2321C15.3304 12.783 14.3573 12.5585 13.0741 12.5585H7.90926ZM13.9723 27.1869C15.3411 27.1869 16.3676 26.9623 17.052 26.5132C17.7578 26.0641 18.1106 25.369 18.1106 24.428C18.1106 22.5674 16.7312 21.6371 13.9723 21.6371H7.90926V27.1869H13.9723ZM43.8273 22.5353C43.8273 22.5994 43.7953 23.0486 43.7311 23.8826H30.6746C30.9099 24.952 31.4659 25.7967 32.3428 26.4169C33.2196 27.0371 34.3103 27.3473 35.6149 27.3473C36.5131 27.3473 37.3044 27.2189 37.9888 26.9623C38.6946 26.6843 39.3469 26.2565 39.9457 25.6791L42.6083 28.5663C40.9829 30.4269 38.609 31.3572 35.4866 31.3572C33.5404 31.3572 31.8188 30.983 30.3218 30.2344C28.8247 29.4645 27.6698 28.4059 26.8571 27.0585C26.0444 25.7112 25.6381 24.182 25.6381 22.4711C25.6381 20.7816 26.0338 19.2631 26.8251 17.9158C27.6377 16.5471 28.7391 15.4884 30.1293 14.7399C31.5408 13.97 33.1127 13.585 34.845 13.585C36.5345 13.585 38.0637 13.9486 39.4324 14.6757C40.8011 15.4029 41.8705 16.4508 42.6404 17.8196C43.4317 19.1669 43.8273 20.7388 43.8273 22.5353ZM34.8771 17.3704C33.7436 17.3704 32.7919 17.6912 32.022 18.3328C31.2521 18.9744 30.7816 19.8513 30.6105 20.9634H39.1116C38.9405 19.8727 38.47 19.0065 37.7001 18.3649C36.9302 17.7019 35.9892 17.3704 34.8771 17.3704ZM53.6505 13.585C56.3238 13.585 58.3769 14.2266 59.8098 15.5098C61.2427 16.7716 61.9592 18.6857 61.9592 21.2521V31.1006H57.2755V28.9512C56.3345 30.5552 54.5808 31.3572 52.0145 31.3572C50.6885 31.3572 49.5336 31.1327 48.5498 30.6835C47.5874 30.2344 46.8496 29.6142 46.3363 28.8229C45.8231 28.0316 45.5664 27.1334 45.5664 26.1282C45.5664 24.5242 46.1652 23.2624 47.3629 22.3428C48.5819 21.4232 50.4532 20.9634 52.9768 20.9634H56.9547C56.9547 19.8727 56.6232 19.0386 55.9603 18.4612C55.2973 17.8623 54.3028 17.5629 52.9768 17.5629C52.0572 17.5629 51.1483 17.7126 50.2501 18.012C49.3732 18.2901 48.6247 18.675 48.0045 19.1669L46.208 15.6702C47.149 15.0072 48.2718 14.494 49.5764 14.1304C50.9024 13.7668 52.2604 13.585 53.6505 13.585ZM53.2656 27.9888C54.121 27.9888 54.8802 27.7964 55.5432 27.4114C56.2062 27.0051 56.6767 26.4169 56.9547 25.647V23.8826H53.5222C51.4691 23.8826 50.4425 24.5563 50.4425 25.9037C50.4425 26.5453 50.6885 27.0585 51.1804 27.4435C51.6937 27.8071 52.3887 27.9888 53.2656 27.9888ZM77.6201 30.2665C77.1282 30.6301 76.5187 30.9081 75.7916 31.1006C75.0858 31.2717 74.3373 31.3572 73.546 31.3572C71.4929 31.3572 69.8996 30.8333 68.7661 29.7853C67.654 28.7374 67.098 27.1975 67.098 25.1658V18.0762H64.4353V14.2266H67.098V10.0242H72.1024V14.2266H76.4011V18.0762H72.1024V25.1017C72.1024 25.8288 72.2842 26.3956 72.6478 26.8019C73.0327 27.1869 73.5674 27.3793 74.2518 27.3793C75.0431 27.3793 75.7167 27.1655 76.2728 26.7377L77.6201 30.2665Z" fill="#3E54D8"/>
<path d="M101.217 31.1006L101.185 17.6271L94.5765 28.7267H92.2347L85.6584 17.9158V31.1006H80.7822V8.64474H85.0809L93.4858 22.5994L101.762 8.64474H106.029L106.093 31.1006H101.217ZM118.029 13.585C120.703 13.585 122.756 14.2266 124.189 15.5098C125.622 16.7716 126.338 18.6857 126.338 21.2521V31.1006H121.654V28.9512C120.713 30.5552 118.96 31.3572 116.393 31.3572C115.067 31.3572 113.912 31.1327 112.929 30.6835C111.966 30.2344 111.228 29.6142 110.715 28.8229C110.202 28.0316 109.945 27.1334 109.945 26.1282C109.945 24.5242 110.544 23.2624 111.742 22.3428C112.961 21.4232 114.832 20.9634 117.356 20.9634H121.334C121.334 19.8727 121.002 19.0386 120.339 18.4612C119.676 17.8623 118.682 17.5629 117.356 17.5629C116.436 17.5629 115.527 17.7126 114.629 18.012C113.752 18.2901 113.004 18.675 112.383 19.1669L110.587 15.6702C111.528 15.0072 112.651 14.494 113.955 14.1304C115.281 13.7668 116.639 13.585 118.029 13.585ZM117.644 27.9888C118.5 27.9888 119.259 27.7964 119.922 27.4114C120.585 27.0051 121.056 26.4169 121.334 25.647V23.8826H117.901C115.848 23.8826 114.821 24.5563 114.821 25.9037C114.821 26.5453 115.067 27.0585 115.559 27.4435C116.073 27.8071 116.768 27.9888 117.644 27.9888ZM135.647 16.1193C136.246 15.2853 137.048 14.6544 138.053 14.2266C139.08 13.7989 140.256 13.585 141.582 13.585V18.2045C141.026 18.1617 140.652 18.1404 140.459 18.1404C139.026 18.1404 137.903 18.5467 137.091 19.3594C136.278 20.1507 135.872 21.3483 135.872 22.9523V31.1006H130.867V13.8417H135.647V16.1193ZM151.968 24.3318L149.562 26.7057V31.1006H144.558V7.29739H149.562V20.7709L156.876 13.8417H162.843L155.657 21.1559L163.485 31.1006H157.422L151.968 24.3318ZM181.889 22.5353C181.889 22.5994 181.857 23.0486 181.793 23.8826H168.737C168.972 24.952 169.528 25.7967 170.405 26.4169C171.282 27.0371 172.372 27.3473 173.677 27.3473C174.575 27.3473 175.367 27.2189 176.051 26.9623C176.757 26.6843 177.409 26.2565 178.008 25.6791L180.67 28.5663C179.045 30.4269 176.671 31.3572 173.549 31.3572C171.603 31.3572 169.881 30.983 168.384 30.2344C166.887 29.4645 165.732 28.4059 164.919 27.0585C164.107 25.7112 163.7 24.182 163.7 22.4711C163.7 20.7816 164.096 19.2631 164.887 17.9158C165.7 16.5471 166.801 15.4884 168.191 14.7399C169.603 13.97 171.175 13.585 172.907 13.585C174.597 13.585 176.126 13.9486 177.495 14.6757C178.863 15.4029 179.933 16.4508 180.702 17.8196C181.494 19.1669 181.889 20.7388 181.889 22.5353ZM172.939 17.3704C171.806 17.3704 170.854 17.6912 170.084 18.3328C169.314 18.9744 168.844 19.8513 168.673 20.9634H177.174C177.003 19.8727 176.532 19.0065 175.762 18.3649C174.992 17.7019 174.051 17.3704 172.939 17.3704ZM196.353 30.2665C195.861 30.6301 195.252 30.9081 194.524 31.1006C193.819 31.2717 193.07 31.3572 192.279 31.3572C190.226 31.3572 188.632 30.8333 187.499 29.7853C186.387 28.7374 185.831 27.1975 185.831 25.1658V18.0762H183.168V14.2266H185.831V10.0242H190.835V14.2266H195.134V18.0762H190.835V25.1017C190.835 25.8288 191.017 26.3956 191.381 26.8019C191.766 27.1869 192.3 27.3793 192.985 27.3793C193.776 27.3793 194.45 27.1655 195.006 26.7377L196.353 30.2665Z" fill="#ED6373"/>
</g>
<path d="M8.18953 42.8733V49.111H7.53902V43.4436H3.59142V49.111H2.94092V42.8733H8.18953Z" fill="#373943"/>
<path d="M13.7963 44.4238V49.111H13.1636V44.9852H10.918L10.8557 46.1436C10.8081 47.1179 10.6953 47.8664 10.5171 48.3892C10.3388 48.912 10.021 49.1734 9.56357 49.1734C9.43881 49.1734 9.28733 49.1496 9.10911 49.1021L9.15366 48.5585C9.26059 48.5823 9.33485 48.5942 9.37644 48.5942C9.62001 48.5942 9.80417 48.4813 9.92892 48.2556C10.0537 48.0298 10.1368 47.7506 10.1784 47.4179C10.22 47.0852 10.2557 46.6456 10.2854 46.0991L10.3656 44.4238H13.7963Z" fill="#373943"/>
<path d="M17.0296 44.3882C17.6415 44.3882 18.1108 44.5426 18.4375 44.8515C18.7643 45.1545 18.9276 45.606 18.9276 46.206V49.111H18.3217V48.3803C18.1791 48.6239 17.9682 48.814 17.689 48.9506C17.4157 49.0873 17.089 49.1556 16.7088 49.1556C16.186 49.1556 15.7701 49.0308 15.4612 48.7813C15.1523 48.5318 14.9978 48.2021 14.9978 47.7922C14.9978 47.3942 15.1404 47.0734 15.4256 46.8298C15.7167 46.5862 16.1771 46.4644 16.8068 46.4644H18.2949V46.1793C18.2949 45.7753 18.1821 45.4694 17.9563 45.2614C17.7306 45.0476 17.4009 44.9407 16.9672 44.9407C16.6702 44.9407 16.385 44.9911 16.1117 45.0921C15.8385 45.1872 15.6038 45.3209 15.4078 45.4931L15.1226 45.0209C15.3602 44.8189 15.6454 44.6644 15.9781 44.5575C16.3107 44.4446 16.6612 44.3882 17.0296 44.3882ZM16.8068 48.6566C17.1632 48.6566 17.4692 48.5764 17.7246 48.416C17.9801 48.2496 18.1702 48.012 18.2949 47.7031V46.9367H16.8246C16.0226 46.9367 15.6216 47.2159 15.6216 47.7744C15.6216 48.0476 15.7256 48.2645 15.9335 48.4249C16.1414 48.5793 16.4325 48.6566 16.8068 48.6566Z" fill="#373943"/>
<path d="M23.7307 44.9852H21.9574V49.111H21.3248V44.9852H19.5515V44.4238H23.7307V44.9852Z" fill="#373943"/>
<path d="M29.9083 46.7585C29.9083 47.4892 29.6677 48.0625 29.1865 48.4783C28.7053 48.8942 28.0251 49.1199 27.1458 49.1556V50.8398H26.531V49.1645C25.6577 49.1288 24.9805 48.9031 24.4993 48.4872C24.024 48.0655 23.7864 47.4892 23.7864 46.7585C23.7864 46.0337 24.024 45.4664 24.4993 45.0565C24.9805 44.6466 25.6577 44.4238 26.531 44.3882V42.499H27.1458V44.3882C28.0251 44.4298 28.7053 44.6555 29.1865 45.0654C29.6677 45.4753 29.9083 46.0397 29.9083 46.7585ZM24.4101 46.7585C24.4101 47.3169 24.5884 47.7536 24.9448 48.0684C25.3072 48.3833 25.8359 48.5615 26.531 48.6031V44.9496C25.8419 44.9852 25.3161 45.1605 24.9537 45.4753C24.5913 45.7842 24.4101 46.212 24.4101 46.7585ZM27.1458 48.6031C27.8409 48.5674 28.3696 48.3922 28.732 48.0773C29.1003 47.7625 29.2845 47.3229 29.2845 46.7585C29.2845 46.206 29.1003 45.7753 28.732 45.4664C28.3696 45.1575 27.8409 44.9852 27.1458 44.9496V48.6031Z" fill="#373943"/>
<path d="M33.0018 49.1556C32.5503 49.1556 32.1434 49.0546 31.781 48.8526C31.4186 48.6447 31.1334 48.3595 30.9255 47.9971C30.7176 47.6348 30.6136 47.2249 30.6136 46.7674C30.6136 46.31 30.7176 45.9001 30.9255 45.5377C31.1334 45.1753 31.4186 44.8931 31.781 44.6911C32.1434 44.4892 32.5503 44.3882 33.0018 44.3882C33.4533 44.3882 33.8602 44.4892 34.2226 44.6911C34.585 44.8931 34.8672 45.1753 35.0692 45.5377C35.2771 45.9001 35.381 46.31 35.381 46.7674C35.381 47.2249 35.2771 47.6348 35.0692 47.9971C34.8672 48.3595 34.585 48.6447 34.2226 48.8526C33.8602 49.0546 33.4533 49.1556 33.0018 49.1556ZM33.0018 48.5942C33.3345 48.5942 33.6315 48.5199 33.8929 48.3714C34.1602 48.2169 34.3681 48.0001 34.5167 47.7209C34.6652 47.4417 34.7394 47.1239 34.7394 46.7674C34.7394 46.411 34.6652 46.0931 34.5167 45.8139C34.3681 45.5347 34.1602 45.3209 33.8929 45.1723C33.6315 45.0179 33.3345 44.9407 33.0018 44.9407C32.6691 44.9407 32.3691 45.0179 32.1018 45.1723C31.8404 45.3209 31.6325 45.5347 31.478 45.8139C31.3295 46.0931 31.2552 46.411 31.2552 46.7674C31.2552 47.1239 31.3295 47.4417 31.478 47.7209C31.6325 48.0001 31.8404 48.2169 32.1018 48.3714C32.3691 48.5199 32.6691 48.5942 33.0018 48.5942Z" fill="#373943"/>
<path d="M38.9699 44.3882C39.4095 44.3882 39.8075 44.4892 40.164 44.6911C40.5204 44.8872 40.7996 45.1664 41.0016 45.5288C41.2036 45.8912 41.3046 46.304 41.3046 46.7674C41.3046 47.2367 41.2036 47.6526 41.0016 48.015C40.7996 48.3773 40.5204 48.6595 40.164 48.8615C39.8135 49.0576 39.4154 49.1556 38.9699 49.1556C38.5897 49.1556 38.2451 49.0783 37.9362 48.9239C37.6332 48.7635 37.3837 48.5318 37.1877 48.2288V50.8398H36.555V44.4238H37.1609V45.3506C37.3511 45.0416 37.6006 44.804 37.9095 44.6377C38.2243 44.4713 38.5778 44.3882 38.9699 44.3882ZM38.9253 48.5942C39.2521 48.5942 39.5491 48.5199 39.8164 48.3714C40.0838 48.2169 40.2917 48.0001 40.4402 47.7209C40.5947 47.4417 40.6719 47.1239 40.6719 46.7674C40.6719 46.411 40.5947 46.0961 40.4402 45.8228C40.2917 45.5436 40.0838 45.3268 39.8164 45.1723C39.5491 45.0179 39.2521 44.9407 38.9253 44.9407C38.5927 44.9407 38.2927 45.0179 38.0253 45.1723C37.7639 45.3268 37.556 45.5436 37.4015 45.8228C37.253 46.0961 37.1788 46.411 37.1788 46.7674C37.1788 47.1239 37.253 47.4417 37.4015 47.7209C37.556 48.0001 37.7639 48.2169 38.0253 48.3714C38.2927 48.5199 38.5927 48.5942 38.9253 48.5942Z" fill="#373943"/>
<path d="M47.7254 44.4238V49.111H47.1462V45.404L45.2481 48.5407H44.963L43.0649 45.3951V49.111H42.4857V44.4238H43.1273L45.1145 47.8011L47.1373 44.4238H47.7254Z" fill="#373943"/>
<path d="M50.9605 44.3882C51.5724 44.3882 52.0417 44.5426 52.3684 44.8515C52.6952 45.1545 52.8585 45.606 52.8585 46.206V49.111H52.2526V48.3803C52.11 48.6239 51.8991 48.814 51.6199 48.9506C51.3466 49.0873 51.0199 49.1556 50.6397 49.1556C50.1169 49.1556 49.701 49.0308 49.3921 48.7813C49.0832 48.5318 48.9288 48.2021 48.9288 47.7922C48.9288 47.3942 49.0713 47.0734 49.3565 46.8298C49.6476 46.5862 50.108 46.4644 50.7377 46.4644H52.2258V46.1793C52.2258 45.7753 52.113 45.4694 51.8872 45.2614C51.6615 45.0476 51.3318 44.9407 50.8981 44.9407C50.6011 44.9407 50.3159 44.9911 50.0426 45.0921C49.7694 45.1872 49.5347 45.3209 49.3387 45.4931L49.0535 45.0209C49.2911 44.8189 49.5763 44.6644 49.909 44.5575C50.2417 44.4446 50.5922 44.3882 50.9605 44.3882ZM50.7377 48.6566C51.0941 48.6566 51.4001 48.5764 51.6555 48.416C51.911 48.2496 52.1011 48.012 52.2258 47.7031V46.9367H50.7555C49.9535 46.9367 49.5525 47.2159 49.5525 47.7744C49.5525 48.0476 49.6565 48.2645 49.8644 48.4249C50.0723 48.5793 50.3634 48.6566 50.7377 48.6566Z" fill="#373943"/>
<path d="M53.9992 46.4199H56.3339V46.9724H53.9992V46.4199Z" fill="#373943"/>
<path d="M61.7949 44.4238V49.111H61.1622V44.9852H58.2216V49.111H57.5889V44.4238H61.7949Z" fill="#373943"/>
<path d="M65.3489 49.1556C64.8974 49.1556 64.4905 49.0546 64.1281 48.8526C63.7657 48.6447 63.4805 48.3595 63.2726 47.9971C63.0647 47.6348 62.9607 47.2249 62.9607 46.7674C62.9607 46.31 63.0647 45.9001 63.2726 45.5377C63.4805 45.1753 63.7657 44.8931 64.1281 44.6911C64.4905 44.4892 64.8974 44.3882 65.3489 44.3882C65.8004 44.3882 66.2073 44.4892 66.5697 44.6911C66.9321 44.8931 67.2143 45.1753 67.4163 45.5377C67.6242 45.9001 67.7281 46.31 67.7281 46.7674C67.7281 47.2249 67.6242 47.6348 67.4163 47.9971C67.2143 48.3595 66.9321 48.6447 66.5697 48.8526C66.2073 49.0546 65.8004 49.1556 65.3489 49.1556ZM65.3489 48.5942C65.6816 48.5942 65.9786 48.5199 66.24 48.3714C66.5073 48.2169 66.7153 48.0001 66.8638 47.7209C67.0123 47.4417 67.0866 47.1239 67.0866 46.7674C67.0866 46.411 67.0123 46.0931 66.8638 45.8139C66.7153 45.5347 66.5073 45.3209 66.24 45.1723C65.9786 45.0179 65.6816 44.9407 65.3489 44.9407C65.0162 44.9407 64.7162 45.0179 64.4489 45.1723C64.1875 45.3209 63.9796 45.5347 63.8251 45.8139C63.6766 46.0931 63.6023 46.411 63.6023 46.7674C63.6023 47.1239 63.6766 47.4417 63.8251 47.7209C63.9796 48.0001 64.1875 48.2169 64.4489 48.3714C64.7162 48.5199 65.0162 48.5942 65.3489 48.5942Z" fill="#373943"/>
<path d="M74.1418 44.4238V49.111H73.5626V45.404L71.6645 48.5407H71.3794L69.4813 45.3951V49.111H68.9021V44.4238H69.5437L71.5309 47.8011L73.5537 44.4238H74.1418Z" fill="#373943"/>
<path d="M77.6977 49.1556C77.2462 49.1556 76.8392 49.0546 76.4769 48.8526C76.1145 48.6447 75.8293 48.3595 75.6214 47.9971C75.4135 47.6348 75.3095 47.2249 75.3095 46.7674C75.3095 46.31 75.4135 45.9001 75.6214 45.5377C75.8293 45.1753 76.1145 44.8931 76.4769 44.6911C76.8392 44.4892 77.2462 44.3882 77.6977 44.3882C78.1492 44.3882 78.5561 44.4892 78.9185 44.6911C79.2809 44.8931 79.563 45.1753 79.765 45.5377C79.973 45.9001 80.0769 46.31 80.0769 46.7674C80.0769 47.2249 79.973 47.6348 79.765 47.9971C79.563 48.3595 79.2809 48.6447 78.9185 48.8526C78.5561 49.0546 78.1492 49.1556 77.6977 49.1556ZM77.6977 48.5942C78.0303 48.5942 78.3274 48.5199 78.5888 48.3714C78.8561 48.2169 79.064 48.0001 79.2125 47.7209C79.3611 47.4417 79.4353 47.1239 79.4353 46.7674C79.4353 46.411 79.3611 46.0931 79.2125 45.8139C79.064 45.5347 78.8561 45.3209 78.5888 45.1723C78.3274 45.0179 78.0303 44.9407 77.6977 44.9407C77.365 44.9407 77.065 45.0179 76.7976 45.1723C76.5363 45.3209 76.3283 45.5347 76.1739 45.8139C76.0254 46.0931 75.9511 46.411 75.9511 46.7674C75.9511 47.1239 76.0254 47.4417 76.1739 47.7209C76.3283 48.0001 76.5363 48.2169 76.7976 48.3714C77.065 48.5199 77.365 48.5942 77.6977 48.5942Z" fill="#373943"/>
<path d="M87.7203 44.4238V49.111H81.2509V44.4238H81.8836V48.5585H84.1826V44.4238H84.8153V48.5585H87.0876V44.4238H87.7203ZM88.4421 48.5585V50.1358H87.8451V49.111H87.052V48.5585H88.4421Z" fill="#373943"/>
<path d="M89.3484 44.4238H89.9811V46.5001H92.9307V44.4238H93.5634V49.111H92.9307V47.0437H89.9811V49.111H89.3484V44.4238Z" fill="#373943"/>
<path d="M95.1834 44.4238H95.8161V48.1486L98.9439 44.4238H99.5053V49.111H98.8726V45.3862L95.7538 49.111H95.1834V44.4238Z" fill="#373943"/>
<path d="M102.842 47.0258H101.773V49.111H101.14V44.4238H101.773V46.4823H102.851L104.5 44.4238H105.186L103.341 46.6961L105.32 49.111H104.571L102.842 47.0258Z" fill="#373943"/>
<path d="M108.294 44.4238H108.927V46.5001H111.876V44.4238H112.509V49.111H111.876V47.0437H108.927V49.111H108.294V44.4238Z" fill="#373943"/>
<path d="M115.742 44.3882C116.354 44.3882 116.823 44.5426 117.15 44.8515C117.476 45.1545 117.64 45.606 117.64 46.206V49.111H117.034V48.3803C116.891 48.6239 116.68 48.814 116.401 48.9506C116.128 49.0873 115.801 49.1556 115.421 49.1556C114.898 49.1556 114.482 49.0308 114.173 48.7813C113.864 48.5318 113.71 48.2021 113.71 47.7922C113.71 47.3942 113.853 47.0734 114.138 46.8298C114.429 46.5862 114.889 46.4644 115.519 46.4644H117.007V46.1793C117.007 45.7753 116.894 45.4694 116.668 45.2614C116.443 45.0476 116.113 44.9407 115.679 44.9407C115.382 44.9407 115.097 44.9911 114.824 45.0921C114.551 45.1872 114.316 45.3209 114.12 45.4931L113.835 45.0209C114.072 44.8189 114.358 44.6644 114.69 44.5575C115.023 44.4446 115.373 44.3882 115.742 44.3882ZM115.519 48.6566C115.875 48.6566 116.181 48.5764 116.437 48.416C116.692 48.2496 116.882 48.012 117.007 47.7031V46.9367H115.537C114.735 46.9367 114.334 47.2159 114.334 47.7744C114.334 48.0476 114.438 48.2645 114.646 48.4249C114.854 48.5793 115.145 48.6566 115.519 48.6566Z" fill="#373943"/>
<path d="M128.126 45.9832C128.126 46.809 127.832 47.4595 127.243 47.9348C126.661 48.4041 125.844 48.6536 124.793 48.6833V49.3249H124.178V48.6833C123.127 48.6476 122.307 48.3952 121.719 47.9259C121.136 47.4565 120.845 46.809 120.845 45.9832C120.845 45.1575 121.136 44.51 121.719 44.0406C122.307 43.5713 123.127 43.3188 124.178 43.2832V42.6594H124.793V43.2832C125.838 43.3188 126.655 43.5743 127.243 44.0495C127.832 44.5189 128.126 45.1634 128.126 45.9832ZM124.793 48.1575C125.654 48.1219 126.32 47.9169 126.789 47.5427C127.258 47.1684 127.493 46.6486 127.493 45.9832C127.493 45.3179 127.255 44.7981 126.78 44.4238C126.311 44.0495 125.648 43.8476 124.793 43.8179V48.1575ZM121.478 45.9832C121.478 46.6486 121.713 47.1684 122.182 47.5427C122.657 47.911 123.323 48.116 124.178 48.1575V43.8179C123.311 43.8535 122.642 44.0585 122.173 44.4327C121.71 44.801 121.478 45.3179 121.478 45.9832Z" fill="#373943"/>
<path d="M131.227 49.1556C130.775 49.1556 130.368 49.0546 130.006 48.8526C129.643 48.6447 129.358 48.3595 129.15 47.9971C128.942 47.6348 128.838 47.2249 128.838 46.7674C128.838 46.31 128.942 45.9001 129.15 45.5377C129.358 45.1753 129.643 44.8931 130.006 44.6911C130.368 44.4892 130.775 44.3882 131.227 44.3882C131.678 44.3882 132.085 44.4892 132.447 44.6911C132.81 44.8931 133.092 45.1753 133.294 45.5377C133.502 45.9001 133.606 46.31 133.606 46.7674C133.606 47.2249 133.502 47.6348 133.294 47.9971C133.092 48.3595 132.81 48.6447 132.447 48.8526C132.085 49.0546 131.678 49.1556 131.227 49.1556ZM131.227 48.5942C131.559 48.5942 131.856 48.5199 132.118 48.3714C132.385 48.2169 132.593 48.0001 132.741 47.7209C132.89 47.4417 132.964 47.1239 132.964 46.7674C132.964 46.411 132.89 46.0931 132.741 45.8139C132.593 45.5347 132.385 45.3209 132.118 45.1723C131.856 45.0179 131.559 44.9407 131.227 44.9407C130.894 44.9407 130.594 45.0179 130.327 45.1723C130.065 45.3209 129.857 45.5347 129.703 45.8139C129.554 46.0931 129.48 46.411 129.48 46.7674C129.48 47.1239 129.554 47.4417 129.703 47.7209C129.857 48.0001 130.065 48.2169 130.327 48.3714C130.594 48.5199 130.894 48.5942 131.227 48.5942Z" fill="#373943"/>
<path d="M134.78 44.4238H135.413V46.5001H138.362V44.4238H138.995V49.111H138.362V47.0437H135.413V49.111H134.78V44.4238Z" fill="#373943"/>
<path d="M145.186 48.5585V50.2427H144.589V49.111H140.392V50.2427H139.795V48.5585H140.062C140.377 48.5407 140.591 48.309 140.704 47.8635C140.817 47.4179 140.894 46.7941 140.936 45.9922L140.998 44.4238H144.455V48.5585H145.186ZM141.515 46.0278C141.485 46.6932 141.429 47.2427 141.346 47.6763C141.262 48.1041 141.114 48.3981 140.9 48.5585H143.823V44.9852H141.568L141.515 46.0278Z" fill="#373943"/>
<path d="M148.175 49.1556C147.723 49.1556 147.316 49.0546 146.954 48.8526C146.591 48.6447 146.306 48.3595 146.098 47.9971C145.89 47.6348 145.787 47.2249 145.787 46.7674C145.787 46.31 145.89 45.9001 146.098 45.5377C146.306 45.1753 146.591 44.8931 146.954 44.6911C147.316 44.4892 147.723 44.3882 148.175 44.3882C148.626 44.3882 149.033 44.4892 149.395 44.6911C149.758 44.8931 150.04 45.1753 150.242 45.5377C150.45 45.9001 150.554 46.31 150.554 46.7674C150.554 47.2249 150.45 47.6348 150.242 47.9971C150.04 48.3595 149.758 48.6447 149.395 48.8526C149.033 49.0546 148.626 49.1556 148.175 49.1556ZM148.175 48.5942C148.507 48.5942 148.804 48.5199 149.066 48.3714C149.333 48.2169 149.541 48.0001 149.69 47.7209C149.838 47.4417 149.912 47.1239 149.912 46.7674C149.912 46.411 149.838 46.0931 149.69 45.8139C149.541 45.5347 149.333 45.3209 149.066 45.1723C148.804 45.0179 148.507 44.9407 148.175 44.9407C147.842 44.9407 147.542 45.0179 147.275 45.1723C147.013 45.3209 146.805 45.5347 146.651 45.8139C146.502 46.0931 146.428 46.411 146.428 46.7674C146.428 47.1239 146.502 47.4417 146.651 47.7209C146.805 48.0001 147.013 48.2169 147.275 48.3714C147.542 48.5199 147.842 48.5942 148.175 48.5942Z" fill="#373943"/>
<path d="M154.713 46.6872C155.349 46.8357 155.667 47.2189 155.667 47.8367C155.667 48.2467 155.515 48.5615 155.212 48.7813C154.909 49.0011 154.458 49.111 153.858 49.111H151.728V44.4238H153.795C154.33 44.4238 154.749 44.5278 155.052 44.7357C155.355 44.9436 155.506 45.2407 155.506 45.6268C155.506 45.8823 155.435 46.1021 155.292 46.2862C155.156 46.4644 154.963 46.5981 154.713 46.6872ZM152.343 46.509H153.751C154.113 46.509 154.389 46.4407 154.579 46.304C154.775 46.1674 154.873 45.9684 154.873 45.707C154.873 45.4456 154.775 45.2496 154.579 45.1189C154.389 44.9882 154.113 44.9228 153.751 44.9228H152.343V46.509ZM153.831 48.612C154.235 48.612 154.538 48.5467 154.74 48.416C154.942 48.2853 155.043 48.0803 155.043 47.8011C155.043 47.5219 154.951 47.3169 154.767 47.1862C154.582 47.0496 154.291 46.9813 153.893 46.9813H152.343V48.612H153.831Z" fill="#373943"/>
<path d="M158.905 49.1556C158.453 49.1556 158.046 49.0546 157.684 48.8526C157.322 48.6447 157.036 48.3595 156.829 47.9971C156.621 47.6348 156.517 47.2249 156.517 46.7674C156.517 46.31 156.621 45.9001 156.829 45.5377C157.036 45.1753 157.322 44.8931 157.684 44.6911C158.046 44.4892 158.453 44.3882 158.905 44.3882C159.356 44.3882 159.763 44.4892 160.126 44.6911C160.488 44.8931 160.77 45.1753 160.972 45.5377C161.18 45.9001 161.284 46.31 161.284 46.7674C161.284 47.2249 161.18 47.6348 160.972 47.9971C160.77 48.3595 160.488 48.6447 160.126 48.8526C159.763 49.0546 159.356 49.1556 158.905 49.1556ZM158.905 48.5942C159.238 48.5942 159.535 48.5199 159.796 48.3714C160.063 48.2169 160.271 48.0001 160.42 47.7209C160.568 47.4417 160.642 47.1239 160.642 46.7674C160.642 46.411 160.568 46.0931 160.42 45.8139C160.271 45.5347 160.063 45.3209 159.796 45.1723C159.535 45.0179 159.238 44.9407 158.905 44.9407C158.572 44.9407 158.272 45.0179 158.005 45.1723C157.743 45.3209 157.535 45.5347 157.381 45.8139C157.233 46.0931 157.158 46.411 157.158 46.7674C157.158 47.1239 157.233 47.4417 157.381 47.7209C157.535 48.0001 157.743 48.2169 158.005 48.3714C158.272 48.5199 158.572 48.5942 158.905 48.5942Z" fill="#373943"/>
<path d="M167.698 44.4238V49.111H167.119V45.404L165.22 48.5407H164.935L163.037 45.3951V49.111H162.458V44.4238H163.1L165.087 47.8011L167.11 44.4238H167.698Z" fill="#373943"/>
<path d="M173.889 44.3882C174.328 44.3882 174.726 44.4892 175.083 44.6911C175.439 44.8872 175.719 45.1664 175.92 45.5288C176.122 45.8912 176.223 46.304 176.223 46.7674C176.223 47.2367 176.122 47.6526 175.92 48.015C175.719 48.3773 175.439 48.6595 175.083 48.8615C174.732 49.0576 174.334 49.1556 173.889 49.1556C173.509 49.1556 173.164 49.0783 172.855 48.9239C172.552 48.7635 172.303 48.5318 172.107 48.2288V50.8398H171.474V44.4238H172.08V45.3506C172.27 45.0416 172.519 44.804 172.828 44.6377C173.143 44.4713 173.497 44.3882 173.889 44.3882ZM173.844 48.5942C174.171 48.5942 174.468 48.5199 174.735 48.3714C175.003 48.2169 175.211 48.0001 175.359 47.7209C175.514 47.4417 175.591 47.1239 175.591 46.7674C175.591 46.411 175.514 46.0961 175.359 45.8228C175.211 45.5436 175.003 45.3268 174.735 45.1723C174.468 45.0179 174.171 44.9407 173.844 44.9407C173.512 44.9407 173.212 45.0179 172.944 45.1723C172.683 45.3268 172.475 45.5436 172.32 45.8228C172.172 46.0961 172.098 46.411 172.098 46.7674C172.098 47.1239 172.172 47.4417 172.32 47.7209C172.475 48.0001 172.683 48.2169 172.944 48.3714C173.212 48.5199 173.512 48.5942 173.844 48.5942Z" fill="#373943"/>
<path d="M179.374 46.0813C179.962 46.0872 180.411 46.2179 180.72 46.4734C181.028 46.7288 181.183 47.0971 181.183 47.5783C181.183 48.0773 181.017 48.4605 180.684 48.7278C180.351 48.9952 179.876 49.1259 179.258 49.1199L177.405 49.111V44.4238H178.037V46.0634L179.374 46.0813ZM181.967 44.4238H182.6V49.111H181.967V44.4238ZM179.222 48.6387C179.656 48.6447 179.983 48.5585 180.203 48.3803C180.428 48.1962 180.541 47.9288 180.541 47.5783C180.541 47.2338 180.431 46.9783 180.212 46.812C179.992 46.6456 179.662 46.5595 179.222 46.5536L178.037 46.5357V48.6209L179.222 48.6387Z" fill="#373943"/>
<path d="M184.223 44.4238H184.856V46.5001H187.805V44.4238H188.438V49.111H187.805V47.0437H184.856V49.111H184.223V44.4238Z" fill="#373943"/>
<path d="M191.76 47.0258H190.691V49.111H190.058V44.4238H190.691V46.4823H191.769L193.417 44.4238H194.104L192.259 46.6961L194.237 49.111H193.489L191.76 47.0258Z" fill="#373943"/>
<path d="M198.991 46.9635H195.07C195.106 47.4506 195.293 47.8457 195.632 48.1486C195.97 48.4457 196.398 48.5942 196.915 48.5942C197.206 48.5942 197.473 48.5437 197.717 48.4427C197.961 48.3358 198.171 48.1813 198.35 47.9793L198.706 48.3892C198.498 48.6387 198.237 48.8288 197.922 48.9595C197.613 49.0902 197.271 49.1556 196.897 49.1556C196.416 49.1556 195.988 49.0546 195.614 48.8526C195.246 48.6447 194.958 48.3595 194.75 47.9971C194.542 47.6348 194.438 47.2249 194.438 46.7674C194.438 46.31 194.536 45.9001 194.732 45.5377C194.934 45.1753 195.207 44.8931 195.552 44.6911C195.902 44.4892 196.294 44.3882 196.728 44.3882C197.162 44.3882 197.551 44.4892 197.895 44.6911C198.24 44.8931 198.51 45.1753 198.706 45.5377C198.902 45.8941 199 46.304 199 46.7674L198.991 46.9635ZM196.728 44.9317C196.276 44.9317 195.896 45.0773 195.587 45.3684C195.284 45.6535 195.112 46.0278 195.07 46.4912H198.394C198.353 46.0278 198.177 45.6535 197.868 45.3684C197.565 45.0773 197.185 44.9317 196.728 44.9317Z" fill="#373943"/>
</svg>
