<svg width="64" height="64" viewBox="0 0 64 64" fill="none" xmlns="http://www.w3.org/2000/svg">
<circle cx="32" cy="32" r="32" fill="#FCE8EB"/>
<path d="M33.3926 36.5625H27.2388C26.2187 36.5625 25.3926 37.3892 25.3926 38.4087C25.3926 39.4282 26.2187 40.2549 27.2388 40.2549H30.3154V42.7163C30.3154 43.7358 31.1421 44.5625 32.1616 44.5625C33.1812 44.5625 34.0078 43.7358 34.0078 42.7163V40.2202C36.7729 39.9126 38.9307 37.5625 38.9307 34.7163V32.8701C38.9307 31.8506 38.1045 31.0244 37.0845 31.0244H29.0845C29.0845 30.0063 29.9131 29.1782 30.9307 29.1782H37.0845C38.1045 29.1782 38.9307 28.3516 38.9307 27.332C38.9307 26.3125 38.1045 25.4858 37.0845 25.4858H34.0078V23.0244C34.0078 22.0044 33.1812 21.1782 32.1616 21.1782C31.1421 21.1782 30.3154 22.0044 30.3154 23.0244V25.5205C27.5503 25.8281 25.3926 28.1782 25.3926 31.0244V32.8701C25.3926 33.8901 26.2187 34.7163 27.2388 34.7163H35.2388C35.2388 35.7344 34.4102 36.5625 33.3926 36.5625Z" fill="#3E54D8"/>
</svg>
