<svg width="40" height="40" viewBox="0 0 40 40" fill="none" xmlns="http://www.w3.org/2000/svg">
<rect x="0.5" y="0.5" width="39" height="39" rx="7.5" fill="white" stroke="#E6EEFF"/>
<g clip-path="url(#clip0_101_4760)">
<path d="M27.2252 13.0782C25.3376 11.1079 22.7258 9.99597 19.9972 10.001C14.4829 9.99405 10.007 14.4586 10 19.973C9.99661 22.6996 11.1084 25.309 13.0773 27.1953C13.083 27.201 13.0852 27.2096 13.0908 27.2146C13.1487 27.2703 13.2115 27.3174 13.2701 27.371C13.4307 27.5138 13.5914 27.6616 13.7606 27.7994C13.8513 27.8709 13.9456 27.9422 14.0384 28.0079C14.1984 28.1272 14.3583 28.2464 14.5254 28.3564C14.6389 28.4278 14.756 28.4992 14.8724 28.5706C15.0266 28.6634 15.1802 28.757 15.3394 28.8419C15.4744 28.9134 15.6121 28.9747 15.7492 29.0397C15.8992 29.1111 16.047 29.1825 16.2005 29.2468C16.354 29.311 16.5083 29.361 16.6639 29.4167C16.8196 29.4724 16.9538 29.5238 17.1031 29.5695C17.2716 29.6202 17.4444 29.6595 17.6158 29.7016C17.7586 29.7366 17.8971 29.7766 18.0442 29.8051C18.2413 29.8444 18.4412 29.8694 18.6412 29.8966C18.7647 29.9137 18.8854 29.938 19.0103 29.9501C19.3374 29.9823 19.6672 30.0001 20 30.0001C20.3327 30.0001 20.6626 29.9823 20.9896 29.9501C21.1146 29.938 21.2352 29.9137 21.3588 29.8966C21.5587 29.8694 21.7586 29.8444 21.9557 29.8051C22.0985 29.7766 22.2413 29.7337 22.3841 29.7016C22.5555 29.6595 22.7283 29.6202 22.8968 29.5695C23.0461 29.5238 23.1903 29.4681 23.336 29.4167C23.4817 29.3653 23.6473 29.3096 23.7994 29.2468C23.9515 29.1839 24.1007 29.1104 24.2507 29.0397C24.3878 28.9747 24.5256 28.9133 24.6605 28.8419C24.8198 28.757 24.9733 28.6634 25.1275 28.5706C25.2439 28.4992 25.361 28.4342 25.4745 28.3564C25.6416 28.2464 25.8016 28.1272 25.9615 28.0079C26.0543 27.9365 26.1486 27.8722 26.2393 27.7994C26.4085 27.6637 26.5692 27.5195 26.7298 27.371C26.7884 27.3174 26.8512 27.2703 26.9091 27.2146C26.9148 27.2096 26.9169 27.2011 26.9226 27.1953C30.9046 23.3805 31.04 17.0601 27.2252 13.0782ZM25.6203 26.4477C25.4904 26.562 25.3561 26.6705 25.2205 26.7755C25.1405 26.8369 25.0605 26.8976 24.9784 26.9561C24.8492 27.0497 24.7178 27.1382 24.5842 27.2232C24.4871 27.2853 24.3879 27.3453 24.2879 27.4038C24.1622 27.4753 24.0344 27.5466 23.9052 27.6181C23.7909 27.6766 23.6745 27.7316 23.5574 27.7859C23.4404 27.8401 23.3111 27.898 23.1847 27.9487C23.0583 27.9994 22.9241 28.0472 22.7919 28.0915C22.6713 28.1329 22.5506 28.1757 22.4285 28.2121C22.2857 28.255 22.1365 28.29 21.9886 28.3257C21.873 28.3528 21.7587 28.3835 21.6416 28.4064C21.4724 28.4392 21.2996 28.4621 21.1261 28.4856C21.0276 28.4985 20.9297 28.5163 20.8305 28.5263C20.5562 28.5527 20.2785 28.5685 19.9979 28.5685C19.7172 28.5685 19.4395 28.5528 19.1653 28.5263C19.066 28.5163 18.9682 28.4985 18.8696 28.4856C18.6961 28.4621 18.5233 28.4392 18.3541 28.4064C18.237 28.3835 18.1227 28.3528 18.0071 28.3257C17.8593 28.29 17.7122 28.2543 17.5672 28.2121C17.4451 28.1757 17.3244 28.1329 17.2038 28.0915C17.0717 28.0458 16.9396 27.9993 16.811 27.9487C16.6825 27.898 16.5611 27.8423 16.4383 27.7859C16.3155 27.7295 16.2048 27.6766 16.0906 27.6181C15.9613 27.551 15.8335 27.4802 15.7078 27.4038C15.6079 27.3453 15.5086 27.2853 15.4115 27.2232C15.278 27.1382 15.1466 27.0497 15.0173 26.9561C14.9352 26.8976 14.8552 26.8369 14.7752 26.7755C14.6396 26.6705 14.5053 26.5613 14.3754 26.4477C14.344 26.4241 14.3154 26.3941 14.2847 26.367C14.3166 23.938 15.8771 21.7931 18.1785 21.0152C19.3292 21.5625 20.6652 21.5625 21.8158 21.0152C24.1172 21.7931 25.6776 23.9379 25.7096 26.367C25.6796 26.3941 25.651 26.4213 25.6203 26.4477ZM17.5072 15.7261C18.2803 14.3512 20.0217 13.8633 21.3967 14.6364C22.7717 15.4096 23.2596 17.1509 22.4864 18.5259C22.2299 18.9821 21.853 19.3591 21.3967 19.6157C21.3931 19.6157 21.3888 19.6157 21.3846 19.6199C21.1952 19.7253 20.9951 19.8101 20.7876 19.8727C20.7505 19.8834 20.7162 19.8977 20.677 19.907C20.6055 19.9256 20.5306 19.9384 20.457 19.9512C20.3185 19.9755 20.1784 19.9895 20.0379 19.9934H19.9564C19.8159 19.9895 19.6758 19.9755 19.5373 19.9512C19.4659 19.9384 19.3902 19.9256 19.3174 19.907C19.2795 19.8977 19.246 19.8834 19.2067 19.8727C18.9993 19.8101 18.7991 19.7254 18.6098 19.6199L18.5969 19.6157C17.2219 18.8425 16.7341 17.1011 17.5072 15.7261ZM26.9763 24.9511C26.5181 22.8138 25.1107 21.0019 23.1533 20.0292C24.7534 18.2861 24.6375 15.5759 22.8945 13.9758C21.1514 12.3756 18.4412 12.4915 16.8411 14.2346C15.3368 15.8733 15.3368 18.3905 16.8411 20.0292C14.8836 21.0019 13.4763 22.8138 13.018 24.9511C10.2799 21.0942 11.1868 15.748 15.0437 13.0099C18.9005 10.2718 24.2468 11.1787 26.9849 15.0355C28.0142 16.4854 28.5667 18.2196 28.5658 19.9977C28.5658 21.7742 28.01 23.5062 26.9763 24.9511Z" fill="#3E54D8"/>
</g>
<defs>
<clipPath id="clip0_101_4760">
<rect width="20" height="20" fill="white" transform="translate(10 10)"/>
</clipPath>
</defs>
</svg>
