<svg width="20" height="20" viewBox="0 0 20 20" fill="none" xmlns="http://www.w3.org/2000/svg">
<g clip-path="url(#clip0_101_8559)">
<path d="M17.2252 3.07824C15.3376 1.10793 12.7258 -0.00402718 9.99712 0.000993491C4.48284 -0.00595177 0.00695317 4.45864 7.91637e-06 9.97296C-0.00342287 12.6996 1.1084 15.309 3.07726 17.1953C3.08299 17.201 3.08513 17.2096 3.09082 17.2146C3.14864 17.2703 3.21148 17.3174 3.27005 17.371C3.43071 17.5138 3.59138 17.6616 3.76061 17.7994C3.85128 17.8709 3.94554 17.9422 4.03838 18.0079C4.19833 18.1272 4.35828 18.2464 4.52535 18.3564C4.6389 18.4278 4.756 18.4992 4.87236 18.5706C5.02658 18.6634 5.18012 18.757 5.33936 18.8419C5.47434 18.9134 5.61211 18.9747 5.74922 19.0397C5.89917 19.1111 6.04699 19.1825 6.20049 19.2468C6.354 19.311 6.50826 19.361 6.6639 19.4167C6.81954 19.4724 6.9538 19.5238 7.10304 19.5695C7.27157 19.6202 7.44436 19.6595 7.61573 19.7016C7.75853 19.7366 7.89706 19.7766 8.04416 19.8051C8.24123 19.8444 8.44117 19.8694 8.64112 19.8966C8.76467 19.9137 8.88534 19.938 9.01027 19.9501C9.33732 19.9823 9.66718 20.0001 9.99992 20.0001C10.3327 20.0001 10.6626 19.9823 10.9896 19.9501C11.1146 19.938 11.2352 19.9137 11.3587 19.8966C11.5587 19.8694 11.7586 19.8444 11.9557 19.8051C12.0985 19.7766 12.2413 19.7337 12.3841 19.7016C12.5555 19.6595 12.7283 19.6202 12.8968 19.5695C13.046 19.5238 13.1903 19.4681 13.3359 19.4167C13.4816 19.3653 13.6473 19.3096 13.7994 19.2468C13.9514 19.1839 14.1007 19.1104 14.2506 19.0397C14.3877 18.9747 14.5256 18.9133 14.6605 18.8419C14.8197 18.757 14.9732 18.6634 15.1275 18.5706C15.2439 18.4992 15.361 18.4342 15.4745 18.3564C15.6416 18.2464 15.8016 18.1272 15.9615 18.0079C16.0543 17.9365 16.1485 17.8722 16.2392 17.7994C16.4085 17.6637 16.5691 17.5195 16.7298 17.371C16.7883 17.3174 16.8512 17.2703 16.909 17.2146C16.9147 17.2096 16.9169 17.2011 16.9226 17.1953C20.9046 13.3805 21.04 7.0601 17.2252 3.07824ZM15.6203 16.4477C15.4904 16.562 15.3561 16.6705 15.2205 16.7755C15.1405 16.8369 15.0605 16.8976 14.9784 16.9561C14.8491 17.0497 14.7178 17.1382 14.5842 17.2232C14.4871 17.2853 14.3879 17.3453 14.2879 17.4038C14.1622 17.4753 14.0344 17.5466 13.9051 17.6181C13.7909 17.6766 13.6745 17.7316 13.5574 17.7859C13.4403 17.8401 13.3111 17.898 13.1847 17.9487C13.0583 17.9994 12.924 18.0472 12.7919 18.0915C12.6713 18.1329 12.5506 18.1757 12.4285 18.2121C12.2857 18.255 12.1364 18.29 11.9886 18.3257C11.8729 18.3528 11.7587 18.3835 11.6416 18.4064C11.4724 18.4392 11.2996 18.4621 11.1261 18.4856C11.0275 18.4985 10.9297 18.5163 10.8304 18.5263C10.5562 18.5527 10.2784 18.5685 9.99783 18.5685C9.71722 18.5685 9.43945 18.5528 9.16524 18.5263C9.066 18.5163 8.96818 18.4985 8.86961 18.4856C8.6961 18.4621 8.5233 18.4392 8.35407 18.4064C8.23696 18.3835 8.1227 18.3528 8.00705 18.3257C7.85924 18.29 7.71213 18.2543 7.5672 18.2121C7.44512 18.1757 7.32441 18.1329 7.20375 18.0915C7.07166 18.0458 6.93953 17.9993 6.81101 17.9487C6.68248 17.898 6.5611 17.8423 6.43826 17.7859C6.31542 17.7295 6.20476 17.6766 6.09054 17.6181C5.9613 17.551 5.83348 17.4802 5.7078 17.4038C5.60784 17.3453 5.50856 17.2853 5.41145 17.2232C5.27794 17.1382 5.14653 17.0497 5.01729 16.9561C4.93516 16.8976 4.8552 16.8369 4.77521 16.7755C4.63952 16.6705 4.5053 16.5613 4.37535 16.4477C4.34393 16.4241 4.31536 16.3941 4.28469 16.367C4.31661 13.938 5.87708 11.7931 8.17843 11.0152C9.32912 11.5625 10.6651 11.5625 11.8158 11.0152C14.1171 11.7931 15.6776 13.9379 15.7096 16.367C15.6796 16.3941 15.651 16.4213 15.6203 16.4477ZM7.50716 5.72615C8.2803 4.35115 10.0217 3.86327 11.3967 4.63641C12.7717 5.40955 13.2596 7.15093 12.4864 8.52592C12.2299 8.98213 11.8529 9.3591 11.3967 9.61566C11.3931 9.61566 11.3888 9.61566 11.3845 9.61993C11.1952 9.72532 10.9951 9.81008 10.7876 9.87272C10.7505 9.88343 10.7162 9.89769 10.6769 9.90698C10.6055 9.92556 10.5305 9.9384 10.457 9.95125C10.3185 9.97547 10.1784 9.98953 10.0378 9.99338H9.95641C9.81588 9.98953 9.67576 9.97547 9.53727 9.95125C9.46585 9.9384 9.39016 9.92556 9.31736 9.90698C9.2795 9.89769 9.24595 9.88343 9.2067 9.87272C8.99922 9.81008 8.79911 9.72536 8.60974 9.61993L8.5969 9.61566C7.22191 8.84252 6.73402 7.10114 7.50716 5.72615ZM16.9763 14.9511C16.518 12.8138 15.1107 11.0019 13.1532 10.0292C14.7534 8.2861 14.6375 5.5759 12.8944 3.97577C11.1514 2.37564 8.44117 2.49154 6.84105 4.23459C5.33677 5.87325 5.33677 8.39053 6.84105 10.0292C4.88361 11.0019 3.47624 12.8138 3.01802 14.9511C0.27991 11.0942 1.18681 5.74799 5.04365 3.00988C8.90048 0.271775 14.2467 1.17868 16.9848 5.03551C18.0141 6.48535 18.5667 8.21962 18.5658 9.99769C18.5658 11.7742 18.01 13.5062 16.9763 14.9511Z" fill="#3E54D8"/>
</g>
<defs>
<clipPath id="clip0_101_8559">
<rect width="20" height="20" fill="white"/>
</clipPath>
</defs>
</svg>
