<svg width="61" height="58" viewBox="0 0 61 58" fill="none" xmlns="http://www.w3.org/2000/svg">
<path opacity="0.1" d="M61 23C61 35.7025 50.7025 46 38 46L15 46L15 -2.06751e-07L38 1.80397e-06C50.7026 2.91447e-06 61 10.2975 61 23Z" fill="#F3B63F"/>
<path d="M39.6875 57.125H2.3125C1.93125 57.125 1.56562 56.9735 1.29603 56.704C1.02645 56.4344 0.875 56.0687 0.875 55.6875V18.3125C0.875 17.9313 1.02645 17.5656 1.29603 17.296C1.56562 17.0265 1.93125 16.875 2.3125 16.875C2.69375 16.875 3.05938 17.0265 3.32897 17.296C3.59855 17.5656 3.75 17.9313 3.75 18.3125V54.25H39.6875C40.0687 54.25 40.4344 54.4015 40.704 54.671C40.9735 54.9406 41.125 55.3063 41.125 55.6875C41.125 56.0687 40.9735 56.4344 40.704 56.704C40.4344 56.9735 40.0687 57.125 39.6875 57.125Z" fill="#373943"/>
<path d="M41.0098 22.0787C40.902 21.8162 40.7189 21.5915 40.4835 21.4329C40.2482 21.2743 39.9711 21.1889 39.6873 21.1875H33.9373C33.5561 21.1875 33.1904 21.339 32.9209 21.6085C32.6513 21.8781 32.4998 22.2438 32.4998 22.625C32.4998 23.0062 32.6513 23.3719 32.9209 23.6415C33.1904 23.911 33.5561 24.0625 33.9373 24.0625H36.223L26.1605 34.125H13.8123C13.5244 34.1247 13.2431 34.2109 13.0047 34.3724C12.7664 34.5338 12.582 34.7632 12.4755 35.0306L6.72545 49.4056C6.65561 49.5812 6.62102 49.7688 6.62368 49.9577C6.62633 50.1466 6.66617 50.3332 6.74092 50.5067C6.81567 50.6802 6.92387 50.8374 7.05934 50.9691C7.19481 51.1008 7.35489 51.2045 7.53045 51.2744C7.70601 51.3442 7.89361 51.3788 8.08254 51.3762C8.27147 51.3735 8.45802 51.3337 8.63155 51.2589C8.80508 51.1842 8.96219 51.076 9.0939 50.9405C9.22561 50.805 9.32936 50.6449 9.3992 50.4694L14.7898 37H26.7498C26.939 37.0011 27.1266 36.9648 27.3017 36.8933C27.4768 36.8218 27.6361 36.7164 27.7705 36.5831L38.2498 26.0894V28.375C38.2498 28.7562 38.4013 29.1219 38.6709 29.3915C38.9404 29.661 39.3061 29.8125 39.6873 29.8125C40.0686 29.8125 40.4342 29.661 40.7038 29.3915C40.9734 29.1219 41.1248 28.7562 41.1248 28.375V22.625C41.1226 22.4372 41.0835 22.2516 41.0098 22.0787Z" fill="#F3B63F"/>
</svg>
