<svg width="62" height="59" viewBox="0 0 62 59" fill="none" xmlns="http://www.w3.org/2000/svg">
<path d="M15.9375 36.3534V34.7597C15.9322 34.5739 15.8944 34.3905 15.8259 34.2178C15.7722 34.0925 15.7025 33.9747 15.6188 33.8672L9.24375 25.8984C9.09441 25.7123 8.90518 25.562 8.69002 25.4588C8.47486 25.3556 8.23927 25.302 8.00062 25.302C7.76198 25.302 7.52639 25.3556 7.31123 25.4588C7.09607 25.562 6.90684 25.7123 6.7575 25.8984L0.3825 33.8672C0.298727 33.9747 0.229096 34.0925 0.175312 34.2178C0.0848138 34.3864 0.0254284 34.57 0 34.7597C0 34.7597 0 34.7597 0 34.7597V36.3534C0 38.4669 0.839562 40.4938 2.33399 41.9882C3.82842 43.4826 5.85531 44.3222 7.96875 44.3222C10.0822 44.3222 12.1091 43.4826 13.6035 41.9882C15.0979 40.4938 15.9375 38.4669 15.9375 36.3534ZM7.96875 29.3409L11.0288 33.1659H4.90875L7.96875 29.3409ZM7.96875 41.1347C6.70068 41.1347 5.48455 40.6309 4.5879 39.7343C3.69124 38.8376 3.1875 37.6215 3.1875 36.3534H12.75C12.75 37.6215 12.2463 38.8376 11.3496 39.7343C10.4529 40.6309 9.23682 41.1347 7.96875 41.1347Z" fill="#373943"/>
<path d="M44.625 28.3847C44.6197 28.1989 44.5819 28.0155 44.5134 27.8428C44.4597 27.7175 44.39 27.5997 44.3062 27.4922L37.9312 19.5234C37.7819 19.3373 37.5927 19.187 37.3775 19.0838C37.1624 18.9806 36.9268 18.927 36.6881 18.927C36.4495 18.927 36.2139 18.9806 35.9987 19.0838C35.7836 19.187 35.5943 19.3373 35.445 19.5234L29.07 27.4922C28.9862 27.5997 28.9166 27.7175 28.8628 27.8428C28.7723 28.0114 28.7129 28.195 28.6875 28.3847V29.9784C28.6875 32.0919 29.5271 34.1188 31.0215 35.6132C32.5159 37.1076 34.5428 37.9472 36.6562 37.9472C38.7697 37.9472 40.7966 37.1076 42.291 35.6132C43.7854 34.1188 44.625 32.0919 44.625 29.9784V28.3847ZM36.6562 22.9659L39.7163 26.7909H33.5963L36.6562 22.9659ZM36.6562 34.7597C35.3882 34.7597 34.1721 34.2559 33.2754 33.3593C32.3787 32.4626 31.875 31.2465 31.875 29.9784H41.4375C41.4375 31.2465 40.9338 32.4626 40.0371 33.3593C39.1404 34.2559 37.9243 34.7597 36.6562 34.7597Z" fill="#3E54D8"/>
<path d="M30.2812 55.4783H14.3438C13.9211 55.4783 13.5157 55.6462 13.2168 55.9451C12.9179 56.244 12.75 56.6493 12.75 57.072C12.75 57.4947 12.9179 57.9001 13.2168 58.199C13.5157 58.4979 13.9211 58.6658 14.3438 58.6658H30.2812C30.7039 58.6658 31.1093 58.4979 31.4082 58.199C31.7071 57.9001 31.875 57.4947 31.875 57.072C31.875 56.6493 31.7071 56.244 31.4082 55.9451C31.1093 55.6462 30.7039 55.4783 30.2812 55.4783Z" fill="#373943"/>
<path d="M7.96862 23.6033H8.31925L18.2802 21.388C18.8555 22.2845 19.7137 22.9632 20.7186 23.3165V50.6971H19.1249C18.7022 50.6971 18.2968 50.865 17.9979 51.1639C17.699 51.4628 17.5311 51.8682 17.5311 52.2908C17.5311 52.7135 17.699 53.1189 17.9979 53.4178C18.2968 53.7167 18.7022 53.8846 19.1249 53.8846H25.4999C25.9226 53.8846 26.3279 53.7167 26.6268 53.4178C26.9257 53.1189 27.0936 52.7135 27.0936 52.2908C27.0936 51.8682 26.9257 51.4628 26.6268 51.1639C26.3279 50.865 25.9226 50.6971 25.4999 50.6971H23.9061V23.3165C24.7484 23.0271 25.493 22.5082 26.0562 21.8183C26.6194 21.1284 26.9787 20.2949 27.0936 19.4118L37.0067 17.2283C37.216 17.1833 37.4144 17.0976 37.5906 16.9759C37.7667 16.8542 37.9172 16.6991 38.0333 16.5193C38.1495 16.3394 38.2291 16.1385 38.2677 15.9279C38.3062 15.7173 38.3028 15.5012 38.2578 15.2919C38.2128 15.0826 38.1271 14.8843 38.0054 14.7081C37.8837 14.532 37.7286 14.3815 37.5487 14.2653C37.3689 14.1492 37.168 14.0696 36.9574 14.031C36.7468 13.9925 36.5307 13.9958 36.3214 14.0408L26.3605 16.288C25.8415 15.4388 25.0704 14.7726 24.1547 14.3825C23.2391 13.9925 22.2245 13.8978 21.2525 14.1119C20.2805 14.3259 19.3995 14.838 18.7324 15.5766C18.0653 16.3153 17.6454 17.2437 17.5311 18.2324L7.618 20.4158C7.19531 20.4623 6.8084 20.6748 6.54239 21.0066C6.27639 21.3384 6.15306 21.7622 6.19956 22.1849C6.24606 22.6076 6.45856 22.9945 6.79032 23.2605C7.12209 23.5265 7.54593 23.6498 7.96862 23.6033ZM22.3124 17.2283C22.6276 17.2283 22.9357 17.3218 23.1978 17.4969C23.4599 17.6721 23.6642 17.921 23.7848 18.2122C23.9054 18.5034 23.937 18.8239 23.8755 19.133C23.814 19.4422 23.6622 19.7262 23.4393 19.949C23.2164 20.1719 22.9325 20.3237 22.6233 20.3852C22.3141 20.4467 21.9937 20.4152 21.7025 20.2945C21.4113 20.1739 21.1623 19.9696 20.9872 19.7075C20.8121 19.4454 20.7186 19.1373 20.7186 18.8221C20.7186 18.3994 20.8865 17.994 21.1854 17.6951C21.4843 17.3963 21.8897 17.2283 22.3124 17.2283Z" fill="#373943"/>
<circle opacity="0.1" cx="37.5" cy="24.5" r="24.5" fill="#3E54D8"/>
</svg>
