<svg width="70" height="70" viewBox="0 0 70 70" fill="none" xmlns="http://www.w3.org/2000/svg">
<rect width="70" height="70" rx="15" fill="#E0DCEF"/>
<path d="M23 24.6504H42.5H45.5V23.1504C45.5 22.3254 44.825 21.6504 44 21.6504H21.5C20.675 21.6504 20 22.3254 20 23.1504V40.4004C20 41.2254 20.675 41.9004 21.5 41.9004H30.35L29.825 44.9004H27.05C26.45 44.9004 25.925 45.4254 25.925 46.0254C25.925 46.6254 26.45 47.1504 27.05 47.1504H34.55V38.9004H23V24.6504ZM47.75 26.6004H39.5C37.85 26.6004 36.5 27.9504 36.5 29.6004V46.1004C36.5 47.7504 37.85 49.1004 39.5 49.1004H47.75C49.4 49.1004 50.75 47.7504 50.75 46.1004V29.6004C50.75 27.8754 49.4 26.6004 47.75 26.6004ZM44.15 47.1504H43.025C42.425 47.1504 41.9 46.6254 41.9 46.0254C41.9 45.4254 42.425 44.9004 43.025 44.9004H44.15C44.75 44.9004 45.275 45.4254 45.275 46.0254C45.275 46.7004 44.825 47.1504 44.15 47.1504ZM48.35 42.5754C48.35 43.0254 48.05 43.3254 47.6 43.3254H39.65C39.2 43.3254 38.9 43.0254 38.9 42.5754V30.5004C38.9 30.0504 39.2 29.7504 39.65 29.7504H47.6C48.05 29.7504 48.35 30.0504 48.35 30.5004V42.5754Z" fill="#DE4355"/>
</svg>
