<svg width="120" height="120" viewBox="0 0 120 120" fill="none" xmlns="http://www.w3.org/2000/svg">
<path d="M93 62.4219L90.6834 50.3044C90.1488 47.4533 87.6541 45.4931 84.8029 45.4931H79.8134C76.9622 45.4931 74.4674 47.4533 73.9328 50.3044C74.111 50.839 74.2892 51.3736 74.2892 51.9082L76.9622 66.5204C77.3186 68.3024 76.9622 69.9062 76.2494 71.5099C76.2494 71.5099 76.2494 71.51 76.2494 71.6882L77.1404 82.9146C77.3186 84.5184 78.566 85.5876 80.1698 85.5876H84.2683C85.8721 85.5876 87.1195 84.3402 87.2977 82.9146L88.1887 71.6882C88.1887 71.1536 88.3669 70.619 88.7233 70.2626L92.4654 64.9166C92.8218 64.0256 93 63.3128 93 62.4219ZM37.9369 41.2163C41.8572 41.2163 44.8866 38.0088 44.8866 34.2666C44.8866 30.3463 41.6791 27.3169 37.9369 27.3169C34.0165 27.3169 30.9872 30.5245 30.9872 34.2666C30.9872 38.0088 34.0165 41.2163 37.9369 41.2163ZM82.4863 41.2163C86.4067 41.2163 89.436 38.0088 89.436 34.2666C89.436 30.3463 86.2285 27.3169 82.4863 27.3169C78.566 27.3169 75.5366 30.5245 75.5366 34.2666C75.5366 38.0088 78.566 41.2163 82.4863 41.2163ZM40.2534 45.3149H35.2639C32.4128 45.3149 29.918 47.2751 29.3834 50.1262L27.0668 62.2437C26.8886 62.9565 27.0668 63.8475 27.6014 64.5602L31.3436 69.9062C31.7 70.2626 31.8782 70.7971 31.8782 71.3317L32.7691 82.5582C32.9473 84.162 34.1947 85.2312 35.7985 85.2312H39.8971C41.5008 85.2312 42.7482 83.9838 42.9264 82.5582L43.8174 71.3317C43.8174 71.3317 43.8174 71.3318 43.8174 71.1536C43.1046 69.5498 42.7482 67.946 43.1046 66.164L45.7776 51.5518C45.9558 51.0172 45.9558 50.4826 46.134 49.948C45.5994 47.4532 43.1046 45.3149 40.2534 45.3149Z" fill="#ED6373"/>
<path d="M60.2115 41.7506C64.8447 41.7506 68.5868 38.0085 68.5868 33.3753C68.5868 28.7422 64.8447 25 60.2115 25C55.5784 25 51.8362 28.7422 51.8362 33.3753C51.8362 38.0085 55.5784 41.7506 60.2115 41.7506ZM72.6854 67.2329L70.0124 52.6207C69.2996 49.2349 66.4484 46.7402 63.0627 46.7402H57.004C53.6182 46.7402 50.5888 49.2349 50.0542 52.6207L47.3813 67.2329C47.2031 68.1239 47.3813 69.1931 47.9159 69.9059L52.3708 76.4992C52.7272 77.0338 52.9054 77.5684 52.9054 78.2812L53.9746 91.8242C54.1528 93.6061 55.7566 95.0317 57.5386 95.0317H62.3499C64.1319 95.0317 65.7357 93.6061 65.9139 91.8242L66.983 78.2812C66.983 77.7466 67.1612 77.0338 67.5176 76.4992L71.9726 69.9059C72.6854 69.1931 72.8636 68.1239 72.6854 67.2329Z" fill="#ED6373"/>
<circle opacity="0.07" cx="60" cy="60" r="60" fill="#ED6373"/>
</svg>
