<svg width="120" height="120" viewBox="0 0 120 120" fill="none" xmlns="http://www.w3.org/2000/svg">
<circle opacity="0.07" cx="60" cy="60" r="60" fill="#3E54D8"/>
<path d="M80.0331 40.7218C78.8742 37.9073 79.8675 33.4371 77.7152 31.2848C75.5629 29.1325 71.2583 30.1258 68.2781 28.9669C65.4636 27.8079 63.1457 24 60 24C56.8543 24 54.3709 27.8079 51.7219 28.9669C48.9073 30.1258 44.4371 29.1325 42.2848 31.2848C40.1324 33.4371 41.1258 37.7417 39.9669 40.7218C38.8079 43.5364 35 45.8543 35 49C35 52.1457 38.8079 54.6291 39.9669 57.2781C41.1258 60.0927 40.1324 64.5629 42.2848 66.7152C44.4371 68.8675 48.7417 67.8742 51.7219 69.0331C54.5364 70.192 56.8543 74 60 74C63.1457 74 65.6291 70.192 68.2781 69.0331C71.0927 67.8742 75.5629 68.8675 77.7152 66.7152C79.8675 64.5629 78.8742 60.2583 80.0331 57.2781C81.1921 54.4636 85 52.1457 85 49C84.8344 45.8543 81.0265 43.5364 80.0331 40.7218ZM59.8344 63.2384C52.053 63.2384 45.7616 56.947 45.7616 49.1655C45.7616 41.3841 52.053 35.0927 59.8344 35.0927C67.6159 35.0927 73.9073 41.3841 73.9073 49.1655C73.9073 56.947 67.6159 63.2384 59.8344 63.2384Z" fill="#3E54D8"/>
<path d="M58.3443 55.6224L61.49 52.4767L68.2781 45.6887L65.1324 42.543L58.3443 49.3311L54.5363 45.5231L51.3906 48.6688L55.1986 52.4767L58.3443 55.6224ZM76.3906 92.7085L73.576 72.5099C73.2449 72.5099 72.9138 72.5099 72.5827 72.6754C71.5893 72.841 70.4304 72.841 69.7681 73.1721C69.2714 73.3377 68.4436 74.1655 67.6158 74.8277C65.7946 76.3178 63.3112 78.4701 59.8343 78.4701C56.3575 78.4701 53.8741 76.3178 52.0529 74.8277C51.2251 74.1655 50.3973 73.5032 49.9006 73.1721C49.2383 73.0065 48.0794 72.841 47.086 72.6754C46.9204 72.6754 46.5893 72.6754 46.4237 72.6754L43.2781 93.2052C43.1125 94.6953 44.6026 95.6887 45.7615 95.0264L59.0065 88.2383C59.5032 87.9072 60.1655 87.9072 60.6622 88.2383L73.7416 94.6953C75.0661 95.192 76.5562 94.033 76.3906 92.7085Z" fill="#3E54D8"/>
</svg>
