<svg width="256" height="273" viewBox="0 0 256 273" fill="none" xmlns="http://www.w3.org/2000/svg">
<path d="M38.4506 54.5059C6.83883 54.5059 6.78393 99.4529 38.4506 99.4529C70.1174 99.4529 70.1113 54.5059 38.4506 54.5059Z" fill="#EBEBEB"/>
<path d="M57.6726 81.1953C55.9828 88.9244 49.5714 95.6347 38.4444 95.6347C12.1704 95.6347 12.2131 58.3252 38.4444 58.3252C38.6152 58.3252 38.786 58.3252 38.9568 58.3252C14.275 58.7766 14.3909 94.1035 39.4449 94.1035C49.6629 94.1157 55.751 88.2045 57.6726 81.1953Z" fill="#DBDBDB"/>
<path d="M38.6335 63.2415C38.842 63.2363 39.0444 63.3123 39.198 63.4534C39.3516 63.5945 39.4445 63.7897 39.4571 63.9979V65.218C41.6559 65.3602 43.7701 66.1193 45.5574 67.408C45.8624 67.6276 46.0332 67.8106 46.0332 68.1278C46.0175 68.3479 45.916 68.5531 45.7506 68.6991C45.5852 68.8452 45.369 68.9204 45.1487 68.9086C44.9246 68.9165 44.7062 68.8379 44.5386 68.689C43.0478 67.5531 41.2726 66.8502 39.4083 66.6576V75.4177C44.6057 76.4181 46.7957 78.1994 46.7957 81.2679C46.7957 84.5864 43.7456 86.929 39.4754 87.0571V89.4972C39.4576 89.7026 39.3635 89.8939 39.2116 90.0332C39.0597 90.1726 38.861 90.2499 38.6549 90.2499C38.4487 90.2499 38.2501 90.1726 38.0981 90.0332C37.9462 89.8939 37.8521 89.7026 37.8344 89.4972V87.0571C35.013 86.876 32.3208 85.8085 30.1419 84.0069C30.0285 83.9394 29.9342 83.8439 29.868 83.7297C29.8018 83.6155 29.7659 83.4862 29.7637 83.3542C29.782 83.14 29.8798 82.9405 30.0378 82.7948C30.1959 82.6492 30.4028 82.568 30.6177 82.5672C30.841 82.5635 31.058 82.6416 31.2277 82.7869C33.0851 84.4303 35.4239 85.4295 37.8954 85.6357V76.7292C32.7711 75.6983 30.636 73.978 30.636 70.8485C30.636 67.7191 33.6435 65.279 37.8161 65.1875V63.9674C37.836 63.7657 37.9312 63.579 38.0827 63.4444C38.2342 63.3099 38.4309 63.2374 38.6335 63.2415V63.2415ZM37.8832 75.1371V66.5966C34.5646 66.6637 32.3929 68.4755 32.3929 70.7265C32.3807 72.8799 33.4727 74.1671 37.8832 75.1371ZM39.39 77.0404V85.6906C42.8061 85.6296 45.0327 83.8117 45.0327 81.4204C45.0327 79.267 43.8371 77.9493 39.39 77.0404V77.0404Z" fill="#DBDBDB"/>
<path d="M217.165 188.945C188.701 194.051 196.217 236.216 224.73 231.098C253.243 225.98 245.672 183.827 217.165 188.945Z" fill="#DBDBDB"/>
<path d="M219.837 188.463C192.709 193.343 200.231 235.496 227.402 230.616C254.572 225.736 247.002 183.589 219.837 188.463Z" fill="#EBEBEB"/>
<path d="M240.822 210.534C240.676 218.043 236.302 225.321 226.755 227.035C204.184 231.08 197.962 196.088 220.478 192.05C220.624 192.017 220.771 191.993 220.917 191.977C199.81 196.204 205.862 229.317 227.359 225.461C236.125 223.887 240.353 217.403 240.822 210.534Z" fill="#DBDBDB"/>
<path d="M225.248 196.612C225.432 196.641 225.598 196.74 225.712 196.887C225.825 197.035 225.878 197.22 225.858 197.406L225.718 198.589C227.625 198.967 229.375 199.906 230.745 201.285C230.858 201.367 230.949 201.477 231.007 201.604C231.066 201.732 231.091 201.872 231.08 202.011C231.052 202.21 230.946 202.39 230.786 202.512C230.627 202.634 230.426 202.688 230.226 202.664C230.127 202.656 230.031 202.628 229.943 202.582C229.855 202.536 229.777 202.472 229.714 202.396C228.58 201.185 227.113 200.336 225.499 199.955L224.523 208.246C228.915 209.722 230.623 211.631 230.269 214.535C229.903 217.671 227.005 219.58 223.29 219.263L223.016 221.575C222.994 221.763 222.898 221.936 222.749 222.053C222.601 222.171 222.411 222.225 222.223 222.203C222.034 222.181 221.862 222.086 221.744 221.937C221.626 221.788 221.573 221.599 221.594 221.41L221.869 219.068C219.412 218.589 217.187 217.3 215.549 215.408C215.429 215.303 215.345 215.162 215.31 215.006C215.275 214.851 215.291 214.688 215.355 214.541C215.419 214.395 215.527 214.273 215.666 214.193C215.804 214.113 215.964 214.079 216.122 214.096C216.32 214.116 216.501 214.212 216.629 214.364C218.01 216.08 219.937 217.27 222.088 217.738L223.101 209.295C218.776 207.8 217.135 205.952 217.483 202.993C217.83 200.035 220.704 198.028 224.327 198.363L224.462 197.241C224.486 197.055 224.582 196.885 224.728 196.768C224.875 196.651 225.061 196.595 225.248 196.612V196.612ZM223.278 207.788L224.224 199.705C221.344 199.425 219.252 200.925 219.002 203.054C218.764 205.068 219.563 206.422 223.278 207.788V207.788ZM224.364 209.746L223.406 217.921C226.371 218.208 228.5 216.701 228.762 214.468C229.006 212.425 228.116 211.058 224.364 209.746V209.746Z" fill="#DBDBDB"/>
<path d="M225.413 174.688L233.563 174.517L237.577 174.45C238.913 174.419 240.237 174.45 241.567 174.413L241.298 174.688L241.262 167.862L241.567 168.167L233.472 168.13C230.781 168.13 228.091 168.057 225.395 168.026L225.566 167.862C225.566 168.978 225.511 170.1 225.48 171.241L225.413 174.688ZM225.413 174.688L225.328 171.308C225.328 170.174 225.26 169.021 225.248 167.862V167.697H225.413C228.109 167.666 230.8 167.599 233.49 167.593L241.567 167.557H241.872V167.862V174.688V174.962H241.597C240.237 174.962 238.87 174.962 237.516 174.926L233.453 174.859L225.413 174.688Z" fill="#EBEBEB"/>
<path d="M234.423 183.295L242.573 183.125L246.587 183.057C247.923 183.027 249.247 183.057 250.577 183.021L250.308 183.295L250.278 176.469L250.577 176.774L242.5 176.737C239.81 176.737 237.12 176.664 234.423 176.634L234.594 176.469C234.594 177.585 234.539 178.708 234.515 179.849L234.423 183.295ZM234.423 183.295L234.338 179.916C234.338 178.781 234.271 177.628 234.259 176.469V176.304H234.423C237.12 176.274 239.81 176.207 242.5 176.201L250.577 176.164H250.888V176.469L250.851 183.295V183.57H250.552C249.192 183.57 247.832 183.57 246.471 183.533L242.409 183.466L234.423 183.295Z" fill="#EBEBEB"/>
<path d="M216.391 183.295L224.541 183.125L228.555 183.057C229.885 183.027 231.215 183.057 232.544 183.021L232.276 183.295L232.252 176.469L232.557 176.774L224.48 176.737C221.79 176.737 219.093 176.664 216.403 176.634L216.568 176.469C216.568 177.585 216.519 178.708 216.488 179.849L216.391 183.295ZM216.391 183.295L216.305 179.916C216.275 178.781 216.238 177.628 216.226 176.469V176.304H216.391C219.081 176.274 221.777 176.207 224.468 176.201L232.544 176.164H232.849V176.469L232.862 183.295V183.57H232.593C231.233 183.57 229.866 183.57 228.512 183.533L224.449 183.466L216.391 183.295Z" fill="#EBEBEB"/>
<path d="M8.20523 183.295L16.3491 183.125L20.3632 183.057C21.6991 183.027 23.029 183.057 24.3589 183.021L24.0843 183.295L24.0538 176.469L24.3589 176.774L16.3003 176.737C13.604 176.737 10.9138 176.664 8.22353 176.634L8.38824 176.469C8.38824 177.585 8.33334 178.708 8.30894 179.849L8.20523 183.295ZM8.20523 183.295L8.11373 179.916C8.11373 178.781 8.04662 177.628 8.03442 176.469V176.304H8.20523C10.8955 176.274 13.5857 176.207 16.282 176.201L24.3589 176.164H24.6639V176.469L24.6273 183.295V183.57H24.3589C22.9985 183.57 21.632 183.57 20.2716 183.533L16.2088 183.466L8.20523 183.295Z" fill="#EBEBEB"/>
<path d="M146.975 75.8268L138.831 75.9976L134.817 76.0647C133.481 76.0647 132.151 76.0647 130.822 76.1013L131.096 75.8268L131.127 82.653L130.822 82.348L138.898 82.3907C141.595 82.3907 144.285 82.4578 146.975 82.4883L146.811 82.653C146.811 81.5366 146.865 80.4142 146.89 79.2795L146.975 75.8268ZM146.975 75.8268L147.067 79.2063C147.067 80.3471 147.134 81.4939 147.146 82.653V82.8177H146.975C144.285 82.8177 141.595 82.9092 138.898 82.9153L130.822 82.9519H130.517V82.6408L130.553 75.8146V75.54H130.822C132.182 75.54 133.548 75.54 134.909 75.54L138.972 75.6071L146.975 75.8268Z" fill="#EBEBEB"/>
<path d="M137.965 67.2191L129.821 67.3899L125.807 67.457C124.471 67.457 123.141 67.457 121.812 67.4936L122.086 67.2191L122.117 74.0453L121.812 73.7403L129.888 73.783C132.579 73.783 135.275 73.8501 137.965 73.8806L137.801 74.0453C137.801 72.929 137.849 71.8065 137.88 70.6719L137.965 67.2191ZM137.965 67.2191L138.051 70.5987C138.081 71.7394 138.124 72.8863 138.13 74.0453V74.21H137.959C135.269 74.21 132.573 74.3015 129.882 74.3076L121.806 74.3443H121.5V74.0392L121.537 67.213V66.9385H121.836C123.196 66.9385 124.563 66.9385 125.923 66.9385L129.986 67.0056L137.965 67.2191Z" fill="#EBEBEB"/>
<path d="M231.044 0.896484H230.434V73.6305H231.044V0.896484Z" fill="#C7C7C7"/>
<path d="M205.483 97.9703L207.515 102.436H253.969L255.994 97.9703L236.217 84.2812H225.261L205.483 97.9703Z" fill="#EBEBEB"/>
<path d="M223.888 71.0928L225.261 84.2816H236.217L237.589 71.0928H223.888Z" fill="#DBDBDB"/>
<path d="M205.49 97.9766L207.521 102.442H253.975L256 97.9766H205.49Z" fill="#DBDBDB"/>
<path d="M176.818 0.896484H176.208V59.2215H176.818V0.896484Z" fill="#C7C7C7"/>
<path d="M151.258 83.568L153.289 88.0334H199.743L201.768 83.568L181.991 69.8789H171.035L151.258 83.568Z" fill="#EBEBEB"/>
<path d="M169.662 56.6904L171.035 69.8793H181.991L183.363 56.6904H169.662Z" fill="#DBDBDB"/>
<path d="M151.258 83.5684L153.289 88.0338H199.743L201.768 83.5684H151.258Z" fill="#DBDBDB"/>
<path d="M0.0126953 245.519L31.2341 245.372L62.4494 245.318L124.886 245.214L187.323 245.318L218.538 245.366L249.753 245.519L218.538 245.665L187.323 245.72L124.886 245.824L62.4494 245.72L31.2341 245.665L0.0126953 245.519Z" fill="#263238"/>
<path d="M124.886 272.512C187.137 272.512 237.602 268.779 237.602 264.173C237.602 259.568 187.137 255.834 124.886 255.834C62.6351 255.834 12.1707 259.568 12.1707 264.173C12.1707 268.779 62.6351 272.512 124.886 272.512Z" fill="#EBEBEB"/>
<path d="M149.287 196.717V196.802C149.287 196.802 149.287 196.839 149.287 196.863C149.287 196.888 149.287 196.961 149.257 197.028V197.138C149.237 197.216 149.223 197.296 149.214 197.376C149.214 197.431 149.214 197.486 149.183 197.547C149.153 197.608 149.141 197.803 149.11 197.949C149.08 198.096 149.019 198.443 148.97 198.736L148.695 200.225C148.665 200.383 148.634 200.554 148.604 200.731C148.573 200.908 148.518 201.207 148.47 201.457C148.421 201.707 148.372 202.018 148.317 202.317C148.28 202.524 148.238 202.738 148.201 202.958C148.085 203.61 147.963 204.306 147.823 205.05C147.82 205.068 147.82 205.087 147.823 205.105C147.677 205.935 147.518 206.825 147.347 207.759C147.304 208.003 147.256 208.247 147.207 208.491C147.158 208.735 147.109 209.003 147.066 209.259C147.066 209.418 147.012 209.583 146.975 209.747C146.743 211.045 146.493 212.419 146.225 213.871C146.133 214.359 146.048 214.853 145.956 215.353C145.779 216.329 145.596 217.33 145.407 218.361C145.358 218.599 145.316 218.837 145.279 219.081C145.003 220.573 144.72 222.127 144.431 223.741C144.395 223.906 144.37 224.071 144.34 224.235C144.199 224.992 144.059 225.754 143.925 226.535C143.907 226.595 143.895 226.656 143.888 226.718L143.687 227.829C143.419 229.317 143.142 230.84 142.857 232.398C142.784 232.782 142.711 233.172 142.644 233.569C142.503 234.356 142.357 235.149 142.211 235.948C142.028 236.942 141.845 237.943 141.662 238.962C141.479 239.98 141.296 240.999 141.106 242.012C141.009 242.53 140.917 243.049 140.82 243.567C140.71 244.177 140.594 244.787 140.484 245.44H87.7593C94.2622 218.422 99.7464 196.638 99.7464 196.638L149.287 196.717Z" fill="#263238"/>
<path d="M141.32 202.818C138.681 217.052 136.013 231.286 133.317 245.52H132.584C135.385 231.251 138.27 217.007 141.125 202.757C141.168 202.622 141.357 202.677 141.32 202.818Z" fill="#263238"/>
<path d="M149.287 196.717C149.287 196.717 149.287 196.747 149.287 196.802C149.287 196.857 149.287 196.839 149.287 196.863C149.287 196.888 149.287 196.961 149.257 197.028V197.138C149.237 197.216 149.223 197.295 149.214 197.376C149.214 197.431 149.214 197.485 149.184 197.546C149.153 197.607 149.135 197.803 149.11 197.949C149.086 198.095 149.019 198.443 148.97 198.736C148.885 199.169 148.799 199.663 148.696 200.224C148.665 200.383 148.635 200.554 148.604 200.731C148.574 200.908 148.519 201.207 148.47 201.457C148.421 201.707 148.372 202.018 148.317 202.317C148.281 202.524 148.238 202.738 148.201 202.957C148.079 203.61 147.957 204.306 147.823 205.05C147.82 205.068 147.82 205.087 147.823 205.105C147.671 205.934 147.512 206.813 147.341 207.746C147.293 207.99 147.25 208.24 147.207 208.49C147.164 208.741 147.109 209.003 147.067 209.259C147.03 209.418 147.006 209.582 146.975 209.747C146.737 211.04 146.487 212.419 146.225 213.871C146.133 214.359 146.048 214.853 145.957 215.353C145.774 216.329 145.591 217.33 145.408 218.361C145.359 218.599 145.316 218.837 145.279 219.081C144.999 220.581 144.716 222.135 144.431 223.741C144.395 223.906 144.37 224.071 144.34 224.235C144.2 224.992 144.059 225.754 143.925 226.535C143.907 226.595 143.895 226.656 143.889 226.718L143.687 227.828C143.411 229.317 143.134 230.84 142.858 232.398C142.784 232.782 142.711 233.172 142.644 233.569C142.498 234.356 142.357 235.149 142.211 235.948C142.028 236.942 141.845 237.943 141.662 238.961C141.479 239.98 141.29 240.999 141.107 242.012C141.009 242.53 140.918 243.049 140.82 243.567C140.71 244.177 140.594 244.787 140.478 245.44H114.015L111.899 223.772L111.825 223.003L111.74 222.173L111.325 217.934L110.965 214.273L109.245 196.717H149.287Z" fill="#455A64"/>
<path d="M179.24 245.519H122.379C122.281 240.285 122.177 235.221 122.049 230.445C122.049 230.329 122.049 230.213 122.049 230.097C122.049 230.097 115.412 226.169 111.837 223.088C111.23 222.588 110.67 222.033 110.166 221.429C107.878 218.513 105.584 207.3 100.838 196.753H170.382C181.68 218.677 180.887 236.295 179.24 245.519Z" fill="#263238"/>
<path d="M108.513 220.655C111.892 222.039 114.936 224.168 117.938 226.224C121.061 228.353 123.922 230.818 126.923 233.105C127.039 233.197 126.923 233.386 126.801 233.301C123.635 231.281 120.323 229.506 117.193 227.426C114.143 225.407 110.995 223.442 108.36 220.899C108.256 220.801 108.372 220.594 108.513 220.655Z" fill="#455A64"/>
<path d="M108.086 201.091C108.488 203.257 109.013 205.404 109.483 207.557C109.916 209.577 110.239 211.632 110.776 213.658C111.212 215.59 112.194 217.356 113.606 218.745C114.399 219.483 115.272 220.136 116.114 220.807C116.571 221.173 117.059 221.521 117.535 221.893C117.474 221.606 117.425 221.283 117.37 221.021L116.949 218.581C116.644 216.75 116.339 214.92 116.071 213.09C115.522 209.497 115.022 205.868 114.241 202.311C114.238 202.284 114.246 202.257 114.261 202.235C114.276 202.213 114.299 202.196 114.325 202.189C114.351 202.182 114.379 202.184 114.404 202.195C114.429 202.206 114.449 202.226 114.46 202.25C115.357 205.776 116.345 209.265 117.126 212.822C117.511 214.56 118.871 223.192 118.956 223.802C119.042 224.412 119.072 225.065 119.097 225.694C119.179 226.336 119.179 226.985 119.097 227.627C119.085 227.656 119.064 227.681 119.038 227.698C119.012 227.716 118.982 227.725 118.95 227.725C118.919 227.725 118.888 227.716 118.862 227.698C118.836 227.681 118.816 227.656 118.804 227.627V227.627C118.543 227.031 118.361 226.404 118.261 225.761C118.102 225.151 117.962 224.541 117.852 223.894C117.809 223.674 117.779 223.443 117.748 223.211C116.901 222.692 116.114 221.991 115.308 221.442C114.503 220.893 113.582 220.222 112.777 219.538C111.281 218.278 110.202 216.593 109.684 214.707C109.163 212.679 108.825 210.609 108.671 208.521C108.397 206.081 108.195 203.641 107.854 201.201C107.842 200.987 108.055 200.945 108.086 201.091Z" fill="#455A64"/>
<path d="M165.947 216.171C165.038 215.701 161.524 216.537 155.119 215.445C153.866 215.283 152.677 214.8 151.666 214.042C150.001 212.682 148.738 210.492 147.726 208.619C146.523 206.51 145.596 204.254 144.968 201.909C144.938 201.762 144.736 201.835 144.761 201.97C144.999 203.293 145.127 204.617 145.481 205.929C145.827 207.159 146.27 208.361 146.804 209.522C147.768 211.694 148.897 214.024 150.849 215.494C152.893 217.031 155.729 217.324 158.218 217.495C159.646 217.593 165.264 217.44 166.02 216.641C166.049 216.606 166.07 216.566 166.082 216.523C166.094 216.479 166.097 216.434 166.09 216.39C166.083 216.345 166.066 216.303 166.042 216.265C166.017 216.227 165.985 216.195 165.947 216.171V216.171Z" fill="#455A64"/>
<path d="M113.027 118.487C107.171 127.143 66.4937 179.276 60.6069 180.344C45.6062 183.046 31.8683 177.904 37.5355 164.983C44.136 149.94 80.8477 120.115 105.31 106.908C122.83 97.4467 118.786 109.94 113.027 118.487Z" fill="#DD6A57"/>
<path d="M93.1642 147.231L61.2595 132.591C61.2595 132.591 90.7789 112.069 104.572 105.822C118.981 99.3134 124.806 103.12 112.502 120.054C100.43 136.721 93.1642 147.231 93.1642 147.231Z" fill="#455A64"/>
<path d="M78.2488 121.231C78.1815 121.271 78.1163 121.313 78.0536 121.36L102.876 133.475L102.998 133.304L78.2488 121.231ZM71.386 125.74C71.3207 125.777 71.2576 125.817 71.1969 125.862L98.7398 139.282L98.8557 139.118L71.386 125.74ZM64.6208 130.29L64.4316 130.419L94.6343 145.157C94.6648 145.102 94.7075 145.047 94.7441 144.992L64.6208 130.29Z" fill="white"/>
<path d="M93.5608 140.753C92.828 140.335 92.0747 139.954 91.3037 139.612L88.9795 138.471C87.4117 137.703 85.8317 136.958 84.2396 136.226C81.0735 134.756 77.9074 133.274 74.717 131.865C73.8385 131.474 72.954 131.084 72.0694 130.724C71.1849 130.364 70.1723 130.016 69.2389 129.632C69.184 129.632 69.1535 129.693 69.2084 129.723C69.9831 130.108 70.7274 130.559 71.496 130.943C72.2647 131.328 73.0882 131.73 73.8873 132.115C75.4693 132.859 77.0554 133.595 78.6456 134.323C81.775 135.744 84.9045 137.178 88.0645 138.532C88.949 138.917 89.8336 139.283 90.7181 139.661C91.6026 140.039 92.5482 140.515 93.5181 140.82C93.5669 140.85 93.6096 140.777 93.5608 140.753Z" fill="#263238"/>
<path d="M112.551 120.036C100.43 136.72 93.1643 147.231 93.1643 147.231L82.9646 142.54L117.932 103.498C120.616 105.334 119.347 110.703 112.551 120.036Z" fill="#263238"/>
<path d="M94.5187 208.405H176.812C176.812 208.405 164.239 129.882 133.902 103.029C130.157 99.71 121.702 100.466 116.211 103.205C114.241 104.188 107.171 114.076 105.151 123.434C103.132 132.792 94.2929 208.125 94.5187 208.405Z" fill="#455A64"/>
<path d="M169.333 174.878L132.816 102.254C133.205 102.473 133.568 102.733 133.902 103.029C151.117 118.267 162.61 150.147 169.333 174.878Z" fill="#263238"/>
<path d="M130.376 101.277H122.006C122.397 101.204 122.781 101.137 123.172 101.076H129.388C129.717 101.131 130.034 101.198 130.376 101.277ZM138.977 108.134H111.965C111.923 108.201 111.88 108.268 111.831 108.336H139.118L138.977 108.134ZM144.407 115.192H107.994L107.902 115.394H144.541L144.407 115.192ZM148.848 122.25H105.407C105.407 122.317 105.371 122.385 105.353 122.452H148.97L148.848 122.25ZM152.654 129.308H104.145C104.145 129.376 104.145 129.443 104.114 129.51H152.758C152.721 129.443 152.685 129.376 152.654 129.308ZM155.997 136.366H103.156C103.156 136.434 103.156 136.501 103.156 136.568H156.101C156.052 136.501 155.997 136.434 155.997 136.366ZM158.98 143.431H102.247C102.247 143.498 102.247 143.565 102.247 143.626H159.047C159.047 143.559 158.999 143.492 158.974 143.431H158.98ZM161.671 150.489H101.314C101.314 150.556 101.314 150.617 101.314 150.684H161.732C161.713 150.617 161.689 150.556 161.664 150.489H161.671ZM164.111 157.547H100.43C100.43 157.614 100.43 157.681 100.43 157.748H164.184C164.166 157.675 164.147 157.614 164.123 157.547H164.111ZM166.368 164.605H99.5572C99.5572 164.672 99.5572 164.739 99.5572 164.806H166.435C166.417 164.739 166.368 164.672 166.368 164.605ZM168.442 171.663H98.7032C98.7032 171.73 98.7032 171.797 98.7032 171.864H168.503L168.442 171.663ZM170.357 178.721H97.8552C97.8552 178.788 97.8552 178.855 97.8552 178.922H170.449C170.394 178.855 170.376 178.788 170.364 178.721H170.357ZM172.12 185.779H97.0195C97.0195 185.846 97.0195 185.913 97.0195 185.98H172.175C172.157 185.913 172.145 185.846 172.127 185.779H172.12ZM173.743 192.837H96.2143C96.2143 192.904 96.2143 192.971 96.2143 193.038H173.792C173.78 192.971 173.768 192.904 173.749 192.837H173.743ZM175.232 199.895H95.3907C95.3907 199.962 95.3907 200.029 95.3907 200.096H175.305L175.232 199.895ZM176.561 206.953H94.6282V207.154H176.616C176.592 207.087 176.58 207.02 176.568 206.953H176.561Z" fill="white"/>
<path d="M148.177 105.005C168.918 112.673 219.99 133.023 222.601 144.931C224.504 153.685 185.535 159.127 184.425 157.711C183.553 156.589 147.366 128.399 134.61 113.228C123.52 100.051 141.546 102.552 148.177 105.005Z" fill="#DD6A57"/>
<path d="M163.849 140.887L191.172 121.976C191.172 121.976 158.523 106.92 143.821 103.187C128.497 99.2946 123.428 104.053 138.502 118.578C153.35 132.865 163.849 140.887 163.849 140.887Z" fill="#455A64"/>
<path d="M170.974 113.106L149.793 129.04C149.848 129.083 149.891 129.132 149.946 129.169L171.193 113.192L170.974 113.106ZM178.465 116.303L155.223 133.786L155.375 133.921L178.685 116.395C178.611 116.364 178.569 116.327 178.465 116.303ZM185.889 119.554L160.792 138.465C160.842 138.511 160.895 138.554 160.951 138.594L186.096 119.683C186.024 119.645 185.955 119.602 185.889 119.554Z" fill="white"/>
<path d="M183.632 120.676C182.9 121.079 182.21 121.585 181.515 122.055C180.82 122.525 180.087 123.019 179.368 123.494C177.916 124.464 176.476 125.465 175.043 126.465C172.188 128.472 169.314 130.467 166.502 132.523C165.727 133.084 164.953 133.652 164.19 134.237C163.428 134.823 162.628 135.524 161.829 136.14C161.78 136.177 161.829 136.244 161.89 136.214C162.61 135.738 163.379 135.323 164.105 134.847C164.831 134.371 165.587 133.871 166.319 133.365C167.759 132.377 169.186 131.376 170.589 130.363C173.389 128.369 176.202 126.38 178.959 124.324L181.265 122.598C182.07 121.988 182.924 121.426 183.674 120.768C183.723 120.719 183.687 120.646 183.632 120.676Z" fill="#263238"/>
<path d="M161.323 138.721C160.554 138.075 159.841 137.367 159.096 136.696C158.352 136.025 157.583 135.36 156.833 134.689C155.363 133.384 153.874 132.096 152.398 130.791C149.415 128.143 146.432 125.49 143.48 122.812C141.802 121.287 140.155 119.719 138.422 118.255L138.386 118.291C139.746 119.762 141.21 121.146 142.656 122.525C142.351 122.336 142.046 122.141 141.753 121.915C141.46 121.689 141.106 121.451 140.795 121.201C140.484 120.951 140.185 120.671 139.832 120.439C139.777 120.402 139.728 120.475 139.764 120.518C140.313 121.166 140.959 121.724 141.68 122.171C142.034 122.409 142.406 122.623 142.778 122.824L143.187 123.013C144.48 124.233 145.781 125.453 147.091 126.673C150.019 129.374 153.006 132.017 156.052 134.604C156.894 135.311 157.742 136.007 158.596 136.702C159.45 137.398 160.39 138.069 161.262 138.782C161.305 138.831 161.366 138.764 161.323 138.721Z" fill="#263238"/>
<path d="M118.828 118.279C123.666 118.889 131.029 110.842 133.603 104.663C133.78 104.236 132.725 100.075 131.675 94.9572C131.065 91.8521 130.455 88.3749 130.101 85.1662C130.034 84.5073 110.471 92.1693 110.471 92.1693C110.471 92.1693 113.155 98.6905 113.71 104.291C113.75 104.735 113.75 105.182 113.71 105.627C113.71 105.688 113.71 105.761 113.71 105.846C113.557 108.39 114.155 117.675 118.828 118.279Z" fill="#DD6A57"/>
<path d="M115.784 105.737C115.095 105.831 114.399 105.868 113.704 105.847C113.704 105.761 113.704 105.688 113.704 105.621C113.75 105.179 113.75 104.733 113.704 104.291C113.155 98.6973 110.477 92.1699 110.477 92.1699C110.477 92.1699 126.338 85.9476 129.546 85.1973C129.315 88.9734 127.631 104.23 115.784 105.737Z" fill="#263238"/>
<path d="M127.936 60.2709C131.993 66.5847 133.963 87.582 130.303 93.4139C124.996 101.875 113.503 105.779 105.609 98.7578C97.9529 91.9559 95.8483 64.5472 100.216 58.9593C106.585 50.7239 121.933 50.9191 127.936 60.2709Z" fill="#DD6A57"/>
<path d="M114.9 78.6023C114.9 78.5474 115.022 78.6633 115.022 78.7182C115.119 80.1396 115.467 81.7684 116.791 82.0856C116.833 82.0856 116.833 82.171 116.791 82.1649C115.205 82.1039 114.765 79.9627 114.9 78.6023Z" fill="#263238"/>
<path d="M116.016 77.004C118.273 76.6075 118.902 81.1461 116.815 81.5182C114.729 81.8904 114.125 77.3395 116.016 77.004Z" fill="#263238"/>
<path d="M106.249 79.5906C106.249 79.5418 106.146 79.676 106.158 79.7309C106.396 81.1339 106.432 82.781 105.225 83.4216C105.188 83.4216 105.225 83.5131 105.225 83.4948C106.774 83.0799 106.701 80.9021 106.249 79.5906Z" fill="#263238"/>
<path d="M104.785 78.3156C102.504 78.456 102.955 83.019 105.072 82.8909C107.189 82.7628 106.707 78.1997 104.785 78.3156Z" fill="#263238"/>
<path d="M117.523 74.7105C116.907 74.6152 116.296 74.489 115.693 74.3323C115.018 74.2936 114.375 74.0342 113.863 73.5942C113.732 73.4246 113.661 73.2165 113.661 73.0024C113.661 72.7884 113.732 72.5803 113.863 72.4107C114.473 71.7092 115.37 71.6848 116.23 71.8007C117.097 71.9179 117.891 72.3526 118.456 73.0207C118.589 73.1812 118.671 73.378 118.69 73.5854C118.71 73.7928 118.666 74.0013 118.565 74.1837C118.465 74.366 118.311 74.5138 118.125 74.6078C117.939 74.7018 117.73 74.7376 117.523 74.7105V74.7105Z" fill="#263238"/>
<path d="M102.718 76.272C103.31 76.0641 103.89 75.8238 104.456 75.5522C105.103 75.3851 105.678 75.01 106.091 74.4846C106.188 74.2934 106.22 74.0754 106.18 73.8646C106.14 73.6537 106.032 73.462 105.871 73.3194C105.152 72.746 104.255 72.8924 103.431 73.2035C102.601 73.4848 101.905 74.0655 101.479 74.8323C101.392 75.0139 101.36 75.217 101.386 75.4166C101.413 75.6162 101.497 75.8038 101.628 75.9565C101.76 76.1091 101.933 76.2203 102.126 76.2763C102.319 76.3323 102.525 76.3308 102.718 76.272V76.272Z" fill="#263238"/>
<path d="M117.84 91.0355C117.553 91.4137 117.279 91.9139 116.773 92.0237C116.248 92.0867 115.716 92.0389 115.211 91.8834C115.201 91.8809 115.19 91.8816 115.181 91.8855C115.171 91.8894 115.163 91.8963 115.157 91.9052C115.152 91.914 115.149 91.9244 115.15 91.9347C115.151 91.9451 115.155 91.9549 115.162 91.9627C115.402 92.211 115.704 92.3901 116.037 92.4813C116.369 92.5726 116.72 92.5726 117.053 92.4812C117.33 92.3656 117.566 92.1707 117.732 91.921C117.898 91.6713 117.987 91.3781 117.987 91.0782C117.999 90.9989 117.883 90.9806 117.84 91.0355Z" fill="#263238"/>
<path d="M115.778 87.027C115.499 87.6329 115.097 88.1744 114.599 88.6174C114.1 89.0605 113.515 89.3955 112.881 89.6013C112.328 89.7899 111.75 89.8967 111.166 89.9185C111.055 89.9275 110.942 89.9275 110.831 89.9185H110.52C110.443 89.9141 110.369 89.8851 110.31 89.8357C110.25 89.7862 110.208 89.719 110.19 89.644V89.644C110.184 89.5954 110.184 89.5462 110.19 89.4976V89.3756C110.013 88.2958 109.891 86.6365 109.891 86.6365C109.519 86.8867 107.628 88.0762 107.585 87.5028C107.213 82.7812 106.805 77.5288 107.433 72.7522C107.439 72.7223 107.456 72.6955 107.48 72.6762C107.504 72.657 107.533 72.6465 107.564 72.6465C107.595 72.6465 107.624 72.657 107.648 72.6762C107.672 72.6955 107.689 72.7223 107.695 72.7522C108.226 77.2787 107.964 81.8661 108.427 86.4169C109.1 85.9867 109.828 85.652 110.593 85.4226C110.758 85.4226 110.776 88.6374 110.892 89.1133C110.89 89.1295 110.89 89.1458 110.892 89.1621C112.722 89.1621 114.04 88.4056 115.638 86.9416C115.735 86.8257 115.851 86.9111 115.778 87.027Z" fill="#263238"/>
<path d="M111.728 89.2839C112.43 89.973 113.298 90.4707 114.247 90.7297C114.769 90.8555 115.317 90.815 115.815 90.6138C116.901 90.1624 116.785 89.1253 116.455 88.2713C116.276 87.819 116.045 87.3891 115.766 86.9902C114.699 88.1657 113.284 88.9693 111.728 89.2839V89.2839Z" fill="#263238"/>
<path d="M114.247 90.7299C114.769 90.8557 115.317 90.8152 115.815 90.614C116.901 90.1626 116.785 89.1255 116.455 88.2715C115.266 88.5643 114.192 89.5464 114.247 90.7299Z" fill="#FF98B9"/>
<path d="M131.023 76.2479C127.326 77.1934 124.831 68.2199 124.831 68.2199C124.831 68.2199 118.981 69.0068 113.85 62.2843C113.85 62.2843 108.171 69.0373 101.851 69.8731C91.9442 71.1724 88.284 58.9413 90.9925 55.3421C94.8296 50.2362 105.31 52.5116 105.31 52.5116C105.31 52.5116 117.511 44.4897 124.373 52.2554C124.373 52.2554 130.425 50.6022 132.95 57.0563C135.476 63.5104 133.78 75.5402 131.023 76.2479Z" fill="#263238"/>
<path d="M126.466 68.8481C123.628 69.2479 120.738 68.6943 118.249 67.2742C115.705 65.7369 113.582 62.8088 113.49 59.7708C113.49 59.6061 113.216 59.6305 113.234 59.7708C113.564 63.0772 114.765 66.1944 117.572 68.1709C118.854 69.0955 120.356 69.6676 121.929 69.8303C123.501 69.993 125.089 69.7406 126.533 69.0982C126.552 69.0801 126.567 69.057 126.574 69.0314C126.581 69.0058 126.582 68.9786 126.575 68.9529C126.568 68.9272 126.554 68.9038 126.535 68.8853C126.516 68.8669 126.492 68.854 126.466 68.8481V68.8481Z" fill="#263238"/>
<path d="M132.206 53.0421C129.614 51.2974 126.686 51.8221 123.934 52.8286C123.782 52.8835 123.879 53.1397 124.026 53.0665C126.661 51.8465 130.004 52.8164 132.151 54.6038C134.299 56.3912 134.823 59.2156 135.037 61.8205C135.472 66.8491 134.029 71.8608 130.986 75.8878C130.937 75.9488 131.035 76.0281 131.084 75.9671C132.868 73.8394 134.2 71.37 134.997 68.7099C135.794 66.0499 136.04 63.2551 135.72 60.4967C135.372 57.7943 134.573 54.6526 132.206 53.0421Z" fill="#263238"/>
<path d="M105.816 52.8345C104.036 51.3134 101.759 50.4993 99.4172 50.5469C96.5951 50.6781 93.9209 51.8468 91.9077 53.8289C91.1187 54.6493 90.5599 55.6633 90.2879 56.7686C90.0159 57.8739 90.0401 59.0314 90.3583 60.1244C91.0049 62.7109 92.957 64.7118 95.025 66.2247C95.0304 66.2304 95.037 66.2349 95.0443 66.2379C95.0516 66.2408 95.0595 66.2422 95.0674 66.2418C95.0753 66.2415 95.083 66.2394 95.09 66.2358C95.097 66.2322 95.1032 66.2271 95.1081 66.2209C95.1129 66.2147 95.1164 66.2075 95.1183 66.1998C95.1201 66.1922 95.1203 66.1842 95.1188 66.1764C95.1173 66.1687 95.1141 66.1614 95.1095 66.155C95.1049 66.1485 95.099 66.1432 95.0921 66.1393C93.3352 64.6325 91.7613 62.7902 91.1696 60.4782C90.8535 59.402 90.8479 58.2584 91.1533 57.1792C91.4587 56.0999 92.0628 55.1289 92.896 54.3779C96.1841 51.4375 101.894 49.9186 105.658 53.0114C105.682 53.0201 105.708 53.0214 105.733 53.0152C105.757 53.009 105.78 52.9955 105.797 52.9765C105.814 52.9575 105.825 52.9338 105.828 52.9085C105.832 52.8832 105.828 52.8574 105.816 52.8345V52.8345Z" fill="#263238"/>
<path d="M128.381 78.4441C128.381 78.4441 131.23 70.7699 134.598 71.624C137.965 72.478 137.001 82.7753 133.878 84.9592C133.495 85.2636 133.055 85.4882 132.584 85.6197C132.113 85.7513 131.621 85.7871 131.136 85.7252C130.651 85.6632 130.183 85.5046 129.76 85.2589C129.337 85.0131 128.968 84.6851 128.674 84.2943L128.381 78.4441Z" fill="#DD6A57"/>
<path d="M134.25 74.5699C134.26 74.5671 134.272 74.5681 134.282 74.5727C134.292 74.5774 134.301 74.5853 134.306 74.5953C134.311 74.6053 134.312 74.6168 134.31 74.6277C134.307 74.6386 134.301 74.6484 134.292 74.6553C132.121 76.2719 131.431 78.8524 131.145 81.4145C131.633 80.3286 132.487 79.5844 133.908 80.1273C133.922 80.1358 133.933 80.1485 133.94 80.1635C133.946 80.1786 133.948 80.1953 133.945 80.2113C133.941 80.2274 133.933 80.242 133.921 80.2532C133.909 80.2643 133.894 80.2715 133.878 80.2737C133.416 80.2494 132.959 80.3682 132.568 80.6139C132.177 80.8596 131.872 81.2202 131.694 81.6463C131.401 82.3634 131.186 83.1099 131.053 83.8729C130.998 84.1169 130.577 84.1047 130.589 83.8302C130.593 83.81 130.593 83.7894 130.589 83.7692C129.729 80.6947 130.986 75.7412 134.25 74.5699Z" fill="#263238"/>
<path d="M212.956 195.686C207.155 215.927 190.556 232.373 187.158 234.526C184.266 236.357 182.76 237.296 182.76 237.296C177.635 240.712 174.109 239.785 174.109 239.785C174.109 239.785 169.345 245.476 165.429 243.164C161.03 240.596 168.576 233.111 170.211 226.456C173.951 211.205 175.006 188.493 175.647 183.985L212.956 195.686Z" fill="#DD6A57"/>
<path d="M185.358 213.23C184.169 217.696 183.113 222.112 181.326 226.395C179.362 231.092 176.69 235.283 174.073 239.614C174.06 239.64 174.057 239.669 174.064 239.697C174.071 239.725 174.088 239.75 174.111 239.766C174.135 239.783 174.163 239.791 174.192 239.789C174.22 239.787 174.247 239.774 174.268 239.754C180.252 232.66 184.608 222.509 185.749 213.322C185.779 213.096 185.419 213.011 185.358 213.23Z" fill="#263238"/>
<path d="M194.887 214.151C193.49 218.422 190.983 225.937 182.637 237.211C182.607 237.247 182.637 237.302 182.698 237.266C188.953 230.933 193.321 222.984 195.314 214.31C195.381 214.036 194.984 213.871 194.887 214.151Z" fill="#263238"/>
<path d="M173.554 207.801C173.255 205.623 172.108 205.763 170.132 209.137C168.155 212.51 163.202 227.535 158.108 225.364C153.014 223.192 160.31 202.091 164.032 196.729C167.753 191.367 175.622 183.985 175.622 183.985C175.049 188.378 174.616 199.157 173.554 207.801Z" fill="#DD6A57"/>
<path d="M222.588 144.931C226.657 157.711 215.921 186.212 212.956 195.686C211.663 199.816 173.951 188.786 175.36 184.376C178.251 175.353 185.73 158.931 184.413 157.711C183.37 156.741 218.886 133.322 222.588 144.931Z" fill="#DD6A57"/>
<path d="M194.747 150.025C194.247 150.22 193.746 150.372 193.258 150.635C192.77 150.897 192.252 151.104 191.77 151.367C190.836 151.891 189.946 152.491 189.11 153.16C188.267 153.814 187.468 154.523 186.719 155.283C186.328 155.674 185.95 156.076 185.59 156.503C185.225 156.895 184.906 157.327 184.639 157.79C184.625 157.812 184.618 157.838 184.618 157.864C184.618 157.889 184.625 157.915 184.639 157.937C184.639 157.937 184.639 157.98 184.675 157.986C184.834 158.053 184.925 157.919 185.041 157.821L185.615 157.29C186.017 156.918 186.408 156.522 186.835 156.143C187.646 155.393 188.5 154.673 189.378 153.996C190.257 153.319 191.16 152.678 192.075 152.062C192.532 151.751 192.984 151.452 193.447 151.129C193.911 150.806 194.369 150.519 194.844 150.244C194.936 150.159 194.863 149.976 194.747 150.025Z" fill="#263238"/>
<path d="M58.3925 143.748C52.2922 148.018 33.7167 164.654 37.4623 173.743C41.2079 182.833 55.507 182.613 75.5038 178.996L58.3925 143.748Z" fill="#DD6A57"/>
<path d="M57.8557 144.145C66.0484 137.318 77.9501 129.028 82.8243 129.29C87.9363 129.565 105.865 131.261 109.904 132.993C113.942 134.726 125.557 146.03 126.747 149.775C127.698 152.776 121.805 155.607 114.326 150.794C107.329 146.292 105.877 144.87 103.596 144.084C101.314 143.297 92.3225 145.023 91.2366 148.415C90.5961 150.416 93.1887 155.814 96.794 156.955C100.399 158.096 104.114 155.955 109.196 156.229C114.277 156.504 119.158 161.518 118.176 163.165C117.193 164.812 114.918 163.928 107.982 166.246C103.523 167.74 98.2215 170.425 90.6754 174.866C82.9463 179.41 71.7644 179.331 71.7644 179.331L57.8557 144.145Z" fill="#DD6A57"/>
<path d="M114.637 151.648C126.838 155.466 121.207 173.554 108.976 169.729C96.7452 165.904 102.412 147.817 114.637 151.648Z" fill="#FFC727"/>
<path opacity="0.1" d="M114.637 151.648C126.838 155.466 121.207 173.554 108.976 169.729C96.7452 165.904 102.412 147.817 114.637 151.648Z" fill="black"/>
<path d="M113.49 151.288C125.124 154.948 119.487 173.017 107.829 169.369C96.1715 165.721 101.839 147.64 113.49 151.288Z" fill="#FFC727"/>
<path opacity="0.1" d="M103.053 159.81C102.705 163.111 104.218 166.551 108.312 167.832C117.987 170.882 122.666 155.845 113.009 152.825L112.82 152.771C121.848 155.821 117.358 169.992 108.135 167.106C106.566 166.68 105.197 165.716 104.268 164.382C103.339 163.048 102.909 161.429 103.053 159.81V159.81Z" fill="black"/>
<g opacity="0.1">
<path opacity="0.1" d="M112.417 154.698C112.494 154.729 112.557 154.789 112.591 154.865C112.625 154.941 112.628 155.028 112.6 155.106L112.411 155.601C113.175 155.978 113.812 156.572 114.241 157.309C114.279 157.358 114.305 157.416 114.315 157.478C114.326 157.54 114.321 157.603 114.302 157.662C114.267 157.744 114.201 157.809 114.119 157.843C114.037 157.877 113.945 157.878 113.863 157.845C113.78 157.816 113.712 157.754 113.674 157.675C113.322 157.03 112.79 156.502 112.142 156.156L110.8 159.602C112.521 160.719 113.033 161.725 112.563 162.927C112.063 164.232 110.605 164.757 109.05 164.184L108.677 165.141C108.662 165.181 108.639 165.218 108.61 165.249C108.58 165.28 108.545 165.306 108.506 165.323C108.467 165.341 108.425 165.35 108.382 165.352C108.339 165.353 108.297 165.346 108.257 165.331C108.216 165.315 108.18 165.292 108.149 165.263C108.117 165.234 108.092 165.198 108.075 165.159C108.057 165.12 108.048 165.078 108.046 165.035C108.045 164.992 108.052 164.95 108.067 164.91L108.44 163.94C107.443 163.462 106.634 162.665 106.14 161.676C106.109 161.631 106.089 161.58 106.083 161.525C106.076 161.471 106.083 161.416 106.103 161.365C106.138 161.286 106.201 161.223 106.28 161.188C106.359 161.153 106.448 161.149 106.53 161.176C106.612 161.208 106.68 161.269 106.719 161.347C107.121 162.234 107.814 162.958 108.684 163.397L110.044 159.895C108.354 158.773 107.854 157.797 108.33 156.57C108.806 155.344 110.264 154.801 111.776 155.35L111.959 154.887C111.974 154.842 111.998 154.801 112.029 154.766C112.061 154.731 112.101 154.704 112.144 154.686C112.188 154.668 112.235 154.659 112.282 154.661C112.329 154.664 112.375 154.676 112.417 154.698V154.698ZM110.337 159.267L111.636 155.912C110.416 155.472 109.373 155.881 109.025 156.766C108.677 157.65 108.897 158.285 110.337 159.267ZM110.587 160.225L109.269 163.622C110.489 164.074 111.581 163.671 111.947 162.738C112.313 161.805 112.075 161.201 110.587 160.225Z" fill="black"/>
</g>
<path d="M82.8242 129.29C88.8513 127.655 101.607 126.41 110.099 129.729C115.839 131.974 123.983 152.428 121.006 154.838C118.029 157.247 115.516 154.978 112.222 151.178C111.002 149.793 106.219 140.734 103.645 141.124C99.9356 141.679 91.023 147.011 91.023 147.011L82.8242 129.29Z" fill="#DD6A57"/>
<path d="M121.64 153.404C122.555 148.762 120.036 143.546 117.236 138.678C117.187 138.605 117.071 138.678 117.114 138.739C117.828 139.959 121.567 148.817 121.549 153.41C121.549 153.471 121.628 153.459 121.64 153.404Z" fill="#263238"/>
<path d="M82.8242 129.29C88.8513 127.655 101.607 126.41 110.099 129.729C115.839 131.974 119.109 151.635 116.132 154.045C113.155 156.454 109.367 153.404 106.652 148.408C105.774 146.791 104.212 139.868 101.656 140.234C97.9469 140.795 88.8452 142.253 88.8452 142.253L82.8242 129.29Z" fill="#DD6A57"/>
<path d="M94.2927 141.204C95.2504 140.954 95.586 140.863 96.5498 140.625C97.5137 140.387 98.4714 140.173 99.4475 140.015C100.289 139.806 101.159 139.742 102.022 139.826C102.829 140.009 103.555 140.45 104.09 141.082C105.353 142.461 105.798 144.468 106.353 146.2C106.963 148.14 108.58 151.813 110.849 153.484C111.448 153.97 112.142 154.325 112.886 154.527C113.432 154.705 114.013 154.742 114.576 154.637C116.864 153.929 117.321 151.172 117.297 148.897C117.248 144.627 115.894 140.356 114.344 136.458C113.966 135.5 113.564 134.549 113.161 133.597C112.771 132.478 112.147 131.455 111.331 130.596C109.897 129.272 106.213 128.589 105.072 128.363C104.987 128.363 105.029 128.217 105.115 128.235C106.499 128.485 110.324 128.686 112.545 130.919C113.35 131.737 113.765 132.896 114.216 133.933C114.668 134.97 115.168 136.123 115.595 137.239C116.449 139.396 117.133 141.618 117.639 143.882C118.096 146.03 118.499 148.415 118.139 150.593C117.828 152.49 116.516 154.399 114.619 154.96C113.027 155.442 111.441 154.46 110.745 153.978C110.063 153.499 109.447 152.931 108.915 152.288C107.82 150.762 106.837 149.157 105.975 147.488C105.17 145.84 104.81 143.962 103.87 142.388C103.661 142.004 103.377 141.667 103.035 141.395C102.694 141.122 102.302 140.921 101.881 140.802C101.028 140.673 100.16 140.673 99.3072 140.802C97.664 140.867 96.0304 141.084 94.4269 141.448C94.006 141.552 93.8901 141.29 94.2927 141.204Z" fill="#263238"/>
<path d="M78.1819 130.468C79.7924 129.516 88.9794 123.758 92.5908 122.745C96.2022 121.732 110.318 119.774 113.143 122.989C116.693 127.033 106.091 130.407 101.345 131.45C96.5987 132.493 92.4139 137.807 92.4139 137.807L78.1819 130.468Z" fill="#DD6A57"/>
<path d="M108.665 129.217C107.074 129.508 105.498 129.878 103.943 130.327C102.441 130.65 100.965 131.084 99.5268 131.627C98.1518 132.268 96.8907 133.129 95.7934 134.177C95.2383 134.683 94.7258 135.214 94.2195 135.763C93.7132 136.312 93.1642 137.02 92.6029 137.593C92.5419 137.654 92.6029 137.758 92.6944 137.691C93.7707 136.657 94.9118 135.693 96.1106 134.805C97.3286 133.859 98.6583 133.066 100.07 132.444C102.882 131.224 105.914 130.614 108.732 129.394C108.848 129.364 108.775 129.199 108.665 129.217Z" fill="#263238"/>
<path d="M115.406 154.295C116.492 154.905 117.718 155.515 119.005 155.46C119.555 155.445 120.088 155.266 120.536 154.947C120.771 154.778 120.976 154.572 121.146 154.337C121.349 154.101 121.461 153.801 121.463 153.49C121.463 153.404 121.579 153.41 121.561 153.49C121.532 153.663 121.516 153.838 121.512 154.014C121.487 154.16 121.446 154.303 121.39 154.441C121.284 154.714 121.124 154.963 120.921 155.173C120.468 155.635 119.873 155.93 119.231 156.009C117.712 156.216 116.382 155.399 115.339 154.398C115.332 154.394 115.326 154.388 115.321 154.382C115.317 154.375 115.314 154.367 115.312 154.36C115.31 154.352 115.31 154.343 115.312 154.335C115.313 154.327 115.316 154.32 115.32 154.313C115.325 154.306 115.331 154.3 115.337 154.296C115.344 154.291 115.351 154.288 115.359 154.286C115.367 154.285 115.375 154.284 115.383 154.286C115.391 154.287 115.399 154.29 115.406 154.295V154.295Z" fill="#263238"/>
<path d="M90.9437 139.697C89.6175 141.611 88.4153 143.608 87.3446 145.675C86.3213 147.731 85.5981 149.923 85.1972 152.185C84.8129 154.625 85.0142 157.065 85.0691 159.554C85.1201 160.729 85.0732 161.906 84.9288 163.074C84.7801 164.091 84.5224 165.089 84.1602 166.051C83.2841 168.216 81.8813 170.128 80.0791 171.614C80.012 171.675 80.0791 171.785 80.1767 171.736C81.8811 170.555 83.3053 169.014 84.3489 167.222C85.3924 165.43 86.0298 163.431 86.216 161.365C86.4356 158.84 86.0086 156.308 86.216 153.777C86.4293 151.472 86.9378 149.205 87.7289 147.03C88.5961 144.491 89.7011 142.04 91.0291 139.709C91.0299 139.704 91.0296 139.698 91.0282 139.693C91.0268 139.687 91.0243 139.682 91.0209 139.677C91.0175 139.673 91.0133 139.669 91.0084 139.666C91.0035 139.663 90.9981 139.661 90.9925 139.661C90.9812 139.659 90.9697 139.662 90.9606 139.669C90.9514 139.676 90.9453 139.686 90.9437 139.697V139.697Z" fill="#263238"/>
<path d="M68.6593 135.885C63.9211 138.775 59.4082 142.02 55.1593 145.59C50.8609 149.098 46.9727 153.081 43.5687 157.462C41.6855 159.946 40.0393 162.601 38.6519 165.392C38.6214 165.447 38.7007 165.49 38.7373 165.435C40.1531 163.066 41.7243 160.794 43.4406 158.633C45.1393 156.488 46.9538 154.437 48.876 152.49C52.8069 148.571 57.0259 144.951 61.4975 141.662C64.0108 139.771 66.3168 137.965 68.8179 136.068C69.0497 135.885 68.9277 135.714 68.6593 135.885Z" fill="#263238"/>
<path d="M139.142 252.517C139.1 252.767 139.051 253.017 139.002 253.273C139.045 253.023 139.094 252.767 139.136 252.517H139.142Z" fill="#EBEBEB"/>
<path d="M42.3729 185.077C34.1314 196.234 25.5421 209.185 23.4619 223.179C23.4619 223.387 23.7791 223.46 23.8279 223.246C24.7795 219.43 26.0026 215.688 27.4881 212.046C32.9052 210.552 38.2186 209.331 41.0674 203.951C43.9651 198.424 43.599 191.22 43.05 185.199C42.9768 184.875 42.5315 184.857 42.3729 185.077Z" fill="#FFC727"/>
<path d="M27.5371 211.966C31.24 203.664 35.9921 195.325 42.0314 188.492C42.0741 188.444 42.1351 188.492 42.0985 188.56C38.1455 193.44 35.1381 198.723 32.2038 204.109C34.9307 201.34 37.9198 198.863 40.5063 195.923C40.5551 195.868 40.6405 195.923 40.5917 196.008C38.0235 199.058 35.2235 202.432 31.8805 204.713C30.9777 206.364 30.0707 208.022 29.1598 209.685C29.3855 209.557 29.6173 209.447 29.8491 209.331C29.8857 209.331 29.9223 209.374 29.8857 209.392C29.6295 209.52 29.3733 209.661 29.111 209.77C28.6778 210.557 28.2508 211.338 27.7994 212.125C27.7018 212.265 27.4578 212.113 27.5371 211.966Z" fill="#263238"/>
<path d="M30.2944 209.039C32.51 207.802 34.6233 206.391 36.6143 204.818C36.6692 204.775 36.7485 204.848 36.6936 204.897C34.7598 206.555 32.6436 207.987 30.3859 209.167C30.2822 209.246 30.1907 209.1 30.2944 209.039Z" fill="#263238"/>
<path d="M22.4983 221.117C22.4983 221.288 22.8033 221.282 22.7972 221.117C22.8399 216.505 22.7972 211.875 22.8704 207.245C24.0539 204.866 26.5855 203.548 28.3607 201.639C29.6274 200.242 30.7306 198.705 31.6488 197.058C33.769 193.123 35.0663 188.797 35.4615 184.345C35.9495 179.416 34.0767 163.152 31.9965 163.713C30.9228 164.006 27.4334 172.065 26.5062 174.731C25.0067 179.124 23.9103 183.645 23.2303 188.237C21.5344 199.046 21.6747 210.186 22.4983 221.117Z" fill="#FFC727"/>
<path d="M22.4617 201.218C22.7118 195.386 24.0294 189.499 25.2556 183.844C26.5794 177.744 28.1288 172.016 31.2644 166.58C31.3254 166.477 31.4718 166.58 31.423 166.672C29.3302 170.897 27.71 175.341 26.5916 179.922C26.8051 179.592 27.0613 179.281 27.2748 178.97C27.3602 178.848 27.5615 178.97 27.4822 179.092C27.2013 179.583 26.8723 180.045 26.5001 180.471C26.4933 180.474 26.486 180.475 26.4787 180.475C26.4714 180.475 26.4641 180.474 26.4574 180.471C25.3776 184.826 24.6273 189.28 23.944 193.727L24.0904 193.556C24.0977 193.55 24.1069 193.546 24.1165 193.546C24.126 193.546 24.1354 193.548 24.1432 193.554C24.1509 193.56 24.1565 193.568 24.1591 193.577C24.1617 193.586 24.1612 193.596 24.1575 193.605C24.0782 193.751 23.9806 193.898 23.8952 194.044C23.5597 196.301 23.2486 198.552 22.9375 200.785C26.9759 197.326 30.4104 193.306 32.3442 188.322C32.3442 188.322 32.3869 188.322 32.3808 188.322C30.4836 193.489 27.5005 198.082 22.9009 201.224L22.6447 203.024C22.6447 203.146 22.4312 203.115 22.4312 202.993C22.4312 202.462 22.4312 201.932 22.48 201.401C22.4007 201.358 22.4007 201.273 22.4617 201.218Z" fill="#263238"/>
<path d="M24.3527 192.769C27.4028 188.188 30.2883 183.741 32.5393 178.677C32.5393 178.622 32.6613 178.677 32.6369 178.72C30.7458 183.753 28.0921 188.847 24.5113 192.885C24.4381 192.97 24.2916 192.861 24.3527 192.769Z" fill="#263238"/>
<path d="M28.4339 177.549C29.7028 175.298 31.0448 173.108 32.2405 170.839C32.2771 170.778 32.3625 170.839 32.3381 170.894C31.3573 173.288 30.1133 175.565 28.6291 177.683C28.5437 177.805 28.3607 177.677 28.4339 177.549Z" fill="#263238"/>
<path d="M27.9404 178.525V178.563C27.9404 178.563 27.8905 178.525 27.9404 178.525Z" fill="#263238"/>
<path d="M19.3506 207.769C19.3014 210.822 18.9499 213.863 18.3013 216.847C18.3501 217.176 18.3928 217.506 18.4416 217.841C19.3861 214.536 19.9329 211.131 20.0704 207.696C20.0977 207.649 20.1121 207.595 20.1121 207.541C20.1121 207.486 20.0977 207.432 20.0704 207.385C20.2055 202.789 19.8682 198.192 19.0639 193.666C17.6364 185.192 14.5191 177.067 8.61403 170.716C8.56524 170.674 8.50749 170.644 8.44519 170.628C8.3829 170.612 8.31773 170.61 8.25469 170.623C8.19165 170.636 8.13242 170.663 8.08156 170.703C8.0307 170.742 7.98955 170.793 7.96129 170.85C5.57607 176.914 6.40571 184.143 8.43712 190.188C9.54173 193.463 11.1202 196.558 13.1222 199.375C15.1475 202.249 17.734 204.646 19.3506 207.769Z" fill="#FFC727"/>
<path d="M9.30933 173.578C14.9094 182.686 18.8014 193.434 19.2772 204.165C19.2772 204.36 18.9661 204.409 18.9417 204.214C18.8075 203.25 18.6611 202.292 18.5086 201.34C16.1966 199.12 13.8175 196.777 12.1582 194.02C12.1582 193.971 12.2009 193.916 12.2375 193.959C14.1614 196.313 16.2207 198.554 18.4049 200.669C17.9982 198.294 17.5203 195.958 16.9713 193.66C16.8188 193.489 16.6724 193.312 16.526 193.135C16.3796 192.959 16.5931 192.861 16.6907 192.971C16.7883 193.081 16.7822 193.074 16.8249 193.123C16.0377 189.969 15.0619 186.864 13.9029 183.826C12.4754 182.13 10.8832 180.66 9.84615 178.611C9.84615 178.562 9.88886 178.525 9.91936 178.568C10.7551 179.739 11.5603 180.917 12.5059 182.002C12.8841 182.436 13.2989 182.844 13.6894 183.265C12.3977 179.973 10.8665 176.78 9.10802 173.712C9.09493 173.685 9.09195 173.655 9.09964 173.626C9.10733 173.598 9.12515 173.573 9.14979 173.557C9.17443 173.54 9.2042 173.533 9.23355 173.537C9.26291 173.541 9.28984 173.556 9.30933 173.578V173.578Z" fill="#263238"/>
<path d="M10.444 184.783C12.2741 187.224 14.3116 189.542 15.9953 192.061C16.0441 192.134 15.9404 192.207 15.8794 192.153C13.7199 190.121 11.8898 187.352 10.322 184.832C10.2732 184.777 10.3891 184.716 10.444 184.783Z" fill="#263238"/>
<path d="M16.2511 192.623L16.3241 192.702C16.3787 192.756 16.2937 192.835 16.2451 192.787L16.1661 192.708C16.1114 192.653 16.1964 192.574 16.2511 192.623Z" fill="#263238"/>
<path d="M0.543185 191.043C0.988508 195.715 3.44693 201.303 6.44829 204.902C7.76774 206.468 9.39858 207.741 11.237 208.642C13.3111 209.667 15.5072 210.85 17.6302 211.692C18.6503 214.29 19.4085 216.984 19.8934 219.732C19.9666 219.5 20.0337 219.256 20.1008 219.019C18.7221 207.184 11.0662 197.057 1.26912 190.579C1.19321 190.528 1.10405 190.5 1.01259 190.499C0.921125 190.498 0.831338 190.524 0.754249 190.573C0.67716 190.622 0.616125 190.693 0.578631 190.776C0.541137 190.86 0.528817 190.952 0.543185 191.043Z" fill="#FFC727"/>
<path d="M3.9227 194.538C3.85559 194.477 3.9227 194.355 4.0264 194.41C9.40798 198.414 13.6993 203.704 16.5076 209.795C16.5747 209.954 16.3551 210.094 16.2636 209.936C15.8061 209.136 15.3425 208.362 14.8728 207.599C12.6339 207.178 10.5171 205.604 8.85785 204.11C8.81515 204.073 8.85785 204.006 8.92495 204.049C9.7796 204.825 10.7285 205.492 11.7494 206.031C12.6644 206.495 13.6466 206.788 14.5921 207.16C13.7625 205.842 12.9024 204.58 11.9995 203.359C9.58828 202.44 7.32689 201.167 5.28917 199.583C5.22206 199.535 5.28917 199.431 5.35017 199.474C7.36855 200.696 9.44957 201.812 11.5847 202.817C10.2108 201.015 8.72982 199.298 7.14976 197.674C6.38722 197.271 5.61858 196.869 4.88045 196.454C4.81944 196.423 4.88045 196.32 4.92925 196.338C5.54013 196.556 6.12358 196.845 6.66784 197.198C5.80769 196.283 4.89875 195.399 3.9227 194.538Z" fill="#263238"/>
<path d="M4.13015 198.626C4.26436 198.703 4.39099 198.793 4.50837 198.894C4.54497 198.925 4.50837 198.974 4.45957 198.955C4.3237 198.893 4.19313 198.819 4.06915 198.736C4.00205 198.693 4.06305 198.583 4.13015 198.626Z" fill="#263238"/>
<path d="M35.388 245.36H8.54663L10.7122 220.916L11.1881 215.523H32.7466L33.2224 220.916L35.388 245.36Z" fill="#455A64"/>
<path d="M33.2225 220.916H10.7124L11.1882 215.523H32.7467L33.2225 220.916Z" fill="#263238"/>
<path d="M34.034 211.76H9.90723V217.098H34.034V211.76Z" fill="#455A64"/>
<path d="M74.5463 198.645C74.7476 197.608 74.8696 196.68 74.9733 195.692C75.077 194.704 75.1258 193.722 75.1197 192.715C75.1247 191.68 75.0348 190.647 74.8513 189.629C74.6586 188.448 74.1858 187.331 73.4726 186.371C73.0283 185.828 72.4589 185.401 71.8133 185.126C71.491 184.991 71.1528 184.897 70.8068 184.846C70.4837 184.798 70.1567 184.784 69.8307 184.803C68.6245 184.895 67.476 185.357 66.5427 186.127C65.7035 186.799 64.9909 187.615 64.438 188.537C63.8628 189.444 63.4711 190.455 63.2851 191.513C63.1624 192.146 63.213 192.799 63.4315 193.405C63.5821 193.796 63.848 194.132 64.194 194.368C64.523 194.586 64.9042 194.713 65.2982 194.734C65.7036 194.755 66.1062 194.658 66.4572 194.454C66.7587 194.264 67.0148 194.01 67.2076 193.71C67.5131 193.228 67.7204 192.691 67.8176 192.13C67.9917 191.133 67.9917 190.113 67.8176 189.116C67.6645 188.118 67.3005 187.163 66.7501 186.316C66.456 185.867 66.0586 185.494 65.591 185.23C65.1071 184.966 64.5481 184.874 64.0049 184.968C63.032 185.186 62.1514 185.702 61.4855 186.444C60.2217 187.836 59.2139 189.441 58.5085 191.184C59.3368 189.534 60.4476 188.041 61.7905 186.774C62.417 186.165 63.2198 185.77 64.0842 185.645C64.4715 185.638 64.8521 185.746 65.1779 185.956C65.5036 186.166 65.7599 186.467 65.9143 186.822C66.3031 187.581 66.5296 188.412 66.5793 189.262C66.6512 190.11 66.579 190.964 66.3657 191.788C66.2761 192.142 66.1186 192.476 65.9021 192.77C65.8346 192.857 65.7466 192.926 65.6459 192.971C65.5889 192.993 65.526 192.993 65.469 192.971C65.3836 192.971 65.286 192.904 65.2738 192.874C65.2484 192.83 65.2299 192.783 65.2189 192.734C65.177 192.448 65.1978 192.156 65.2799 191.88C65.7551 190.365 66.7319 189.056 68.0494 188.171C68.5824 187.784 69.2214 187.571 69.8795 187.56C70.0194 187.568 70.1583 187.588 70.2943 187.621C70.405 187.651 70.5115 187.694 70.6116 187.75C70.8018 187.861 70.9612 188.018 71.0752 188.207C71.3989 188.795 71.5885 189.447 71.6303 190.117C71.7021 190.928 71.7021 191.745 71.6303 192.557C71.5586 193.42 71.4426 194.279 71.2826 195.131C71.124 195.979 70.9227 196.876 70.6726 197.65L74.5463 198.645Z" fill="#FFC727"/>
<path opacity="0.1" d="M74.5463 198.645C74.7476 197.608 74.8696 196.68 74.9733 195.692C75.077 194.704 75.1258 193.722 75.1197 192.715C75.1247 191.68 75.0348 190.647 74.8513 189.629C74.6586 188.448 74.1858 187.331 73.4726 186.371C73.0283 185.828 72.4589 185.401 71.8133 185.126C71.491 184.991 71.1528 184.897 70.8068 184.846C70.4837 184.798 70.1567 184.784 69.8307 184.803C68.6245 184.895 67.476 185.357 66.5427 186.127C65.7035 186.799 64.9909 187.615 64.438 188.537C63.8628 189.444 63.4711 190.455 63.2851 191.513C63.1624 192.146 63.213 192.799 63.4315 193.405C63.5821 193.796 63.848 194.132 64.194 194.368C64.523 194.586 64.9042 194.713 65.2982 194.734C65.7036 194.755 66.1062 194.658 66.4572 194.454C66.7587 194.264 67.0148 194.01 67.2076 193.71C67.5131 193.228 67.7204 192.691 67.8176 192.13C67.9917 191.133 67.9917 190.113 67.8176 189.116C67.6645 188.118 67.3005 187.163 66.7501 186.316C66.456 185.867 66.0586 185.494 65.591 185.23C65.1071 184.966 64.5481 184.874 64.0049 184.968C63.032 185.186 62.1514 185.702 61.4855 186.444C60.2217 187.836 59.2139 189.441 58.5085 191.184C59.3368 189.534 60.4476 188.041 61.7905 186.774C62.417 186.165 63.2198 185.77 64.0842 185.645C64.4715 185.638 64.8521 185.746 65.1779 185.956C65.5036 186.166 65.7599 186.467 65.9143 186.822C66.3031 187.581 66.5296 188.412 66.5793 189.262C66.6512 190.11 66.579 190.964 66.3657 191.788C66.2761 192.142 66.1186 192.476 65.9021 192.77C65.8346 192.857 65.7466 192.926 65.6459 192.971C65.5889 192.993 65.526 192.993 65.469 192.971C65.3836 192.971 65.286 192.904 65.2738 192.874C65.2484 192.83 65.2299 192.783 65.2189 192.734C65.177 192.448 65.1978 192.156 65.2799 191.88C65.7551 190.365 66.7319 189.056 68.0494 188.171C68.5824 187.784 69.2214 187.571 69.8795 187.56C70.0194 187.568 70.1583 187.588 70.2943 187.621C70.405 187.651 70.5115 187.694 70.6116 187.75C70.8018 187.861 70.9612 188.018 71.0752 188.207C71.3989 188.795 71.5885 189.447 71.6303 190.117C71.7021 190.928 71.7021 191.745 71.6303 192.557C71.5586 193.42 71.4426 194.279 71.2826 195.131C71.124 195.979 70.9227 196.876 70.6726 197.65L74.5463 198.645Z" fill="black"/>
<path d="M77.6392 243.97C80.3294 247.77 79.7804 259.379 81.4091 261.008C83.0379 262.637 99.7101 262.46 100.857 261.502C102.004 260.544 101.467 256.445 102.687 255.774C103.206 255.505 77.6392 243.97 77.6392 243.97Z" fill="#FFC727"/>
<path opacity="0.1" d="M77.6392 243.97C80.3294 247.77 79.7804 259.379 81.4091 261.008C83.0379 262.637 99.7101 262.46 100.857 261.502C102.004 260.544 101.467 256.445 102.687 255.774C103.206 255.505 77.6392 243.97 77.6392 243.97Z" fill="black"/>
<path d="M148.915 244.159C145.554 249.039 147.372 259.41 145.743 261.008C144.114 262.607 127.442 262.46 126.295 261.502C125.148 260.545 125.685 256.226 125.02 255.402C124.672 254.969 148.915 244.159 148.915 244.159Z" fill="#FFC727"/>
<path opacity="0.1" d="M148.915 244.159C145.554 249.039 147.372 259.41 145.743 261.008C144.114 262.607 127.442 262.46 126.295 261.502C125.148 260.545 125.685 256.226 125.02 255.402C124.672 254.969 148.915 244.159 148.915 244.159Z" fill="black"/>
<path opacity="0.3" d="M102.711 255.774C102.516 255.919 102.352 256.102 102.229 256.312C102.105 256.521 102.024 256.753 101.992 256.994C94.2889 256.101 86.7584 254.085 79.6401 251.01C79.2496 248.179 78.6945 245.483 77.6392 243.988C77.6392 243.976 103.206 255.512 102.711 255.774Z" fill="black"/>
<path opacity="0.3" d="M148.915 244.159C147.664 245.989 147.128 248.545 146.865 251.15C140.039 254.175 132.803 256.175 125.392 257.086C125.402 256.504 125.277 255.927 125.026 255.402C124.666 254.969 148.915 244.159 148.915 244.159Z" fill="black"/>
<path d="M112.161 173.805C78.6092 173.805 65.7253 200.091 65.7253 215.476C65.7253 230.653 75.4858 256.446 112.161 256.446C148.836 256.446 160.994 234.594 160.994 215.128C160.994 195.662 146.085 173.805 112.161 173.805Z" fill="#FFC727"/>
<path opacity="0.1" d="M112.161 173.805C78.6092 173.805 65.7253 200.091 65.7253 215.476C65.7253 230.653 75.4858 256.446 112.161 256.446C148.836 256.446 160.994 234.594 160.994 215.128C160.994 195.662 146.085 173.805 112.161 173.805Z" fill="black"/>
<path d="M121.635 175.707C121.635 175.707 136.971 163.946 153.582 165.337C159.298 165.819 149.806 178.215 149.629 187.908L121.635 175.707Z" fill="#FFC727"/>
<path opacity="0.1" d="M121.635 175.707C121.635 175.707 136.971 163.946 153.582 165.337C159.298 165.819 149.806 178.215 149.629 187.908L121.635 175.707Z" fill="black"/>
<path opacity="0.3" d="M143.224 183.162C143.126 183.772 148.421 186.041 148.97 185.694C149.519 185.346 150.068 177.72 154.387 169.595C155.021 168.399 144.248 176.586 143.224 183.162Z" fill="black"/>
<path opacity="0.3" d="M146.554 213.37C147.066 213.292 147.545 213.07 147.935 212.73C148.325 212.389 148.61 211.945 148.757 211.449C148.708 212.059 148.522 212.65 148.212 213.179C147.903 213.707 147.478 214.158 146.969 214.499C146.896 214.548 146.933 214.688 147.03 214.658C149.965 213.553 149.647 209.411 148.616 206.77C148.562 206.623 148.507 206.477 148.439 206.337C147.781 204.806 146.609 203.695 145.194 203.897C140.454 204.58 142.162 214.005 146.554 213.37Z" fill="black"/>
<path d="M157.828 199.95C158.56 202.152 165.221 200.365 166.899 201.78C169.54 203.976 168.808 231.178 166.392 233.368C165.038 234.588 157.486 233.301 155.363 234.795C153.24 236.29 157.828 199.95 157.828 199.95Z" fill="#FFC727"/>
<path opacity="0.1" d="M157.828 199.95C158.56 202.152 165.221 200.365 166.899 201.78C169.54 203.976 168.808 231.178 166.392 233.368C165.038 234.588 157.486 233.301 155.363 234.795C153.24 236.29 157.828 199.95 157.828 199.95Z" fill="black"/>
<path opacity="0.3" d="M167.277 216.891C167.277 223.516 166.722 228.89 166.057 228.89C165.392 228.89 164.837 223.516 164.837 216.891C164.837 210.266 165.386 204.892 166.057 204.892C166.728 204.892 167.277 210.266 167.277 216.891Z" fill="black"/>
<path opacity="0.3" d="M99.1429 182.522C99.2527 182.485 110.575 178.807 121.104 181.686L122.153 177.849C110.428 174.64 98.3621 178.581 97.8801 178.746L99.1368 182.522L98.5268 180.637L99.1429 182.522Z" fill="black"/>
<path d="M83.4041 240.279C68.2814 222.9 77.5356 202.72 77.9565 201.847C78.2151 201.26 78.2364 200.595 78.0161 199.991C77.7957 199.388 77.3508 198.893 76.7742 198.611C76.1976 198.328 75.534 198.279 74.9222 198.474C74.3104 198.669 73.7976 199.093 73.4911 199.657C71.4482 204.236 70.2396 209.142 69.9224 214.146C69.1965 225.199 72.8506 235.35 81.513 242.262C84.13 244.348 85.3684 242.518 83.4041 240.279Z" fill="white"/>
<path d="M76.8401 194.137C76.8389 194.673 76.9967 195.197 77.2936 195.643C77.5905 196.09 78.0131 196.438 78.5079 196.644C79.0027 196.85 79.5475 196.904 80.0733 196.8C80.5991 196.697 81.0823 196.439 81.4617 196.06C81.8411 195.682 82.0997 195.199 82.2047 194.674C82.3097 194.148 82.2564 193.603 82.0516 193.108C81.8467 192.613 81.4996 192.189 81.054 191.891C80.6085 191.594 80.0846 191.435 79.5486 191.435C78.8313 191.435 78.1433 191.719 77.6356 192.226C77.1278 192.732 76.8417 193.42 76.8401 194.137Z" fill="white"/>
<path d="M211.199 258.073H192.075V262.301H211.199V258.073Z" fill="#FFC727"/>
<g opacity="0.1">
<path opacity="0.1" d="M192.862 258.458C193.266 259.55 193.266 260.751 192.862 261.844C192.458 260.751 192.458 259.55 192.862 258.458Z" fill="black"/>
<path opacity="0.1" d="M194.283 258.458C194.687 259.55 194.687 260.751 194.283 261.844C193.879 260.751 193.879 259.55 194.283 258.458Z" fill="black"/>
<path opacity="0.1" d="M194.979 258.458C195.383 259.55 195.383 260.751 194.979 261.844C194.575 260.751 194.575 259.55 194.979 258.458Z" fill="black"/>
<path opacity="0.1" d="M198.803 258.458C199.202 259.551 199.202 260.75 198.803 261.844C198.399 260.751 198.399 259.55 198.803 258.458Z" fill="black"/>
<path opacity="0.1" d="M199.835 258.458C200.045 258.998 200.148 259.574 200.14 260.154C200.151 260.732 200.047 261.306 199.835 261.844C199.62 261.307 199.516 260.732 199.53 260.154C199.521 259.574 199.624 258.998 199.835 258.458Z" fill="black"/>
<path opacity="0.1" d="M204.105 258.458C204.509 259.55 204.509 260.751 204.105 261.844C203.701 260.751 203.701 259.55 204.105 258.458Z" fill="black"/>
<path opacity="0.1" d="M205.093 258.458C205.497 259.55 205.497 260.751 205.093 261.844C204.689 260.751 204.689 259.55 205.093 258.458Z" fill="black"/>
<path opacity="0.1" d="M206.904 258.458C207.309 259.55 207.309 260.751 206.904 261.844C206.506 260.75 206.506 259.551 206.904 258.458V258.458Z" fill="black"/>
<path opacity="0.1" d="M203.281 258.458C203.493 259 203.594 259.578 203.58 260.16C203.594 260.738 203.49 261.313 203.275 261.85C203.062 261.312 202.959 260.738 202.97 260.16C202.962 259.578 203.068 259 203.281 258.458Z" fill="black"/>
<path opacity="0.1" d="M196.26 258.458C196.664 259.55 196.664 260.751 196.26 261.844C195.856 260.751 195.856 259.55 196.26 258.458Z" fill="black"/>
<path opacity="0.1" d="M201.195 258.458C201.599 259.55 201.599 260.751 201.195 261.844C200.98 261.307 200.876 260.732 200.89 260.154C200.878 259.574 200.982 258.998 201.195 258.458V258.458Z" fill="black"/>
<path opacity="0.1" d="M201.908 258.458C202.312 259.55 202.312 260.751 201.908 261.844C201.504 260.751 201.504 259.55 201.908 258.458Z" fill="black"/>
<path opacity="0.1" d="M209.272 258.458C209.482 258.998 209.585 259.574 209.577 260.154C209.588 260.732 209.484 261.306 209.272 261.844C209.057 261.307 208.953 260.732 208.967 260.154C208.955 259.574 209.059 258.998 209.272 258.458Z" fill="black"/>
<path opacity="0.1" d="M210.339 258.458C210.549 258.998 210.653 259.574 210.644 260.154C210.658 260.732 210.554 261.307 210.339 261.844C210.127 261.306 210.023 260.732 210.034 260.154C210.025 259.574 210.129 258.998 210.339 258.458Z" fill="black"/>
<path opacity="0.1" d="M207.746 258.458C208.15 259.55 208.15 260.751 207.746 261.844C207.342 260.751 207.342 259.55 207.746 258.458Z" fill="black"/>
<path opacity="0.1" d="M197.974 258.458C198.187 258.998 198.29 259.574 198.279 260.154C198.292 260.732 198.189 261.307 197.974 261.844C197.57 260.751 197.57 259.55 197.974 258.458V258.458Z" fill="black"/>
</g>
<path opacity="0.1" d="M211.199 258.073V258.97L192.069 259.574V258.073H211.199Z" fill="black"/>
<path d="M209.601 253.846H190.477V258.073H209.601V253.846Z" fill="#FFC727"/>
<g opacity="0.1">
<path opacity="0.1" d="M208.741 257.616C208.334 256.526 208.334 255.326 208.741 254.236C209.148 255.326 209.148 256.526 208.741 257.616V257.616Z" fill="black"/>
<path opacity="0.1" d="M207.319 257.616C207.106 257.078 207.003 256.504 207.014 255.926C206.999 255.348 207.103 254.773 207.319 254.236C207.533 254.774 207.637 255.348 207.624 255.926C207.633 256.504 207.529 257.078 207.319 257.616V257.616Z" fill="black"/>
<path opacity="0.1" d="M206.63 257.616C206.223 256.526 206.223 255.326 206.63 254.236C207.037 255.326 207.037 256.526 206.63 257.616V257.616Z" fill="black"/>
<path opacity="0.1" d="M202.805 257.616C202.398 256.526 202.398 255.326 202.805 254.236C203.212 255.326 203.212 256.526 202.805 257.616V257.616Z" fill="black"/>
<path opacity="0.1" d="M201.75 257.616C201.54 257.078 201.436 256.504 201.445 255.926C201.433 255.348 201.537 254.774 201.75 254.236C201.966 254.773 202.07 255.348 202.055 255.926C202.067 256.504 201.963 257.078 201.75 257.616Z" fill="black"/>
<path opacity="0.1" d="M197.48 257.616C197.073 256.526 197.073 255.326 197.48 254.236C197.887 255.326 197.887 256.526 197.48 257.616V257.616Z" fill="black"/>
<path opacity="0.1" d="M196.51 257.616C196.297 257.078 196.193 256.504 196.205 255.926C196.189 255.348 196.293 254.773 196.51 254.236C196.916 255.326 196.916 256.526 196.51 257.616Z" fill="black"/>
<path opacity="0.1" d="M194.698 257.616C194.291 256.526 194.291 255.326 194.698 254.236C195.105 255.326 195.105 256.526 194.698 257.616V257.616Z" fill="black"/>
<path opacity="0.1" d="M198.322 257.616C198.112 257.078 198.008 256.504 198.017 255.926C198.001 255.348 198.105 254.773 198.322 254.236C198.535 254.774 198.639 255.348 198.627 255.926C198.635 256.504 198.532 257.078 198.322 257.616Z" fill="black"/>
<path opacity="0.1" d="M205.361 257.616C205.148 257.078 205.045 256.504 205.056 255.926C205.041 255.348 205.145 254.773 205.361 254.236C205.768 255.326 205.768 256.526 205.361 257.616Z" fill="black"/>
<path opacity="0.1" d="M200.408 257.616C200.001 256.526 200.001 255.326 200.408 254.236C200.815 255.326 200.815 256.526 200.408 257.616V257.616Z" fill="black"/>
<path opacity="0.1" d="M199.7 257.616C199.293 256.526 199.293 255.326 199.7 254.236C200.099 255.328 200.099 256.525 199.7 257.616Z" fill="black"/>
<path opacity="0.1" d="M192.331 257.616C191.924 256.526 191.924 255.326 192.331 254.236C192.547 254.773 192.651 255.348 192.636 255.926C192.648 256.504 192.544 257.078 192.331 257.616Z" fill="black"/>
<path opacity="0.1" d="M191.263 257.616C191.053 257.078 190.95 256.504 190.958 255.926C190.946 255.348 191.05 254.774 191.263 254.236C191.48 254.773 191.584 255.348 191.569 255.926C191.58 256.504 191.476 257.078 191.263 257.616Z" fill="black"/>
<path opacity="0.1" d="M193.856 257.616C193.449 256.526 193.449 255.326 193.856 254.236C194.263 255.326 194.263 256.526 193.856 257.616V257.616Z" fill="black"/>
<path opacity="0.1" d="M203.629 257.616C203.416 257.078 203.312 256.504 203.324 255.926C203.309 255.348 203.412 254.773 203.629 254.236C203.842 254.774 203.946 255.348 203.934 255.926C203.942 256.504 203.839 257.078 203.629 257.616V257.616Z" fill="black"/>
</g>
<path opacity="0.1" d="M209.601 253.846V254.742L190.477 255.346V253.846H209.601Z" fill="black"/>
<path d="M211.071 249.655H191.947V253.883H211.071V249.655Z" fill="#FFC727"/>
<g opacity="0.1">
<path opacity="0.1" d="M192.74 250.039C193.144 251.131 193.144 252.332 192.74 253.425C192.336 252.332 192.336 251.131 192.74 250.039Z" fill="black"/>
<path opacity="0.1" d="M194.161 250.039C194.374 250.579 194.478 251.155 194.466 251.735C194.48 252.313 194.376 252.888 194.161 253.425C193.757 252.332 193.757 251.131 194.161 250.039V250.039Z" fill="black"/>
<path opacity="0.1" d="M194.857 250.039C195.261 251.131 195.261 252.332 194.857 253.425C194.453 252.332 194.453 251.131 194.857 250.039Z" fill="black"/>
<path opacity="0.1" d="M198.7 250.039C199.104 251.131 199.104 252.332 198.7 253.425C198.296 252.332 198.296 251.131 198.7 250.039Z" fill="black"/>
<path opacity="0.1" d="M199.712 250.039C199.923 250.579 200.026 251.155 200.017 251.735C200.029 252.313 199.925 252.887 199.712 253.425C199.497 252.888 199.394 252.313 199.407 251.735C199.396 251.155 199.5 250.579 199.712 250.039Z" fill="black"/>
<path opacity="0.1" d="M203.983 250.039C204.387 251.131 204.387 252.332 203.983 253.425C203.579 252.332 203.579 251.131 203.983 250.039Z" fill="black"/>
<path opacity="0.1" d="M204.971 250.039C205.375 251.131 205.375 252.332 204.971 253.425C204.567 252.332 204.567 251.131 204.971 250.039Z" fill="black"/>
<path opacity="0.1" d="M206.783 250.039C207.187 251.131 207.187 252.332 206.783 253.425C206.379 252.332 206.379 251.131 206.783 250.039Z" fill="black"/>
<path opacity="0.1" d="M203.159 250.039C203.369 250.579 203.473 251.155 203.464 251.735C203.478 252.313 203.374 252.888 203.159 253.425C202.947 252.887 202.843 252.313 202.854 251.735C202.846 251.155 202.949 250.579 203.159 250.039Z" fill="black"/>
<path opacity="0.1" d="M196.12 250.039C196.524 251.131 196.524 252.332 196.12 253.425C195.716 252.332 195.716 251.131 196.12 250.039Z" fill="black"/>
<path opacity="0.1" d="M201.073 250.039C201.477 251.131 201.477 252.332 201.073 253.425C200.669 252.332 200.669 251.131 201.073 250.039Z" fill="black"/>
<path opacity="0.1" d="M201.787 250.039C202.185 251.132 202.185 252.331 201.787 253.425C201.383 252.332 201.383 251.131 201.787 250.039Z" fill="black"/>
<path opacity="0.1" d="M209.15 250.039C209.554 251.131 209.554 252.332 209.15 253.425C208.935 252.888 208.831 252.313 208.845 251.735C208.833 251.155 208.937 250.579 209.15 250.039V250.039Z" fill="black"/>
<path opacity="0.1" d="M210.217 250.039C210.427 250.579 210.531 251.155 210.522 251.735C210.534 252.313 210.43 252.887 210.217 253.425C210.002 252.888 209.899 252.313 209.912 251.735C209.904 251.155 210.007 250.579 210.217 250.039V250.039Z" fill="black"/>
<path opacity="0.1" d="M207.625 250.039C208.029 251.131 208.029 252.332 207.625 253.425C207.221 252.332 207.221 251.131 207.625 250.039Z" fill="black"/>
<path opacity="0.1" d="M197.852 250.039C198.065 250.579 198.169 251.155 198.157 251.735C198.171 252.313 198.067 252.888 197.852 253.425C197.639 252.887 197.536 252.313 197.547 251.735C197.538 251.155 197.642 250.579 197.852 250.039Z" fill="black"/>
</g>
<path opacity="0.1" d="M211.077 249.655V250.552L191.947 251.156V249.655H211.077Z" fill="black"/>
<path d="M71.3252 255.529H52.2007V259.757H71.3252V255.529Z" fill="#FFC727"/>
<g opacity="0.1">
<path opacity="0.1" d="M52.9878 255.892C53.3918 256.984 53.3918 258.185 52.9878 259.277C52.5838 258.185 52.5838 256.984 52.9878 255.892V255.892Z" fill="black"/>
<path opacity="0.1" d="M54.4153 255.89C54.6248 256.428 54.7284 257.002 54.7203 257.579C54.7319 258.159 54.6282 258.736 54.4153 259.275C54.1994 258.737 54.0956 258.16 54.1102 257.579C54.0991 257.002 54.2028 256.427 54.4153 255.89V255.89Z" fill="black"/>
<path opacity="0.1" d="M55.1108 255.89C55.3204 256.428 55.424 257.002 55.4158 257.579C55.4305 258.16 55.3267 258.737 55.1108 259.275C54.8979 258.736 54.7942 258.159 54.8058 257.579C54.7977 257.002 54.9012 256.428 55.1108 255.89Z" fill="black"/>
<path opacity="0.1" d="M58.9295 255.89C59.3335 256.982 59.3335 258.183 58.9295 259.275C58.5255 258.183 58.5255 256.982 58.9295 255.89V255.89Z" fill="black"/>
<path opacity="0.1" d="M59.9666 255.89C60.3706 256.982 60.3706 258.183 59.9666 259.275C59.5626 258.183 59.5626 256.982 59.9666 255.89V255.89Z" fill="black"/>
<path opacity="0.1" d="M64.2368 255.89C64.4493 256.427 64.553 257.002 64.5419 257.579C64.5565 258.16 64.4527 258.737 64.2368 259.275C63.8328 258.183 63.8328 256.982 64.2368 255.89V255.89Z" fill="black"/>
<path opacity="0.1" d="M65.2251 255.89C65.4347 256.428 65.5382 257.002 65.5301 257.579C65.5447 258.16 65.4409 258.737 65.2251 259.275C65.0121 258.736 64.9084 258.159 64.9201 257.579C64.9119 257.002 65.0155 256.428 65.2251 255.89V255.89Z" fill="black"/>
<path opacity="0.1" d="M67.0369 255.89C67.2494 256.427 67.353 257.002 67.3419 257.579C67.3565 258.16 67.2527 258.737 67.0369 259.275C66.6329 258.183 66.6329 256.982 67.0369 255.89V255.89Z" fill="black"/>
<path opacity="0.1" d="M63.4133 255.89C63.8173 256.982 63.8173 258.183 63.4133 259.275C63.1975 258.737 63.0937 258.16 63.1083 257.579C63.0972 257.002 63.2008 256.427 63.4133 255.89Z" fill="black"/>
<path opacity="0.1" d="M56.3735 255.89C56.5831 256.428 56.6867 257.002 56.6785 257.579C56.6901 258.159 56.5865 258.736 56.3735 259.275C56.1577 258.737 56.0539 258.16 56.0685 257.579C56.0604 257.002 56.1639 256.428 56.3735 255.89Z" fill="black"/>
<path opacity="0.1" d="M61.3269 255.89C61.7309 256.982 61.7309 258.183 61.3269 259.275C60.9229 258.183 60.9229 256.982 61.3269 255.89V255.89Z" fill="black"/>
<path opacity="0.1" d="M62.053 255.89C62.457 256.982 62.457 258.183 62.053 259.275C61.649 258.183 61.649 256.982 62.053 255.89V255.89Z" fill="black"/>
<path opacity="0.1" d="M69.4038 255.89C69.8078 256.982 69.8078 258.183 69.4038 259.275C68.9998 258.183 68.9998 256.982 69.4038 255.89V255.89Z" fill="black"/>
<path opacity="0.1" d="M70.4712 255.89C70.8752 256.982 70.8752 258.183 70.4712 259.275C70.0672 258.183 70.0672 256.982 70.4712 255.89V255.89Z" fill="black"/>
<path opacity="0.1" d="M67.8787 255.89C68.0912 256.427 68.1948 257.002 68.1837 257.579C68.1983 258.16 68.0945 258.737 67.8787 259.275C67.4747 258.183 67.4747 256.982 67.8787 255.89V255.89Z" fill="black"/>
<path opacity="0.1" d="M58.1059 255.89C58.3155 256.428 58.4191 257.002 58.4109 257.579C58.4226 258.159 58.3189 258.736 58.1059 259.275C57.8901 258.737 57.7863 258.16 57.8009 257.579C57.7898 257.002 57.8935 256.427 58.1059 255.89V255.89Z" fill="black"/>
</g>
<path opacity="0.1" d="M71.3313 255.529V256.426L52.2007 257.03V255.529H71.3313Z" fill="black"/>
<path d="M70.02 251.302H50.8955V255.529H70.02V251.302Z" fill="#FFC727"/>
<g opacity="0.1">
<path opacity="0.1" d="M51.6825 251.687C51.8925 252.227 51.9961 252.803 51.9875 253.382C52.0013 253.961 51.8975 254.535 51.6825 255.072C51.4674 254.535 51.3636 253.961 51.3774 253.382C51.3688 252.803 51.4724 252.227 51.6825 251.687V251.687Z" fill="black"/>
<path opacity="0.1" d="M53.104 251.687C53.508 252.779 53.508 253.98 53.104 255.072C52.7053 253.979 52.7053 252.78 53.104 251.687V251.687Z" fill="black"/>
<path opacity="0.1" d="M53.8054 251.687C54.2095 252.779 54.2095 253.98 53.8054 255.072C53.4014 253.98 53.4014 252.779 53.8054 251.687V251.687Z" fill="black"/>
<path opacity="0.1" d="M57.6241 251.687C58.0281 252.779 58.0281 253.98 57.6241 255.072C57.4091 254.535 57.3053 253.961 57.3191 253.382C57.3075 252.803 57.4111 252.226 57.6241 251.687Z" fill="black"/>
<path opacity="0.1" d="M58.6553 251.687C59.0593 252.779 59.0593 253.98 58.6553 255.072C58.2513 253.98 58.2513 252.779 58.6553 251.687V251.687Z" fill="black"/>
<path opacity="0.1" d="M62.9314 251.687C63.3354 252.779 63.3354 253.98 62.9314 255.072C62.5274 253.98 62.5274 252.779 62.9314 251.687V251.687Z" fill="black"/>
<path opacity="0.1" d="M63.9197 251.687C64.3237 252.779 64.3237 253.98 63.9197 255.072C63.5157 253.98 63.5157 252.779 63.9197 251.687V251.687Z" fill="black"/>
<path opacity="0.1" d="M65.7132 251.687C66.1172 252.779 66.1172 253.98 65.7132 255.072C65.3092 253.98 65.3092 252.779 65.7132 251.687V251.687Z" fill="black"/>
<path opacity="0.1" d="M62.1018 251.687C62.5058 252.779 62.5058 253.98 62.1018 255.072C61.6978 253.98 61.6978 252.779 62.1018 251.687V251.687Z" fill="black"/>
<path opacity="0.1" d="M55.0681 251.687C55.4722 252.779 55.4722 253.98 55.0681 255.072C54.6641 253.98 54.6641 252.779 55.0681 251.687V251.687Z" fill="black"/>
<path opacity="0.1" d="M60.0155 251.687C60.2285 252.226 60.3322 252.803 60.3206 253.382C60.3344 253.961 60.2306 254.535 60.0155 255.072C59.8031 254.535 59.6994 253.96 59.7105 253.382C59.7019 252.803 59.8055 252.227 60.0155 251.687V251.687Z" fill="black"/>
<path opacity="0.1" d="M60.7293 251.687C61.1333 252.779 61.1333 253.98 60.7293 255.072C60.5143 254.535 60.4105 253.961 60.4243 253.382C60.4127 252.803 60.5164 252.226 60.7293 251.687V251.687Z" fill="black"/>
<path opacity="0.1" d="M68.0923 251.687C68.3053 252.226 68.409 252.803 68.3973 253.382C68.4111 253.961 68.3074 254.535 68.0923 255.072C67.6883 253.98 67.6883 252.779 68.0923 251.687V251.687Z" fill="black"/>
<path opacity="0.1" d="M69.1599 251.687C69.564 252.779 69.564 253.98 69.1599 255.072C68.7559 253.98 68.7559 252.779 69.1599 251.687V251.687Z" fill="black"/>
<path opacity="0.1" d="M66.5733 251.687C66.9773 252.779 66.9773 253.98 66.5733 255.072C66.1693 253.98 66.1693 252.779 66.5733 251.687V251.687Z" fill="black"/>
<path opacity="0.1" d="M56.7947 251.687C57.1987 252.779 57.1987 253.98 56.7947 255.072C56.3907 253.98 56.3907 252.779 56.7947 251.687V251.687Z" fill="black"/>
</g>
<path opacity="0.1" d="M70.02 251.302V252.199L50.8955 252.802V251.302H70.02Z" fill="black"/>
<path d="M72.9724 242.884H53.8479V247.111H72.9724V242.884Z" fill="#FFC727"/>
<g opacity="0.1">
<path opacity="0.1" d="M54.635 243.268C55.039 244.36 55.039 245.561 54.635 246.653C54.231 245.561 54.231 244.36 54.635 243.268Z" fill="black"/>
<path opacity="0.1" d="M56.0623 243.268C56.2724 243.808 56.376 244.384 56.3673 244.963C56.3785 245.541 56.2748 246.116 56.0623 246.653C55.8473 246.116 55.7435 245.542 55.7573 244.963C55.7457 244.384 55.8494 243.807 56.0623 243.268V243.268Z" fill="black"/>
<path opacity="0.1" d="M56.7579 243.268C56.968 243.808 57.0715 244.384 57.0629 244.963C57.074 245.541 56.9704 246.116 56.7579 246.653C56.5429 246.116 56.4391 245.542 56.4529 244.963C56.4443 244.384 56.5478 243.808 56.7579 243.268Z" fill="black"/>
<path opacity="0.1" d="M60.5767 243.268C60.7896 243.807 60.8933 244.384 60.8817 244.963C60.8955 245.542 60.7917 246.116 60.5767 246.653C60.1727 245.561 60.1727 244.36 60.5767 243.268V243.268Z" fill="black"/>
<path opacity="0.1" d="M61.6138 243.268C62.0178 244.36 62.0178 245.561 61.6138 246.653C61.2098 245.561 61.2098 244.36 61.6138 243.268Z" fill="black"/>
<path opacity="0.1" d="M65.884 243.268C66.0969 243.807 66.2006 244.384 66.189 244.963C66.2028 245.542 66.099 246.116 65.884 246.653C65.6715 246.116 65.5678 245.541 65.5789 244.963C65.5703 244.384 65.6739 243.808 65.884 243.268Z" fill="black"/>
<path opacity="0.1" d="M66.8721 243.268C67.0822 243.808 67.1858 244.384 67.1772 244.963C67.1883 245.541 67.0846 246.116 66.8721 246.653C66.6571 246.116 66.5533 245.542 66.5671 244.963C66.5585 244.384 66.6621 243.808 66.8721 243.268Z" fill="black"/>
<path opacity="0.1" d="M68.6841 243.268C68.8971 243.807 69.0007 244.384 68.9891 244.963C69.0029 245.542 68.8991 246.116 68.6841 246.653C68.2801 245.561 68.2801 244.36 68.6841 243.268V243.268Z" fill="black"/>
<path opacity="0.1" d="M65.0606 243.268C65.4646 244.36 65.4646 245.561 65.0606 246.653C64.6566 245.561 64.6566 244.36 65.0606 243.268Z" fill="black"/>
<path opacity="0.1" d="M58.0208 243.268C58.2309 243.808 58.3345 244.384 58.3258 244.963C58.337 245.541 58.2333 246.116 58.0208 246.653C57.8058 246.116 57.702 245.542 57.7158 244.963C57.7072 244.384 57.8108 243.808 58.0208 243.268Z" fill="black"/>
<path opacity="0.1" d="M62.968 243.268C63.372 244.36 63.372 245.561 62.968 246.653C62.5693 245.56 62.5693 244.361 62.968 243.268V243.268Z" fill="black"/>
<path opacity="0.1" d="M63.6817 243.268C64.0857 244.36 64.0857 245.561 63.6817 246.653C63.2777 245.561 63.2777 244.36 63.6817 243.268Z" fill="black"/>
<path opacity="0.1" d="M71.0511 243.268C71.4551 244.36 71.4551 245.561 71.0511 246.653C70.647 245.561 70.647 244.36 71.0511 243.268Z" fill="black"/>
<path opacity="0.1" d="M72.1184 243.268C72.5224 244.36 72.5224 245.561 72.1184 246.653C71.7144 245.561 71.7144 244.36 72.1184 243.268Z" fill="black"/>
<path opacity="0.1" d="M69.5258 243.268C69.7388 243.807 69.8424 244.384 69.8308 244.963C69.8446 245.542 69.7408 246.116 69.5258 246.653C69.3133 246.116 69.2096 245.541 69.2208 244.963C69.2122 244.384 69.3157 243.808 69.5258 243.268Z" fill="black"/>
<path opacity="0.1" d="M59.7533 243.268C59.9633 243.808 60.0669 244.384 60.0583 244.963C60.0694 245.541 59.9657 246.116 59.7533 246.653C59.5382 246.116 59.4344 245.542 59.4482 244.963C59.4366 244.384 59.5403 243.807 59.7533 243.268V243.268Z" fill="black"/>
</g>
<path opacity="0.1" d="M72.9724 242.884V243.781L53.8479 244.384V242.884H72.9724Z" fill="black"/>
<path d="M72.4907 238.656H53.3662V242.884H72.4907V238.656Z" fill="#FFC727"/>
<g opacity="0.1">
<path opacity="0.1" d="M71.6362 242.426C71.2293 241.337 71.2293 240.137 71.6362 239.047C72.035 240.138 72.035 241.335 71.6362 242.426V242.426Z" fill="black"/>
<path opacity="0.1" d="M70.2088 242.426C69.9988 241.888 69.8952 241.314 69.9038 240.737C69.8917 240.159 69.9954 239.584 70.2088 239.047C70.4252 239.583 70.529 240.158 70.5138 240.737C70.5224 241.314 70.4188 241.888 70.2088 242.426V242.426Z" fill="black"/>
<path opacity="0.1" d="M69.5135 242.426C69.3006 241.889 69.1969 241.315 69.2085 240.737C69.1933 240.158 69.2971 239.583 69.5135 239.047C69.7269 239.584 69.8306 240.159 69.8185 240.737C69.8271 241.314 69.7235 241.888 69.5135 242.426Z" fill="black"/>
<path opacity="0.1" d="M65.7128 242.426C65.306 241.337 65.306 240.137 65.7128 239.047C66.1197 240.137 66.1197 241.337 65.7128 242.426V242.426Z" fill="black"/>
<path opacity="0.1" d="M64.6574 242.426C64.2506 241.337 64.2506 240.137 64.6574 239.047C65.0643 240.137 65.0643 241.337 64.6574 242.426V242.426Z" fill="black"/>
<path opacity="0.1" d="M60.3873 242.426C60.1743 241.889 60.0706 241.315 60.0823 240.737C60.0671 240.158 60.1709 239.583 60.3873 239.047C60.7941 240.137 60.7941 241.337 60.3873 242.426Z" fill="black"/>
<path opacity="0.1" d="M59.399 242.426C59.186 241.889 59.0824 241.315 59.094 240.737C59.0788 240.158 59.1826 239.583 59.399 239.047C59.6124 239.584 59.7161 240.159 59.704 240.737C59.7126 241.314 59.609 241.888 59.399 242.426V242.426Z" fill="black"/>
<path opacity="0.1" d="M57.5874 242.426C57.1805 241.337 57.1805 240.137 57.5874 239.047C57.9942 240.137 57.9942 241.337 57.5874 242.426V242.426Z" fill="black"/>
<path opacity="0.1" d="M61.211 242.426C61.001 241.888 60.8974 241.314 60.906 240.737C60.8939 240.159 60.9976 239.584 61.211 239.047C61.4274 239.583 61.5312 240.158 61.516 240.737C61.5276 241.315 61.4239 241.889 61.211 242.426Z" fill="black"/>
<path opacity="0.1" d="M68.2506 242.426C68.0405 241.888 67.9369 241.314 67.9455 240.737C67.9304 240.158 68.0342 239.583 68.2506 239.047C68.464 239.584 68.5677 240.159 68.5556 240.737C68.5642 241.314 68.4606 241.888 68.2506 242.426V242.426Z" fill="black"/>
<path opacity="0.1" d="M63.2727 242.426C62.8658 241.337 62.8658 240.137 63.2727 239.047C63.6795 240.137 63.6795 241.337 63.2727 242.426V242.426Z" fill="black"/>
<path opacity="0.1" d="M62.5896 242.426C62.1827 241.337 62.1827 240.137 62.5896 239.047C62.9964 240.137 62.9964 241.337 62.5896 242.426V242.426Z" fill="black"/>
<path opacity="0.1" d="M55.2202 242.426C54.8133 241.337 54.8133 240.137 55.2202 239.047C55.627 240.137 55.627 241.337 55.2202 242.426V242.426Z" fill="black"/>
<path opacity="0.1" d="M54.153 242.426C53.7462 241.337 53.7462 240.137 54.153 239.047C54.5599 240.137 54.5599 241.337 54.153 242.426V242.426Z" fill="black"/>
<path opacity="0.1" d="M56.7456 242.426C56.3387 241.337 56.3387 240.137 56.7456 239.047C57.1524 240.137 57.1524 241.337 56.7456 242.426V242.426Z" fill="black"/>
<path opacity="0.1" d="M66.5181 242.426C66.3081 241.888 66.2045 241.314 66.2131 240.737C66.201 240.159 66.3047 239.584 66.5181 239.047C66.7345 239.583 66.8383 240.158 66.8231 240.737C66.8317 241.314 66.7282 241.888 66.5181 242.426Z" fill="black"/>
</g>
<path opacity="0.1" d="M72.4907 238.656V239.553L53.3662 240.157V238.656H72.4907Z" fill="black"/>
<path d="M71.3252 234.429H52.2007V238.656H71.3252V234.429Z" fill="#FFC727"/>
<g opacity="0.1">
<path opacity="0.1" d="M52.9878 234.819C53.3947 235.909 53.3947 237.109 52.9878 238.199C52.589 237.108 52.589 235.911 52.9878 234.819Z" fill="black"/>
<path opacity="0.1" d="M54.4154 234.819C54.6254 235.358 54.729 235.931 54.7204 236.509C54.732 237.087 54.6283 237.662 54.4154 238.199C54.2003 237.662 54.0966 237.087 54.1103 236.509C54.1017 235.931 54.2053 235.358 54.4154 234.819V234.819Z" fill="black"/>
<path opacity="0.1" d="M55.1108 234.819C55.3238 235.357 55.4275 235.931 55.4158 236.509C55.4296 237.087 55.3259 237.662 55.1108 238.199C54.8979 237.662 54.7942 237.087 54.8058 236.509C54.7972 235.931 54.9008 235.358 55.1108 234.819Z" fill="black"/>
<path opacity="0.1" d="M58.9296 234.819C59.3365 235.909 59.3365 237.109 58.9296 238.199C58.5228 237.109 58.5228 235.909 58.9296 234.819V234.819Z" fill="black"/>
<path opacity="0.1" d="M59.9668 234.819C60.3736 235.909 60.3736 237.109 59.9668 238.199C59.5599 237.109 59.5599 235.909 59.9668 234.819V234.819Z" fill="black"/>
<path opacity="0.1" d="M64.2368 234.819C64.6436 235.909 64.6436 237.109 64.2368 238.199C63.8299 237.109 63.8299 235.909 64.2368 234.819V234.819Z" fill="black"/>
<path opacity="0.1" d="M65.2251 234.819C65.438 235.357 65.5417 235.931 65.5301 236.509C65.5439 237.087 65.4401 237.662 65.2251 238.199C65.0121 237.662 64.9084 237.087 64.9201 236.509C64.9115 235.931 65.0151 235.358 65.2251 234.819V234.819Z" fill="black"/>
<path opacity="0.1" d="M67.0368 234.819C67.4437 235.909 67.4437 237.109 67.0368 238.199C66.63 237.109 66.63 235.909 67.0368 234.819V234.819Z" fill="black"/>
<path opacity="0.1" d="M63.4132 234.819C63.6232 235.358 63.7268 235.931 63.7182 236.509C63.7298 237.087 63.6261 237.662 63.4132 238.199C63.1981 237.662 63.0944 237.087 63.1081 236.509C63.0965 235.931 63.2002 235.357 63.4132 234.819V234.819Z" fill="black"/>
<path opacity="0.1" d="M56.3735 234.819C56.5836 235.358 56.6871 235.931 56.6785 236.509C56.6923 237.087 56.5886 237.662 56.3735 238.199C56.1606 237.662 56.0569 237.087 56.0685 236.509C56.0599 235.931 56.1635 235.358 56.3735 234.819V234.819Z" fill="black"/>
<path opacity="0.1" d="M61.3271 234.819C61.734 235.909 61.734 237.109 61.3271 238.199C60.9203 237.109 60.9203 235.909 61.3271 234.819V234.819Z" fill="black"/>
<path opacity="0.1" d="M62.0532 234.819C62.46 235.909 62.46 237.109 62.0532 238.199C61.6463 237.109 61.6463 235.909 62.0532 234.819V234.819Z" fill="black"/>
<path opacity="0.1" d="M69.4038 234.819C69.8106 235.909 69.8106 237.109 69.4038 238.199C68.9969 237.109 68.9969 235.909 69.4038 234.819V234.819Z" fill="black"/>
<path opacity="0.1" d="M70.4712 234.819C70.878 235.909 70.878 237.109 70.4712 238.199C70.0643 237.109 70.0643 235.909 70.4712 234.819V234.819Z" fill="black"/>
<path opacity="0.1" d="M67.8789 234.819C68.2857 235.909 68.2857 237.109 67.8789 238.199C67.472 237.109 67.472 235.909 67.8789 234.819V234.819Z" fill="black"/>
<path opacity="0.1" d="M58.106 234.819C58.3161 235.358 58.4197 235.931 58.4111 236.509C58.4227 237.087 58.319 237.662 58.106 238.199C57.891 237.662 57.7872 237.087 57.801 236.509C57.7924 235.931 57.896 235.358 58.106 234.819V234.819Z" fill="black"/>
</g>
<path opacity="0.1" d="M71.3313 234.429V235.332L52.2007 235.935V234.429H71.3313Z" fill="black"/>
<path d="M71.3252 247.111H52.2007V251.339H71.3252V247.111Z" fill="#FFC727"/>
<g opacity="0.1">
<path opacity="0.1" d="M70.4712 250.882C70.0672 249.789 70.0672 248.588 70.4712 247.496C70.8752 248.588 70.8752 249.789 70.4712 250.882V250.882Z" fill="black"/>
<path opacity="0.1" d="M69.044 250.882C68.64 249.789 68.64 248.588 69.044 247.496C69.448 248.588 69.448 249.789 69.044 250.882V250.882Z" fill="black"/>
<path opacity="0.1" d="M68.3484 250.882C67.9444 249.789 67.9444 248.588 68.3484 247.496C68.5635 248.033 68.6672 248.608 68.6534 249.186C68.6651 249.766 68.5614 250.342 68.3484 250.882V250.882Z" fill="black"/>
<path opacity="0.1" d="M64.5296 250.882C64.3196 250.341 64.216 249.766 64.2246 249.186C64.2108 248.608 64.3146 248.033 64.5296 247.496C64.7421 248.034 64.8458 248.608 64.8346 249.186C64.8433 249.766 64.7397 250.341 64.5296 250.882V250.882Z" fill="black"/>
<path opacity="0.1" d="M63.4986 250.882C63.0946 249.789 63.0946 248.588 63.4986 247.496C63.8973 248.589 63.8973 249.788 63.4986 250.882V250.882Z" fill="black"/>
<path opacity="0.1" d="M59.2223 250.882C59.0123 250.341 58.9087 249.766 58.9173 249.186C58.9062 248.608 59.0099 248.034 59.2223 247.496C59.4374 248.033 59.5411 248.608 59.5273 249.186C59.536 249.766 59.4324 250.341 59.2223 250.882V250.882Z" fill="black"/>
<path opacity="0.1" d="M58.2342 250.882C57.8301 249.789 57.8301 248.588 58.2342 247.496C58.4492 248.033 58.553 248.608 58.5392 249.186C58.5508 249.766 58.4471 250.342 58.2342 250.882Z" fill="black"/>
<path opacity="0.1" d="M56.4224 250.882C56.2124 250.341 56.1088 249.766 56.1174 249.186C56.1036 248.608 56.2074 248.033 56.4224 247.496C56.6349 248.034 56.7386 248.608 56.7275 249.186C56.7361 249.766 56.6325 250.341 56.4224 250.882V250.882Z" fill="black"/>
<path opacity="0.1" d="M60.0459 250.882C59.6419 249.789 59.6419 248.588 60.0459 247.496C60.4499 248.588 60.4499 249.789 60.0459 250.882V250.882Z" fill="black"/>
<path opacity="0.1" d="M67.0857 250.882C66.6817 249.789 66.6817 248.588 67.0857 247.496C67.3008 248.033 67.4045 248.608 67.3907 249.186C67.4024 249.766 67.2987 250.342 67.0857 250.882V250.882Z" fill="black"/>
<path opacity="0.1" d="M62.1382 250.882C61.7342 249.789 61.7342 248.588 62.1382 247.496C62.5422 248.588 62.5422 249.789 62.1382 250.882V250.882Z" fill="black"/>
<path opacity="0.1" d="M61.4427 250.882C61.2297 250.342 61.1261 249.766 61.1377 249.186C61.1239 248.608 61.2277 248.033 61.4427 247.496C61.6552 248.034 61.7589 248.608 61.7477 249.186C61.7563 249.766 61.6528 250.341 61.4427 250.882Z" fill="black"/>
<path opacity="0.1" d="M54.0616 250.882C53.6575 249.789 53.6575 248.588 54.0616 247.496C54.4656 248.588 54.4656 249.789 54.0616 250.882V250.882Z" fill="black"/>
<path opacity="0.1" d="M52.9878 250.882C52.5838 249.789 52.5838 248.588 52.9878 247.496C53.3918 248.588 53.3918 249.789 52.9878 250.882V250.882Z" fill="black"/>
<path opacity="0.1" d="M55.5804 250.882C55.3703 250.341 55.2668 249.766 55.2754 249.186C55.2616 248.608 55.3654 248.033 55.5804 247.496C55.7954 248.033 55.8992 248.608 55.8854 249.186C55.894 249.766 55.7905 250.341 55.5804 250.882V250.882Z" fill="black"/>
<path opacity="0.1" d="M65.3531 250.882C64.949 249.789 64.949 248.588 65.3531 247.496C65.7571 248.588 65.7571 249.789 65.3531 250.882V250.882Z" fill="black"/>
</g>
<path opacity="0.1" d="M71.3313 247.111V248.008L52.2007 248.612V247.111H71.3313Z" fill="black"/>
<path d="M50.6087 245.006C63.1997 247.27 59.8689 265.918 47.2596 263.655C34.6503 261.392 37.9932 242.743 50.6087 245.006Z" fill="#FFC727"/>
<path opacity="0.1" d="M50.6087 245.006C63.1997 247.27 59.8689 265.918 47.2596 263.655C34.6503 261.392 37.9932 242.743 50.6087 245.006Z" fill="black"/>
<path d="M49.4253 244.793C61.4247 246.946 58.1 265.601 46.0763 263.442C34.0526 261.282 37.4077 242.64 49.4253 244.793Z" fill="#FFC727"/>
<path opacity="0.1" d="M40.1406 254.56C40.2077 257.885 42.1415 261.099 46.3629 261.88C56.3369 263.668 59.1004 248.185 49.1386 246.398L48.9434 246.367C58.2829 248.24 55.6049 262.887 46.0945 261.179C44.4823 260.952 43.0016 260.164 41.9128 258.953C40.8239 257.743 40.1964 256.187 40.1406 254.56V254.56Z" fill="black"/>
<g opacity="0.1">
<path opacity="0.1" d="M48.7908 248.313C48.8705 248.335 48.9384 248.388 48.9804 248.46C49.0224 248.531 49.0353 248.616 49.0165 248.697L48.8884 249.209C49.7055 249.479 50.4221 249.989 50.9442 250.673C50.9889 250.717 51.0223 250.771 51.0414 250.831C51.0605 250.89 51.0649 250.953 51.054 251.015C51.0284 251.1 50.9711 251.172 50.894 251.217C50.8168 251.261 50.7256 251.274 50.6392 251.253C50.596 251.243 50.5553 251.224 50.5196 251.198C50.4839 251.172 50.454 251.139 50.4318 251.1C49.9993 250.508 49.4036 250.054 48.7176 249.795L47.8269 253.376C49.657 254.273 50.3037 255.206 49.9925 256.457C49.6509 257.817 48.2722 258.488 46.6618 258.14L46.4117 259.141C46.4066 259.186 46.392 259.229 46.3689 259.268C46.3457 259.307 46.3145 259.34 46.2774 259.366C46.2402 259.392 46.198 259.409 46.1535 259.417C46.109 259.425 46.0633 259.424 46.0195 259.413C45.9756 259.402 45.9346 259.382 45.8992 259.354C45.8638 259.326 45.8348 259.29 45.8141 259.25C45.7935 259.21 45.7817 259.166 45.7796 259.12C45.7774 259.075 45.7849 259.03 45.8016 258.988L46.0517 257.975C45 257.63 44.0954 256.94 43.4835 256.017C43.4469 255.977 43.421 255.927 43.4083 255.874C43.3955 255.821 43.3962 255.765 43.4103 255.712C43.4333 255.629 43.4872 255.558 43.561 255.514C43.6348 255.47 43.7228 255.456 43.8068 255.474C43.85 255.482 43.891 255.499 43.9268 255.524C43.9627 255.55 43.9925 255.583 44.0142 255.621C44.5248 256.451 45.304 257.082 46.2225 257.408L47.1315 253.748C45.3014 252.845 44.6914 251.918 45.0208 250.667C45.3502 249.417 46.7106 248.666 48.2844 249.02L48.4065 248.532C48.4306 248.454 48.4837 248.387 48.5551 248.346C48.6265 248.306 48.7108 248.293 48.7908 248.313V248.313ZM47.2962 253.107L48.1624 249.612C46.9424 249.331 45.9114 249.868 45.6857 250.789C45.46 251.71 45.7406 252.296 47.2962 253.107ZM47.6622 254.029L46.8021 257.561C48.0831 257.853 49.1019 257.317 49.3459 256.341C49.5899 255.365 49.2422 254.816 47.6622 254.059V254.029Z" fill="black"/>
</g>
</svg>
