<svg width="374" height="374" viewBox="0 0 374 374" fill="none" xmlns="http://www.w3.org/2000/svg">
<g clip-path="url(#clip0_101_6355)">
<path d="M0.199951 -113.013C0.199951 -122.291 7.72157 -129.812 17 -129.812H357.2C366.478 -129.812 374 -122.291 374 -113.013V598.187C374 614.425 360.837 627.588 344.6 627.588H29.6C13.3628 627.588 0.199951 614.425 0.199951 598.188V-113.013Z" fill="#EAF1FE"/>
<rect width="407.4" height="4231.53" transform="translate(-16.6001 -2010.91)" fill="#EAF1FE"/>
<g clip-path="url(#clip1_101_6355)">
<rect x="-1.2002" y="-143.812" width="376.6" height="2265.2" rx="19.5552" fill="white"/>
<rect x="1.32518" y="272.598" width="371.549" height="807.195" fill="#FCFDFF" stroke="#D3E3FF" stroke-width="1.0864"/>
<path d="M0.542956 28.5432H373.457V110.457H0.542956V28.5432Z" fill="#F5F6FD" stroke="#D3E3FF" stroke-width="1.0864"/>
<path d="M0.542956 272.543H374.457V355.457H0.542956V272.543Z" fill="#F5F6FD" stroke="#D3E3FF" stroke-width="1.0864"/>
<path d="M26.2296 72.9638C26.2994 73.0506 26.3927 73.1216 26.5016 73.1707C26.6105 73.2197 26.7317 73.2454 26.8547 73.2454C26.9778 73.2454 27.099 73.2197 27.2079 73.1707C27.3168 73.1216 27.4101 73.0506 27.4799 72.9638L34.3248 64.4904C34.404 64.3927 34.4505 64.2782 34.4591 64.1595C34.4678 64.0407 34.4383 63.9222 34.3738 63.8167C34.3094 63.7113 34.2125 63.6231 34.0936 63.5615C33.9747 63.5 33.8385 63.4676 33.6996 63.4678H20.0099C19.8714 63.4683 19.7356 63.5011 19.6172 63.5628C19.4988 63.6245 19.4023 63.7126 19.338 63.8178C19.2737 63.923 19.2441 64.0412 19.2523 64.1597C19.2606 64.2782 19.3063 64.3925 19.3847 64.4904L26.2296 72.9638Z" fill="#8C9BEA"/>
<path d="M26.2296 317.757C26.2994 317.844 26.3927 317.915 26.5016 317.964C26.6105 318.013 26.7317 318.038 26.8547 318.038C26.9778 318.038 27.099 318.013 27.2079 317.964C27.3168 317.915 27.4101 317.844 27.4799 317.757L34.3248 309.283C34.404 309.186 34.4505 309.071 34.4591 308.952C34.4678 308.834 34.4383 308.715 34.3738 308.61C34.3094 308.504 34.2125 308.416 34.0936 308.355C33.9747 308.293 33.8385 308.261 33.6996 308.261H20.0099C19.8714 308.261 19.7356 308.294 19.6172 308.356C19.4988 308.417 19.4023 308.506 19.338 308.611C19.2737 308.716 19.2441 308.834 19.2523 308.953C19.2606 309.071 19.3063 309.186 19.3847 309.283L26.2296 317.757Z" fill="#8C9BEA"/>
<path d="M164.427 233.56C165.146 233.732 165.689 234.042 166.054 234.488C166.429 234.924 166.617 235.487 166.617 236.176C166.617 237.099 166.277 237.814 165.598 238.321C164.928 238.828 163.95 239.081 162.662 239.081H157.795V228.434H162.373C163.539 228.434 164.447 228.673 165.096 229.149C165.755 229.616 166.084 230.29 166.084 231.172C166.084 231.75 165.937 232.242 165.643 232.647C165.359 233.053 164.954 233.357 164.427 233.56ZM159.301 233.119H162.267C163.007 233.119 163.57 232.972 163.955 232.678C164.351 232.384 164.548 231.953 164.548 231.385C164.548 230.817 164.351 230.386 163.955 230.092C163.56 229.788 162.997 229.636 162.267 229.636H159.301V233.119ZM162.632 237.879C164.264 237.879 165.081 237.271 165.081 236.054C165.081 235.446 164.873 235 164.457 234.716C164.051 234.422 163.443 234.275 162.632 234.275H159.301V237.879H162.632ZM175.835 231.02V239.081H174.375V232.298H170.907L170.816 234.092C170.765 235.177 170.669 236.085 170.527 236.815C170.385 237.535 170.152 238.113 169.827 238.549C169.503 238.985 169.051 239.203 168.473 239.203C168.21 239.203 167.911 239.157 167.576 239.066L167.667 237.834C167.799 237.864 167.921 237.879 168.032 237.879C168.438 237.879 168.742 237.702 168.945 237.347C169.148 236.992 169.279 236.571 169.34 236.085C169.401 235.598 169.457 234.903 169.508 234.001L169.645 231.02H175.835ZM182.111 239.172C181.31 239.172 180.59 238.995 179.951 238.64C179.312 238.285 178.81 237.798 178.445 237.18C178.09 236.551 177.913 235.841 177.913 235.051C177.913 234.26 178.09 233.555 178.445 232.936C178.81 232.308 179.312 231.821 179.951 231.476C180.59 231.121 181.31 230.944 182.111 230.944C182.912 230.944 183.627 231.121 184.255 231.476C184.894 231.821 185.391 232.308 185.746 232.936C186.111 233.555 186.293 234.26 186.293 235.051C186.293 235.841 186.111 236.551 185.746 237.18C185.391 237.798 184.894 238.285 184.255 238.64C183.627 238.995 182.912 239.172 182.111 239.172ZM182.111 237.895C182.628 237.895 183.089 237.778 183.495 237.545C183.91 237.302 184.235 236.967 184.468 236.541C184.701 236.105 184.818 235.608 184.818 235.051C184.818 234.493 184.701 234.001 184.468 233.575C184.235 233.139 183.91 232.805 183.495 232.571C183.089 232.338 182.628 232.222 182.111 232.222C181.594 232.222 181.127 232.338 180.711 232.571C180.306 232.805 179.981 233.139 179.738 233.575C179.505 234.001 179.388 234.493 179.388 235.051C179.388 235.608 179.505 236.105 179.738 236.541C179.981 236.967 180.306 237.302 180.711 237.545C181.127 237.778 181.594 237.895 182.111 237.895ZM195.465 235.674H193.899V239.081H192.439V235.674H190.872L188.652 239.081H186.918L189.686 234.914L187.131 231.02H188.682L190.857 234.427H192.439V231.02H193.899V234.427H195.481L197.656 231.02H199.222L196.667 234.929L199.435 239.081H197.701L195.465 235.674ZM208.06 235.096C208.06 235.208 208.05 235.355 208.029 235.537H201.489C201.581 236.247 201.89 236.82 202.417 237.256C202.954 237.682 203.619 237.895 204.41 237.895C205.373 237.895 206.148 237.57 206.737 236.921L207.543 237.864C207.178 238.29 206.721 238.615 206.174 238.838C205.636 239.061 205.033 239.172 204.364 239.172C203.512 239.172 202.757 239 202.098 238.655C201.439 238.3 200.927 237.809 200.561 237.18C200.207 236.551 200.029 235.841 200.029 235.051C200.029 234.27 200.202 233.565 200.546 232.936C200.901 232.308 201.383 231.821 201.991 231.476C202.61 231.121 203.304 230.944 204.075 230.944C204.846 230.944 205.53 231.121 206.128 231.476C206.737 231.821 207.208 232.308 207.543 232.936C207.887 233.565 208.06 234.285 208.06 235.096ZM204.075 232.176C203.375 232.176 202.787 232.389 202.311 232.815C201.844 233.241 201.57 233.798 201.489 234.488H206.661C206.579 233.808 206.301 233.256 205.824 232.83C205.358 232.394 204.775 232.176 204.075 232.176ZM210.325 231.02H211.785V234.442H216.378V231.02H217.839V239.081H216.378V235.705H211.785V239.081H210.325V231.02ZM220.678 231.02H222.138V236.891L227.081 231.02H228.404V239.081H226.944V233.21L222.016 239.081H220.678V231.02ZM238.524 235.096C238.524 235.208 238.513 235.355 238.493 235.537H231.953C232.044 236.247 232.354 236.82 232.881 237.256C233.418 237.682 234.082 237.895 234.873 237.895C235.837 237.895 236.612 237.57 237.2 236.921L238.006 237.864C237.641 238.29 237.185 238.615 236.638 238.838C236.1 239.061 235.497 239.172 234.828 239.172C233.976 239.172 233.22 239 232.561 238.655C231.902 238.3 231.39 237.809 231.025 237.18C230.67 236.551 230.493 235.841 230.493 235.051C230.493 234.27 230.665 233.565 231.01 232.936C231.365 232.308 231.847 231.821 232.455 231.476C233.073 231.121 233.768 230.944 234.539 230.944C235.309 230.944 235.994 231.121 236.592 231.476C237.2 231.821 237.672 232.308 238.006 232.936C238.351 233.565 238.524 234.285 238.524 235.096ZM234.539 232.176C233.839 232.176 233.251 232.389 232.774 232.815C232.308 233.241 232.034 233.798 231.953 234.488H237.124C237.043 233.808 236.764 233.256 236.288 232.83C235.821 232.394 235.238 232.176 234.539 232.176ZM250.364 234.898C251.408 235.162 251.931 235.816 251.931 236.86C251.931 237.57 251.662 238.118 251.124 238.503C250.597 238.888 249.806 239.081 248.752 239.081H244.873V231.02H248.615C249.568 231.02 250.313 231.202 250.851 231.568C251.388 231.922 251.657 232.429 251.657 233.088C251.657 233.514 251.54 233.884 251.307 234.199C251.084 234.503 250.77 234.736 250.364 234.898ZM246.303 234.488H248.493C249.051 234.488 249.472 234.386 249.756 234.184C250.05 233.981 250.197 233.687 250.197 233.301C250.197 232.531 249.629 232.145 248.493 232.145H246.303V234.488ZM248.645 237.956C249.254 237.956 249.71 237.859 250.014 237.667C250.318 237.474 250.47 237.175 250.47 236.769C250.47 236.353 250.329 236.044 250.045 235.841C249.771 235.639 249.335 235.537 248.737 235.537H246.303V237.956H248.645ZM262.407 231.294C263.157 231.294 263.827 231.461 264.415 231.796C265.003 232.13 265.459 232.597 265.784 233.195C266.118 233.783 266.286 234.457 266.286 235.218C266.286 235.999 266.108 236.693 265.753 237.302C265.409 237.9 264.917 238.366 264.278 238.701C263.649 239.035 262.929 239.203 262.118 239.203C260.749 239.203 259.69 238.736 258.939 237.803C258.199 236.86 257.829 235.537 257.829 233.834C257.829 232.181 258.169 230.888 258.848 229.955C259.527 229.012 260.567 228.389 261.966 228.085L265.647 227.263L265.86 228.602L262.468 229.332C261.413 229.565 260.628 229.96 260.111 230.518C259.593 231.076 259.299 231.877 259.228 232.921C259.573 232.404 260.019 232.004 260.567 231.72C261.114 231.436 261.728 231.294 262.407 231.294ZM262.149 237.986C262.666 237.986 263.122 237.869 263.517 237.636C263.923 237.403 264.237 237.084 264.46 236.678C264.684 236.262 264.795 235.791 264.795 235.263C264.795 234.462 264.552 233.819 264.065 233.332C263.578 232.845 262.939 232.602 262.149 232.602C261.358 232.602 260.714 232.845 260.217 233.332C259.73 233.819 259.487 234.462 259.487 235.263C259.487 235.791 259.598 236.262 259.822 236.678C260.055 237.084 260.374 237.403 260.78 237.636C261.185 237.869 261.642 237.986 262.149 237.986ZM275.342 231.02L271.433 239.887C271.089 240.708 270.683 241.286 270.217 241.621C269.76 241.956 269.208 242.123 268.559 242.123C268.163 242.123 267.778 242.057 267.403 241.925C267.038 241.804 266.734 241.621 266.49 241.378L267.114 240.283C267.53 240.678 268.011 240.876 268.559 240.876C268.914 240.876 269.208 240.779 269.441 240.587C269.684 240.404 269.902 240.085 270.095 239.629L270.354 239.066L266.795 231.02H268.315L271.129 237.469L273.913 231.02H275.342ZM284.605 237.803V240.952H283.236V239.081H276.498V240.952H275.114V237.803H275.54C276.057 237.773 276.412 237.408 276.604 236.708C276.797 236.009 276.929 235.02 277 233.742L277.121 231.02H283.373V237.803H284.605ZM278.338 233.849C278.298 234.863 278.211 235.705 278.08 236.374C277.958 237.033 277.73 237.509 277.395 237.803H281.912V232.298H278.414L278.338 233.849ZM293.701 231.02L289.792 239.887C289.447 240.708 289.042 241.286 288.575 241.621C288.119 241.956 287.566 242.123 286.917 242.123C286.522 242.123 286.137 242.057 285.761 241.925C285.396 241.804 285.092 241.621 284.849 241.378L285.472 240.283C285.888 240.678 286.37 240.876 286.917 240.876C287.272 240.876 287.566 240.779 287.799 240.587C288.043 240.404 288.261 240.085 288.453 239.629L288.712 239.066L285.153 231.02H286.674L289.488 237.469L292.271 231.02H293.701ZM306.679 231.02V239.081H295.196V231.02H296.656V237.803H300.215V231.02H301.675V237.803H305.219V231.02H306.679ZM307.881 237.803V240.8H306.512V239.081H305.158V237.803H307.881ZM316.8 235.096C316.8 235.208 316.789 235.355 316.769 235.537H310.229C310.32 236.247 310.63 236.82 311.157 237.256C311.694 237.682 312.358 237.895 313.149 237.895C314.113 237.895 314.888 237.57 315.476 236.921L316.282 237.864C315.917 238.29 315.461 238.615 314.914 238.838C314.376 239.061 313.773 239.172 313.104 239.172C312.252 239.172 311.496 239 310.837 238.655C310.178 238.3 309.666 237.809 309.301 237.18C308.946 236.551 308.769 235.841 308.769 235.051C308.769 234.27 308.941 233.565 309.286 232.936C309.641 232.308 310.123 231.821 310.731 231.476C311.349 231.121 312.044 230.944 312.815 230.944C313.585 230.944 314.27 231.121 314.868 231.476C315.476 231.821 315.948 232.308 316.282 232.936C316.627 233.565 316.8 234.285 316.8 235.096ZM312.815 232.176C312.115 232.176 311.527 232.389 311.05 232.815C310.584 233.241 310.31 233.798 310.229 234.488H315.4C315.319 233.808 315.04 233.256 314.564 232.83C314.097 232.394 313.514 232.176 312.815 232.176ZM326.35 235.096C326.35 235.208 326.34 235.355 326.32 235.537H319.78C319.871 236.247 320.18 236.82 320.707 237.256C321.245 237.682 321.909 237.895 322.7 237.895C323.663 237.895 324.439 237.57 325.027 236.921L325.833 237.864C325.468 238.29 325.012 238.615 324.464 238.838C323.927 239.061 323.323 239.172 322.654 239.172C321.802 239.172 321.047 239 320.388 238.655C319.729 238.3 319.217 237.809 318.852 237.18C318.497 236.551 318.319 235.841 318.319 235.051C318.319 234.27 318.492 233.565 318.837 232.936C319.191 232.308 319.673 231.821 320.281 231.476C320.9 231.121 321.595 230.944 322.365 230.944C323.136 230.944 323.82 231.121 324.418 231.476C325.027 231.821 325.498 232.308 325.833 232.936C326.178 233.565 326.35 234.285 326.35 235.096ZM322.365 232.176C321.666 232.176 321.077 232.389 320.601 232.815C320.134 233.241 319.861 233.798 319.78 234.488H324.951C324.87 233.808 324.591 233.256 324.114 232.83C323.648 232.394 323.065 232.176 322.365 232.176Z" fill="#929398"/>
<path d="M24.1248 142.764C23.1362 142.764 22.2417 142.548 21.4414 142.115C20.6505 141.672 20.0291 141.07 19.5771 140.307C19.1252 139.535 18.8992 138.669 18.8992 137.708C18.8992 136.748 19.1252 135.886 19.5771 135.124C20.0291 134.352 20.6552 133.749 21.4555 133.316C22.2558 132.873 23.1503 132.652 24.1389 132.652C24.911 132.652 25.6171 132.784 26.2574 133.048C26.8976 133.302 27.4437 133.683 27.8957 134.192L26.9777 135.081C26.2338 134.3 25.3064 133.909 24.1954 133.909C23.461 133.909 22.7972 134.074 22.204 134.403C21.6109 134.733 21.1448 135.19 20.8058 135.773C20.4763 136.348 20.3115 136.993 20.3115 137.708C20.3115 138.424 20.4763 139.073 20.8058 139.657C21.1448 140.232 21.6109 140.684 22.204 141.013C22.7972 141.343 23.461 141.507 24.1954 141.507C25.297 141.507 26.2244 141.112 26.9777 140.321L27.8957 141.211C27.4437 141.719 26.8929 142.105 26.2433 142.369C25.603 142.633 24.8969 142.764 24.1248 142.764ZM34.9873 136.352H32.2474V142.651H30.8916V136.352H28.1517V135.166H34.9873V136.352ZM39.2486 142.736C38.5048 142.736 37.8363 142.571 37.2431 142.242C36.65 141.912 36.1839 141.46 35.8449 140.886C35.5154 140.302 35.3506 139.643 35.3506 138.909C35.3506 138.174 35.5154 137.52 35.8449 136.946C36.1839 136.362 36.65 135.91 37.2431 135.59C37.8363 135.26 38.5048 135.095 39.2486 135.095C39.9925 135.095 40.6562 135.26 41.24 135.59C41.8332 135.91 42.2945 136.362 42.6241 136.946C42.963 137.52 43.1325 138.174 43.1325 138.909C43.1325 139.643 42.963 140.302 42.6241 140.886C42.2945 141.46 41.8332 141.912 41.24 142.242C40.6562 142.571 39.9925 142.736 39.2486 142.736ZM39.2486 141.55C39.7288 141.55 40.1572 141.441 40.5338 141.225C40.9199 140.999 41.2212 140.688 41.4377 140.293C41.6543 139.888 41.7626 139.427 41.7626 138.909C41.7626 138.391 41.6543 137.934 41.4377 137.539C41.2212 137.134 40.9199 136.823 40.5338 136.607C40.1572 136.39 39.7288 136.282 39.2486 136.282C38.7684 136.282 38.3353 136.39 37.9493 136.607C37.5727 136.823 37.2714 137.134 37.0454 137.539C36.8289 137.934 36.7206 138.391 36.7206 138.909C36.7206 139.427 36.8289 139.888 37.0454 140.293C37.2714 140.688 37.5727 140.999 37.9493 141.225C38.3353 141.441 38.7684 141.55 39.2486 141.55ZM45.0903 135.166H46.4462V140.618L51.0362 135.166H52.2649V142.651H50.9091V137.2L46.3332 142.651H45.0903V135.166ZM63.5259 135.166V142.651H62.2971V137.186L59.5008 141.804H58.9076L56.1394 137.172V142.651H54.8966V135.166H56.2948L59.2324 140.222L62.2548 135.166H63.5259ZM69.3708 142.736C68.627 142.736 67.9585 142.571 67.3653 142.242C66.7721 141.912 66.306 141.46 65.9671 140.886C65.6375 140.302 65.4728 139.643 65.4728 138.909C65.4728 138.174 65.6375 137.52 65.9671 136.946C66.306 136.362 66.7721 135.91 67.3653 135.59C67.9585 135.26 68.627 135.095 69.3708 135.095C70.1146 135.095 70.7784 135.26 71.3621 135.59C71.9553 135.91 72.4167 136.362 72.7462 136.946C73.0852 137.52 73.2547 138.174 73.2547 138.909C73.2547 139.643 73.0852 140.302 72.7462 140.886C72.4167 141.46 71.9553 141.912 71.3621 142.242C70.7784 142.571 70.1146 142.736 69.3708 142.736ZM69.3708 141.55C69.851 141.55 70.2794 141.441 70.656 141.225C71.042 140.999 71.3433 140.688 71.5599 140.293C71.7764 139.888 71.8847 139.427 71.8847 138.909C71.8847 138.391 71.7764 137.934 71.5599 137.539C71.3433 137.134 71.042 136.823 70.656 136.607C70.2794 136.39 69.851 136.282 69.3708 136.282C68.8906 136.282 68.4575 136.39 68.0714 136.607C67.6948 136.823 67.3935 137.134 67.1676 137.539C66.951 137.934 66.8427 138.391 66.8427 138.909C66.8427 139.427 66.951 139.888 67.1676 140.293C67.3935 140.688 67.6948 140.999 68.0714 141.225C68.4575 141.441 68.8906 141.55 69.3708 141.55ZM78.4749 142.736C77.7123 142.736 77.0297 142.571 76.4271 142.242C75.8339 141.912 75.3678 141.46 75.0289 140.886C74.6899 140.302 74.5204 139.643 74.5204 138.909C74.5204 138.174 74.6899 137.52 75.0289 136.946C75.3678 136.362 75.8339 135.91 76.4271 135.59C77.0297 135.26 77.7123 135.095 78.4749 135.095C79.1529 135.095 79.7554 135.232 80.2827 135.505C80.8194 135.778 81.2337 136.174 81.5255 136.691L80.4946 137.355C80.2592 136.997 79.9673 136.729 79.6189 136.55C79.2705 136.371 78.8845 136.282 78.4608 136.282C77.9712 136.282 77.5287 136.39 77.1332 136.607C76.7472 136.823 76.4412 137.134 76.2152 137.539C75.9987 137.934 75.8904 138.391 75.8904 138.909C75.8904 139.436 75.9987 139.902 76.2152 140.307C76.4412 140.702 76.7472 141.008 77.1332 141.225C77.5287 141.441 77.9712 141.55 78.4608 141.55C78.8845 141.55 79.2705 141.46 79.6189 141.281C79.9673 141.103 80.2592 140.834 80.4946 140.476L81.5255 141.126C81.2337 141.644 80.8194 142.044 80.2827 142.327C79.7554 142.6 79.1529 142.736 78.4749 142.736ZM88.763 136.352H86.0231V142.651H84.6673V136.352H81.9274V135.166H88.763V136.352ZM93.6096 137.708C94.5606 137.718 95.2856 137.934 95.7846 138.358C96.2836 138.782 96.5331 139.379 96.5331 140.152C96.5331 140.961 96.2601 141.587 95.714 142.03C95.1773 142.463 94.4052 142.675 93.3978 142.665L90.1494 142.651V135.166H91.5052V137.694L93.6096 137.708ZM93.2848 141.634C93.8968 141.644 94.3581 141.522 94.6688 141.267C94.989 141.013 95.149 140.636 95.149 140.137C95.149 139.648 94.9937 139.29 94.683 139.064C94.3817 138.838 93.9156 138.72 93.2848 138.711L91.5052 138.683V141.62L93.2848 141.634Z" fill="#606371"/>
<path d="M163.764 141.423V142.651H156.66V141.691L160.685 137.807C161.175 137.336 161.504 136.931 161.674 136.593C161.843 136.244 161.928 135.896 161.928 135.547C161.928 135.03 161.744 134.629 161.377 134.347C161.019 134.055 160.501 133.909 159.823 133.909C158.731 133.909 157.889 134.267 157.295 134.982L156.335 134.149C156.721 133.678 157.225 133.311 157.846 133.048C158.477 132.784 159.179 132.652 159.951 132.652C160.986 132.652 161.81 132.902 162.422 133.401C163.034 133.89 163.34 134.559 163.34 135.406C163.34 135.933 163.227 136.432 163.001 136.903C162.775 137.374 162.347 137.911 161.716 138.513L158.694 141.423H163.764ZM173.264 140.222H171.386V142.651H170.016V140.222H164.522V139.234L169.578 132.765H171.103L166.259 139.008H170.058V136.861H171.386V139.008H173.264V140.222ZM180.72 135.166V142.651H179.364V139.629C178.555 140.006 177.75 140.194 176.949 140.194C176.017 140.194 175.297 139.977 174.789 139.544C174.28 139.111 174.026 138.461 174.026 137.595V135.166H175.382V137.511C175.382 138.028 175.542 138.419 175.862 138.683C176.191 138.946 176.648 139.078 177.232 139.078C177.891 139.078 178.602 138.913 179.364 138.584V135.166H180.72ZM183.649 142.736C183.385 142.736 183.159 142.647 182.971 142.468C182.783 142.279 182.689 142.044 182.689 141.762C182.689 141.489 182.783 141.263 182.971 141.084C183.159 140.895 183.385 140.801 183.649 140.801C183.913 140.801 184.134 140.891 184.313 141.07C184.492 141.248 184.581 141.479 184.581 141.762C184.581 142.044 184.487 142.279 184.299 142.468C184.12 142.647 183.903 142.736 183.649 142.736ZM191.856 138.075C191.169 138.075 190.613 137.826 190.19 137.327C189.766 136.828 189.554 136.178 189.554 135.378C189.554 134.578 189.766 133.928 190.19 133.429C190.613 132.93 191.169 132.68 191.856 132.68C192.544 132.68 193.094 132.93 193.509 133.429C193.932 133.919 194.144 134.568 194.144 135.378C194.144 136.188 193.932 136.842 193.509 137.341C193.094 137.831 192.544 138.075 191.856 138.075ZM197.816 132.765H198.904L192.153 142.651H191.065L197.816 132.765ZM191.856 137.27C192.289 137.27 192.628 137.106 192.873 136.776C193.118 136.437 193.24 135.971 193.24 135.378C193.24 134.785 193.118 134.323 192.873 133.994C192.628 133.655 192.289 133.485 191.856 133.485C191.433 133.485 191.094 133.655 190.839 133.994C190.595 134.333 190.472 134.794 190.472 135.378C190.472 135.962 190.595 136.423 190.839 136.762C191.094 137.101 191.433 137.27 191.856 137.27ZM198.113 142.736C197.426 142.736 196.87 142.491 196.446 142.002C196.032 141.503 195.825 140.848 195.825 140.039C195.825 139.229 196.032 138.579 196.446 138.09C196.87 137.591 197.426 137.341 198.113 137.341C198.8 137.341 199.356 137.591 199.779 138.09C200.203 138.589 200.415 139.238 200.415 140.039C200.415 140.839 200.203 141.489 199.779 141.988C199.356 142.487 198.8 142.736 198.113 142.736ZM198.113 141.931C198.537 141.931 198.871 141.762 199.116 141.423C199.37 141.084 199.497 140.622 199.497 140.039C199.497 139.455 199.37 138.993 199.116 138.655C198.871 138.316 198.537 138.146 198.113 138.146C197.68 138.146 197.341 138.316 197.096 138.655C196.851 138.984 196.729 139.445 196.729 140.039C196.729 140.632 196.851 141.098 197.096 141.437C197.341 141.766 197.68 141.931 198.113 141.931Z" fill="#606371"/>
<path d="M281.349 132.765V133.726L277.352 142.651H275.855L279.767 133.994H275.248V135.759H273.892V132.765H281.349ZM290.835 141.465V144.389H289.564V142.651H283.308V144.389H282.022V141.465H282.418C282.898 141.437 283.227 141.098 283.406 140.448C283.585 139.798 283.708 138.88 283.774 137.694L283.887 135.166H289.691V141.465H290.835ZM285.016 137.793C284.979 138.735 284.899 139.516 284.776 140.137C284.663 140.749 284.452 141.192 284.141 141.465H288.335V136.352H285.087L285.016 137.793ZM292.898 142.736C292.634 142.736 292.408 142.647 292.22 142.468C292.032 142.279 291.938 142.044 291.938 141.762C291.938 141.489 292.032 141.263 292.22 141.084C292.408 140.895 292.634 140.801 292.898 140.801C293.162 140.801 293.383 140.891 293.562 141.07C293.741 141.248 293.83 141.479 293.83 141.762C293.83 142.044 293.736 142.279 293.548 142.468C293.369 142.647 293.152 142.736 292.898 142.736ZM301.105 138.075C300.418 138.075 299.862 137.826 299.439 137.327C299.015 136.828 298.803 136.178 298.803 135.378C298.803 134.578 299.015 133.928 299.439 133.429C299.862 132.93 300.418 132.68 301.105 132.68C301.793 132.68 302.343 132.93 302.758 133.429C303.181 133.919 303.393 134.568 303.393 135.378C303.393 136.188 303.181 136.842 302.758 137.341C302.343 137.831 301.793 138.075 301.105 138.075ZM307.065 132.765H308.153L301.402 142.651H300.314L307.065 132.765ZM301.105 137.27C301.538 137.27 301.877 137.106 302.122 136.776C302.367 136.437 302.489 135.971 302.489 135.378C302.489 134.785 302.367 134.323 302.122 133.994C301.877 133.655 301.538 133.485 301.105 133.485C300.682 133.485 300.343 133.655 300.088 133.994C299.844 134.333 299.721 134.794 299.721 135.378C299.721 135.962 299.844 136.423 300.088 136.762C300.343 137.101 300.682 137.27 301.105 137.27ZM307.362 142.736C306.675 142.736 306.119 142.491 305.695 142.002C305.281 141.503 305.074 140.848 305.074 140.039C305.074 139.229 305.281 138.579 305.695 138.09C306.119 137.591 306.675 137.341 307.362 137.341C308.049 137.341 308.605 137.591 309.028 138.09C309.452 138.589 309.664 139.238 309.664 140.039C309.664 140.839 309.452 141.489 309.028 141.988C308.605 142.487 308.049 142.736 307.362 142.736ZM307.362 141.931C307.786 141.931 308.12 141.762 308.365 141.423C308.619 141.084 308.746 140.622 308.746 140.039C308.746 139.455 308.619 138.993 308.365 138.655C308.12 138.316 307.786 138.146 307.362 138.146C306.929 138.146 306.59 138.316 306.345 138.655C306.1 138.984 305.978 139.445 305.978 140.039C305.978 140.632 306.1 141.098 306.345 141.437C306.59 141.766 306.929 141.931 307.362 141.931Z" fill="#606371"/>
<path d="M22.4756 162.06C24.2139 162.06 25.4886 162.39 26.2998 163.051C27.1225 163.7 27.5339 164.592 27.5339 165.728C27.5339 166.446 27.3601 167.095 27.0124 167.674C26.6764 168.242 26.1607 168.694 25.4654 169.03C24.7817 169.355 23.9358 169.517 22.9276 169.517C22.07 169.517 21.2415 169.39 20.4419 169.135C19.6423 168.868 18.9818 168.503 18.4603 168.039L19.2599 166.666C19.6771 167.06 20.2101 167.379 20.8591 167.622C21.508 167.854 22.1917 167.97 22.9102 167.97C23.8257 167.97 24.5325 167.779 25.0308 167.396C25.5407 167.002 25.7957 166.469 25.7957 165.797C25.7957 165.067 25.5175 164.517 24.9613 164.146C24.4051 163.763 23.4548 163.572 22.1106 163.572H19.3468L19.9899 157.21H26.856V158.723H21.4501L21.1198 162.06H22.4756ZM36.4201 162.999C37.1154 163.265 37.6485 163.648 38.0193 164.146C38.3901 164.644 38.5755 165.241 38.5755 165.936C38.5755 166.666 38.3785 167.304 37.9845 167.848C37.5905 168.381 37.0285 168.793 36.2984 169.082C35.5684 169.372 34.7108 169.517 33.7258 169.517C32.7524 169.517 31.9007 169.372 31.1706 169.082C30.4522 168.793 29.8959 168.381 29.5019 167.848C29.1079 167.304 28.9109 166.666 28.9109 165.936C28.9109 165.241 29.0905 164.644 29.4498 164.146C29.8206 163.648 30.3537 163.265 31.049 162.999C30.4927 162.732 30.0697 162.379 29.78 161.938C29.4903 161.498 29.3455 160.976 29.3455 160.374C29.3455 159.702 29.5251 159.117 29.8843 158.618C30.2552 158.12 30.7708 157.738 31.4314 157.471C32.0919 157.204 32.8567 157.071 33.7258 157.071C34.6066 157.071 35.3772 157.204 36.0377 157.471C36.7098 157.738 37.2255 158.12 37.5847 158.618C37.9556 159.117 38.141 159.702 38.141 160.374C38.141 160.965 37.9903 161.486 37.689 161.938C37.3993 162.379 36.9764 162.732 36.4201 162.999ZM33.7258 158.479C32.9031 158.479 32.2541 158.659 31.779 159.018C31.3039 159.366 31.0663 159.841 31.0663 160.443C31.0663 161.046 31.2981 161.521 31.7616 161.869C32.2368 162.216 32.8915 162.39 33.7258 162.39C34.5718 162.39 35.2323 162.216 35.7074 161.869C36.1941 161.521 36.4375 161.046 36.4375 160.443C36.4375 159.841 36.1884 159.366 35.6901 159.018C35.2033 158.659 34.5486 158.479 33.7258 158.479ZM33.7258 168.109C34.6877 168.109 35.4467 167.912 36.0029 167.518C36.5592 167.112 36.8373 166.568 36.8373 165.884C36.8373 165.212 36.5592 164.685 36.0029 164.302C35.4467 163.908 34.6877 163.711 33.7258 163.711C32.764 163.711 32.0108 163.908 31.4661 164.302C30.9215 164.685 30.6492 165.212 30.6492 165.884C30.6492 166.568 30.9215 167.112 31.4661 167.518C32.0108 167.912 32.764 168.109 33.7258 168.109ZM47.6066 162.999C48.3019 163.265 48.835 163.648 49.2058 164.146C49.5766 164.644 49.7621 165.241 49.7621 165.936C49.7621 166.666 49.5651 167.304 49.1711 167.848C48.7771 168.381 48.215 168.793 47.485 169.082C46.7549 169.372 45.8974 169.517 44.9124 169.517C43.939 169.517 43.0872 169.372 42.3572 169.082C41.6387 168.793 41.0824 168.381 40.6884 167.848C40.2944 167.304 40.0974 166.666 40.0974 165.936C40.0974 165.241 40.2771 164.644 40.6363 164.146C41.0071 163.648 41.5402 163.265 42.2355 162.999C41.6792 162.732 41.2563 162.379 40.9666 161.938C40.6769 161.498 40.532 160.976 40.532 160.374C40.532 159.702 40.7116 159.117 41.0709 158.618C41.4417 158.12 41.9574 157.738 42.6179 157.471C43.2784 157.204 44.0432 157.071 44.9124 157.071C45.7931 157.071 46.5637 157.204 47.2242 157.471C47.8963 157.738 48.412 158.12 48.7713 158.618C49.1421 159.117 49.3275 159.702 49.3275 160.374C49.3275 160.965 49.1769 161.486 48.8756 161.938C48.5858 162.379 48.1629 162.732 47.6066 162.999ZM44.9124 158.479C44.0896 158.479 43.4407 158.659 42.9655 159.018C42.4904 159.366 42.2529 159.841 42.2529 160.443C42.2529 161.046 42.4846 161.521 42.9482 161.869C43.4233 162.216 44.078 162.39 44.9124 162.39C45.7583 162.39 46.4188 162.216 46.894 161.869C47.3807 161.521 47.624 161.046 47.624 160.443C47.624 159.841 47.3749 159.366 46.8766 159.018C46.3899 158.659 45.7351 158.479 44.9124 158.479ZM44.9124 168.109C45.8742 168.109 46.6332 167.912 47.1895 167.518C47.7457 167.112 48.0238 166.568 48.0238 165.884C48.0238 165.212 47.7457 164.685 47.1895 164.302C46.6332 163.908 45.8742 163.711 44.9124 163.711C43.9505 163.711 43.1973 163.908 42.6527 164.302C42.108 164.685 41.8357 165.212 41.8357 165.884C41.8357 166.568 42.108 167.112 42.6527 167.518C43.1973 167.912 43.9505 168.109 44.9124 168.109ZM56.603 161.99C57.4026 161.99 58.1153 162.141 58.741 162.442C59.3784 162.744 59.8767 163.178 60.2359 163.746C60.5951 164.302 60.7748 164.945 60.7748 165.675C60.7748 166.44 60.5836 167.112 60.2011 167.692C59.8303 168.271 59.3146 168.723 58.6541 169.048C58.0052 169.361 57.2751 169.517 56.4639 169.517C54.83 169.517 53.5669 168.99 52.6746 167.935C51.7939 166.881 51.3535 165.386 51.3535 163.451C51.3535 162.095 51.5911 160.942 52.0662 159.991C52.5529 159.03 53.225 158.305 54.0825 157.819C54.9517 157.32 55.9598 157.071 57.1071 157.071C57.6981 157.071 58.2543 157.135 58.7758 157.262C59.2973 157.378 59.7492 157.552 60.1316 157.784L59.4711 159.14C58.8917 158.757 58.1153 158.566 57.1418 158.566C55.8787 158.566 54.8879 158.96 54.1694 159.748C53.451 160.524 53.0917 161.66 53.0917 163.155C53.0917 163.34 53.0975 163.485 53.1091 163.59C53.4568 163.068 53.9319 162.674 54.5345 162.408C55.1487 162.129 55.8382 161.99 56.603 161.99ZM56.3944 168.109C57.194 168.109 57.8429 167.895 58.3412 167.466C58.8395 167.037 59.0887 166.463 59.0887 165.745C59.0887 165.027 58.8337 164.459 58.3238 164.042C57.8255 163.613 57.1534 163.398 56.3075 163.398C55.7628 163.398 55.2761 163.503 54.8474 163.711C54.4302 163.92 54.0999 164.204 53.8566 164.563C53.6248 164.922 53.5089 165.322 53.5089 165.762C53.5089 166.191 53.619 166.585 53.8392 166.944C54.0709 167.292 54.4012 167.576 54.83 167.796C55.2703 168.005 55.7918 168.109 56.3944 168.109ZM65.8537 157.21V169.378H64.1328V158.723H61.3864V157.21H65.8537ZM69.6625 169.482C69.338 169.482 69.0599 169.372 68.8281 169.152C68.5963 168.92 68.4805 168.63 68.4805 168.283C68.4805 167.947 68.5963 167.669 68.8281 167.448C69.0599 167.217 69.338 167.101 69.6625 167.101C69.9869 167.101 70.2593 167.211 70.4794 167.431C70.6996 167.651 70.8097 167.935 70.8097 168.283C70.8097 168.63 70.6938 168.92 70.4621 169.152C70.2419 169.372 69.9753 169.482 69.6625 169.482ZM76.0047 157.21V169.378H74.2839V158.723H71.5375V157.21H76.0047ZM82.4383 157.21V169.378H80.7174V158.723H77.971V157.21H82.4383ZM99.0154 166.058C99.0154 166.973 98.6677 167.75 97.9724 168.387C97.2887 169.024 96.2921 169.395 94.9826 169.5V171.464H93.8702V169.5C93.0242 169.453 92.2188 169.297 91.454 169.03C90.7008 168.752 90.0982 168.405 89.6462 167.987L90.2894 166.632C90.7066 167.014 91.2338 167.333 91.8712 167.588C92.5085 167.831 93.1749 167.976 93.8702 168.022V163.989C93.059 163.792 92.3811 163.578 91.8364 163.346C91.3034 163.114 90.8514 162.773 90.4806 162.321C90.1214 161.869 89.9417 161.278 89.9417 160.548C89.9417 159.632 90.272 158.856 90.9325 158.218C91.6047 157.581 92.5839 157.21 93.8702 157.106V155.124H94.9826V157.089C95.6432 157.112 96.2805 157.216 96.8947 157.401C97.5205 157.587 98.0593 157.836 98.5113 158.149L97.9376 159.539C96.999 158.948 96.014 158.624 94.9826 158.566V162.616C95.8286 162.825 96.5239 163.045 97.0685 163.277C97.6132 163.497 98.0709 163.833 98.4417 164.285C98.8241 164.725 99.0154 165.316 99.0154 166.058ZM91.6452 160.478C91.6452 160.976 91.8364 161.365 92.2188 161.643C92.6012 161.921 93.1517 162.153 93.8702 162.338V158.583C93.1285 158.676 92.5723 158.896 92.2015 159.244C91.8306 159.58 91.6452 159.991 91.6452 160.478ZM94.9826 168.005C95.7591 167.935 96.3385 167.738 96.7209 167.414C97.1149 167.078 97.3119 166.66 97.3119 166.162C97.3119 165.652 97.1091 165.264 96.7035 164.998C96.3095 164.719 95.7359 164.476 94.9826 164.268V168.005Z" fill="#373943"/>
<path d="M161.123 207.831H159.061V212.181H157.677V202.294H159.061V206.588H161.151L164.258 202.294H165.769L162.239 207.082L165.939 212.181H164.329L161.123 207.831ZM170.27 212.265C169.526 212.265 168.858 212.101 168.264 211.771C167.671 211.442 167.205 210.99 166.866 210.415C166.537 209.832 166.372 209.172 166.372 208.438C166.372 207.704 166.537 207.049 166.866 206.475C167.205 205.891 167.671 205.439 168.264 205.119C168.858 204.79 169.526 204.625 170.27 204.625C171.014 204.625 171.678 204.79 172.261 205.119C172.854 205.439 173.316 205.891 173.645 206.475C173.984 207.049 174.154 207.704 174.154 208.438C174.154 209.172 173.984 209.832 173.645 210.415C173.316 210.99 172.854 211.442 172.261 211.771C171.678 212.101 171.014 212.265 170.27 212.265ZM170.27 211.079C170.75 211.079 171.179 210.971 171.555 210.754C171.941 210.528 172.242 210.218 172.459 209.822C172.676 209.417 172.784 208.956 172.784 208.438C172.784 207.92 172.676 207.464 172.459 207.068C172.242 206.663 171.941 206.352 171.555 206.136C171.179 205.919 170.75 205.811 170.27 205.811C169.79 205.811 169.357 205.919 168.971 206.136C168.594 206.352 168.293 206.663 168.067 207.068C167.85 207.464 167.742 207.92 167.742 208.438C167.742 208.956 167.85 209.417 168.067 209.822C168.293 210.218 168.594 210.528 168.971 210.754C169.357 210.971 169.79 211.079 170.27 211.079ZM184.741 204.695V212.181H183.512V206.715L180.716 211.333H180.123L177.354 206.701V212.181H176.112V204.695H177.51L180.447 209.751L183.47 204.695H184.741ZM196.009 204.695V212.181H194.78V206.715L191.984 211.333H191.391L188.623 206.701V212.181H187.38V204.695H188.778L191.716 209.751L194.738 204.695H196.009ZM205.413 208.48C205.413 208.584 205.404 208.72 205.385 208.89H199.312C199.397 209.549 199.684 210.081 200.173 210.486C200.672 210.881 201.289 211.079 202.023 211.079C202.918 211.079 203.638 210.778 204.184 210.175L204.933 211.051C204.594 211.446 204.17 211.748 203.662 211.955C203.163 212.162 202.603 212.265 201.981 212.265C201.19 212.265 200.489 212.105 199.877 211.785C199.265 211.456 198.789 210.999 198.45 210.415C198.121 209.832 197.956 209.172 197.956 208.438C197.956 207.713 198.116 207.059 198.436 206.475C198.766 205.891 199.213 205.439 199.778 205.119C200.352 204.79 200.997 204.625 201.713 204.625C202.428 204.625 203.064 204.79 203.619 205.119C204.184 205.439 204.622 205.891 204.933 206.475C205.253 207.059 205.413 207.727 205.413 208.48ZM201.713 205.769C201.063 205.769 200.517 205.966 200.074 206.362C199.641 206.757 199.387 207.275 199.312 207.915H204.114C204.038 207.285 203.779 206.771 203.337 206.376C202.904 205.971 202.362 205.769 201.713 205.769ZM207.516 204.695H208.872V207.873H213.137V204.695H214.493V212.181H213.137V209.045H208.872V212.181H207.516V204.695ZM222.708 205.882H219.968V212.181H218.613V205.882H215.873V204.695H222.708V205.882ZM226.764 204.625C227.8 204.625 228.591 204.879 229.137 205.387C229.692 205.896 229.97 206.654 229.97 207.661V212.181H228.685V211.192C228.459 211.54 228.134 211.809 227.71 211.997C227.296 212.176 226.802 212.265 226.227 212.265C225.389 212.265 224.716 212.063 224.208 211.658C223.709 211.253 223.459 210.721 223.459 210.062C223.459 209.403 223.699 208.876 224.179 208.48C224.66 208.076 225.422 207.873 226.467 207.873H228.614V207.605C228.614 207.021 228.445 206.574 228.106 206.263C227.767 205.952 227.268 205.797 226.609 205.797C226.166 205.797 225.733 205.872 225.309 206.023C224.886 206.164 224.528 206.357 224.236 206.602L223.671 205.585C224.057 205.274 224.518 205.039 225.055 204.879C225.592 204.709 226.161 204.625 226.764 204.625ZM226.453 211.22C226.971 211.22 227.418 211.107 227.795 210.881C228.172 210.646 228.445 210.316 228.614 209.893V208.848H226.524C225.375 208.848 224.801 209.234 224.801 210.006C224.801 210.382 224.947 210.679 225.239 210.895C225.53 211.112 225.935 211.22 226.453 211.22ZM236.38 204.625C237.105 204.625 237.755 204.785 238.329 205.105C238.903 205.425 239.351 205.872 239.671 206.447C240 207.021 240.165 207.685 240.165 208.438C240.165 209.191 240 209.86 239.671 210.444C239.351 211.018 238.903 211.465 238.329 211.785C237.755 212.105 237.105 212.265 236.38 212.265C235.843 212.265 235.349 212.162 234.897 211.955C234.454 211.748 234.078 211.446 233.767 211.051V214.921H232.411V204.695H233.711V205.882C234.012 205.467 234.393 205.157 234.855 204.95C235.316 204.733 235.824 204.625 236.38 204.625ZM236.267 211.079C236.747 211.079 237.176 210.971 237.552 210.754C237.938 210.528 238.239 210.218 238.456 209.822C238.682 209.417 238.795 208.956 238.795 208.438C238.795 207.92 238.682 207.464 238.456 207.068C238.239 206.663 237.938 206.352 237.552 206.136C237.176 205.919 236.747 205.811 236.267 205.811C235.796 205.811 235.368 205.924 234.982 206.15C234.605 206.367 234.304 206.673 234.078 207.068C233.861 207.464 233.753 207.92 233.753 208.438C233.753 208.956 233.861 209.417 234.078 209.822C234.294 210.218 234.596 210.528 234.982 210.754C235.368 210.971 235.796 211.079 236.267 211.079ZM242.135 204.695H243.491V210.147L248.081 204.695H249.309V212.181H247.954V206.729L243.378 212.181H242.135V204.695ZM251.941 204.695H253.297V210.147L257.887 204.695H259.116V212.181H257.76V206.729L253.184 212.181H251.941V204.695ZM255.444 203.721C254.747 203.721 254.205 203.556 253.819 203.227C253.433 202.888 253.236 202.403 253.226 201.772H254.144C254.154 202.12 254.271 202.403 254.497 202.619C254.733 202.826 255.043 202.93 255.429 202.93C255.816 202.93 256.126 202.826 256.362 202.619C256.597 202.403 256.719 202.12 256.729 201.772H257.675C257.666 202.403 257.463 202.888 257.068 203.227C256.672 203.556 256.131 203.721 255.444 203.721Z" fill="#606371"/>
<path d="M26.9481 207.054C27.6166 207.214 28.1203 207.501 28.4593 207.915C28.8077 208.32 28.9819 208.843 28.9819 209.483C28.9819 210.34 28.6664 211.004 28.0356 211.475C27.4142 211.945 26.5056 212.181 25.3098 212.181H20.7904V202.294H25.0415C26.1243 202.294 26.967 202.516 27.5695 202.958C28.1815 203.391 28.4875 204.017 28.4875 204.837C28.4875 205.373 28.351 205.83 28.078 206.207C27.8143 206.583 27.4377 206.866 26.9481 207.054ZM22.1886 206.644H24.9426C25.63 206.644 26.1525 206.508 26.5103 206.235C26.8775 205.962 27.0611 205.562 27.0611 205.034C27.0611 204.507 26.8775 204.107 26.5103 203.834C26.1431 203.551 25.6205 203.41 24.9426 203.41H22.1886V206.644ZM25.2816 211.065C26.7975 211.065 27.5554 210.5 27.5554 209.37C27.5554 208.805 27.3624 208.391 26.9764 208.127C26.5997 207.854 26.0348 207.718 25.2816 207.718H22.1886V211.065H25.2816ZM34.3214 212.265C33.5776 212.265 32.9091 212.101 32.3159 211.771C31.7228 211.442 31.2567 210.99 30.9177 210.415C30.5882 209.832 30.4234 209.172 30.4234 208.438C30.4234 207.704 30.5882 207.049 30.9177 206.475C31.2567 205.891 31.7228 205.439 32.3159 205.119C32.9091 204.79 33.5776 204.625 34.3214 204.625C35.0652 204.625 35.729 204.79 36.3128 205.119C36.906 205.439 37.3673 205.891 37.6969 206.475C38.0358 207.049 38.2053 207.704 38.2053 208.438C38.2053 209.172 38.0358 209.832 37.6969 210.415C37.3673 210.99 36.906 211.442 36.3128 211.771C35.729 212.101 35.0652 212.265 34.3214 212.265ZM34.3214 211.079C34.8016 211.079 35.23 210.971 35.6066 210.754C35.9927 210.528 36.294 210.218 36.5105 209.822C36.7271 209.417 36.8354 208.956 36.8354 208.438C36.8354 207.92 36.7271 207.464 36.5105 207.068C36.294 206.663 35.9927 206.352 35.6066 206.136C35.23 205.919 34.8016 205.811 34.3214 205.811C33.8412 205.811 33.4081 205.919 33.0221 206.136C32.6455 206.352 32.3442 206.663 32.1182 207.068C31.9016 207.464 31.7934 207.92 31.7934 208.438C31.7934 208.956 31.9016 209.417 32.1182 209.822C32.3442 210.218 32.6455 210.528 33.0221 210.754C33.4081 210.971 33.8412 211.079 34.3214 211.079ZM49.0545 208.297C50.0243 208.542 50.5091 209.149 50.5091 210.119C50.5091 210.778 50.2596 211.286 49.7606 211.644C49.271 212.002 48.5366 212.181 47.5574 212.181H43.956V204.695H47.4303C48.3153 204.695 49.0074 204.865 49.5064 205.204C50.0054 205.533 50.2549 206.004 50.2549 206.616C50.2549 207.012 50.1467 207.355 49.9301 207.647C49.723 207.93 49.4311 208.146 49.0545 208.297ZM45.2836 207.915H47.3173C47.8352 207.915 48.2259 207.821 48.4895 207.633C48.7626 207.445 48.8991 207.172 48.8991 206.814C48.8991 206.098 48.3718 205.74 47.3173 205.74H45.2836V207.915ZM47.4585 211.136C48.0235 211.136 48.4472 211.046 48.7296 210.867C49.0121 210.688 49.1533 210.411 49.1533 210.034C49.1533 209.648 49.0215 209.361 48.7579 209.172C48.5037 208.984 48.0988 208.89 47.5433 208.89H45.2836V211.136H47.4585ZM59.0573 204.695V212.181H57.7015V205.882H54.4814L54.3967 207.548C54.3496 208.556 54.2601 209.398 54.1283 210.076C53.9965 210.745 53.78 211.281 53.4787 211.686C53.1774 212.091 52.7584 212.294 52.2217 212.294C51.9769 212.294 51.6991 212.251 51.3884 212.167L51.4732 211.023C51.5956 211.051 51.7086 211.065 51.8121 211.065C52.1887 211.065 52.4712 210.9 52.6595 210.571C52.8478 210.241 52.9702 209.85 53.0267 209.398C53.0832 208.946 53.135 208.301 53.1821 207.464L53.3092 204.695H59.0573ZM64.3482 204.625C65.3839 204.625 66.1748 204.879 66.7209 205.387C67.2764 205.896 67.5542 206.654 67.5542 207.661V212.181H66.269V211.192C66.043 211.54 65.7182 211.809 65.2945 211.997C64.8802 212.176 64.3859 212.265 63.8115 212.265C62.9736 212.265 62.3004 212.063 61.7919 211.658C61.2929 211.253 61.0434 210.721 61.0434 210.062C61.0434 209.403 61.2835 208.876 61.7637 208.48C62.2439 208.076 63.0065 207.873 64.0516 207.873H66.1984V207.605C66.1984 207.021 66.0289 206.574 65.6899 206.263C65.351 205.952 64.852 205.797 64.1929 205.797C63.7503 205.797 63.3172 205.872 62.8935 206.023C62.4698 206.164 62.1121 206.357 61.8202 206.602L61.2552 205.585C61.6413 205.274 62.1026 205.039 62.6393 204.879C63.176 204.709 63.7456 204.625 64.3482 204.625ZM64.0375 211.22C64.5554 211.22 65.0026 211.107 65.3792 210.881C65.7558 210.646 66.0289 210.316 66.1984 209.893V208.848H64.1081C62.9594 208.848 62.3851 209.234 62.3851 210.006C62.3851 210.382 62.531 210.679 62.8229 210.895C63.1148 211.112 63.5197 211.22 64.0375 211.22ZM77.608 210.994V213.918H76.3369V212.181H70.0804V213.918H68.7952V210.994H69.1906C69.6708 210.966 70.0003 210.627 70.1792 209.977C70.3581 209.328 70.4805 208.41 70.5464 207.223L70.6594 204.695H76.4641V210.994H77.608ZM71.7893 207.322C71.7516 208.264 71.6716 209.045 71.5492 209.667C71.4362 210.279 71.2244 210.721 70.9136 210.994H75.1082V205.882H71.8599L71.7893 207.322ZM86.1393 208.48C86.1393 208.584 86.1299 208.72 86.1111 208.89H80.0381C80.1228 209.549 80.41 210.081 80.8996 210.486C81.3986 210.881 82.0154 211.079 82.7498 211.079C83.6442 211.079 84.3645 210.778 84.9106 210.175L85.6591 211.051C85.3202 211.446 84.8965 211.748 84.3881 211.955C83.889 212.162 83.3288 212.265 82.7074 212.265C81.9165 212.265 81.215 212.105 80.603 211.785C79.991 211.456 79.5155 210.999 79.1766 210.415C78.8471 209.832 78.6823 209.172 78.6823 208.438C78.6823 207.713 78.8423 207.059 79.1625 206.475C79.492 205.891 79.9392 205.439 80.5042 205.119C81.0785 204.79 81.7235 204.625 82.4391 204.625C83.1546 204.625 83.7902 204.79 84.3457 205.119C84.9106 205.439 85.3484 205.891 85.6591 206.475C85.9793 207.059 86.1393 207.727 86.1393 208.48ZM82.4391 205.769C81.7894 205.769 81.2433 205.966 80.8008 206.362C80.3676 206.757 80.1134 207.275 80.0381 207.915H84.84C84.7647 207.285 84.5057 206.771 84.0632 206.376C83.6301 205.971 83.0887 205.769 82.4391 205.769ZM88.2427 204.695H89.5985V207.873H93.8637V204.695H95.2196V212.181H93.8637V209.045H89.5985V212.181H88.2427V204.695ZM97.8558 204.695H99.2117V210.147L103.802 204.695H105.03V212.181H103.675V206.729L99.0987 212.181H97.8558V204.695ZM107.662 204.695H109.018V210.147L113.608 204.695H114.837V212.181H113.481V206.729L108.905 212.181H107.662V204.695Z" fill="#606371"/>
<path d="M157.128 163.885H161.804V165.328H157.128V163.885ZM167.092 157.21V169.378H165.371V158.723H162.625V157.21H167.092ZM170.901 169.482C170.577 169.482 170.299 169.372 170.067 169.152C169.835 168.92 169.719 168.63 169.719 168.283C169.719 167.947 169.835 167.669 170.067 167.448C170.299 167.217 170.577 167.101 170.901 167.101C171.226 167.101 171.498 167.211 171.718 167.431C171.938 167.651 172.048 167.935 172.048 168.283C172.048 168.63 171.932 168.92 171.701 169.152C171.481 169.372 171.214 169.482 170.901 169.482ZM177.169 162.06C178.907 162.06 180.181 162.39 180.993 163.051C181.815 163.7 182.227 164.592 182.227 165.728C182.227 166.446 182.053 167.095 181.705 167.674C181.369 168.242 180.854 168.694 180.158 169.03C179.475 169.355 178.629 169.517 177.62 169.517C176.763 169.517 175.934 169.39 175.135 169.135C174.335 168.868 173.675 168.503 173.153 168.039L173.953 166.666C174.37 167.06 174.903 167.379 175.552 167.622C176.201 167.854 176.885 167.97 177.603 167.97C178.519 167.97 179.225 167.779 179.724 167.396C180.234 167.002 180.489 166.469 180.489 165.797C180.489 165.067 180.21 164.517 179.654 164.146C179.098 163.763 178.148 163.572 176.804 163.572H174.04L174.683 157.21H181.549V158.723H176.143L175.813 162.06H177.169ZM188.923 161.99C189.722 161.99 190.435 162.141 191.061 162.442C191.698 162.744 192.197 163.178 192.556 163.746C192.915 164.302 193.095 164.945 193.095 165.675C193.095 166.44 192.903 167.112 192.521 167.692C192.15 168.271 191.634 168.723 190.974 169.048C190.325 169.361 189.595 169.517 188.784 169.517C187.15 169.517 185.887 168.99 184.994 167.935C184.114 166.881 183.673 165.386 183.673 163.451C183.673 162.095 183.911 160.942 184.386 159.991C184.873 159.03 185.545 158.305 186.402 157.819C187.272 157.32 188.28 157.071 189.427 157.071C190.018 157.071 190.574 157.135 191.096 157.262C191.617 157.378 192.069 157.552 192.451 157.784L191.791 159.14C191.212 158.757 190.435 158.566 189.462 158.566C188.199 158.566 187.208 158.96 186.489 159.748C185.771 160.524 185.412 161.66 185.412 163.155C185.412 163.34 185.417 163.485 185.429 163.59C185.777 163.068 186.252 162.674 186.854 162.408C187.469 162.129 188.158 161.99 188.923 161.99ZM188.714 168.109C189.514 168.109 190.163 167.895 190.661 167.466C191.159 167.037 191.409 166.463 191.409 165.745C191.409 165.027 191.154 164.459 190.644 164.042C190.145 163.613 189.473 163.398 188.627 163.398C188.083 163.398 187.596 163.503 187.167 163.711C186.75 163.92 186.42 164.204 186.176 164.563C185.945 164.922 185.829 165.322 185.829 165.762C185.829 166.191 185.939 166.585 186.159 166.944C186.391 167.292 186.721 167.576 187.15 167.796C187.59 168.005 188.112 168.109 188.714 168.109ZM196.704 163.746C195.858 163.746 195.175 163.439 194.653 162.825C194.132 162.211 193.871 161.411 193.871 160.426C193.871 159.441 194.132 158.641 194.653 158.027C195.175 157.413 195.858 157.106 196.704 157.106C197.55 157.106 198.228 157.413 198.738 158.027C199.259 158.63 199.52 159.429 199.52 160.426C199.52 161.423 199.259 162.228 198.738 162.842C198.228 163.445 197.55 163.746 196.704 163.746ZM204.04 157.21H205.378L197.069 169.378H195.731L204.04 157.21ZM196.704 162.755C197.237 162.755 197.654 162.552 197.956 162.147C198.257 161.73 198.408 161.156 198.408 160.426C198.408 159.696 198.257 159.128 197.956 158.723C197.654 158.305 197.237 158.097 196.704 158.097C196.183 158.097 195.766 158.305 195.453 158.723C195.151 159.14 195.001 159.708 195.001 160.426C195.001 161.144 195.151 161.712 195.453 162.129C195.766 162.547 196.183 162.755 196.704 162.755ZM204.405 169.482C203.559 169.482 202.875 169.181 202.353 168.578C201.844 167.964 201.589 167.159 201.589 166.162C201.589 165.166 201.844 164.366 202.353 163.763C202.875 163.149 203.559 162.842 204.405 162.842C205.251 162.842 205.934 163.149 206.456 163.763C206.977 164.378 207.238 165.177 207.238 166.162C207.238 167.147 206.977 167.947 206.456 168.561C205.934 169.175 205.251 169.482 204.405 169.482ZM204.405 168.491C204.926 168.491 205.337 168.283 205.639 167.866C205.952 167.448 206.108 166.881 206.108 166.162C206.108 165.444 205.952 164.876 205.639 164.459C205.337 164.042 204.926 163.833 204.405 163.833C203.872 163.833 203.454 164.042 203.153 164.459C202.852 164.864 202.701 165.432 202.701 166.162C202.701 166.892 202.852 167.466 203.153 167.883C203.454 168.289 203.872 168.491 204.405 168.491Z" fill="#DE4355"/>
<path d="M282.42 163.989H279.257V167.101H277.797V163.989H274.633V162.616H277.797V159.487H279.257V162.616H282.42V163.989ZM287.886 157.21V169.378H286.166V158.723H283.419V157.21H287.886ZM295.797 161.99C296.597 161.99 297.31 162.141 297.935 162.442C298.573 162.744 299.071 163.178 299.43 163.746C299.79 164.302 299.969 164.945 299.969 165.675C299.969 166.44 299.778 167.112 299.396 167.692C299.025 168.271 298.509 168.723 297.849 169.048C297.2 169.361 296.47 169.517 295.658 169.517C294.024 169.517 292.761 168.99 291.869 167.935C290.988 166.881 290.548 165.386 290.548 163.451C290.548 162.095 290.785 160.942 291.261 159.991C291.747 159.03 292.419 158.305 293.277 157.819C294.146 157.32 295.154 157.071 296.302 157.071C296.893 157.071 297.449 157.135 297.97 157.262C298.492 157.378 298.944 157.552 299.326 157.784L298.666 159.14C298.086 158.757 297.31 158.566 296.336 158.566C295.073 158.566 294.082 158.96 293.364 159.748C292.645 160.524 292.286 161.66 292.286 163.155C292.286 163.34 292.292 163.485 292.304 163.59C292.651 163.068 293.126 162.674 293.729 162.408C294.343 162.129 295.033 161.99 295.797 161.99ZM295.589 168.109C296.388 168.109 297.037 167.895 297.536 167.466C298.034 167.037 298.283 166.463 298.283 165.745C298.283 165.027 298.028 164.459 297.518 164.042C297.02 163.613 296.348 163.398 295.502 163.398C294.957 163.398 294.471 163.503 294.042 163.711C293.625 163.92 293.294 164.204 293.051 164.563C292.819 164.922 292.703 165.322 292.703 165.762C292.703 166.191 292.813 166.585 293.034 166.944C293.265 167.292 293.596 167.576 294.024 167.796C294.465 168.005 294.986 168.109 295.589 168.109ZM302.593 169.482C302.269 169.482 301.991 169.372 301.759 169.152C301.527 168.92 301.411 168.63 301.411 168.283C301.411 167.947 301.527 167.669 301.759 167.448C301.991 167.217 302.269 167.101 302.593 167.101C302.918 167.101 303.19 167.211 303.41 167.431C303.63 167.651 303.74 167.935 303.74 168.283C303.74 168.63 303.624 168.92 303.393 169.152C303.173 169.372 302.906 169.482 302.593 169.482ZM310.43 161.99C311.229 161.99 311.942 162.141 312.568 162.442C313.205 162.744 313.704 163.178 314.063 163.746C314.422 164.302 314.602 164.945 314.602 165.675C314.602 166.44 314.41 167.112 314.028 167.692C313.657 168.271 313.142 168.723 312.481 169.048C311.832 169.361 311.102 169.517 310.291 169.517C308.657 169.517 307.394 168.99 306.501 167.935C305.621 166.881 305.18 165.386 305.18 163.451C305.18 162.095 305.418 160.942 305.893 159.991C306.38 159.03 307.052 158.305 307.909 157.819C308.779 157.32 309.787 157.071 310.934 157.071C311.525 157.071 312.081 157.135 312.603 157.262C313.124 157.378 313.576 157.552 313.958 157.784L313.298 159.14C312.719 158.757 311.942 158.566 310.969 158.566C309.706 158.566 308.715 158.96 307.996 159.748C307.278 160.524 306.919 161.66 306.919 163.155C306.919 163.34 306.924 163.485 306.936 163.59C307.284 163.068 307.759 162.674 308.361 162.408C308.976 162.129 309.665 161.99 310.43 161.99ZM310.221 168.109C311.021 168.109 311.67 167.895 312.168 167.466C312.666 167.037 312.916 166.463 312.916 165.745C312.916 165.027 312.661 164.459 312.151 164.042C311.652 163.613 310.98 163.398 310.134 163.398C309.59 163.398 309.103 163.503 308.674 163.711C308.257 163.92 307.927 164.204 307.683 164.563C307.452 164.922 307.336 165.322 307.336 165.762C307.336 166.191 307.446 166.585 307.666 166.944C307.898 167.292 308.228 167.576 308.657 167.796C309.097 168.005 309.619 168.109 310.221 168.109ZM320.567 162.321C321.761 162.437 322.67 162.807 323.296 163.433C323.922 164.047 324.235 164.835 324.235 165.797C324.235 166.492 324.061 167.124 323.713 167.692C323.366 168.248 322.844 168.694 322.149 169.03C321.465 169.355 320.625 169.517 319.628 169.517C318.759 169.517 317.925 169.39 317.125 169.135C316.326 168.868 315.671 168.503 315.161 168.039L315.961 166.666C316.378 167.06 316.911 167.379 317.56 167.622C318.209 167.854 318.898 167.97 319.628 167.97C320.532 167.97 321.233 167.779 321.732 167.396C322.242 167.014 322.497 166.487 322.497 165.815C322.497 165.142 322.247 164.621 321.749 164.25C321.251 163.879 320.498 163.694 319.489 163.694H318.516V162.477L321.575 158.723H315.717V157.21H323.748V158.392L320.567 162.321ZM328.328 163.746C327.482 163.746 326.799 163.439 326.277 162.825C325.756 162.211 325.495 161.411 325.495 160.426C325.495 159.441 325.756 158.641 326.277 158.027C326.799 157.413 327.482 157.106 328.328 157.106C329.174 157.106 329.852 157.413 330.362 158.027C330.884 158.63 331.144 159.429 331.144 160.426C331.144 161.423 330.884 162.228 330.362 162.842C329.852 163.445 329.174 163.746 328.328 163.746ZM335.664 157.21H337.002L328.693 169.378H327.355L335.664 157.21ZM328.328 162.755C328.861 162.755 329.279 162.552 329.58 162.147C329.881 161.73 330.032 161.156 330.032 160.426C330.032 159.696 329.881 159.128 329.58 158.723C329.279 158.305 328.861 158.097 328.328 158.097C327.807 158.097 327.39 158.305 327.077 158.723C326.775 159.14 326.625 159.708 326.625 160.426C326.625 161.144 326.775 161.712 327.077 162.129C327.39 162.547 327.807 162.755 328.328 162.755ZM336.029 169.482C335.183 169.482 334.499 169.181 333.978 168.578C333.468 167.964 333.213 167.159 333.213 166.162C333.213 165.166 333.468 164.366 333.978 163.763C334.499 163.149 335.183 162.842 336.029 162.842C336.875 162.842 337.558 163.149 338.08 163.763C338.601 164.378 338.862 165.177 338.862 166.162C338.862 167.147 338.601 167.947 338.08 168.561C337.558 169.175 336.875 169.482 336.029 169.482ZM336.029 168.491C336.55 168.491 336.962 168.283 337.263 167.866C337.576 167.448 337.732 166.881 337.732 166.162C337.732 165.444 337.576 164.876 337.263 164.459C336.962 164.042 336.55 163.833 336.029 163.833C335.496 163.833 335.078 164.042 334.777 164.459C334.476 164.864 334.325 165.432 334.325 166.162C334.325 166.892 334.476 167.466 334.777 167.883C335.078 168.289 335.496 168.491 336.029 168.491Z" fill="#199F27"/>
<path d="M30.8624 236.143H28.707V238.907H26.5168V236.143H19.842V234.579L25.8389 226.74H28.2551L22.6058 234.231H26.5863V231.78H28.707V234.231H30.8624V236.143ZM36.8236 231.763C37.9477 231.902 38.8052 232.285 39.3962 232.91C39.9872 233.536 40.2827 234.318 40.2827 235.257C40.2827 235.964 40.1031 236.607 39.7439 237.186C39.3846 237.766 38.84 238.229 38.1099 238.577C37.3915 238.913 36.5107 239.081 35.4678 239.081C34.5987 239.081 33.7585 238.959 32.9474 238.716C32.1478 238.461 31.4641 238.113 30.8962 237.673L31.8696 235.917C32.31 236.288 32.8431 236.584 33.4688 236.804C34.1062 237.013 34.7609 237.117 35.433 237.117C36.2326 237.117 36.8584 236.955 37.3103 236.63C37.7739 236.294 38.0056 235.842 38.0056 235.274C38.0056 234.706 37.7855 234.266 37.3451 233.953C36.9163 233.629 36.2558 233.467 35.3635 233.467H34.251V231.92L37.0148 228.634H31.4872V226.74H39.7786V228.252L36.8236 231.763ZM50.7689 226.74V228.252L46.0409 238.907H43.6248L48.1963 228.652H43.4162V230.72H41.3129V226.74H50.7689ZM57.3546 231.398C58.1541 231.398 58.8726 231.554 59.51 231.867C60.1473 232.169 60.6456 232.603 61.0049 233.171C61.3641 233.739 61.5437 234.394 61.5437 235.135C61.5437 235.923 61.3467 236.619 60.9527 237.221C60.5587 237.812 60.0256 238.27 59.3535 238.594C58.6814 238.919 57.9282 239.081 57.0938 239.081C55.4251 239.081 54.1272 238.56 53.2002 237.517C52.2847 236.474 51.8269 234.979 51.8269 233.032C51.8269 231.665 52.0761 230.5 52.5744 229.538C53.0727 228.565 53.768 227.829 54.6603 227.331C55.5642 226.821 56.6071 226.566 57.7891 226.566C58.4149 226.566 59.0001 226.635 59.5447 226.774C60.101 226.902 60.5819 227.093 60.9875 227.348L60.1531 229.051C59.5505 228.657 58.7799 228.46 57.8413 228.46C56.6708 228.46 55.7554 228.82 55.0948 229.538C54.4343 230.257 54.104 231.294 54.104 232.65V232.667C54.4633 232.25 54.921 231.937 55.4773 231.728C56.0335 231.508 56.6593 231.398 57.3546 231.398ZM56.9721 237.308C57.679 237.308 58.2526 237.123 58.693 236.752C59.1334 236.369 59.3535 235.865 59.3535 235.24C59.3535 234.602 59.1334 234.098 58.693 233.727C58.2526 233.356 57.6616 233.171 56.92 233.171C56.1899 233.171 55.5931 233.368 55.1296 233.762C54.6777 234.156 54.4517 234.654 54.4517 235.257C54.4517 235.848 54.6719 236.34 55.1122 236.734C55.5642 237.117 56.1841 237.308 56.9721 237.308ZM64.2505 239.029C63.8565 239.029 63.5204 238.896 63.2423 238.629C62.9642 238.351 62.8251 238.003 62.8251 237.586C62.8251 237.157 62.9584 236.81 63.2249 236.543C63.503 236.277 63.8449 236.143 64.2505 236.143C64.6561 236.143 64.9921 236.277 65.2587 236.543C65.5368 236.81 65.6758 237.157 65.6758 237.586C65.6758 238.003 65.5368 238.351 65.2587 238.629C64.9805 238.896 64.6445 239.029 64.2505 239.029ZM76.121 236.995V238.907H67.1517V237.395L71.984 232.806C72.5287 232.285 72.8937 231.833 73.0791 231.45C73.2761 231.056 73.3746 230.668 73.3746 230.286C73.3746 229.718 73.1834 229.283 72.801 228.982C72.4186 228.681 71.8565 228.53 71.1149 228.53C69.875 228.53 68.9247 228.953 68.2642 229.799L66.6824 228.582C67.1575 227.945 67.7949 227.452 68.5944 227.105C69.4056 226.745 70.3095 226.566 71.3061 226.566C72.6272 226.566 73.6817 226.879 74.4697 227.504C75.2577 228.13 75.6517 228.982 75.6517 230.06C75.6517 230.72 75.5126 231.34 75.2345 231.92C74.9564 232.499 74.4233 233.159 73.6353 233.901L70.3848 236.995H76.121ZM88.0172 236.143H85.8618V238.907H83.6716V236.143H76.9968V234.579L82.9937 226.74H85.4099L79.7606 234.231H83.7412V231.78H85.8618V234.231H88.0172V236.143ZM103.332 235.466C103.332 236.404 102.985 237.204 102.29 237.864C101.606 238.513 100.609 238.907 99.2998 239.046V240.993H97.8744V239.064C97.0169 239.006 96.2057 238.849 95.4409 238.594C94.6761 238.339 94.0677 238.015 93.6157 237.621L94.3979 235.865C94.8267 236.213 95.3482 236.508 95.9624 236.752C96.5765 236.984 97.2139 237.128 97.8744 237.186V233.71C97.0517 233.513 96.3622 233.299 95.8059 233.067C95.2613 232.823 94.8035 232.476 94.4327 232.024C94.0619 231.56 93.8765 230.952 93.8765 230.199C93.8765 229.26 94.2183 228.46 94.902 227.8C95.5857 227.139 96.5765 226.745 97.8744 226.618V224.654H99.2998V226.583C99.9487 226.618 100.58 226.728 101.194 226.913C101.82 227.099 102.365 227.342 102.828 227.643L102.116 229.399C101.235 228.889 100.296 228.576 99.2998 228.46V231.972C100.134 232.169 100.824 232.383 101.368 232.615C101.925 232.847 102.388 233.194 102.759 233.658C103.141 234.11 103.332 234.712 103.332 235.466ZM96.1188 230.094C96.1188 230.477 96.2694 230.784 96.5707 231.016C96.872 231.247 97.3066 231.444 97.8744 231.607V228.513C97.2834 228.605 96.8431 228.791 96.5534 229.069C96.2636 229.347 96.1188 229.689 96.1188 230.094ZM99.2998 237.152C99.914 237.059 100.366 236.879 100.656 236.613C100.957 236.346 101.108 236.016 101.108 235.622C101.108 235.228 100.951 234.915 100.638 234.683C100.325 234.44 99.8792 234.237 99.2998 234.075V237.152Z" fill="#24252E"/>
<circle cx="65.9664" cy="68.898" r="17.3824" fill="#F7931A"/>
<path d="M73.6305 66.4225C73.9765 64.1096 72.2155 62.8662 69.8075 62.0367L70.5886 58.9035L68.6814 58.4282L67.9209 61.4789C67.4196 61.3539 66.9046 61.236 66.3929 61.1193L67.1588 58.0485L65.2527 57.5732L64.4711 60.7053C64.0561 60.6108 63.6487 60.5174 63.2532 60.4191L63.2554 60.4093L60.6252 59.7526L60.1179 61.7896C60.1179 61.7896 61.5329 62.1139 61.503 62.1339C62.2754 62.3268 62.4151 62.8379 62.3917 63.2432L61.5019 66.8125C61.5552 66.8261 61.6242 66.8457 61.7002 66.8761C61.6366 66.8603 61.5687 66.843 61.4987 66.8261L60.2515 71.8263C60.157 72.0609 59.9174 72.4129 59.3775 72.2793C59.3965 72.307 57.9912 71.9333 57.9912 71.9333L57.0444 74.1164L59.5263 74.7351C59.988 74.8508 60.4405 74.9719 60.8859 75.086L60.0967 78.255L62.0017 78.7303L62.7833 75.595C63.3037 75.7362 63.8089 75.8666 64.3032 75.9894L63.5243 79.11L65.4314 79.5853L66.2207 76.4223C69.4729 77.0377 71.9183 76.7895 72.9477 73.8481C73.7772 71.4797 72.9064 70.1136 71.1953 69.2227C72.4414 68.9354 73.3801 68.1157 73.6305 66.4225V66.4225ZM69.273 72.533C68.6836 74.9013 64.6959 73.621 63.4031 73.3L64.4504 69.1016C65.7432 69.4242 69.8889 70.063 69.273 72.533ZM69.8629 66.3883C69.3251 68.5426 66.0061 67.4481 64.9295 67.1797L65.879 63.3719C66.9557 63.6402 70.4229 64.1411 69.8629 66.3883V66.3883Z" fill="white"/>
<path d="M106.398 68.5525C107.104 68.7495 107.661 69.1087 108.066 69.6302C108.472 70.1401 108.675 70.789 108.675 71.577C108.675 72.6316 108.275 73.4427 107.475 74.0106C106.687 74.5784 105.534 74.8623 104.016 74.8623H98.2104V62.6946H103.668C105.059 62.6946 106.131 62.9727 106.884 63.529C107.649 64.0852 108.031 64.8558 108.031 65.8408C108.031 66.4782 107.881 67.0286 107.58 67.4922C107.29 67.9557 106.896 68.3091 106.398 68.5525ZM99.9486 64.1026V67.9963H103.512C104.404 67.9963 105.088 67.834 105.563 67.5095C106.05 67.1735 106.293 66.6868 106.293 66.0494C106.293 65.4121 106.05 64.9312 105.563 64.6067C105.088 64.2706 104.404 64.1026 103.512 64.1026H99.9486ZM103.947 73.4543C104.932 73.4543 105.673 73.2921 106.172 72.9676C106.67 72.6432 106.919 72.1333 106.919 71.438C106.919 70.0821 105.928 69.4042 103.947 69.4042H99.9486V73.4543H103.947ZM111.123 65.6496H112.791V74.8623H111.123V65.6496ZM111.957 63.8766C111.633 63.8766 111.36 63.7723 111.14 63.5637C110.931 63.3552 110.827 63.1002 110.827 62.7989C110.827 62.4976 110.931 62.2427 111.14 62.0341C111.36 61.8139 111.633 61.7038 111.957 61.7038C112.282 61.7038 112.548 61.8081 112.757 62.0167C112.977 62.2137 113.087 62.4629 113.087 62.7642C113.087 63.077 112.977 63.3436 112.757 63.5637C112.548 63.7723 112.282 63.8766 111.957 63.8766ZM121.157 74.3235C120.914 74.532 120.613 74.6943 120.254 74.8102C119.894 74.9145 119.524 74.9666 119.141 74.9666C118.214 74.9666 117.496 74.7175 116.986 74.2192C116.476 73.7209 116.221 73.0082 116.221 72.0811V67.0228H114.656V65.6496H116.221V63.6333H117.89V65.6496H120.532V67.0228H117.89V72.0116C117.89 72.5099 118.011 72.8923 118.255 73.1588C118.51 73.4254 118.869 73.5586 119.332 73.5586C119.842 73.5586 120.277 73.4138 120.636 73.1241L121.157 74.3235ZM126.885 74.9666C125.946 74.9666 125.106 74.7638 124.364 74.3582C123.634 73.9526 123.061 73.3964 122.643 72.6895C122.226 71.971 122.018 71.1599 122.018 70.256C122.018 69.3521 122.226 68.5467 122.643 67.8398C123.061 67.1213 123.634 66.5651 124.364 66.1711C125.106 65.7655 125.946 65.5627 126.885 65.5627C127.719 65.5627 128.461 65.7308 129.11 66.0668C129.77 66.4029 130.28 66.8896 130.639 67.5269L129.37 68.3439C129.081 67.9036 128.721 67.5733 128.293 67.3531C127.864 67.1329 127.389 67.0228 126.867 67.0228C126.265 67.0228 125.72 67.1561 125.233 67.4226C124.758 67.6892 124.382 68.0716 124.104 68.5699C123.837 69.0566 123.704 69.6186 123.704 70.256C123.704 70.9049 123.837 71.4785 124.104 71.9768C124.382 72.4635 124.758 72.8402 125.233 73.1067C125.72 73.3732 126.265 73.5065 126.867 73.5065C127.389 73.5065 127.864 73.3964 128.293 73.1762C128.721 72.956 129.081 72.6258 129.37 72.1854L130.639 72.985C130.28 73.6224 129.77 74.1149 129.11 74.4625C128.461 74.7986 127.719 74.9666 126.885 74.9666ZM136.61 74.9666C135.694 74.9666 134.872 74.7638 134.141 74.3582C133.411 73.9526 132.838 73.3964 132.421 72.6895C132.015 71.971 131.812 71.1599 131.812 70.256C131.812 69.3521 132.015 68.5467 132.421 67.8398C132.838 67.1213 133.411 66.5651 134.141 66.1711C134.872 65.7655 135.694 65.5627 136.61 65.5627C137.525 65.5627 138.342 65.7655 139.061 66.1711C139.791 66.5651 140.359 67.1213 140.764 67.8398C141.181 68.5467 141.39 69.3521 141.39 70.256C141.39 71.1599 141.181 71.971 140.764 72.6895C140.359 73.3964 139.791 73.9526 139.061 74.3582C138.342 74.7638 137.525 74.9666 136.61 74.9666ZM136.61 73.5065C137.201 73.5065 137.728 73.3732 138.192 73.1067C138.667 72.8286 139.037 72.4462 139.304 71.9594C139.571 71.4611 139.704 70.8933 139.704 70.256C139.704 69.6186 139.571 69.0566 139.304 68.5699C139.037 68.0716 138.667 67.6892 138.192 67.4226C137.728 67.1561 137.201 67.0228 136.61 67.0228C136.019 67.0228 135.486 67.1561 135.011 67.4226C134.547 67.6892 134.176 68.0716 133.898 68.5699C133.632 69.0566 133.498 69.6186 133.498 70.256C133.498 70.8933 133.632 71.4611 133.898 71.9594C134.176 72.4462 134.547 72.8286 135.011 73.1067C135.486 73.3732 136.019 73.5065 136.61 73.5065ZM143.698 65.6496H145.366V74.8623H143.698V65.6496ZM144.532 63.8766C144.208 63.8766 143.935 63.7723 143.715 63.5637C143.506 63.3552 143.402 63.1002 143.402 62.7989C143.402 62.4976 143.506 62.2427 143.715 62.0341C143.935 61.8139 144.208 61.7038 144.532 61.7038C144.857 61.7038 145.123 61.8081 145.332 62.0167C145.552 62.2137 145.662 62.4629 145.662 62.7642C145.662 63.077 145.552 63.3436 145.332 63.5637C145.123 63.7723 144.857 63.8766 144.532 63.8766ZM153.472 65.5627C154.642 65.5627 155.569 65.9046 156.253 66.5883C156.948 67.2604 157.296 68.2512 157.296 69.5607V74.8623H155.627V69.7519C155.627 68.8596 155.413 68.1875 154.984 67.7355C154.555 67.2836 153.941 67.0576 153.142 67.0576C152.238 67.0576 151.525 67.3241 151.003 67.8572C150.482 68.3787 150.221 69.1319 150.221 70.1169V74.8623H148.553V65.6496H150.152V67.0402C150.488 66.5651 150.94 66.2001 151.508 65.9451C152.087 65.6902 152.742 65.5627 153.472 65.5627Z" fill="#373943"/>
<path d="M173.483 68.5525C174.19 68.7495 174.746 69.1087 175.151 69.6302C175.557 70.1401 175.76 70.789 175.76 71.577C175.76 72.6316 175.36 73.4427 174.56 74.0106C173.772 74.5784 172.619 74.8623 171.101 74.8623H165.296V62.6946H170.754C172.144 62.6946 173.216 62.9727 173.969 63.529C174.734 64.0852 175.117 64.8558 175.117 65.8408C175.117 66.4782 174.966 67.0286 174.665 67.4922C174.375 67.9557 173.981 68.3091 173.483 68.5525ZM167.034 64.1026V67.9963H170.597C171.49 67.9963 172.173 67.834 172.648 67.5095C173.135 67.1735 173.378 66.6868 173.378 66.0494C173.378 65.4121 173.135 64.9312 172.648 64.6067C172.173 64.2706 171.49 64.1026 170.597 64.1026H167.034ZM171.032 73.4543C172.017 73.4543 172.758 73.2921 173.257 72.9676C173.755 72.6432 174.004 72.1333 174.004 71.438C174.004 70.0821 173.013 69.4042 171.032 69.4042H167.034V73.4543H171.032ZM180.698 64.2069H176.526V62.6946H186.59V64.2069H182.418V74.8623H180.698V64.2069ZM193.754 75.0014C192.538 75.0014 191.437 74.7348 190.452 74.2018C189.478 73.6571 188.713 72.9155 188.157 71.9768C187.601 71.0266 187.323 69.9605 187.323 68.7785C187.323 67.5965 187.601 66.5361 188.157 65.5975C188.713 64.6472 189.484 63.9056 190.469 63.3725C191.454 62.8279 192.555 62.5556 193.772 62.5556C194.722 62.5556 195.591 62.7178 196.379 63.0423C197.167 63.3552 197.839 63.8245 198.395 64.4502L197.266 65.5453C196.35 64.5835 195.209 64.1026 193.841 64.1026C192.937 64.1026 192.12 64.3054 191.39 64.711C190.66 65.1166 190.087 65.6786 189.67 66.3971C189.264 67.104 189.061 67.8978 189.061 68.7785C189.061 69.6592 189.264 70.4588 189.67 71.1772C190.087 71.8841 190.66 72.4404 191.39 72.8459C192.12 73.2515 192.937 73.4543 193.841 73.4543C195.197 73.4543 196.339 72.9676 197.266 71.9942L198.395 73.0893C197.839 73.7151 197.161 74.1902 196.362 74.5147C195.574 74.8391 194.705 75.0014 193.754 75.0014Z" fill="#929398"/>
<circle cx="65.9664" cy="314.425" r="17.3824" fill="#111A44"/>
<path d="M65.9358 303.018L60.5973 310.364L58.3615 321.223L65.9358 325.832L73.5102 321.223L71.2288 310.318L65.9358 303.018ZM59.5934 320.722L61.2817 312.463L65.1145 324.098L59.5934 320.722ZM61.8292 310.592L65.9358 304.934L70.0424 310.592L65.9358 323.003L61.8292 310.592ZM66.7115 324.098L70.5443 312.463L72.2326 320.722L66.7115 324.098Z" fill="white"/>
<path d="M107.041 318.875V320.388H98.2104V308.22H106.797V309.732H99.9486V313.47H106.05V314.947H99.9486V318.875H107.041ZM114.588 319.849C114.345 320.057 114.044 320.22 113.684 320.336C113.325 320.44 112.954 320.492 112.572 320.492C111.645 320.492 110.926 320.243 110.416 319.745C109.906 319.246 109.652 318.534 109.652 317.607V312.548H108.087V311.175H109.652V309.159H111.32V311.175H113.962V312.548H111.32V317.537C111.32 318.035 111.442 318.418 111.685 318.684C111.94 318.951 112.299 319.084 112.763 319.084C113.273 319.084 113.707 318.939 114.067 318.649L114.588 319.849ZM121.525 311.088C122.695 311.088 123.622 311.43 124.306 312.114C125.001 312.786 125.349 313.777 125.349 315.086V320.388H123.68V315.277C123.68 314.385 123.466 313.713 123.037 313.261C122.608 312.809 121.994 312.583 121.195 312.583C120.291 312.583 119.578 312.85 119.057 313.383C118.535 313.904 118.274 314.657 118.274 315.642V320.388H116.606V307.49H118.274V312.479C118.622 312.038 119.074 311.696 119.63 311.453C120.198 311.21 120.83 311.088 121.525 311.088ZM136.814 315.834C136.814 315.961 136.803 316.129 136.78 316.338H129.305C129.409 317.149 129.763 317.804 130.365 318.302C130.98 318.789 131.739 319.032 132.642 319.032C133.743 319.032 134.63 318.661 135.302 317.919L136.223 318.997C135.806 319.484 135.285 319.855 134.659 320.11C134.045 320.365 133.355 320.492 132.59 320.492C131.617 320.492 130.754 320.295 130 319.901C129.247 319.495 128.662 318.933 128.245 318.215C127.839 317.496 127.636 316.685 127.636 315.781C127.636 314.889 127.833 314.084 128.227 313.365C128.633 312.647 129.183 312.09 129.879 311.696C130.586 311.291 131.379 311.088 132.26 311.088C133.141 311.088 133.923 311.291 134.607 311.696C135.302 312.09 135.841 312.647 136.223 313.365C136.617 314.084 136.814 314.906 136.814 315.834ZM132.26 312.496C131.46 312.496 130.788 312.739 130.244 313.226C129.711 313.713 129.398 314.35 129.305 315.138H135.215C135.122 314.362 134.804 313.73 134.259 313.244C133.726 312.745 133.06 312.496 132.26 312.496ZM140.731 312.722C141.02 312.189 141.449 311.783 142.017 311.505C142.585 311.227 143.274 311.088 144.085 311.088V312.705C143.993 312.693 143.865 312.687 143.703 312.687C142.799 312.687 142.086 312.96 141.565 313.504C141.055 314.037 140.8 314.802 140.8 315.799V320.388H139.131V311.175H140.731V312.722ZM154.383 315.834C154.383 315.961 154.372 316.129 154.349 316.338H146.874C146.978 317.149 147.332 317.804 147.935 318.302C148.549 318.789 149.308 319.032 150.212 319.032C151.313 319.032 152.199 318.661 152.871 317.919L153.792 318.997C153.375 319.484 152.854 319.855 152.228 320.11C151.614 320.365 150.924 320.492 150.159 320.492C149.186 320.492 148.323 320.295 147.569 319.901C146.816 319.495 146.231 318.933 145.814 318.215C145.408 317.496 145.205 316.685 145.205 315.781C145.205 314.889 145.402 314.084 145.796 313.365C146.202 312.647 146.753 312.09 147.448 311.696C148.155 311.291 148.948 311.088 149.829 311.088C150.71 311.088 151.492 311.291 152.176 311.696C152.871 312.09 153.41 312.647 153.792 313.365C154.186 314.084 154.383 314.906 154.383 315.834ZM149.829 312.496C149.03 312.496 148.357 312.739 147.813 313.226C147.28 313.713 146.967 314.35 146.874 315.138H152.784C152.692 314.362 152.373 313.73 151.828 313.244C151.295 312.745 150.629 312.496 149.829 312.496ZM165.287 311.175V320.388H163.706V318.997C163.37 319.472 162.923 319.843 162.367 320.11C161.823 320.365 161.226 320.492 160.577 320.492C159.348 320.492 158.381 320.156 157.674 319.484C156.967 318.8 156.614 317.798 156.614 316.477V311.175H158.282V316.285C158.282 317.178 158.497 317.856 158.925 318.319C159.354 318.771 159.968 318.997 160.768 318.997C161.649 318.997 162.344 318.731 162.854 318.198C163.364 317.664 163.619 316.911 163.619 315.938V311.175H165.287ZM179.989 311.088C181.148 311.088 182.063 311.424 182.735 312.096C183.419 312.768 183.761 313.765 183.761 315.086V320.388H182.092V315.277C182.092 314.385 181.883 313.713 181.466 313.261C181.061 312.809 180.475 312.583 179.711 312.583C178.865 312.583 178.193 312.85 177.694 313.383C177.196 313.904 176.947 314.657 176.947 315.642V320.388H175.278V315.277C175.278 314.385 175.07 313.713 174.652 313.261C174.247 312.809 173.662 312.583 172.897 312.583C172.051 312.583 171.379 312.85 170.88 313.383C170.382 313.904 170.133 314.657 170.133 315.642V320.388H168.464V311.175H170.063V312.548C170.399 312.073 170.84 311.714 171.384 311.471C171.929 311.216 172.549 311.088 173.244 311.088C173.963 311.088 174.6 311.233 175.156 311.523C175.713 311.812 176.141 312.235 176.443 312.792C176.79 312.259 177.271 311.841 177.885 311.54C178.511 311.239 179.212 311.088 179.989 311.088Z" fill="#373943"/>
<path d="M200.573 318.875V320.388H191.743V308.22H200.33V309.732H193.481V313.47H199.582V314.947H193.481V318.875H200.573ZM205.804 309.732H201.632V308.22H211.696V309.732H207.525V320.388H205.804V309.732ZM224.054 308.22V320.388H222.315V314.964H215.328V320.388H213.589V308.22H215.328V313.452H222.315V308.22H224.054Z" fill="#929398"/>
</g>
<rect x="-0.113795" y="-142.726" width="374.427" height="2263.03" rx="18.4688" stroke="#D3E3FF" stroke-width="2.1728"/>
</g>
<defs>
<clipPath id="clip0_101_6355">
<path d="M0.199951 -113.013C0.199951 -122.291 7.72157 -129.812 17 -129.812H357.2C366.478 -129.812 374 -122.291 374 -113.013V598.187C374 614.425 360.837 627.588 344.6 627.588H29.6C13.3628 627.588 0.199951 614.425 0.199951 598.188V-113.013Z" fill="white"/>
</clipPath>
<clipPath id="clip1_101_6355">
<rect x="-1.2002" y="-143.812" width="376.6" height="2265.2" rx="19.5552" fill="white"/>
</clipPath>
</defs>
</svg>
