<svg width="374" height="374" viewBox="0 0 374 374" fill="none" xmlns="http://www.w3.org/2000/svg">
<rect width="410" height="1310.91" transform="translate(-18 -564.953)" fill="#EAF1FE"/>
<g clip-path="url(#clip0_101_6657)">
<rect x="-0.506836" y="-445.78" width="375.013" height="1104.27" rx="19.68" fill="white"/>
<path d="M0.0398307 94.8728H373.96V161.566H0.0398307V94.8728Z" fill="#F5F6FD" stroke="#D3E3FF" stroke-width="1.09333"/>
<path d="M0.0398307 311.352H373.96V378.046H0.0398307V311.352Z" fill="#F5F6FD" stroke="#D3E3FF" stroke-width="1.09333"/>
<path d="M26.6254 132.175V134.1H17.5988V132.578L22.462 127.959C23.0101 127.435 23.3775 126.98 23.5641 126.595C23.7623 126.198 23.8615 125.808 23.8615 125.423C23.8615 124.851 23.669 124.414 23.2842 124.111C22.8993 123.808 22.3337 123.656 21.5873 123.656C20.3395 123.656 19.3832 124.082 18.7184 124.933L17.1265 123.709C17.6047 123.067 18.2461 122.572 19.0508 122.222C19.8671 121.86 20.7768 121.679 21.7797 121.679C23.1092 121.679 24.1705 121.994 24.9635 122.624C25.7566 123.254 26.1531 124.111 26.1531 125.196C26.1531 125.86 26.0131 126.484 25.7332 127.067C25.4533 127.65 24.9169 128.315 24.1239 129.062L20.8526 132.175H26.6254ZM32.9947 134.275C32.0151 134.275 31.1405 134.03 30.3707 133.54C29.601 133.038 28.9946 132.315 28.5514 131.371C28.1083 130.414 27.8867 129.283 27.8867 127.977C27.8867 126.671 28.1083 125.545 28.5514 124.601C28.9946 123.644 29.601 122.921 30.3707 122.432C31.1405 121.93 32.0151 121.679 32.9947 121.679C33.9744 121.679 34.849 121.93 35.6187 122.432C36.4001 122.921 37.0124 123.644 37.4555 124.601C37.8987 125.545 38.1203 126.671 38.1203 127.977C38.1203 129.283 37.8987 130.414 37.4555 131.371C37.0124 132.315 36.4001 133.038 35.6187 133.54C34.849 134.03 33.9744 134.275 32.9947 134.275ZM32.9947 132.298C33.8694 132.298 34.5575 131.936 35.059 131.213C35.5721 130.49 35.8287 129.411 35.8287 127.977C35.8287 126.542 35.5721 125.464 35.059 124.741C34.5575 124.018 33.8694 123.656 32.9947 123.656C32.1317 123.656 31.4437 124.018 30.9305 124.741C30.4291 125.464 30.1783 126.542 30.1783 127.977C30.1783 129.411 30.4291 130.49 30.9305 131.213C31.4437 131.936 32.1317 132.298 32.9947 132.298ZM40.8166 134.222C40.4201 134.222 40.0819 134.088 39.802 133.82C39.5221 133.54 39.3821 133.19 39.3821 132.77C39.3821 132.339 39.5163 131.989 39.7845 131.721C40.0644 131.452 40.4084 131.318 40.8166 131.318C41.2248 131.318 41.563 131.452 41.8312 131.721C42.1111 131.989 42.251 132.339 42.251 132.77C42.251 133.19 42.1111 133.54 41.8312 133.82C41.5513 134.088 41.2131 134.222 40.8166 134.222ZM47.7001 121.854V134.1H45.426V123.761H42.8369V121.854H47.7001ZM54.3626 121.854V134.1H52.0884V123.761H49.4994V121.854H54.3626ZM58.1562 134.222C57.7597 134.222 57.4215 134.088 57.1416 133.82C56.8617 133.54 56.7217 133.19 56.7217 132.77C56.7217 132.339 56.8558 131.989 57.1241 131.721C57.404 131.452 57.748 131.318 58.1562 131.318C58.5644 131.318 58.9026 131.452 59.1708 131.721C59.4507 131.989 59.5906 132.339 59.5906 132.77C59.5906 133.19 59.4507 133.54 59.1708 133.82C58.8909 134.088 58.5527 134.222 58.1562 134.222ZM70.1025 132.175V134.1H61.0759V132.578L65.9391 127.959C66.4872 127.435 66.8546 126.98 67.0412 126.595C67.2394 126.198 67.3385 125.808 67.3385 125.423C67.3385 124.851 67.1461 124.414 66.7613 124.111C66.3764 123.808 65.8108 123.656 65.0644 123.656C63.8165 123.656 62.8602 124.082 62.1955 124.933L60.6036 123.709C61.0818 123.067 61.7232 122.572 62.5279 122.222C63.3442 121.86 64.2539 121.679 65.2568 121.679C66.5863 121.679 67.6476 121.994 68.4406 122.624C69.2336 123.254 69.6302 124.111 69.6302 125.196C69.6302 125.86 69.4902 126.484 69.2103 127.067C68.9304 127.65 68.394 128.315 67.6009 129.062L64.3297 132.175H70.1025ZM76.4718 134.275C75.4922 134.275 74.6175 134.03 73.8478 133.54C73.0781 133.038 72.4717 132.315 72.0285 131.371C71.5854 130.414 71.3638 129.283 71.3638 127.977C71.3638 126.671 71.5854 125.545 72.0285 124.601C72.4717 123.644 73.0781 122.921 73.8478 122.432C74.6175 121.93 75.4922 121.679 76.4718 121.679C77.4515 121.679 78.3261 121.93 79.0958 122.432C79.8772 122.921 80.4895 123.644 80.9326 124.601C81.3758 125.545 81.5974 126.671 81.5974 127.977C81.5974 129.283 81.3758 130.414 80.9326 131.371C80.4895 132.315 79.8772 133.038 79.0958 133.54C78.3261 134.03 77.4515 134.275 76.4718 134.275ZM76.4718 132.298C77.3465 132.298 78.0346 131.936 78.536 131.213C79.0492 130.49 79.3058 129.411 79.3058 127.977C79.3058 126.542 79.0492 125.464 78.536 124.741C78.0346 124.018 77.3465 123.656 76.4718 123.656C75.6088 123.656 74.9208 124.018 74.4076 124.741C73.9061 125.464 73.6554 126.542 73.6554 127.977C73.6554 129.411 73.9061 130.49 74.4076 131.213C74.9208 131.936 75.6088 132.298 76.4718 132.298ZM91.9179 132.175V134.1H82.8913V132.578L87.7545 127.959C88.3026 127.435 88.67 126.98 88.8566 126.595C89.0548 126.198 89.154 125.808 89.154 125.423C89.154 124.851 88.9615 124.414 88.5767 124.111C88.1918 123.808 87.6262 123.656 86.8798 123.656C85.632 123.656 84.6757 124.082 84.0109 124.933L82.419 123.709C82.8972 123.067 83.5386 122.572 84.3433 122.222C85.1596 121.86 86.0693 121.679 87.0722 121.679C88.4017 121.679 89.463 121.994 90.256 122.624C91.0491 123.254 91.4456 124.111 91.4456 125.196C91.4456 125.86 91.3056 126.484 91.0257 127.067C90.7458 127.65 90.2094 128.315 89.4164 129.062L86.1451 132.175H91.9179ZM97.4638 121.854V134.1H95.1897V123.761H92.6007V121.854H97.4638Z" fill="#373943"/>
<path d="M21.9897 338.334V350.579H19.7155V340.241H17.1265V338.334H21.9897ZM28.5472 338.159C30.2266 338.159 31.5269 338.684 32.4482 339.733C33.3812 340.783 33.8477 342.287 33.8477 344.247C33.8477 345.623 33.5969 346.801 33.0955 347.78C32.594 348.748 31.8884 349.489 30.9788 350.002C30.0808 350.503 29.037 350.754 27.8475 350.754C27.2177 350.754 26.6229 350.69 26.0632 350.562C25.515 350.422 25.0369 350.223 24.6287 349.967L25.4684 348.252C26.0748 348.649 26.8504 348.847 27.795 348.847C28.9729 348.847 29.8942 348.486 30.5589 347.763C31.2237 347.04 31.5561 345.996 31.5561 344.631V344.614C31.1945 345.034 30.7339 345.354 30.1741 345.576C29.6143 345.786 28.9845 345.891 28.2848 345.891C27.4801 345.891 26.7571 345.739 26.1156 345.436C25.4742 345.121 24.9727 344.678 24.6112 344.107C24.2497 343.535 24.0689 342.876 24.0689 342.13C24.0689 341.337 24.2672 340.643 24.6637 340.048C25.0602 339.442 25.5967 338.975 26.2731 338.649C26.9495 338.322 27.7075 338.159 28.5472 338.159ZM28.7221 344.107C29.4569 344.107 30.0516 343.908 30.5065 343.512C30.9729 343.115 31.2062 342.614 31.2062 342.007C31.2062 341.413 30.9788 340.923 30.524 340.538C30.0808 340.141 29.4627 339.943 28.6697 339.943C27.9583 339.943 27.381 340.136 26.9378 340.52C26.4947 340.894 26.2731 341.395 26.2731 342.025C26.2731 342.666 26.4947 343.174 26.9378 343.547C27.381 343.92 27.9758 344.107 28.7221 344.107ZM36.5458 350.702C36.1492 350.702 35.811 350.567 35.5311 350.299C35.2513 350.019 35.1113 349.669 35.1113 349.25C35.1113 348.818 35.2454 348.468 35.5137 348.2C35.7935 347.932 36.1376 347.798 36.5458 347.798C36.9539 347.798 37.2921 347.932 37.5604 348.2C37.8403 348.468 37.9802 348.818 37.9802 349.25C37.9802 349.669 37.8403 350.019 37.5604 350.299C37.2805 350.567 36.9423 350.702 36.5458 350.702ZM43.4293 338.334V350.579H41.1551V340.241H38.5661V338.334H43.4293ZM50.0918 338.334V350.579H47.8176V340.241H45.2286V338.334H50.0918ZM53.8853 350.702C53.4888 350.702 53.1506 350.567 52.8707 350.299C52.5908 350.019 52.4509 349.669 52.4509 349.25C52.4509 348.818 52.585 348.468 52.8532 348.2C53.1331 347.932 53.4772 347.798 53.8853 347.798C54.2935 347.798 54.6317 347.932 54.9 348.2C55.1799 348.468 55.3198 348.818 55.3198 349.25C55.3198 349.669 55.1799 350.019 54.9 350.299C54.6201 350.567 54.2819 350.702 53.8853 350.702ZM65.8317 348.655V350.579H56.8051V349.057L61.6682 344.439C62.2164 343.914 62.5837 343.459 62.7703 343.074C62.9686 342.678 63.0677 342.287 63.0677 341.902C63.0677 341.331 62.8753 340.894 62.4904 340.59C62.1056 340.287 61.54 340.136 60.7936 340.136C59.5457 340.136 58.5894 340.561 57.9247 341.413L56.3328 340.188C56.8109 339.547 57.4523 339.051 58.257 338.701C59.0734 338.34 59.983 338.159 60.986 338.159C62.3155 338.159 63.3768 338.474 64.1698 339.103C64.9628 339.733 65.3593 340.59 65.3593 341.675C65.3593 342.34 65.2194 342.964 64.9395 343.547C64.6596 344.13 64.1231 344.795 63.3301 345.541L60.0589 348.655H65.8317ZM72.201 350.754C71.2214 350.754 70.3467 350.509 69.577 350.019C68.8073 349.518 68.2009 348.795 67.7577 347.85C67.3145 346.894 67.0929 345.763 67.0929 344.456C67.0929 343.15 67.3145 342.025 67.7577 341.08C68.2009 340.124 68.8073 339.401 69.577 338.911C70.3467 338.41 71.2214 338.159 72.201 338.159C73.1806 338.159 74.0553 338.41 74.825 338.911C75.6064 339.401 76.2186 340.124 76.6618 341.08C77.105 342.025 77.3265 343.15 77.3265 344.456C77.3265 345.763 77.105 346.894 76.6618 347.85C76.2186 348.795 75.6064 349.518 74.825 350.019C74.0553 350.509 73.1806 350.754 72.201 350.754ZM72.201 348.777C73.0757 348.777 73.7637 348.416 74.2652 347.693C74.7784 346.97 75.0349 345.891 75.0349 344.456C75.0349 343.022 74.7784 341.943 74.2652 341.22C73.7637 340.497 73.0757 340.136 72.201 340.136C71.338 340.136 70.6499 340.497 70.1368 341.22C69.6353 341.943 69.3846 343.022 69.3846 344.456C69.3846 345.891 69.6353 346.97 70.1368 347.693C70.6499 348.416 71.338 348.777 72.201 348.777ZM87.6471 348.655V350.579H78.6205V349.057L83.4837 344.439C84.0318 343.914 84.3991 343.459 84.5857 343.074C84.784 342.678 84.8831 342.287 84.8831 341.902C84.8831 341.331 84.6907 340.894 84.3058 340.59C83.921 340.287 83.3554 340.136 82.609 340.136C81.3611 340.136 80.4048 340.561 79.7401 341.413L78.1482 340.188C78.6263 339.547 79.2678 339.051 80.0725 338.701C80.8888 338.34 81.7985 338.159 82.8014 338.159C84.1309 338.159 85.1922 338.474 85.9852 339.103C86.7782 339.733 87.1747 340.59 87.1747 341.675C87.1747 342.34 87.0348 342.964 86.7549 343.547C86.475 344.13 85.9386 344.795 85.1455 345.541L81.8743 348.655H87.6471ZM93.193 338.334V350.579H90.9189V340.241H88.3299V338.334H93.193Z" fill="#373943"/>
<path d="M27.7603 193.606L27.7461 186.358L24.1501 192.398H23.4963L19.9003 186.4V193.606H18.5358V183.657H19.7013L23.8516 190.65L27.9451 183.657H29.1105L29.1248 193.606H27.7603ZM35.2207 193.692C34.4722 193.692 33.7994 193.526 33.2024 193.194C32.6055 192.863 32.1364 192.408 31.7953 191.83C31.4637 191.242 31.2978 190.579 31.2978 189.84C31.2978 189.101 31.4637 188.442 31.7953 187.864C32.1364 187.277 32.6055 186.822 33.2024 186.5C33.7994 186.168 34.4722 186.002 35.2207 186.002C35.9693 186.002 36.6373 186.168 37.2248 186.5C37.8218 186.822 38.2861 187.277 38.6177 187.864C38.9588 188.442 39.1294 189.101 39.1294 189.84C39.1294 190.579 38.9588 191.242 38.6177 191.83C38.2861 192.408 37.8218 192.863 37.2248 193.194C36.6373 193.526 35.9693 193.692 35.2207 193.692ZM35.2207 192.498C35.704 192.498 36.1351 192.389 36.5141 192.171C36.9026 191.943 37.2059 191.631 37.4238 191.233C37.6417 190.825 37.7507 190.361 37.7507 189.84C37.7507 189.319 37.6417 188.859 37.4238 188.461C37.2059 188.054 36.9026 187.741 36.5141 187.523C36.1351 187.305 35.704 187.196 35.2207 187.196C34.7375 187.196 34.3016 187.305 33.9131 187.523C33.5341 187.741 33.2309 188.054 33.0034 188.461C32.7855 188.859 32.6765 189.319 32.6765 189.84C32.6765 190.361 32.7855 190.825 33.0034 191.233C33.2309 191.631 33.5341 191.943 33.9131 192.171C34.3016 192.389 34.7375 192.498 35.2207 192.498ZM41.0997 186.073H42.4642V189.271H46.7566V186.073H48.1211V193.606H46.7566V190.451H42.4642V193.606H41.0997V186.073ZM57.5824 189.883C57.5824 189.987 57.5729 190.124 57.554 190.295H51.4422C51.5275 190.958 51.8165 191.493 52.3093 191.901C52.8115 192.299 53.4321 192.498 54.1712 192.498C55.0714 192.498 55.7963 192.195 56.3458 191.588L57.0992 192.469C56.758 192.867 56.3316 193.171 55.82 193.379C55.3177 193.587 54.754 193.692 54.1286 193.692C53.3326 193.692 52.6267 193.531 52.0108 193.208C51.3949 192.877 50.9164 192.417 50.5752 191.83C50.2436 191.242 50.0778 190.579 50.0778 189.84C50.0778 189.11 50.2388 188.452 50.561 187.864C50.8927 187.277 51.3428 186.822 51.9113 186.5C52.4893 186.168 53.1384 186.002 53.8585 186.002C54.5787 186.002 55.2183 186.168 55.7773 186.5C56.3458 186.822 56.7865 187.277 57.0992 187.864C57.4213 188.452 57.5824 189.125 57.5824 189.883ZM53.8585 187.154C53.2047 187.154 52.6551 187.353 52.2098 187.751C51.7739 188.149 51.518 188.67 51.4422 189.314H56.2748C56.199 188.679 55.9384 188.163 55.493 187.765C55.0572 187.357 54.5123 187.154 53.8585 187.154ZM64.9942 187.267H62.2368V193.606H60.8723V187.267H58.115V186.073H64.9942V187.267ZM69.0758 186.002C70.1181 186.002 70.914 186.258 71.4636 186.77C72.0227 187.282 72.3022 188.044 72.3022 189.058V193.606H71.0088V192.612C70.7814 192.962 70.4545 193.232 70.0281 193.422C69.6111 193.602 69.1137 193.692 68.5357 193.692C67.6923 193.692 67.0148 193.488 66.5032 193.081C66.001 192.673 65.7499 192.138 65.7499 191.474C65.7499 190.811 65.9915 190.281 66.4747 189.883C66.958 189.475 67.7255 189.271 68.7773 189.271H70.9377V189.001C70.9377 188.414 70.7672 187.964 70.426 187.651C70.0849 187.338 69.5827 187.182 68.9194 187.182C68.4741 187.182 68.0382 187.258 67.6118 187.409C67.1854 187.552 66.8253 187.746 66.5316 187.992L65.9631 186.969C66.3515 186.656 66.8159 186.419 67.356 186.258C67.8961 186.088 68.4693 186.002 69.0758 186.002ZM68.7631 192.64C69.2842 192.64 69.7343 192.526 70.1133 192.299C70.4924 192.062 70.7672 191.73 70.9377 191.304V190.252H68.8341C67.6781 190.252 67.1001 190.641 67.1001 191.418C67.1001 191.797 67.247 192.095 67.5407 192.313C67.8345 192.531 68.2419 192.64 68.7631 192.64Z" fill="#606371"/>
<path d="M205.548 192.37V195.866H204.226V193.606H195.656V183.657H197.063V192.37H202.606V183.657H204.013V192.37H205.548ZM213.854 189.883C213.854 189.987 213.845 190.124 213.826 190.295H207.714C207.799 190.958 208.088 191.493 208.581 191.901C209.083 192.299 209.704 192.498 210.443 192.498C211.343 192.498 212.068 192.195 212.618 191.588L213.371 192.469C213.03 192.867 212.604 193.171 212.092 193.379C211.59 193.587 211.026 193.692 210.4 193.692C209.605 193.692 208.899 193.531 208.283 193.208C207.667 192.877 207.188 192.417 206.847 191.83C206.516 191.242 206.35 190.579 206.35 189.84C206.35 189.11 206.511 188.452 206.833 187.864C207.165 187.277 207.615 186.822 208.183 186.5C208.761 186.168 209.41 186.002 210.13 186.002C210.851 186.002 211.49 186.168 212.049 186.5C212.618 186.822 213.058 187.277 213.371 187.864C213.693 188.452 213.854 189.125 213.854 189.883ZM210.13 187.154C209.477 187.154 208.927 187.353 208.482 187.751C208.046 188.149 207.79 188.67 207.714 189.314H212.547C212.471 188.679 212.21 188.163 211.765 187.765C211.329 187.357 210.784 187.154 210.13 187.154ZM215.971 186.073H217.336V189.271H221.628V186.073H222.993V193.606H221.628V190.451H217.336V193.606H215.971V186.073ZM228.332 186.002C229.374 186.002 230.17 186.258 230.72 186.77C231.279 187.282 231.558 188.044 231.558 189.058V193.606H230.265V192.612C230.038 192.962 229.711 193.232 229.284 193.422C228.867 193.602 228.37 193.692 227.792 193.692C226.949 193.692 226.271 193.488 225.759 193.081C225.257 192.673 225.006 192.138 225.006 191.474C225.006 190.811 225.248 190.281 225.731 189.883C226.214 189.475 226.982 189.271 228.033 189.271H230.194V189.001C230.194 188.414 230.023 187.964 229.682 187.651C229.341 187.338 228.839 187.182 228.176 187.182C227.73 187.182 227.294 187.258 226.868 187.409C226.442 187.552 226.081 187.746 225.788 187.992L225.219 186.969C225.608 186.656 226.072 186.419 226.612 186.258C227.152 186.088 227.726 186.002 228.332 186.002ZM228.019 192.64C228.54 192.64 228.99 192.526 229.37 192.299C229.749 192.062 230.023 191.73 230.194 191.304V190.252H228.09C226.934 190.252 226.356 190.641 226.356 191.418C226.356 191.797 226.503 192.095 226.797 192.313C227.091 192.531 227.498 192.64 228.019 192.64Z" fill="#606371"/>
<path d="M203.553 218.951V220.473H194.754V219.283L199.739 214.472C200.346 213.889 200.754 213.388 200.964 212.968C201.174 212.537 201.279 212.105 201.279 211.674C201.279 211.032 201.051 210.536 200.597 210.187C200.153 209.825 199.512 209.644 198.672 209.644C197.32 209.644 196.276 210.087 195.541 210.974L194.351 209.942C194.83 209.359 195.454 208.904 196.223 208.577C197.005 208.251 197.873 208.087 198.83 208.087C200.113 208.087 201.133 208.396 201.891 209.015C202.649 209.621 203.028 210.449 203.028 211.499C203.028 212.152 202.888 212.77 202.608 213.353C202.328 213.936 201.798 214.601 201.016 215.347L197.273 218.951H203.553ZM213.598 218.951V220.473H204.799V219.283L209.784 214.472C210.391 213.889 210.799 213.388 211.009 212.968C211.219 212.537 211.324 212.105 211.324 211.674C211.324 211.032 211.096 210.536 210.642 210.187C210.198 209.825 209.557 209.644 208.717 209.644C207.365 209.644 206.321 210.087 205.586 210.974L204.396 209.942C204.875 209.359 205.499 208.904 206.268 208.577C207.05 208.251 207.918 208.087 208.875 208.087C210.158 208.087 211.178 208.396 211.936 209.015C212.694 209.621 213.073 210.449 213.073 211.499C213.073 212.152 212.933 212.77 212.653 213.353C212.373 213.936 211.843 214.601 211.061 215.347L207.318 218.951H213.598ZM223.643 218.951V220.473H214.844V219.283L219.829 214.472C220.436 213.889 220.844 213.388 221.054 212.968C221.264 212.537 221.369 212.105 221.369 211.674C221.369 211.032 221.141 210.536 220.687 210.187C220.243 209.825 219.602 209.644 218.762 209.644C217.41 209.644 216.366 210.087 215.631 210.974L214.441 209.942C214.92 209.359 215.544 208.904 216.313 208.577C217.095 208.251 217.963 208.087 218.92 208.087C220.203 208.087 221.223 208.396 221.981 209.015C222.739 209.621 223.118 210.449 223.118 211.499C223.118 212.152 222.978 212.77 222.698 213.353C222.418 213.936 221.888 214.601 221.106 215.347L217.363 218.951H223.643ZM229.769 213.37C230.971 213.487 231.886 213.86 232.516 214.49C233.146 215.108 233.461 215.901 233.461 216.869C233.461 217.569 233.286 218.204 232.936 218.776C232.586 219.336 232.061 219.785 231.361 220.123C230.673 220.449 229.828 220.613 228.825 220.613C227.95 220.613 227.11 220.484 226.306 220.228C225.501 219.96 224.842 219.592 224.329 219.126L225.134 217.744C225.554 218.14 226.09 218.461 226.743 218.706C227.396 218.939 228.09 219.056 228.825 219.056C229.734 219.056 230.44 218.863 230.942 218.478C231.455 218.094 231.711 217.563 231.711 216.887C231.711 216.21 231.46 215.685 230.959 215.312C230.458 214.939 229.699 214.752 228.685 214.752H227.705V213.528L230.784 209.749H224.889V208.227H232.971V209.417L229.769 213.37ZM236.247 220.578C235.92 220.578 235.64 220.467 235.407 220.245C235.174 220.012 235.057 219.72 235.057 219.371C235.057 219.032 235.174 218.752 235.407 218.531C235.64 218.298 235.92 218.181 236.247 218.181C236.573 218.181 236.847 218.292 237.069 218.513C237.29 218.735 237.401 219.021 237.401 219.371C237.401 219.72 237.285 220.012 237.051 220.245C236.83 220.467 236.562 220.578 236.247 220.578ZM243.914 213.37C245.116 213.487 246.031 213.86 246.661 214.49C247.291 215.108 247.606 215.901 247.606 216.869C247.606 217.569 247.431 218.204 247.081 218.776C246.731 219.336 246.206 219.785 245.506 220.123C244.818 220.449 243.973 220.613 242.97 220.613C242.095 220.613 241.255 220.484 240.451 220.228C239.646 219.96 238.987 219.592 238.474 219.126L239.279 217.744C239.699 218.14 240.235 218.461 240.888 218.706C241.541 218.939 242.235 219.056 242.97 219.056C243.879 219.056 244.585 218.863 245.087 218.478C245.6 218.094 245.856 217.563 245.856 216.887C245.856 216.21 245.605 215.685 245.104 215.312C244.603 214.939 243.844 214.752 242.83 214.752H241.85V213.528L244.929 209.749H239.034V208.227H247.116V209.417L243.914 213.37ZM253.033 208.227V220.473H251.301V209.749H248.537V208.227H253.033ZM269.716 217.131C269.716 218.053 269.366 218.834 268.666 219.476C267.978 220.117 266.975 220.49 265.658 220.595V222.572H264.538V220.595C263.687 220.548 262.876 220.391 262.106 220.123C261.348 219.843 260.742 219.493 260.287 219.073L260.934 217.709C261.354 218.094 261.885 218.414 262.526 218.671C263.168 218.916 263.838 219.062 264.538 219.108V215.05C263.722 214.851 263.039 214.636 262.491 214.402C261.955 214.169 261.5 213.825 261.127 213.37C260.765 212.916 260.585 212.321 260.585 211.586C260.585 210.665 260.917 209.883 261.582 209.242C262.258 208.601 263.244 208.227 264.538 208.122V206.128H265.658V208.105C266.322 208.128 266.964 208.233 267.582 208.42C268.212 208.606 268.754 208.857 269.209 209.172L268.631 210.571C267.687 209.977 266.696 209.65 265.658 209.592V213.668C266.509 213.878 267.209 214.099 267.757 214.332C268.305 214.554 268.766 214.892 269.139 215.347C269.524 215.79 269.716 216.385 269.716 217.131ZM262.299 211.516C262.299 212.018 262.491 212.408 262.876 212.688C263.261 212.968 263.815 213.201 264.538 213.388V209.609C263.792 209.703 263.232 209.924 262.859 210.274C262.485 210.612 262.299 211.026 262.299 211.516ZM265.658 219.091C266.439 219.021 267.022 218.822 267.407 218.496C267.803 218.158 268.002 217.738 268.002 217.236C268.002 216.723 267.798 216.333 267.389 216.064C266.993 215.784 266.416 215.54 265.658 215.33V219.091Z" fill="#373943"/>
<rect x="194.107" y="112.913" width="82" height="30.6133" rx="8.74667" fill="#199F27"/>
<path d="M213.058 123.337V133.286H211.239V124.9H206.08V133.286H204.26V123.337H213.058ZM219.048 133.386C218.28 133.386 217.588 133.22 216.973 132.888C216.357 132.557 215.873 132.097 215.523 131.509C215.182 130.913 215.011 130.24 215.011 129.491C215.011 128.743 215.182 128.075 215.523 127.487C215.873 126.9 216.357 126.44 216.973 126.108C217.588 125.777 218.28 125.611 219.048 125.611C219.825 125.611 220.521 125.777 221.137 126.108C221.753 126.44 222.231 126.9 222.573 127.487C222.923 128.075 223.098 128.743 223.098 129.491C223.098 130.24 222.923 130.913 222.573 131.509C222.231 132.097 221.753 132.557 221.137 132.888C220.521 133.22 219.825 133.386 219.048 133.386ZM219.048 131.865C219.702 131.865 220.242 131.647 220.668 131.211C221.094 130.775 221.308 130.202 221.308 129.491C221.308 128.781 221.094 128.207 220.668 127.771C220.242 127.335 219.702 127.118 219.048 127.118C218.394 127.118 217.854 127.335 217.427 127.771C217.01 128.207 216.802 128.781 216.802 129.491C216.802 130.202 217.01 130.775 217.427 131.211C217.854 131.647 218.394 131.865 219.048 131.865ZM228.009 130.244H226.63V133.286H224.854V125.696H226.63V128.766H228.052L230.297 125.696H232.202L229.445 129.349L232.387 133.286H230.297L228.009 130.244ZM240.373 125.696L236.82 133.897C236.488 134.722 236.085 135.3 235.612 135.631C235.138 135.972 234.565 136.143 233.892 136.143C233.513 136.143 233.138 136.081 232.769 135.958C232.399 135.835 232.096 135.664 231.859 135.447L232.57 134.139C232.74 134.3 232.939 134.428 233.167 134.523C233.404 134.617 233.641 134.665 233.878 134.665C234.19 134.665 234.446 134.584 234.645 134.423C234.854 134.262 235.043 133.992 235.214 133.613L235.342 133.315L232.03 125.696H233.878L236.265 131.31L238.667 125.696H240.373ZM248.884 125.696V133.286H247.122V127.203H243.384V133.286H241.607V125.696H248.884ZM254.437 130.244H253.058V133.286H251.282V125.696H253.058V128.766H254.48L256.725 125.696H258.63L255.872 129.349L258.815 133.286H256.725L254.437 130.244ZM262.757 125.611C263.875 125.611 264.728 125.881 265.316 126.421C265.913 126.952 266.211 127.757 266.211 128.837V133.286H264.534V132.362C264.316 132.694 264.003 132.95 263.596 133.13C263.198 133.3 262.715 133.386 262.146 133.386C261.578 133.386 261.08 133.291 260.654 133.101C260.227 132.902 259.896 132.632 259.659 132.291C259.431 131.941 259.318 131.547 259.318 131.111C259.318 130.429 259.569 129.884 260.071 129.477C260.583 129.06 261.383 128.852 262.473 128.852H264.435V128.738C264.435 128.207 264.273 127.8 263.951 127.516C263.639 127.231 263.17 127.089 262.544 127.089C262.118 127.089 261.696 127.155 261.279 127.288C260.872 127.421 260.526 127.606 260.242 127.842L259.545 126.549C259.943 126.246 260.422 126.014 260.981 125.853C261.54 125.691 262.132 125.611 262.757 125.611ZM262.516 132.092C262.961 132.092 263.354 131.993 263.695 131.794C264.046 131.585 264.292 131.292 264.435 130.913V130.031H262.601C261.578 130.031 261.066 130.368 261.066 131.04C261.066 131.363 261.194 131.618 261.45 131.808C261.706 131.997 262.061 132.092 262.516 132.092Z" fill="white"/>
<rect x="193.013" y="328.3" width="101.68" height="31.7067" rx="8.74667" fill="#DE4355"/>
<path d="M217.123 338.958V349.673H215.164V340.642H209.608V349.673H207.649V338.958H217.123ZM224.461 341.407C225.257 341.407 225.966 341.581 226.589 341.928C227.221 342.275 227.716 342.764 228.073 343.397C228.431 344.03 228.609 344.759 228.609 345.586C228.609 346.413 228.431 347.147 228.073 347.79C227.716 348.423 227.221 348.913 226.589 349.26C225.966 349.607 225.257 349.78 224.461 349.78C223.359 349.78 222.487 349.413 221.844 348.678V352.642H219.93V341.499H221.752V342.571C222.068 342.183 222.456 341.892 222.915 341.698C223.385 341.504 223.9 341.407 224.461 341.407ZM224.247 348.142C224.951 348.142 225.527 347.907 225.976 347.438C226.436 346.969 226.665 346.351 226.665 345.586C226.665 344.821 226.436 344.203 225.976 343.734C225.527 343.264 224.951 343.03 224.247 343.03C223.788 343.03 223.374 343.137 223.007 343.351C222.64 343.555 222.349 343.851 222.135 344.239C221.92 344.627 221.813 345.076 221.813 345.586C221.813 346.096 221.92 346.545 222.135 346.933C222.349 347.321 222.64 347.622 223.007 347.836C223.374 348.04 223.788 348.142 224.247 348.142ZM234.156 349.78C233.33 349.78 232.585 349.601 231.922 349.244C231.258 348.887 230.738 348.392 230.36 347.76C229.993 347.117 229.809 346.392 229.809 345.586C229.809 344.78 229.993 344.06 230.36 343.428C230.738 342.795 231.258 342.3 231.922 341.943C232.585 341.586 233.33 341.407 234.156 341.407C234.993 341.407 235.743 341.586 236.407 341.943C237.07 342.3 237.585 342.795 237.953 343.428C238.33 344.06 238.519 344.78 238.519 345.586C238.519 346.392 238.33 347.117 237.953 347.76C237.585 348.392 237.07 348.887 236.407 349.244C235.743 349.601 234.993 349.78 234.156 349.78ZM234.156 348.142C234.861 348.142 235.442 347.907 235.901 347.438C236.361 346.969 236.59 346.351 236.59 345.586C236.59 344.821 236.361 344.203 235.901 343.734C235.442 343.264 234.861 343.03 234.156 343.03C233.452 343.03 232.871 343.264 232.411 343.734C231.963 344.203 231.738 344.821 231.738 345.586C231.738 346.351 231.963 346.969 232.411 347.438C232.871 347.907 233.452 348.142 234.156 348.142ZM249.044 348.05V351.494H247.253V349.673H240.947V351.494H239.171V348.05H239.554C240.074 348.03 240.426 347.698 240.61 347.055C240.804 346.402 240.932 345.484 240.993 344.3L241.1 341.499H247.835V348.05H249.044ZM242.738 344.438C242.697 345.377 242.62 346.142 242.508 346.734C242.396 347.326 242.192 347.765 241.896 348.05H245.922V343.122H242.784L242.738 344.438ZM253.799 341.407C255.003 341.407 255.921 341.698 256.554 342.28C257.197 342.851 257.518 343.719 257.518 344.882V349.673H255.712V348.678C255.478 349.035 255.141 349.311 254.702 349.504C254.273 349.688 253.753 349.78 253.141 349.78C252.529 349.78 251.993 349.678 251.534 349.474C251.074 349.26 250.717 348.969 250.462 348.601C250.217 348.224 250.095 347.8 250.095 347.331C250.095 346.596 250.365 346.009 250.906 345.571C251.457 345.122 252.319 344.897 253.493 344.897H255.605V344.775C255.605 344.203 255.432 343.764 255.085 343.458C254.748 343.152 254.243 342.999 253.569 342.999C253.11 342.999 252.656 343.071 252.207 343.213C251.768 343.356 251.396 343.555 251.09 343.81L250.34 342.417C250.768 342.091 251.284 341.841 251.886 341.667C252.488 341.494 253.125 341.407 253.799 341.407ZM253.539 348.387C254.018 348.387 254.442 348.28 254.809 348.066C255.187 347.841 255.452 347.525 255.605 347.117V346.168H253.631C252.529 346.168 251.977 346.53 251.977 347.254C251.977 347.601 252.115 347.877 252.391 348.081C252.666 348.285 253.049 348.387 253.539 348.387ZM267.647 346.397H266.269V349.673H264.371V346.397H262.993L261.004 349.673H258.738L261.417 345.448L258.937 341.499H260.973L262.963 344.805H264.371V341.499H266.269V344.805H267.662L269.667 341.499H271.703L269.223 345.448L271.917 349.673H269.636L267.647 346.397ZM276.236 341.407C277.44 341.407 278.358 341.698 278.991 342.28C279.634 342.851 279.955 343.719 279.955 344.882V349.673H278.149V348.678C277.914 349.035 277.578 349.311 277.139 349.504C276.71 349.688 276.19 349.78 275.578 349.78C274.965 349.78 274.43 349.678 273.97 349.474C273.511 349.26 273.154 348.969 272.899 348.601C272.654 348.224 272.532 347.8 272.532 347.331C272.532 346.596 272.802 346.009 273.343 345.571C273.894 345.122 274.756 344.897 275.93 344.897H278.042V344.775C278.042 344.203 277.869 343.764 277.522 343.458C277.185 343.152 276.68 342.999 276.006 342.999C275.547 342.999 275.093 343.071 274.644 343.213C274.205 343.356 273.833 343.555 273.527 343.81L272.776 342.417C273.205 342.091 273.72 341.841 274.322 341.667C274.925 341.494 275.562 341.407 276.236 341.407ZM275.976 348.387C276.455 348.387 276.879 348.28 277.246 348.066C277.624 347.841 277.889 347.525 278.042 347.117V346.168H276.067C274.965 346.168 274.414 346.53 274.414 347.254C274.414 347.601 274.552 347.877 274.828 348.081C275.103 348.285 275.486 348.387 275.976 348.387Z" fill="white"/>
<path d="M33.0471 273.906H28.4667C28.2493 273.906 28.0407 273.82 27.8869 273.666C27.7331 273.512 27.6467 273.304 27.6467 273.086V268.506C27.6467 268.398 27.6679 268.291 27.7091 268.192C27.7504 268.092 27.8108 268.002 27.8869 267.926L40.1869 255.626C40.3407 255.472 40.5493 255.386 40.7667 255.386C40.9842 255.386 41.1928 255.472 41.3466 255.626L45.9269 260.206C46.0807 260.36 46.1671 260.569 46.1671 260.786C46.1671 261.004 46.0807 261.212 45.9269 261.366L33.6269 273.666C33.5508 273.742 33.4604 273.802 33.3609 273.844C33.2614 273.885 33.1548 273.906 33.0471 273.906Z" stroke="#3E54D8" stroke-width="1.64" stroke-linecap="round" stroke-linejoin="round"/>
<path d="M37.4868 258.327L43.2268 264.067" stroke="#3E54D8" stroke-width="1.64" stroke-linecap="round" stroke-linejoin="round"/>
<path d="M33.3349 273.854L27.6995 268.219" stroke="#3E54D8" stroke-width="1.64" stroke-linecap="round" stroke-linejoin="round"/>
<rect x="17.5332" y="245.753" width="38.2667" height="38.2667" rx="4.92" stroke="#D3E3FF" stroke-width="1.09333"/>
<g clip-path="url(#clip1_101_6657)">
<path d="M102.54 257.507L84.4999 257.507" stroke="#3E54D8" stroke-width="1.64" stroke-linecap="round" stroke-linejoin="round"/>
<path d="M91.0598 262.427V268.987" stroke="#3E54D8" stroke-width="1.64" stroke-linecap="round" stroke-linejoin="round"/>
<path d="M95.9799 262.427V268.987" stroke="#3E54D8" stroke-width="1.64" stroke-linecap="round" stroke-linejoin="round"/>
<path d="M100.9 257.507V273.087C100.9 273.304 100.814 273.513 100.66 273.667C100.506 273.82 100.297 273.907 100.08 273.907H86.9599C86.7424 273.907 86.5338 273.82 86.3801 273.667C86.2263 273.513 86.1399 273.304 86.1399 273.087V257.507" stroke="#3E54D8" stroke-width="1.64" stroke-linecap="round" stroke-linejoin="round"/>
<path d="M97.6198 257.507V255.867C97.6198 255.432 97.447 255.014 97.1395 254.707C96.8319 254.399 96.4148 254.227 95.9798 254.227H91.0598C90.6248 254.227 90.2077 254.399 89.9001 254.707C89.5926 255.014 89.4198 255.432 89.4198 255.867V257.507" stroke="#3E54D8" stroke-width="1.64" stroke-linecap="round" stroke-linejoin="round"/>
</g>
<rect x="74.3865" y="245.753" width="38.2667" height="38.2667" rx="4.92" stroke="#D3E3FF" stroke-width="1.09333"/>
<path d="M-0.506836 59.3389L374.507 59.3389" stroke="#D3E3FF" stroke-width="2.18667"/>
<path d="M143.413 22.3611V34.6064H141.663V29.1485H134.631V34.6064H132.882V22.3611H134.631V27.6266H141.663V22.3611H143.413ZM150.923 34.7114C150.002 34.7114 149.174 34.5073 148.439 34.0991C147.704 33.691 147.127 33.1312 146.707 32.4198C146.299 31.6967 146.095 30.8804 146.095 29.9707C146.095 29.0611 146.299 28.2505 146.707 27.5391C147.127 26.8161 147.704 26.2563 148.439 25.8598C149.174 25.4516 150.002 25.2475 150.923 25.2475C151.844 25.2475 152.666 25.4516 153.389 25.8598C154.124 26.2563 154.696 26.8161 155.104 27.5391C155.524 28.2505 155.734 29.0611 155.734 29.9707C155.734 30.8804 155.524 31.6967 155.104 32.4198C154.696 33.1312 154.124 33.691 153.389 34.0991C152.666 34.5073 151.844 34.7114 150.923 34.7114ZM150.923 33.242C151.518 33.242 152.048 33.1078 152.515 32.8396C152.993 32.5597 153.366 32.1749 153.634 31.6851C153.903 31.1836 154.037 30.6121 154.037 29.9707C154.037 29.3293 153.903 28.7637 153.634 28.2739C153.366 27.7724 152.993 27.3875 152.515 27.1193C152.048 26.8511 151.518 26.717 150.923 26.717C150.328 26.717 149.792 26.8511 149.313 27.1193C148.847 27.3875 148.474 27.7724 148.194 28.2739C147.926 28.7637 147.792 29.3293 147.792 29.9707C147.792 30.6121 147.926 31.1836 148.194 31.6851C148.474 32.1749 148.847 32.5597 149.313 32.8396C149.792 33.1078 150.328 33.242 150.923 33.242ZM164.474 29.7958C165.675 30.099 166.275 30.8512 166.275 32.0524C166.275 32.8688 165.966 33.4985 165.348 33.9417C164.742 34.3849 163.832 34.6064 162.619 34.6064H158.159V25.335H162.462C163.558 25.335 164.415 25.5449 165.033 25.9647C165.652 26.3729 165.961 26.956 165.961 27.7141C165.961 28.2039 165.826 28.6296 165.558 28.9911C165.302 29.341 164.94 29.6092 164.474 29.7958ZM159.803 29.3235H162.322C162.963 29.3235 163.447 29.2068 163.774 28.9736C164.112 28.7403 164.281 28.4021 164.281 27.959C164.281 27.0726 163.628 26.6295 162.322 26.6295H159.803V29.3235ZM162.497 33.3119C163.197 33.3119 163.721 33.2011 164.071 32.9796C164.421 32.758 164.596 32.4139 164.596 31.9475C164.596 31.4693 164.433 31.1136 164.106 30.8804C163.791 30.6471 163.29 30.5305 162.602 30.5305H159.803V33.3119H162.497ZM172.875 34.7114C171.954 34.7114 171.126 34.5073 170.391 34.0991C169.656 33.691 169.079 33.1312 168.659 32.4198C168.251 31.6967 168.047 30.8804 168.047 29.9707C168.047 29.0611 168.251 28.2505 168.659 27.5391C169.079 26.8161 169.656 26.2563 170.391 25.8598C171.126 25.4516 171.954 25.2475 172.875 25.2475C173.796 25.2475 174.618 25.4516 175.342 25.8598C176.076 26.2563 176.648 26.8161 177.056 27.5391C177.476 28.2505 177.686 29.0611 177.686 29.9707C177.686 30.8804 177.476 31.6967 177.056 32.4198C176.648 33.1312 176.076 33.691 175.342 34.0991C174.618 34.5073 173.796 34.7114 172.875 34.7114ZM172.875 33.242C173.47 33.242 174 33.1078 174.467 32.8396C174.945 32.5597 175.318 32.1749 175.586 31.6851C175.855 31.1836 175.989 30.6121 175.989 29.9707C175.989 29.3293 175.855 28.7637 175.586 28.2739C175.318 27.7724 174.945 27.3875 174.467 27.1193C174 26.8511 173.47 26.717 172.875 26.717C172.28 26.717 171.744 26.8511 171.266 27.1193C170.799 27.3875 170.426 27.7724 170.146 28.2739C169.878 28.7637 169.744 29.3293 169.744 29.9707C169.744 30.6121 169.878 31.1836 170.146 31.6851C170.426 32.1749 170.799 32.5597 171.266 32.8396C171.744 33.1078 172.28 33.242 172.875 33.242ZM184.152 34.7114C183.207 34.7114 182.361 34.5073 181.615 34.0991C180.88 33.691 180.303 33.1312 179.883 32.4198C179.463 31.6967 179.253 30.8804 179.253 29.9707C179.253 29.0611 179.463 28.2505 179.883 27.5391C180.303 26.8161 180.88 26.2563 181.615 25.8598C182.361 25.4516 183.207 25.2475 184.152 25.2475C184.991 25.2475 185.738 25.4166 186.391 25.7548C187.055 26.093 187.569 26.5828 187.93 27.2243L186.653 28.0464C186.362 27.6033 186 27.2709 185.569 27.0493C185.137 26.8277 184.659 26.717 184.134 26.717C183.528 26.717 182.98 26.8511 182.49 27.1193C182.012 27.3875 181.633 27.7724 181.353 28.2739C181.084 28.7637 180.95 29.3293 180.95 29.9707C180.95 30.6238 181.084 31.2011 181.353 31.7026C181.633 32.1924 182.012 32.5714 182.49 32.8396C182.98 33.1078 183.528 33.242 184.134 33.242C184.659 33.242 185.137 33.1312 185.569 32.9096C186 32.688 186.362 32.3556 186.653 31.9125L187.93 32.7172C187.569 33.3586 187.055 33.8542 186.391 34.2041C185.738 34.5423 184.991 34.7114 184.152 34.7114ZM196.895 26.8044H193.501V34.6064H191.822V26.8044H188.428V25.335H196.895V26.8044ZM198.612 25.335H200.291V32.0874L205.977 25.335H207.498V34.6064H205.819V27.854L200.151 34.6064H198.612V25.335Z" fill="#24252E"/>
<path d="M18.8465 22.3611H21.0857V31.0553L27.6632 22.3611H29.7799V34.6064H27.5407V25.9298L20.9632 34.6064H18.8465V22.3611ZM37.2192 34.7289C36.2512 34.7289 35.3824 34.5248 34.6127 34.1166C33.843 33.7085 33.2424 33.1428 32.8109 32.4198C32.3794 31.6851 32.1636 30.857 32.1636 29.9357C32.1636 29.0144 32.3794 28.1922 32.8109 27.4692C33.2424 26.7461 33.8371 26.1805 34.5952 25.7723C35.3649 25.3641 36.2396 25.16 37.2192 25.16C38.1405 25.16 38.9452 25.3466 39.6333 25.7198C40.333 26.093 40.8578 26.6295 41.2077 27.3292L39.5283 28.3088C39.2601 27.8773 38.9219 27.5566 38.5137 27.3467C38.1172 27.1251 37.6798 27.0143 37.2017 27.0143C36.3853 27.0143 35.7089 27.2826 35.1725 27.819C34.636 28.3438 34.3678 29.0494 34.3678 29.9357C34.3678 30.8221 34.6302 31.5334 35.155 32.0699C35.6914 32.5947 36.3737 32.8571 37.2017 32.8571C37.6798 32.8571 38.1172 32.7522 38.5137 32.5422C38.9219 32.3206 39.2601 31.9941 39.5283 31.5626L41.2077 32.5422C40.8461 33.242 40.3155 33.7843 39.6158 34.1691C38.9277 34.5423 38.1288 34.7289 37.2192 34.7289ZM50.4472 27.1193H47.1759V34.6064H44.9892V27.1193H41.7005V25.265H50.4472V27.1193ZM55.7867 34.7289C54.8421 34.7289 53.9907 34.5248 53.2327 34.1166C52.4746 33.7085 51.8799 33.1428 51.4484 32.4198C51.0285 31.6851 50.8186 30.857 50.8186 29.9357C50.8186 29.0144 51.0285 28.1922 51.4484 27.4692C51.8799 26.7461 52.4746 26.1805 53.2327 25.7723C53.9907 25.3641 54.8421 25.16 55.7867 25.16C56.743 25.16 57.6002 25.3641 58.3582 25.7723C59.1163 26.1805 59.7052 26.7461 60.1251 27.4692C60.5566 28.1922 60.7723 29.0144 60.7723 29.9357C60.7723 30.857 60.5566 31.6851 60.1251 32.4198C59.7052 33.1428 59.1163 33.7085 58.3582 34.1166C57.6002 34.5248 56.743 34.7289 55.7867 34.7289ZM55.7867 32.8571C56.5914 32.8571 57.2562 32.5889 57.781 32.0524C58.3058 31.516 58.5682 30.8104 58.5682 29.9357C58.5682 29.0611 58.3058 28.3555 57.781 27.819C57.2562 27.2826 56.5914 27.0143 55.7867 27.0143C54.982 27.0143 54.3173 27.2826 53.7925 27.819C53.2793 28.3555 53.0228 29.0611 53.0228 29.9357C53.0228 30.8104 53.2793 31.516 53.7925 32.0524C54.3173 32.5889 54.982 32.8571 55.7867 32.8571ZM68.1105 25.16C69.0202 25.16 69.8307 25.3583 70.5421 25.7548C71.2651 26.1513 71.8307 26.7111 72.2389 27.4342C72.6471 28.1572 72.8512 28.9911 72.8512 29.9357C72.8512 30.8804 72.6471 31.72 72.2389 32.4548C71.8307 33.1778 71.2651 33.7376 70.5421 34.1341C69.8307 34.5306 69.0202 34.7289 68.1105 34.7289C66.851 34.7289 65.8539 34.3091 65.1191 33.4694V38.0002H62.9325V25.265H65.0142V26.4895C65.3757 26.0464 65.8189 25.714 66.3437 25.4924C66.8801 25.2708 67.4691 25.16 68.1105 25.16ZM67.8656 32.8571C68.6703 32.8571 69.3292 32.5889 69.8423 32.0524C70.3671 31.516 70.6295 30.8104 70.6295 29.9357C70.6295 29.0611 70.3671 28.3555 69.8423 27.819C69.3292 27.2826 68.6703 27.0143 67.8656 27.0143C67.3408 27.0143 66.8685 27.1368 66.4486 27.3817C66.0288 27.6149 65.6964 27.9531 65.4515 28.3963C65.2066 28.8395 65.0842 29.3526 65.0842 29.9357C65.0842 30.5188 65.2066 31.032 65.4515 31.4751C65.6964 31.9183 66.0288 32.2623 66.4486 32.5072C66.8685 32.7405 67.3408 32.8571 67.8656 32.8571ZM75.0275 25.265H77.2141V31.4227L82.3747 25.265H84.3689V34.6064H82.1822V28.4488L77.0392 34.6064H75.0275V25.265ZM95.1999 25.265V34.6064H93.2406V31.79H90.7741L88.8673 34.6064H86.5232L88.7273 31.4926C88.0509 31.2594 87.532 30.9037 87.1704 30.4255C86.8206 29.9357 86.6456 29.3351 86.6456 28.6237C86.6456 27.5508 87.0247 26.7228 87.7827 26.1397C88.5407 25.5566 89.5845 25.265 90.914 25.265H95.1999ZM90.984 27.1018C89.5729 27.1018 88.8673 27.6324 88.8673 28.6937C88.8673 29.7433 89.5495 30.2681 90.914 30.2681H93.2406V27.1018H90.984Z" fill="#3E54D8"/>
<path d="M18.0798 48.9521L96.7998 48.9521" stroke="#3E54D8" stroke-width="3.28" stroke-linecap="round"/>
<path d="M27.3076 214.105C27.984 214.327 28.5205 214.7 28.917 215.225C29.3135 215.738 29.5118 216.379 29.5118 217.149C29.5118 218.21 29.1036 219.032 28.2873 219.615C27.4709 220.187 26.2814 220.473 24.7186 220.473H18.6309V208.227H24.3688C25.8149 208.227 26.9286 208.513 27.71 209.084C28.4914 209.644 28.882 210.42 28.882 211.411C28.882 212.018 28.7421 212.554 28.4622 213.02C28.1823 213.487 27.7975 213.849 27.3076 214.105ZM20.9051 210.012V213.388H24.1239C24.9169 213.388 25.5233 213.248 25.9432 212.968C26.3747 212.676 26.5904 212.257 26.5904 211.708C26.5904 211.149 26.3747 210.729 25.9432 210.449C25.5233 210.157 24.9169 210.012 24.1239 210.012H20.9051ZM24.5787 218.688C26.3397 218.688 27.2202 218.099 27.2202 216.922C27.2202 215.744 26.3397 215.155 24.5787 215.155H20.9051V218.688H24.5787ZM31.7289 211.131H33.9156V220.473H31.7289V211.131ZM32.831 209.592C32.4345 209.592 32.1021 209.469 31.8339 209.224C31.5657 208.968 31.4316 208.653 31.4316 208.28C31.4316 207.907 31.5657 207.598 31.8339 207.353C32.1021 207.096 32.4345 206.968 32.831 206.968C33.2275 206.968 33.5599 207.09 33.8281 207.335C34.0964 207.568 34.2305 207.866 34.2305 208.227C34.2305 208.612 34.0964 208.939 33.8281 209.207C33.5716 209.464 33.2392 209.592 32.831 209.592ZM42.401 219.965C42.1444 220.175 41.8295 220.333 41.4563 220.438C41.0948 220.543 40.7099 220.595 40.3018 220.595C39.2755 220.595 38.4825 220.327 37.9227 219.79C37.3629 219.254 37.083 218.473 37.083 217.446V212.951H35.5436V211.201H37.083V209.067H39.2697V211.201H41.7712V212.951H39.2697V217.394C39.2697 217.849 39.3805 218.199 39.602 218.443C39.8236 218.677 40.1443 218.793 40.5642 218.793C41.054 218.793 41.4622 218.665 41.7887 218.408L42.401 219.965ZM48.1781 220.595C47.2102 220.595 46.3413 220.391 45.5716 219.983C44.8019 219.575 44.2013 219.009 43.7698 218.286C43.3383 217.551 43.1226 216.723 43.1226 215.802C43.1226 214.881 43.3383 214.058 43.7698 213.335C44.2013 212.612 44.7961 212.047 45.5541 211.639C46.3238 211.23 47.1985 211.026 48.1781 211.026C49.0995 211.026 49.9042 211.213 50.5922 211.586C51.292 211.959 51.8168 212.496 52.1666 213.195L50.4873 214.175C50.219 213.744 49.8808 213.423 49.4727 213.213C49.0761 212.991 48.6388 212.881 48.1606 212.881C47.3443 212.881 46.6679 213.149 46.1314 213.685C45.595 214.21 45.3267 214.916 45.3267 215.802C45.3267 216.688 45.5891 217.4 46.1139 217.936C46.6504 218.461 47.3326 218.723 48.1606 218.723C48.6388 218.723 49.0761 218.618 49.4727 218.408C49.8808 218.187 50.219 217.86 50.4873 217.429L52.1666 218.408C51.8051 219.108 51.2745 219.65 50.5747 220.035C49.8867 220.409 49.0878 220.595 48.1781 220.595ZM58.1186 220.595C57.174 220.595 56.3226 220.391 55.5646 219.983C54.8065 219.575 54.2117 219.009 53.7802 218.286C53.3604 217.551 53.1505 216.723 53.1505 215.802C53.1505 214.881 53.3604 214.058 53.7802 213.335C54.2117 212.612 54.8065 212.047 55.5646 211.639C56.3226 211.23 57.174 211.026 58.1186 211.026C59.0749 211.026 59.9321 211.23 60.6901 211.639C61.4482 212.047 62.0371 212.612 62.4569 213.335C62.8884 214.058 63.1042 214.881 63.1042 215.802C63.1042 216.723 62.8884 217.551 62.4569 218.286C62.0371 219.009 61.4482 219.575 60.6901 219.983C59.9321 220.391 59.0749 220.595 58.1186 220.595ZM58.1186 218.723C58.9233 218.723 59.588 218.455 60.1128 217.919C60.6376 217.382 60.9 216.677 60.9 215.802C60.9 214.927 60.6376 214.222 60.1128 213.685C59.588 213.149 58.9233 212.881 58.1186 212.881C57.3139 212.881 56.6492 213.149 56.1244 213.685C55.6112 214.222 55.3546 214.927 55.3546 215.802C55.3546 216.677 55.6112 217.382 56.1244 217.919C56.6492 218.455 57.3139 218.723 58.1186 218.723ZM65.1952 211.131H67.3819V220.473H65.1952V211.131ZM66.2973 209.592C65.9008 209.592 65.5684 209.469 65.3002 209.224C65.0319 208.968 64.8978 208.653 64.8978 208.28C64.8978 207.907 65.0319 207.598 65.3002 207.353C65.5684 207.096 65.9008 206.968 66.2973 206.968C66.6938 206.968 67.0262 207.09 67.2944 207.335C67.5626 207.568 67.6967 207.866 67.6967 208.227C67.6967 208.612 67.5626 208.939 67.2944 209.207C67.0378 209.464 66.7055 209.592 66.2973 209.592ZM75.5523 211.026C76.7302 211.026 77.6749 211.37 78.3863 212.058C79.0977 212.746 79.4534 213.767 79.4534 215.12V220.473H77.2667V215.4C77.2667 214.583 77.0743 213.971 76.6894 213.563C76.3046 213.143 75.7564 212.933 75.045 212.933C74.2403 212.933 73.6047 213.178 73.1383 213.668C72.6718 214.146 72.4385 214.84 72.4385 215.749V220.473H70.2519V211.131H72.3336V212.338C72.6951 211.907 73.1499 211.58 73.698 211.359C74.2462 211.137 74.8643 211.026 75.5523 211.026Z" fill="#24252E"/>
<path d="M95.5669 214.123C96.2783 214.321 96.8381 214.682 97.2463 215.207C97.6544 215.72 97.8585 216.373 97.8585 217.166C97.8585 218.228 97.4562 219.044 96.6515 219.615C95.8585 220.187 94.6981 220.473 93.1703 220.473H87.3275V208.227H92.8204C94.2199 208.227 95.2987 208.507 96.0567 209.067C96.8264 209.627 97.2113 210.402 97.2113 211.394C97.2113 212.035 97.0597 212.589 96.7564 213.055C96.4649 213.522 96.0684 213.878 95.5669 214.123ZM89.0769 209.644V213.563H92.663C93.561 213.563 94.2491 213.4 94.7272 213.073C95.217 212.735 95.4619 212.245 95.4619 211.604C95.4619 210.962 95.217 210.478 94.7272 210.152C94.2491 209.813 93.561 209.644 92.663 209.644H89.0769ZM93.1003 219.056C94.0916 219.056 94.838 218.892 95.3395 218.566C95.841 218.239 96.0917 217.726 96.0917 217.026C96.0917 215.662 95.0946 214.98 93.1003 214.98H89.0769V219.056H93.1003ZM102.828 209.749H98.6295V208.227H108.758V209.749H104.56V220.473H102.828V209.749ZM115.968 220.613C114.743 220.613 113.636 220.344 112.644 219.808C111.665 219.26 110.895 218.513 110.335 217.569C109.775 216.612 109.495 215.54 109.495 214.35C109.495 213.16 109.775 212.093 110.335 211.149C110.895 210.192 111.67 209.446 112.662 208.91C113.653 208.361 114.761 208.087 115.985 208.087C116.942 208.087 117.816 208.251 118.609 208.577C119.402 208.892 120.079 209.364 120.639 209.994L119.502 211.096C118.58 210.128 117.432 209.644 116.055 209.644C115.146 209.644 114.324 209.848 113.589 210.257C112.854 210.665 112.277 211.23 111.857 211.953C111.449 212.665 111.245 213.464 111.245 214.35C111.245 215.236 111.449 216.041 111.857 216.764C112.277 217.475 112.854 218.035 113.589 218.443C114.324 218.852 115.146 219.056 116.055 219.056C117.42 219.056 118.569 218.566 119.502 217.586L120.639 218.688C120.079 219.318 119.397 219.796 118.592 220.123C117.799 220.449 116.924 220.613 115.968 220.613Z" fill="#929398"/>
</g>
<rect x="0.586497" y="-444.687" width="372.827" height="1102.08" rx="18.5867" stroke="#D3E3FF" stroke-width="2.18667"/>
<defs>
<clipPath id="clip0_101_6657">
<rect x="-0.506836" y="-445.78" width="375.013" height="1104.27" rx="19.68" fill="white"/>
</clipPath>
<clipPath id="clip1_101_6657">
<rect width="26.24" height="26.24" fill="white" transform="translate(80.3998 251.767)"/>
</clipPath>
</defs>
</svg>
