<svg width="374" height="374" viewBox="0 0 374 374" fill="none" xmlns="http://www.w3.org/2000/svg">
<g clip-path="url(#clip0_101_6777)">
<rect width="375" height="648" transform="translate(-1)" fill="#EFF4FC"/>
<path opacity="0.9" d="M38.168 141L38.136 127.592L31.544 138.632H29.24L22.648 127.848V141H17.784V118.6H22.072L30.456 132.52L38.712 118.6H43L43.032 141H38.168ZM56.2765 141.256C54.4632 141.256 52.8312 140.883 51.3805 140.136C49.9512 139.368 48.8312 138.312 48.0205 136.968C47.2098 135.624 46.8045 134.099 46.8045 132.392C46.8045 130.685 47.2098 129.16 48.0205 127.816C48.8312 126.472 49.9512 125.427 51.3805 124.68C52.8312 123.912 54.4632 123.528 56.2765 123.528C58.0898 123.528 59.7112 123.912 61.1405 124.68C62.5698 125.427 63.6898 126.472 64.5005 127.816C65.3112 129.16 65.7165 130.685 65.7165 132.392C65.7165 134.099 65.3112 135.624 64.5005 136.968C63.6898 138.312 62.5698 139.368 61.1405 140.136C59.7112 140.883 58.0898 141.256 56.2765 141.256ZM56.2765 137.16C57.5565 137.16 58.6018 136.733 59.4125 135.88C60.2445 135.005 60.6605 133.843 60.6605 132.392C60.6605 130.941 60.2445 129.789 59.4125 128.936C58.6018 128.061 57.5565 127.624 56.2765 127.624C54.9965 127.624 53.9405 128.061 53.1085 128.936C52.2765 129.789 51.8605 130.941 51.8605 132.392C51.8605 133.843 52.2765 135.005 53.1085 135.88C53.9405 136.733 54.9965 137.16 56.2765 137.16ZM69.15 123.784H74.11V134.024L82.494 123.784H87.07V141H82.11V130.76L73.758 141H69.15V123.784ZM77.79 121.928C74.0353 121.928 72.1473 120.275 72.126 116.968H75.39C75.4113 117.715 75.614 118.301 75.998 118.728C76.4033 119.133 76.99 119.336 77.758 119.336C78.526 119.336 79.1127 119.133 79.518 118.728C79.9447 118.301 80.158 117.715 80.158 116.968H83.486C83.4647 120.275 81.566 121.928 77.79 121.928ZM118.051 123.784V141H113.059V127.88H105.891V141H100.931V123.784H118.051ZM130.902 141.256C129.088 141.256 127.456 140.883 126.006 140.136C124.576 139.368 123.456 138.312 122.646 136.968C121.835 135.624 121.43 134.099 121.43 132.392C121.43 130.685 121.835 129.16 122.646 127.816C123.456 126.472 124.576 125.427 126.006 124.68C127.456 123.912 129.088 123.528 130.902 123.528C132.715 123.528 134.336 123.912 135.766 124.68C137.195 125.427 138.315 126.472 139.126 127.816C139.936 129.16 140.342 130.685 140.342 132.392C140.342 134.099 139.936 135.624 139.126 136.968C138.315 138.312 137.195 139.368 135.766 140.136C134.336 140.883 132.715 141.256 130.902 141.256ZM130.902 137.16C132.182 137.16 133.227 136.733 134.038 135.88C134.87 135.005 135.286 133.843 135.286 132.392C135.286 130.941 134.87 129.789 134.038 128.936C133.227 128.061 132.182 127.624 130.902 127.624C129.622 127.624 128.566 128.061 127.734 128.936C126.902 129.789 126.486 130.941 126.486 132.392C126.486 133.843 126.902 135.005 127.734 135.88C128.566 136.733 129.622 137.16 130.902 137.16ZM153.919 123.528C155.519 123.528 156.97 123.901 158.271 124.648C159.594 125.373 160.628 126.408 161.375 127.752C162.122 129.075 162.495 130.621 162.495 132.392C162.495 134.163 162.122 135.72 161.375 137.064C160.628 138.387 159.594 139.421 158.271 140.168C156.97 140.893 155.519 141.256 153.919 141.256C151.722 141.256 149.994 140.563 148.735 139.176V147.208H143.743V123.784H148.511V125.768C149.748 124.275 151.551 123.528 153.919 123.528ZM153.055 137.16C154.335 137.16 155.38 136.733 156.191 135.88C157.023 135.005 157.439 133.843 157.439 132.392C157.439 130.941 157.023 129.789 156.191 128.936C155.38 128.061 154.335 127.624 153.055 127.624C151.775 127.624 150.719 128.061 149.887 128.936C149.076 129.789 148.671 130.941 148.671 132.392C148.671 133.843 149.076 135.005 149.887 135.88C150.719 136.733 151.775 137.16 153.055 137.16ZM179.833 127.88H174.009V141H169.049V127.88H163.225V123.784H179.833V127.88ZM205.551 132.328C205.551 134.995 204.655 137.107 202.863 138.664C201.092 140.2 198.554 141.085 195.247 141.32V147.208H190.671V141.32C187.364 141.085 184.815 140.211 183.023 138.696C181.252 137.16 180.367 135.037 180.367 132.328C180.367 129.661 181.242 127.592 182.991 126.12C184.762 124.648 187.322 123.795 190.671 123.56V117.256H195.247V123.56C198.554 123.795 201.092 124.659 202.863 126.152C204.655 127.645 205.551 129.704 205.551 132.328ZM185.199 132.328C185.199 133.864 185.636 135.048 186.511 135.88C187.386 136.712 188.772 137.235 190.671 137.448V127.432C188.772 127.624 187.386 128.125 186.511 128.936C185.636 129.725 185.199 130.856 185.199 132.328ZM195.247 137.448C197.146 137.235 198.532 136.712 199.407 135.88C200.303 135.048 200.751 133.864 200.751 132.328C200.751 130.856 200.303 129.725 199.407 128.936C198.532 128.125 197.146 127.624 195.247 127.432V137.448ZM225.667 132.456C225.667 132.52 225.635 132.968 225.571 133.8H212.547C212.782 134.867 213.337 135.709 214.211 136.328C215.086 136.947 216.174 137.256 217.475 137.256C218.371 137.256 219.161 137.128 219.843 136.872C220.547 136.595 221.198 136.168 221.795 135.592L224.451 138.472C222.83 140.328 220.462 141.256 217.347 141.256C215.406 141.256 213.689 140.883 212.195 140.136C210.702 139.368 209.55 138.312 208.739 136.968C207.929 135.624 207.523 134.099 207.523 132.392C207.523 130.707 207.918 129.192 208.707 127.848C209.518 126.483 210.617 125.427 212.003 124.68C213.411 123.912 214.979 123.528 216.707 123.528C218.393 123.528 219.918 123.891 221.283 124.616C222.649 125.341 223.715 126.387 224.483 127.752C225.273 129.096 225.667 130.664 225.667 132.456ZM216.739 127.304C215.609 127.304 214.659 127.624 213.891 128.264C213.123 128.904 212.654 129.779 212.483 130.888H220.963C220.793 129.8 220.323 128.936 219.555 128.296C218.787 127.635 217.849 127.304 216.739 127.304ZM245.85 123.784V141H240.858V127.88H235.418L235.258 130.92C235.172 133.181 234.959 135.059 234.618 136.552C234.276 138.045 233.722 139.219 232.954 140.072C232.186 140.925 231.119 141.352 229.754 141.352C229.028 141.352 228.164 141.224 227.162 140.968L227.418 136.872C227.759 136.915 228.004 136.936 228.154 136.936C228.9 136.936 229.455 136.669 229.818 136.136C230.202 135.581 230.458 134.888 230.586 134.056C230.714 133.203 230.81 132.083 230.874 130.696L231.13 123.784H245.85ZM259.962 129.288C262.202 129.309 263.919 129.821 265.114 130.824C266.309 131.805 266.906 133.203 266.906 135.016C266.906 136.915 266.234 138.397 264.89 139.464C263.567 140.509 261.701 141.032 259.29 141.032L250.65 141V123.784H255.61V129.288H259.962ZM258.842 137.48C259.802 137.501 260.538 137.299 261.05 136.872C261.562 136.445 261.818 135.805 261.818 134.952C261.818 134.12 261.562 133.512 261.05 133.128C260.559 132.744 259.823 132.541 258.842 132.52L255.61 132.488V137.48H258.842Z" fill="#24252E"/>
<path d="M23.4133 188.418H20.0533V197H18.6813V188.418H15.3353V187.2H23.4133V188.418ZM30.8312 193.332C30.8312 193.435 30.8219 193.57 30.8032 193.738H24.7832C24.8672 194.391 25.1519 194.919 25.6372 195.32C26.1319 195.712 26.7432 195.908 27.4712 195.908C28.3579 195.908 29.0719 195.609 29.6132 195.012L30.3552 195.88C30.0192 196.272 29.5992 196.571 29.0952 196.776C28.6006 196.981 28.0452 197.084 27.4292 197.084C26.6452 197.084 25.9499 196.925 25.3432 196.608C24.7366 196.281 24.2652 195.829 23.9292 195.25C23.6026 194.671 23.4392 194.018 23.4392 193.29C23.4392 192.571 23.5979 191.923 23.9152 191.344C24.2419 190.765 24.6852 190.317 25.2452 190C25.8146 189.673 26.4539 189.51 27.1632 189.51C27.8726 189.51 28.5026 189.673 29.0532 190C29.6132 190.317 30.0472 190.765 30.3552 191.344C30.6726 191.923 30.8312 192.585 30.8312 193.332ZM27.1632 190.644C26.5192 190.644 25.9779 190.84 25.5392 191.232C25.1099 191.624 24.8579 192.137 24.7832 192.772H29.5432C29.4686 192.147 29.2119 191.638 28.7732 191.246C28.3439 190.845 27.8072 190.644 27.1632 190.644ZM35.8003 193.864H34.2603V197H32.9163V189.58H34.2603V192.716H35.8283L38.2363 189.58H39.6783L36.8643 193.15L39.8743 197H38.2923L35.8003 193.864ZM47.4816 189.58L43.8836 197.742C43.5663 198.498 43.193 199.03 42.7636 199.338C42.3436 199.646 41.835 199.8 41.2376 199.8C40.8736 199.8 40.519 199.739 40.1736 199.618C39.8376 199.506 39.5576 199.338 39.3336 199.114L39.9076 198.106C40.2903 198.47 40.7336 198.652 41.2376 198.652C41.5643 198.652 41.835 198.563 42.0496 198.386C42.2736 198.218 42.4743 197.924 42.6516 197.504L42.8896 196.986L39.6136 189.58H41.0136L43.6036 195.516L46.1656 189.58H47.4816ZM59.4277 189.58V197H48.8577V189.58H50.2017V195.824H53.4777V189.58H54.8217V195.824H58.0837V189.58H59.4277ZM60.5337 195.824V198.582H59.2737V197H58.0277V195.824H60.5337ZM62.0374 189.58H63.3814V194.984L67.9314 189.58H69.1494V197H67.8054V191.596L63.2694 197H62.0374V189.58ZM71.7581 189.58H73.1021V194.984L77.6521 189.58H78.8701V197H77.5261V191.596L72.9901 197H71.7581V189.58ZM75.2301 188.614C74.5394 188.614 74.0027 188.451 73.6201 188.124C73.2374 187.788 73.0414 187.307 73.0321 186.682H73.9421C73.9514 187.027 74.0681 187.307 74.2921 187.522C74.5254 187.727 74.8334 187.83 75.2161 187.83C75.5987 187.83 75.9067 187.727 76.1401 187.522C76.3734 187.307 76.4947 187.027 76.5041 186.682H77.4421C77.4327 187.307 77.2321 187.788 76.8401 188.124C76.4481 188.451 75.9114 188.614 75.2301 188.614ZM88.4725 197.084C87.7165 197.084 87.0399 196.921 86.4425 196.594C85.8545 196.267 85.3925 195.819 85.0565 195.25C84.7205 194.671 84.5525 194.018 84.5525 193.29C84.5525 192.562 84.7205 191.913 85.0565 191.344C85.3925 190.765 85.8545 190.317 86.4425 190C87.0399 189.673 87.7165 189.51 88.4725 189.51C89.1445 189.51 89.7419 189.645 90.2645 189.916C90.7965 190.187 91.2072 190.579 91.4965 191.092L90.4745 191.75C90.2412 191.395 89.9519 191.129 89.6065 190.952C89.2612 190.775 88.8785 190.686 88.4585 190.686C87.9732 190.686 87.5345 190.793 87.1425 191.008C86.7599 191.223 86.4565 191.531 86.2325 191.932C86.0179 192.324 85.9105 192.777 85.9105 193.29C85.9105 193.813 86.0179 194.275 86.2325 194.676C86.4565 195.068 86.7599 195.371 87.1425 195.586C87.5345 195.801 87.9732 195.908 88.4585 195.908C88.8785 195.908 89.2612 195.819 89.6065 195.642C89.9519 195.465 90.2412 195.199 90.4745 194.844L91.4965 195.488C91.2072 196.001 90.7965 196.398 90.2645 196.678C89.7419 196.949 89.1445 197.084 88.4725 197.084ZM99.1586 189.58V197H97.8146V194.004C97.0119 194.377 96.2139 194.564 95.4206 194.564C94.4966 194.564 93.7826 194.349 93.2786 193.92C92.7746 193.491 92.5226 192.847 92.5226 191.988V189.58H93.8666V191.904C93.8666 192.417 94.0252 192.805 94.3426 193.066C94.6692 193.327 95.1219 193.458 95.7006 193.458C96.3539 193.458 97.0586 193.295 97.8146 192.968V189.58H99.1586ZM108.474 193.332C108.474 193.435 108.464 193.57 108.446 193.738H102.426C102.51 194.391 102.794 194.919 103.28 195.32C103.774 195.712 104.386 195.908 105.114 195.908C106 195.908 106.714 195.609 107.256 195.012L107.998 195.88C107.662 196.272 107.242 196.571 106.738 196.776C106.243 196.981 105.688 197.084 105.072 197.084C104.288 197.084 103.592 196.925 102.986 196.608C102.379 196.281 101.908 195.829 101.572 195.25C101.245 194.671 101.082 194.018 101.082 193.29C101.082 192.571 101.24 191.923 101.558 191.344C101.884 190.765 102.328 190.317 102.888 190C103.457 189.673 104.096 189.51 104.806 189.51C105.515 189.51 106.145 189.673 106.696 190C107.256 190.317 107.69 190.765 107.998 191.344C108.315 191.923 108.474 192.585 108.474 193.332ZM104.806 190.644C104.162 190.644 103.62 190.84 103.182 191.232C102.752 191.624 102.5 192.137 102.426 192.772H107.186C107.111 192.147 106.854 191.638 106.416 191.246C105.986 190.845 105.45 190.644 104.806 190.644ZM103.49 188.264C103.294 188.264 103.126 188.199 102.986 188.068C102.846 187.928 102.776 187.755 102.776 187.55C102.776 187.345 102.846 187.172 102.986 187.032C103.126 186.892 103.294 186.822 103.49 186.822C103.686 186.822 103.854 186.892 103.994 187.032C104.134 187.172 104.204 187.345 104.204 187.55C104.204 187.755 104.134 187.928 103.994 188.068C103.854 188.199 103.686 188.264 103.49 188.264ZM106.094 188.264C105.898 188.264 105.73 188.199 105.59 188.068C105.45 187.928 105.38 187.755 105.38 187.55C105.38 187.345 105.45 187.172 105.59 187.032C105.73 186.892 105.898 186.822 106.094 186.822C106.29 186.822 106.458 186.892 106.598 187.032C106.738 187.172 106.808 187.345 106.808 187.55C106.808 187.755 106.738 187.928 106.598 188.068C106.458 188.199 106.29 188.264 106.094 188.264ZM115.774 190.756H113.058V197H111.714V190.756H108.998V189.58H115.774V190.756Z" fill="#373943"/>
<path d="M46.5 244.75C46.5 247.483 45.5 249.833 43.5 251.8C41.5 253.733 38.6167 254.933 34.85 255.4V261H29.85V255.55C27.3833 255.417 25.0333 254.983 22.8 254.25C20.5667 253.517 18.7667 252.617 17.4 251.55L20.15 245.45C21.4167 246.383 22.9 247.167 24.6 247.8C26.3 248.433 28.05 248.833 29.85 249V240.65C27.4833 240.083 25.4833 239.45 23.85 238.75C22.2167 238.05 20.85 237.033 19.75 235.7C18.65 234.333 18.1 232.533 18.1 230.3C18.1 227.533 19.1 225.167 21.1 223.2C23.1333 221.2 26.05 219.983 29.85 219.55V214H34.85V219.45C38.95 219.783 42.3333 220.8 45 222.5L42.5 228.65C40 227.217 37.45 226.35 34.85 226.05V234.55C37.1833 235.083 39.15 235.7 40.75 236.4C42.3833 237.067 43.75 238.083 44.85 239.45C45.95 240.783 46.5 242.55 46.5 244.75ZM26.15 229.9C26.15 230.733 26.4667 231.417 27.1 231.95C27.7333 232.483 28.65 232.933 29.85 233.3V226.2C28.5833 226.5 27.65 226.983 27.05 227.65C26.45 228.283 26.15 229.033 26.15 229.9ZM34.85 248.8C36.05 248.533 36.95 248.1 37.55 247.5C38.15 246.9 38.45 246.183 38.45 245.35C38.45 244.517 38.1333 243.833 37.5 243.3C36.9 242.767 36.0167 242.3 34.85 241.9V248.8ZM90.1449 248.4V255H63.6949V249.75L77.1949 237C78.6283 235.633 79.5949 234.467 80.0949 233.5C80.5949 232.5 80.8449 231.517 80.8449 230.55C80.8449 229.15 80.3616 228.083 79.3949 227.35C78.4616 226.583 77.0783 226.2 75.2449 226.2C73.7116 226.2 72.3283 226.5 71.0949 227.1C69.8616 227.667 68.8283 228.533 67.9949 229.7L62.0949 225.9C63.4616 223.867 65.3449 222.283 67.7449 221.15C70.1449 219.983 72.8949 219.4 75.9949 219.4C78.5949 219.4 80.8616 219.833 82.7949 220.7C84.7616 221.533 86.2783 222.733 87.3449 224.3C88.4449 225.833 88.9949 227.65 88.9949 229.75C88.9949 231.65 88.5949 233.433 87.7949 235.1C86.9949 236.767 85.4449 238.667 83.1449 240.8L75.0949 248.4H90.1449ZM109.837 234.25C112.904 234.75 115.254 235.9 116.887 237.7C118.52 239.467 119.337 241.667 119.337 244.3C119.337 246.333 118.804 248.217 117.737 249.95C116.67 251.65 115.037 253.017 112.837 254.05C110.67 255.083 108.004 255.6 104.837 255.6C102.37 255.6 99.9371 255.283 97.5371 254.65C95.1704 253.983 93.1538 253.05 91.4871 251.85L94.6371 245.65C95.9704 246.65 97.5038 247.433 99.2371 248C101.004 248.533 102.804 248.8 104.637 248.8C106.67 248.8 108.27 248.417 109.437 247.65C110.604 246.85 111.187 245.733 111.187 244.3C111.187 241.433 109.004 240 104.637 240H100.937V234.65L108.137 226.5H93.2371V220H117.737V225.25L109.837 234.25ZM149.237 233.15C154.17 233.15 157.804 234.133 160.137 236.1C162.504 238.067 163.687 240.7 163.687 244C163.687 246.133 163.154 248.083 162.087 249.85C161.02 251.583 159.387 252.983 157.187 254.05C155.02 255.083 152.337 255.6 149.137 255.6C146.67 255.6 144.237 255.283 141.837 254.65C139.47 253.983 137.454 253.05 135.787 251.85L138.987 245.65C140.32 246.65 141.854 247.433 143.587 248C145.32 248.533 147.104 248.8 148.937 248.8C150.97 248.8 152.57 248.4 153.737 247.6C154.904 246.8 155.487 245.683 155.487 244.25C155.487 242.75 154.87 241.617 153.637 240.85C152.437 240.083 150.337 239.7 147.337 239.7H138.387L140.187 220H161.537V226.5H146.937L146.387 233.15H149.237ZM181.973 255.6C179.073 255.6 176.49 254.883 174.223 253.45C171.957 252.017 170.173 249.95 168.873 247.25C167.607 244.517 166.973 241.267 166.973 237.5C166.973 233.733 167.607 230.5 168.873 227.8C170.173 225.067 171.957 222.983 174.223 221.55C176.49 220.117 179.073 219.4 181.973 219.4C184.873 219.4 187.457 220.117 189.723 221.55C191.99 222.983 193.757 225.067 195.023 227.8C196.323 230.5 196.973 233.733 196.973 237.5C196.973 241.267 196.323 244.517 195.023 247.25C193.757 249.95 191.99 252.017 189.723 253.45C187.457 254.883 184.873 255.6 181.973 255.6ZM181.973 248.75C184.107 248.75 185.773 247.833 186.973 246C188.207 244.167 188.823 241.333 188.823 237.5C188.823 233.667 188.207 230.833 186.973 229C185.773 227.167 184.107 226.25 181.973 226.25C179.873 226.25 178.207 227.167 176.973 229C175.773 230.833 175.173 233.667 175.173 237.5C175.173 241.333 175.773 244.167 176.973 246C178.207 247.833 179.873 248.75 181.973 248.75ZM212.909 233.15C217.842 233.15 221.476 234.133 223.809 236.1C226.176 238.067 227.359 240.7 227.359 244C227.359 246.133 226.826 248.083 225.759 249.85C224.692 251.583 223.059 252.983 220.859 254.05C218.692 255.083 216.009 255.6 212.809 255.6C210.342 255.6 207.909 255.283 205.509 254.65C203.142 253.983 201.126 253.05 199.459 251.85L202.659 245.65C203.992 246.65 205.526 247.433 207.259 248C208.992 248.533 210.776 248.8 212.609 248.8C214.642 248.8 216.242 248.4 217.409 247.6C218.576 246.8 219.159 245.683 219.159 244.25C219.159 242.75 218.542 241.617 217.309 240.85C216.109 240.083 214.009 239.7 211.009 239.7H202.059L203.859 220H225.209V226.5H210.609L210.059 233.15H212.909Z" fill="#24252E"/>
<path d="M21.3979 310.112C20.4086 310.112 19.5172 309.897 18.7239 309.468C17.9306 309.029 17.3052 308.427 16.8479 307.662C16.3999 306.897 16.1759 306.043 16.1759 305.1C16.1759 304.157 16.3999 303.303 16.8479 302.538C17.3052 301.773 17.9306 301.175 18.7239 300.746C19.5172 300.307 20.4086 300.088 21.3979 300.088C22.3779 300.088 23.2646 300.307 24.0579 300.746C24.8512 301.175 25.4719 301.773 25.9199 302.538C26.3679 303.294 26.5919 304.148 26.5919 305.1C26.5919 306.052 26.3679 306.911 25.9199 307.676C25.4719 308.432 24.8512 309.029 24.0579 309.468C23.2646 309.897 22.3779 310.112 21.3979 310.112ZM21.3979 308.866C22.1166 308.866 22.7606 308.703 23.3299 308.376C23.9086 308.049 24.3612 307.601 24.6879 307.032C25.0239 306.453 25.1919 305.809 25.1919 305.1C25.1919 304.391 25.0239 303.751 24.6879 303.182C24.3612 302.603 23.9086 302.151 23.3299 301.824C22.7606 301.497 22.1166 301.334 21.3979 301.334C20.6792 301.334 20.0259 301.497 19.4379 301.824C18.8592 302.151 18.4019 302.603 18.0659 303.182C17.7392 303.751 17.5759 304.391 17.5759 305.1C17.5759 305.809 17.7392 306.453 18.0659 307.032C18.4019 307.601 18.8592 308.049 19.4379 308.376C20.0259 308.703 20.6792 308.866 21.3979 308.866ZM32.4111 302.832C33.1018 302.832 33.7178 302.986 34.2591 303.294C34.8004 303.602 35.2204 304.031 35.5191 304.582C35.8271 305.123 35.9811 305.744 35.9811 306.444C35.9811 307.163 35.8178 307.802 35.4911 308.362C35.1738 308.913 34.7211 309.342 34.1331 309.65C33.5544 309.958 32.8918 310.112 32.1451 310.112C30.8851 310.112 29.9098 309.683 29.2191 308.824C28.5378 307.956 28.1971 306.738 28.1971 305.17C28.1971 303.649 28.5098 302.459 29.1351 301.6C29.7604 300.732 30.7171 300.158 32.0051 299.878L35.3931 299.122L35.5891 300.354L32.4671 301.026C31.4964 301.241 30.7731 301.605 30.2971 302.118C29.8211 302.631 29.5504 303.369 29.4851 304.33C29.8024 303.854 30.2131 303.485 30.7171 303.224C31.2211 302.963 31.7858 302.832 32.4111 302.832ZM32.1731 308.992C32.6491 308.992 33.0691 308.885 33.4331 308.67C33.8064 308.455 34.0958 308.161 34.3011 307.788C34.5064 307.405 34.6091 306.971 34.6091 306.486C34.6091 305.749 34.3851 305.156 33.9371 304.708C33.4891 304.26 32.9011 304.036 32.1731 304.036C31.4451 304.036 30.8524 304.26 30.3951 304.708C29.9471 305.156 29.7231 305.749 29.7231 306.486C29.7231 306.971 29.8258 307.405 30.0311 307.788C30.2458 308.161 30.5398 308.455 30.9131 308.67C31.2864 308.885 31.7064 308.992 32.1731 308.992ZM48.4706 302.58V310H37.9006V302.58H39.2446V308.824H42.5206V302.58H43.8646V308.824H47.1266V302.58H48.4706ZM49.5766 308.824V311.582H48.3166V310H47.0706V308.824H49.5766ZM51.0803 302.58H52.4243V307.984L56.9743 302.58H58.1923V310H56.8483V304.596L52.3123 310H51.0803V302.58ZM60.801 302.58H62.145V307.984L66.695 302.58H67.913V310H66.569V304.596L62.033 310H60.801V302.58ZM64.273 301.614C63.5824 301.614 63.0457 301.451 62.663 301.124C62.2804 300.788 62.0844 300.307 62.075 299.682H62.985C62.9944 300.027 63.111 300.307 63.335 300.522C63.5684 300.727 63.8764 300.83 64.259 300.83C64.6417 300.83 64.9497 300.727 65.183 300.522C65.4164 300.307 65.5377 300.027 65.547 299.682H66.485C66.4757 300.307 66.275 300.788 65.883 301.124C65.491 301.451 64.9544 301.614 64.273 301.614ZM81.8275 308.824V311.722H80.5675V310H74.3655V311.722H73.0915V308.824H73.4835C73.9595 308.796 74.2862 308.46 74.4635 307.816C74.6408 307.172 74.7622 306.262 74.8275 305.086L74.9395 302.58H80.6935V308.824H81.8275ZM76.0595 305.184C76.0222 306.117 75.9428 306.892 75.8215 307.508C75.7095 308.115 75.4995 308.553 75.1915 308.824H79.3495V303.756H76.1295L76.0595 305.184ZM86.7564 310.084C86.019 310.084 85.3564 309.921 84.7684 309.594C84.1804 309.267 83.7184 308.819 83.3824 308.25C83.0557 307.671 82.8924 307.018 82.8924 306.29C82.8924 305.562 83.0557 304.913 83.3824 304.344C83.7184 303.765 84.1804 303.317 84.7684 303C85.3564 302.673 86.019 302.51 86.7564 302.51C87.4937 302.51 88.1517 302.673 88.7304 303C89.3184 303.317 89.7757 303.765 90.1024 304.344C90.4384 304.913 90.6064 305.562 90.6064 306.29C90.6064 307.018 90.4384 307.671 90.1024 308.25C89.7757 308.819 89.3184 309.267 88.7304 309.594C88.1517 309.921 87.4937 310.084 86.7564 310.084ZM86.7564 308.908C87.2324 308.908 87.657 308.801 88.0304 308.586C88.413 308.362 88.7117 308.054 88.9264 307.662C89.141 307.261 89.2484 306.803 89.2484 306.29C89.2484 305.777 89.141 305.324 88.9264 304.932C88.7117 304.531 88.413 304.223 88.0304 304.008C87.657 303.793 87.2324 303.686 86.7564 303.686C86.2804 303.686 85.851 303.793 85.4684 304.008C85.095 304.223 84.7964 304.531 84.5724 304.932C84.3577 305.324 84.2504 305.777 84.2504 306.29C84.2504 306.803 84.3577 307.261 84.5724 307.662C84.7964 308.054 85.095 308.362 85.4684 308.586C85.851 308.801 86.2804 308.908 86.7564 308.908ZM96.935 310L94.793 307.158L92.623 310H91.125L94.051 306.206L91.265 302.58H92.763L94.807 305.254L96.837 302.58H98.307L95.507 306.206L98.461 310H96.935ZM102.807 310.084C102.07 310.084 101.407 309.921 100.819 309.594C100.231 309.267 99.7691 308.819 99.4331 308.25C99.1065 307.671 98.9431 307.018 98.9431 306.29C98.9431 305.562 99.1065 304.913 99.4331 304.344C99.7691 303.765 100.231 303.317 100.819 303C101.407 302.673 102.07 302.51 102.807 302.51C103.544 302.51 104.202 302.673 104.781 303C105.369 303.317 105.826 303.765 106.153 304.344C106.489 304.913 106.657 305.562 106.657 306.29C106.657 307.018 106.489 307.671 106.153 308.25C105.826 308.819 105.369 309.267 104.781 309.594C104.202 309.921 103.544 310.084 102.807 310.084ZM102.807 308.908C103.283 308.908 103.708 308.801 104.081 308.586C104.464 308.362 104.762 308.054 104.977 307.662C105.192 307.261 105.299 306.803 105.299 306.29C105.299 305.777 105.192 305.324 104.977 304.932C104.762 304.531 104.464 304.223 104.081 304.008C103.708 303.793 103.283 303.686 102.807 303.686C102.331 303.686 101.902 303.793 101.519 304.008C101.146 304.223 100.847 304.531 100.623 304.932C100.408 305.324 100.301 305.777 100.301 306.29C100.301 306.803 100.408 307.261 100.623 307.662C100.847 308.054 101.146 308.362 101.519 308.586C101.902 308.801 102.331 308.908 102.807 308.908ZM116.089 308.824V311.722H114.829V310H108.627V311.722H107.353V308.824H107.745C108.221 308.796 108.548 308.46 108.725 307.816C108.903 307.172 109.024 306.262 109.089 305.086L109.201 302.58H114.955V308.824H116.089ZM110.321 305.184C110.284 306.117 110.205 306.892 110.083 307.508C109.971 308.115 109.761 308.553 109.453 308.824H113.611V303.756H110.391L110.321 305.184Z" fill="#373943"/>
<path d="M27.912 339.064H23.736V343.144H20.64V339.064H16.488V336.136H20.64V332.056H23.736V336.136H27.912V339.064ZM37.6824 336.04C39.1544 336.28 40.2824 336.832 41.0664 337.696C41.8504 338.544 42.2424 339.6 42.2424 340.864C42.2424 341.84 41.9864 342.744 41.4744 343.576C40.9624 344.392 40.1784 345.048 39.1224 345.544C38.0824 346.04 36.8024 346.288 35.2824 346.288C34.0984 346.288 32.9304 346.136 31.7784 345.832C30.6424 345.512 29.6744 345.064 28.8744 344.488L30.3864 341.512C31.0264 341.992 31.7624 342.368 32.5944 342.64C33.4424 342.896 34.3064 343.024 35.1864 343.024C36.1624 343.024 36.9304 342.84 37.4904 342.472C38.0504 342.088 38.3304 341.552 38.3304 340.864C38.3304 339.488 37.2824 338.8 35.1864 338.8H33.4104V336.232L36.8664 332.32H29.7144V329.2H41.4744V331.72L37.6824 336.04ZM56.5944 335.512C58.9624 335.512 60.7064 335.984 61.8264 336.928C62.9624 337.872 63.5304 339.136 63.5304 340.72C63.5304 341.744 63.2744 342.68 62.7624 343.528C62.2504 344.36 61.4664 345.032 60.4104 345.544C59.3704 346.04 58.0824 346.288 56.5464 346.288C55.3624 346.288 54.1944 346.136 53.0424 345.832C51.9064 345.512 50.9384 345.064 50.1384 344.488L51.6744 341.512C52.3144 341.992 53.0504 342.368 53.8824 342.64C54.7144 342.896 55.5704 343.024 56.4504 343.024C57.4264 343.024 58.1944 342.832 58.7544 342.448C59.3144 342.064 59.5944 341.528 59.5944 340.84C59.5944 340.12 59.2984 339.576 58.7064 339.208C58.1304 338.84 57.1224 338.656 55.6824 338.656H51.3864L52.2504 329.2H62.4984V332.32H55.4904L55.2264 335.512H56.5944ZM70.7507 335.512C73.1187 335.512 74.8627 335.984 75.9827 336.928C77.1187 337.872 77.6867 339.136 77.6867 340.72C77.6867 341.744 77.4307 342.68 76.9187 343.528C76.4067 344.36 75.6227 345.032 74.5667 345.544C73.5267 346.04 72.2387 346.288 70.7027 346.288C69.5187 346.288 68.3507 346.136 67.1987 345.832C66.0627 345.512 65.0947 345.064 64.2947 344.488L65.8307 341.512C66.4707 341.992 67.2067 342.368 68.0387 342.64C68.8707 342.896 69.7267 343.024 70.6067 343.024C71.5827 343.024 72.3507 342.832 72.9107 342.448C73.4707 342.064 73.7507 341.528 73.7507 340.84C73.7507 340.12 73.4547 339.576 72.8627 339.208C72.2867 338.84 71.2787 338.656 69.8387 338.656H65.5427L66.4067 329.2H76.6547V332.32H69.6467L69.3827 335.512H70.7507ZM86.9949 336.04C88.4669 336.28 89.5949 336.832 90.3789 337.696C91.1629 338.544 91.5549 339.6 91.5549 340.864C91.5549 341.84 91.2989 342.744 90.7869 343.576C90.2749 344.392 89.4909 345.048 88.4349 345.544C87.3949 346.04 86.1149 346.288 84.5949 346.288C83.4109 346.288 82.2429 346.136 81.0909 345.832C79.9549 345.512 78.9869 345.064 78.1869 344.488L79.6989 341.512C80.3389 341.992 81.0749 342.368 81.9069 342.64C82.7549 342.896 83.6189 343.024 84.4989 343.024C85.4749 343.024 86.2429 342.84 86.8029 342.472C87.3629 342.088 87.6429 341.552 87.6429 340.864C87.6429 339.488 86.5949 338.8 84.4989 338.8H82.7229V336.232L86.1789 332.32H79.0269V329.2H90.7869V331.72L86.9949 336.04ZM95.5821 341.536C96.2541 341.536 96.8061 341.752 97.2381 342.184C97.6701 342.6 97.8861 343.152 97.8861 343.84C97.8861 344.16 97.8461 344.48 97.7661 344.8C97.6861 345.12 97.5101 345.6 97.2381 346.24L95.8701 349.696H93.4941L94.5501 345.88C94.1501 345.72 93.8301 345.464 93.5901 345.112C93.3661 344.744 93.2541 344.32 93.2541 343.84C93.2541 343.152 93.4701 342.6 93.9021 342.184C94.3501 341.752 94.9101 341.536 95.5821 341.536ZM112.418 342.832V346H99.7217V343.48L106.202 337.36C106.89 336.704 107.354 336.144 107.594 335.68C107.834 335.2 107.954 334.728 107.954 334.264C107.954 333.592 107.722 333.08 107.258 332.728C106.81 332.36 106.146 332.176 105.266 332.176C104.53 332.176 103.866 332.32 103.274 332.608C102.682 332.88 102.186 333.296 101.786 333.856L98.9537 332.032C99.6097 331.056 100.514 330.296 101.666 329.752C102.818 329.192 104.138 328.912 105.626 328.912C106.874 328.912 107.962 329.12 108.89 329.536C109.834 329.936 110.562 330.512 111.074 331.264C111.602 332 111.866 332.872 111.866 333.88C111.866 334.792 111.674 335.648 111.29 336.448C110.906 337.248 110.162 338.16 109.058 339.184L105.194 342.832H112.418ZM119.926 328.912C122.278 328.912 124.118 329.632 125.446 331.072C126.774 332.496 127.438 334.552 127.438 337.24C127.438 339.144 127.078 340.776 126.358 342.136C125.654 343.496 124.654 344.528 123.358 345.232C122.062 345.936 120.566 346.288 118.87 346.288C117.974 346.288 117.118 346.192 116.302 346C115.486 345.792 114.79 345.504 114.214 345.136L115.654 342.28C116.47 342.84 117.518 343.12 118.798 343.12C120.222 343.12 121.35 342.704 122.182 341.872C123.014 341.024 123.462 339.808 123.526 338.224C122.518 339.232 121.126 339.736 119.35 339.736C118.278 339.736 117.302 339.52 116.422 339.088C115.542 338.656 114.846 338.048 114.334 337.264C113.822 336.464 113.566 335.544 113.566 334.504C113.566 333.384 113.846 332.4 114.406 331.552C114.966 330.704 115.726 330.056 116.686 329.608C117.662 329.144 118.742 328.912 119.926 328.912ZM120.214 336.832C121.062 336.832 121.75 336.6 122.278 336.136C122.822 335.656 123.094 335.048 123.094 334.312C123.094 333.576 122.83 332.976 122.302 332.512C121.79 332.048 121.078 331.816 120.166 331.816C119.334 331.816 118.654 332.04 118.126 332.488C117.614 332.936 117.358 333.544 117.358 334.312C117.358 335.08 117.614 335.696 118.126 336.16C118.654 336.608 119.35 336.832 120.214 336.832ZM139.916 350.656C138.956 349.2 138.212 347.512 137.684 345.592C137.172 343.672 136.916 341.616 136.916 339.424C136.916 337.232 137.172 335.176 137.684 333.256C138.212 331.32 138.956 329.632 139.916 328.192H143.492C142.484 329.968 141.748 331.776 141.284 333.616C140.82 335.44 140.588 337.376 140.588 339.424C140.588 341.472 140.82 343.416 141.284 345.256C141.748 347.08 142.484 348.88 143.492 350.656H139.916ZM156.654 339.064H152.478V343.144H149.382V339.064H145.23V336.136H149.382V332.056H152.478V336.136H156.654V339.064ZM167.227 335.464C168.299 335.464 169.275 335.68 170.155 336.112C171.035 336.544 171.731 337.16 172.243 337.96C172.755 338.744 173.011 339.656 173.011 340.696C173.011 341.816 172.731 342.8 172.171 343.648C171.611 344.496 170.843 345.152 169.867 345.616C168.907 346.064 167.835 346.288 166.651 346.288C164.299 346.288 162.459 345.568 161.131 344.128C159.803 342.688 159.139 340.632 159.139 337.96C159.139 336.056 159.499 334.424 160.219 333.064C160.939 331.704 161.939 330.672 163.219 329.968C164.515 329.264 166.011 328.912 167.707 328.912C168.603 328.912 169.459 329.016 170.275 329.224C171.107 329.416 171.811 329.696 172.387 330.064L170.947 332.92C170.115 332.36 169.067 332.08 167.803 332.08C166.379 332.08 165.251 332.496 164.419 333.328C163.587 334.16 163.139 335.368 163.075 336.952C164.067 335.96 165.451 335.464 167.227 335.464ZM166.435 343.384C167.267 343.384 167.939 343.16 168.451 342.712C168.979 342.264 169.243 341.656 169.243 340.888C169.243 340.12 168.979 339.512 168.451 339.064C167.939 338.6 167.251 338.368 166.387 338.368C165.539 338.368 164.843 338.608 164.299 339.088C163.755 339.552 163.483 340.152 163.483 340.888C163.483 341.624 163.747 342.224 164.275 342.688C164.803 343.152 165.523 343.384 166.435 343.384ZM176.887 341.536C177.559 341.536 178.111 341.752 178.543 342.184C178.975 342.6 179.191 343.152 179.191 343.84C179.191 344.16 179.151 344.48 179.071 344.8C178.991 345.12 178.815 345.6 178.543 346.24L177.175 349.696H174.799L175.855 345.88C175.455 345.72 175.135 345.464 174.895 345.112C174.671 344.744 174.559 344.32 174.559 343.84C174.559 343.152 174.775 342.6 175.207 342.184C175.655 341.752 176.215 341.536 176.887 341.536ZM192.666 337.168C193.498 337.584 194.13 338.128 194.562 338.8C195.01 339.472 195.234 340.248 195.234 341.128C195.234 342.168 194.938 343.08 194.346 343.864C193.754 344.632 192.922 345.232 191.85 345.664C190.778 346.08 189.538 346.288 188.13 346.288C186.722 346.288 185.482 346.08 184.41 345.664C183.354 345.232 182.53 344.632 181.938 343.864C181.362 343.08 181.074 342.168 181.074 341.128C181.074 340.248 181.29 339.472 181.722 338.8C182.17 338.128 182.802 337.584 183.618 337.168C182.994 336.784 182.514 336.304 182.178 335.728C181.842 335.136 181.674 334.464 181.674 333.712C181.674 332.736 181.946 331.888 182.49 331.168C183.034 330.448 183.794 329.896 184.77 329.512C185.746 329.112 186.866 328.912 188.13 328.912C189.41 328.912 190.538 329.112 191.514 329.512C192.506 329.896 193.274 330.448 193.818 331.168C194.362 331.888 194.634 332.736 194.634 333.712C194.634 334.464 194.466 335.136 194.13 335.728C193.794 336.304 193.306 336.784 192.666 337.168ZM188.13 331.768C187.346 331.768 186.714 331.96 186.234 332.344C185.77 332.712 185.538 333.224 185.538 333.88C185.538 334.52 185.77 335.024 186.234 335.392C186.698 335.76 187.33 335.944 188.13 335.944C188.93 335.944 189.57 335.76 190.05 335.392C190.53 335.024 190.77 334.52 190.77 333.88C190.77 333.224 190.53 332.712 190.05 332.344C189.57 331.96 188.93 331.768 188.13 331.768ZM188.13 343.432C189.106 343.432 189.874 343.216 190.434 342.784C191.01 342.336 191.298 341.744 191.298 341.008C191.298 340.272 191.01 339.688 190.434 339.256C189.874 338.824 189.106 338.608 188.13 338.608C187.17 338.608 186.41 338.824 185.85 339.256C185.29 339.688 185.01 340.272 185.01 341.008C185.01 341.76 185.29 342.352 185.85 342.784C186.41 343.216 187.17 343.432 188.13 343.432ZM204.862 336.04C206.334 336.28 207.462 336.832 208.246 337.696C209.03 338.544 209.422 339.6 209.422 340.864C209.422 341.84 209.166 342.744 208.654 343.576C208.142 344.392 207.358 345.048 206.302 345.544C205.262 346.04 203.982 346.288 202.462 346.288C201.278 346.288 200.11 346.136 198.958 345.832C197.822 345.512 196.854 345.064 196.054 344.488L197.566 341.512C198.206 341.992 198.942 342.368 199.774 342.64C200.622 342.896 201.486 343.024 202.366 343.024C203.342 343.024 204.11 342.84 204.67 342.472C205.23 342.088 205.51 341.552 205.51 340.864C205.51 339.488 204.462 338.8 202.366 338.8H200.59V336.232L204.046 332.32H196.894V329.2H208.654V331.72L204.862 336.04ZM214.871 338.272C213.639 338.272 212.631 337.856 211.847 337.024C211.079 336.176 210.695 335.048 210.695 333.64C210.695 332.232 211.079 331.112 211.847 330.28C212.631 329.432 213.639 329.008 214.871 329.008C216.103 329.008 217.103 329.432 217.871 330.28C218.639 331.112 219.023 332.232 219.023 333.64C219.023 335.048 218.639 336.176 217.871 337.024C217.103 337.856 216.103 338.272 214.871 338.272ZM224.879 329.2H227.735L216.263 346H213.407L224.879 329.2ZM214.871 336.304C215.415 336.304 215.839 336.08 216.143 335.632C216.463 335.184 216.623 334.52 216.623 333.64C216.623 332.76 216.463 332.096 216.143 331.648C215.839 331.2 215.415 330.976 214.871 330.976C214.343 330.976 213.919 331.208 213.599 331.672C213.279 332.12 213.119 332.776 213.119 333.64C213.119 334.504 213.279 335.168 213.599 335.632C213.919 336.08 214.343 336.304 214.871 336.304ZM226.271 346.192C225.471 346.192 224.751 346.008 224.111 345.64C223.487 345.256 222.999 344.712 222.647 344.008C222.295 343.304 222.119 342.488 222.119 341.56C222.119 340.632 222.295 339.816 222.647 339.112C222.999 338.408 223.487 337.872 224.111 337.504C224.751 337.12 225.471 336.928 226.271 336.928C227.503 336.928 228.503 337.352 229.271 338.2C230.055 339.032 230.447 340.152 230.447 341.56C230.447 342.968 230.055 344.096 229.271 344.944C228.503 345.776 227.503 346.192 226.271 346.192ZM226.271 344.224C226.815 344.224 227.239 344 227.543 343.552C227.863 343.088 228.023 342.424 228.023 341.56C228.023 340.696 227.863 340.04 227.543 339.592C227.239 339.128 226.815 338.896 226.271 338.896C225.743 338.896 225.319 339.12 224.999 339.568C224.679 340.016 224.519 340.68 224.519 341.56C224.519 342.44 224.679 343.104 224.999 343.552C225.319 344 225.743 344.224 226.271 344.224ZM230.865 350.656C231.873 348.88 232.609 347.08 233.073 345.256C233.553 343.416 233.793 341.472 233.793 339.424C233.793 337.376 233.553 335.44 233.073 333.616C232.609 331.776 231.873 329.968 230.865 328.192H234.441C235.417 329.616 236.161 331.296 236.673 333.232C237.201 335.152 237.465 337.216 237.465 339.424C237.465 341.632 237.209 343.696 236.697 345.616C236.185 347.52 235.433 349.2 234.441 350.656H230.865Z" fill="#199F27"/>
<g filter="url(#filter0_d_101_6777)">
<rect x="-1" width="375" height="70" fill="white"/>
</g>
<rect x="-1" width="375" height="70" fill="#EAF1FE"/>
<rect opacity="0.86" x="-1" width="375" height="70" fill="url(#paint0_linear_101_6777)"/>
<g clip-path="url(#clip1_101_6777)">
<path d="M354.115 25.3082C351.473 22.5497 347.816 20.993 343.996 21C336.276 20.9903 330.01 27.2407 330 34.9608C329.995 38.7781 331.552 42.4312 334.308 45.0721C334.316 45.08 334.319 45.0921 334.327 45.0991C334.408 45.177 334.496 45.2431 334.578 45.318C334.803 45.5179 335.028 45.7249 335.265 45.9178C335.392 46.0178 335.524 46.1178 335.654 46.2097C335.878 46.3766 336.102 46.5436 336.335 46.6976C336.494 46.7976 336.658 46.8975 336.821 46.9975C337.037 47.1275 337.252 47.2584 337.475 47.3773C337.664 47.4773 337.857 47.5633 338.049 47.6542C338.259 47.7542 338.466 47.8541 338.681 47.9441C338.896 48.0341 339.112 48.1041 339.329 48.182C339.547 48.26 339.735 48.332 339.944 48.3959C340.18 48.4669 340.422 48.5219 340.662 48.5809C340.862 48.6298 341.056 48.6858 341.262 48.7258C341.538 48.7808 341.818 48.8158 342.098 48.8538C342.271 48.8778 342.439 48.9118 342.614 48.9288C343.072 48.9738 343.534 48.9988 344 48.9988C344.466 48.9988 344.928 48.9738 345.385 48.9288C345.56 48.9118 345.729 48.8778 345.902 48.8538C346.182 48.8158 346.462 48.7808 346.738 48.7258C346.938 48.6858 347.138 48.6258 347.338 48.5809C347.578 48.5219 347.82 48.4669 348.056 48.3959C348.264 48.332 348.466 48.254 348.67 48.182C348.874 48.11 349.106 48.0321 349.319 47.9441C349.532 47.8561 349.741 47.7531 349.951 47.6542C350.143 47.5633 350.336 47.4773 350.525 47.3773C350.748 47.2584 350.963 47.1274 351.178 46.9975C351.341 46.8975 351.505 46.8065 351.664 46.6976C351.898 46.5436 352.122 46.3767 352.346 46.2097C352.476 46.1097 352.608 46.0198 352.735 45.9178C352.972 45.7279 353.197 45.526 353.422 45.318C353.504 45.2431 353.592 45.1771 353.673 45.0991C353.681 45.0921 353.684 45.0801 353.692 45.0721C359.266 39.7314 359.456 30.8828 354.115 25.3082ZM351.868 44.0254C351.687 44.1854 351.499 44.3373 351.309 44.4843C351.197 44.5703 351.085 44.6552 350.97 44.7372C350.789 44.8682 350.605 44.9921 350.418 45.1111C350.282 45.1981 350.143 45.282 350.003 45.364C349.827 45.464 349.648 45.5639 349.467 45.6639C349.307 45.7459 349.144 45.8229 348.98 45.8989C348.816 45.9748 348.635 46.0558 348.459 46.1268C348.282 46.1978 348.094 46.2647 347.909 46.3267C347.74 46.3847 347.571 46.4447 347.4 46.4956C347.2 46.5556 346.991 46.6046 346.784 46.6546C346.622 46.6925 346.462 46.7355 346.298 46.7676C346.061 46.8136 345.819 46.8455 345.576 46.8785C345.439 46.8965 345.302 46.9215 345.163 46.9355C344.779 46.9725 344.39 46.9945 343.997 46.9945C343.604 46.9945 343.215 46.9725 342.831 46.9355C342.692 46.9215 342.555 46.8965 342.417 46.8785C342.175 46.8455 341.933 46.8136 341.696 46.7676C341.532 46.7356 341.372 46.6926 341.21 46.6546C341.003 46.6046 340.797 46.5546 340.594 46.4956C340.423 46.4447 340.254 46.3847 340.085 46.3267C339.9 46.2627 339.715 46.1977 339.535 46.1268C339.355 46.0558 339.186 45.9778 339.014 45.8989C338.842 45.8199 338.687 45.7459 338.527 45.6639C338.346 45.57 338.167 45.471 337.991 45.364C337.851 45.2821 337.712 45.1981 337.576 45.1111C337.389 44.9921 337.205 44.8682 337.024 44.7372C336.909 44.6553 336.797 44.5703 336.685 44.4843C336.495 44.3373 336.307 44.1844 336.125 44.0254C336.082 43.9924 336.041 43.9504 335.999 43.9124C336.043 40.5118 338.228 37.509 341.45 36.4199C343.061 37.1862 344.931 37.1862 346.542 36.4199C349.764 37.509 351.949 40.5117 351.993 43.9124C351.951 43.9504 351.911 43.9885 351.868 44.0254ZM340.51 29.0152C341.592 27.0902 344.03 26.4072 345.955 27.4896C347.88 28.572 348.563 31.0099 347.481 32.9349C347.122 33.5736 346.594 34.1014 345.955 34.4606C345.95 34.4606 345.944 34.4606 345.938 34.4665C345.673 34.6141 345.393 34.7327 345.103 34.8204C345.051 34.8354 345.003 34.8554 344.948 34.8684C344.848 34.8944 344.743 34.9124 344.64 34.9304C344.446 34.9643 344.25 34.984 344.053 34.9894H343.939C343.742 34.984 343.546 34.9643 343.352 34.9304C343.252 34.9124 343.146 34.8944 343.044 34.8684C342.991 34.8554 342.944 34.8354 342.889 34.8204C342.599 34.7327 342.319 34.6141 342.054 34.4665L342.036 34.4606C340.111 33.3782 339.428 30.9402 340.51 29.0152ZM353.767 41.9301C353.125 38.938 351.155 36.4013 348.415 35.0394C350.655 32.5992 350.492 28.8049 348.052 26.5647C345.612 24.3245 341.818 24.4868 339.577 26.9271C337.471 29.2212 337.471 32.7454 339.577 35.0394C336.837 36.4014 334.867 38.938 334.225 41.9301C330.392 36.5306 331.662 29.0458 337.061 25.2125C342.461 21.3791 349.945 22.6488 353.779 28.0483C355.22 30.0781 355.993 32.5061 355.992 34.9954C355.992 37.4825 355.214 39.9073 353.767 41.9301Z" fill="#3E54D8"/>
</g>
<rect x="15.5" y="15.5" width="39" height="39" rx="7.5" fill="white"/>
<line x1="23" y1="39" x2="39" y2="39" stroke="#3E54D8" stroke-width="2" stroke-linecap="round"/>
<line x1="23" y1="31" x2="47" y2="31" stroke="#3E54D8" stroke-width="2" stroke-linecap="round"/>
<rect x="15.5" y="15.5" width="39" height="39" rx="7.5" stroke="#E6EEFF"/>
<line x1="-1" y1="69.5" x2="374" y2="69.5" stroke="white" stroke-opacity="0.3"/>
<g opacity="0.9">
<path d="M106.61 28.523C107.651 28.8528 108.467 29.4082 109.057 30.1893C109.647 30.953 109.942 31.899 109.942 33.0272C109.942 34.624 109.317 35.8564 108.068 36.7242C106.835 37.5747 105.03 38 102.652 38H93.2274V19.775H102.132C104.353 19.775 106.054 20.2002 107.235 21.0507C108.432 21.9012 109.031 23.0555 109.031 24.5135C109.031 25.3987 108.814 26.1885 108.38 26.8827C107.964 27.577 107.373 28.1238 106.61 28.523ZM97.4191 22.9514V27.2472H101.611C102.652 27.2472 103.442 27.065 103.98 26.7005C104.518 26.336 104.787 25.7979 104.787 25.0863C104.787 24.3746 104.518 23.8452 103.98 23.4981C103.442 23.1336 102.652 22.9514 101.611 22.9514H97.4191ZM102.34 34.8236C103.451 34.8236 104.284 34.6414 104.839 34.2769C105.412 33.9124 105.698 33.3483 105.698 32.5846C105.698 31.0745 104.579 30.3195 102.34 30.3195H97.4191V34.8236H102.34ZM126.57 31.0485C126.57 31.1005 126.544 31.465 126.492 32.142H115.895C116.086 33.0098 116.538 33.6954 117.249 34.1988C117.961 34.7021 118.846 34.9538 119.905 34.9538C120.634 34.9538 121.276 34.8497 121.831 34.6414C122.404 34.4157 122.934 34.0686 123.42 33.6L125.581 35.9432C124.261 37.4532 122.335 38.2083 119.801 38.2083C118.221 38.2083 116.824 37.9045 115.609 37.297C114.394 36.6722 113.457 35.813 112.797 34.7195C112.137 33.626 111.808 32.385 111.808 30.9964C111.808 29.6252 112.129 28.3928 112.771 27.2993C113.431 26.1885 114.324 25.3293 115.453 24.7218C116.598 24.0969 117.874 23.7845 119.28 23.7845C120.651 23.7845 121.892 24.0796 123.003 24.6697C124.114 25.2599 124.982 26.1104 125.607 27.2212C126.249 28.3147 126.57 29.5905 126.57 31.0485ZM119.306 26.8567C118.386 26.8567 117.614 27.1171 116.989 27.6378C116.364 28.1585 115.982 28.8701 115.843 29.7727H122.743C122.604 28.8875 122.222 28.1845 121.597 27.6638C120.972 27.1257 120.209 26.8567 119.306 26.8567ZM134.542 23.7845C136.712 23.7845 138.378 24.3052 139.541 25.3466C140.704 26.3707 141.286 27.9242 141.286 30.007V38H137.484V36.2556C136.721 37.5574 135.297 38.2083 133.215 38.2083C132.138 38.2083 131.201 38.026 130.403 37.6615C129.622 37.297 129.023 36.7937 128.606 36.1515C128.19 35.5092 127.981 34.7802 127.981 33.9645C127.981 32.6627 128.467 31.6386 129.439 30.8922C130.429 30.1459 131.947 29.7727 133.996 29.7727H137.224C137.224 28.8875 136.955 28.2106 136.417 27.7419C135.879 27.2559 135.072 27.0129 133.996 27.0129C133.249 27.0129 132.512 27.1344 131.783 27.3774C131.071 27.6031 130.463 27.9155 129.96 28.3147L128.502 25.4768C129.266 24.9387 130.177 24.5222 131.236 24.2271C132.312 23.932 133.414 23.7845 134.542 23.7845ZM134.23 35.4745C134.924 35.4745 135.54 35.3183 136.078 35.0059C136.617 34.6761 136.998 34.1988 137.224 33.5739V32.142H134.438C132.772 32.142 131.939 32.6887 131.939 33.7822C131.939 34.3029 132.138 34.7195 132.538 35.0319C132.954 35.327 133.518 35.4745 134.23 35.4745ZM153.996 37.3231C153.597 37.6181 153.102 37.8438 152.512 38C151.939 38.1389 151.332 38.2083 150.689 38.2083C149.023 38.2083 147.73 37.783 146.81 36.9325C145.908 36.082 145.456 34.8323 145.456 33.1834V27.4295H143.295V24.3052H145.456V20.8945H149.518V24.3052H153.007V27.4295H149.518V33.1313C149.518 33.7215 149.665 34.1814 149.96 34.5112C150.273 34.8236 150.707 34.9799 151.262 34.9799C151.904 34.9799 152.451 34.8063 152.902 34.4591L153.996 37.3231Z" fill="#3E54D8"/>
<path d="M173.147 38L173.121 27.065L167.758 36.0734H165.857L160.52 27.2993V38H156.562V19.775H160.051L166.872 31.1005L173.59 19.775H177.052L177.104 38H173.147ZM186.792 23.7845C188.961 23.7845 190.628 24.3052 191.791 25.3466C192.954 26.3707 193.535 27.9242 193.535 30.007V38H189.734V36.2556C188.97 37.5574 187.547 38.2083 185.464 38.2083C184.388 38.2083 183.451 38.026 182.652 37.6615C181.871 37.297 181.272 36.7937 180.856 36.1515C180.439 35.5092 180.231 34.7802 180.231 33.9645C180.231 32.6627 180.717 31.6386 181.689 30.8922C182.678 30.1459 184.197 29.7727 186.245 29.7727H189.473C189.473 28.8875 189.204 28.2106 188.666 27.7419C188.128 27.2559 187.321 27.0129 186.245 27.0129C185.499 27.0129 184.761 27.1344 184.032 27.3774C183.32 27.6031 182.713 27.9155 182.209 28.3147L180.751 25.4768C181.515 24.9387 182.426 24.5222 183.485 24.2271C184.561 23.932 185.664 23.7845 186.792 23.7845ZM186.479 35.4745C187.174 35.4745 187.79 35.3183 188.328 35.0059C188.866 34.6761 189.248 34.1988 189.473 33.5739V32.142H186.688C185.021 32.142 184.188 32.6887 184.188 33.7822C184.188 34.3029 184.388 34.7195 184.787 35.0319C185.204 35.327 185.768 35.4745 186.479 35.4745ZM201.09 25.8413C201.576 25.1644 202.227 24.6524 203.043 24.3052C203.876 23.9581 204.831 23.7845 205.907 23.7845V27.5336C205.456 27.4989 205.152 27.4816 204.996 27.4816C203.833 27.4816 202.921 27.8114 202.262 28.4709C201.602 29.1131 201.273 30.0851 201.273 31.3869V38H197.211V23.9928H201.09V25.8413ZM214.336 32.5065L212.383 34.4331V38H208.322V18.6815H212.383V29.6165L218.32 23.9928H223.162L217.33 29.9289L223.683 38H218.762L214.336 32.5065ZM238.62 31.0485C238.62 31.1005 238.594 31.465 238.542 32.142H227.946C228.136 33.0098 228.588 33.6954 229.299 34.1988C230.011 34.7021 230.896 34.9538 231.955 34.9538C232.684 34.9538 233.326 34.8497 233.882 34.6414C234.454 34.4157 234.984 34.0686 235.47 33.6L237.631 35.9432C236.312 37.4532 234.385 38.2083 231.851 38.2083C230.271 38.2083 228.874 37.9045 227.659 37.297C226.444 36.6722 225.507 35.813 224.847 34.7195C224.188 33.626 223.858 32.385 223.858 30.9964C223.858 29.6252 224.179 28.3928 224.821 27.2993C225.481 26.1885 226.375 25.3293 227.503 24.7218C228.648 24.0969 229.924 23.7845 231.33 23.7845C232.701 23.7845 233.942 24.0796 235.053 24.6697C236.164 25.2599 237.032 26.1104 237.657 27.2212C238.299 28.3147 238.62 29.5905 238.62 31.0485ZM231.356 26.8567C230.436 26.8567 229.664 27.1171 229.039 27.6378C228.414 28.1585 228.032 28.8701 227.893 29.7727H234.793C234.654 28.8875 234.272 28.1845 233.647 27.6638C233.022 27.1257 232.259 26.8567 231.356 26.8567ZM250.359 37.3231C249.959 37.6181 249.465 37.8438 248.875 38C248.302 38.1389 247.694 38.2083 247.052 38.2083C245.386 38.2083 244.093 37.783 243.173 36.9325C242.27 36.082 241.819 34.8323 241.819 33.1834V27.4295H239.658V24.3052H241.819V20.8945H245.88V24.3052H249.369V27.4295H245.88V33.1313C245.88 33.7215 246.028 34.1814 246.323 34.5112C246.635 34.8236 247.069 34.9799 247.625 34.9799C248.267 34.9799 248.814 34.8063 249.265 34.4591L250.359 37.3231Z" fill="#ED6373"/>
</g>
<path d="M97.6464 48.0059V53.0684H97.1185V48.4687H93.9146V53.0684H93.3867V48.0059H97.6464ZM102.197 49.2643V53.0684H101.683V49.7199H99.8609L99.8102 50.6601C99.7717 51.4508 99.68 52.0583 99.5354 52.4826C99.3908 52.9068 99.1328 53.119 98.7616 53.119C98.6603 53.119 98.5374 53.0997 98.3927 53.0611L98.4289 52.62C98.5157 52.6393 98.5759 52.6489 98.6097 52.6489C98.8074 52.6489 98.9568 52.5573 99.0581 52.3741C99.1593 52.1909 99.2268 51.9643 99.2606 51.6943C99.2943 51.4243 99.3233 51.0675 99.3474 50.6239L99.4125 49.2643H102.197ZM104.821 49.2353C105.318 49.2353 105.698 49.3607 105.964 49.6114C106.229 49.8573 106.361 50.2237 106.361 50.7107V53.0684H105.87V52.4753C105.754 52.673 105.583 52.8273 105.356 52.9382C105.134 53.0491 104.869 53.1045 104.561 53.1045C104.136 53.1045 103.799 53.0033 103.548 52.8008C103.297 52.5983 103.172 52.3307 103.172 51.998C103.172 51.675 103.288 51.4146 103.519 51.2169C103.755 51.0193 104.129 50.9204 104.64 50.9204H105.848V50.689C105.848 50.3611 105.756 50.1128 105.573 49.9441C105.39 49.7705 105.122 49.6837 104.77 49.6837C104.529 49.6837 104.298 49.7247 104.076 49.8067C103.854 49.8838 103.664 49.9923 103.505 50.1321L103.273 49.7488C103.466 49.5849 103.698 49.4595 103.968 49.3727C104.238 49.2811 104.522 49.2353 104.821 49.2353ZM104.64 52.6995C104.929 52.6995 105.178 52.6344 105.385 52.5043C105.592 52.3693 105.747 52.1764 105.848 51.9257V51.3037H104.655C104.004 51.3037 103.678 51.5303 103.678 51.9835C103.678 52.2053 103.763 52.3813 103.931 52.5115C104.1 52.6368 104.336 52.6995 104.64 52.6995ZM110.26 49.7199H108.82V53.0684H108.307V49.7199H106.868V49.2643H110.26V49.7199ZM115.273 51.1591C115.273 51.7521 115.078 52.2174 114.687 52.5549C114.297 52.8924 113.745 53.0756 113.031 53.1045V54.4714H112.532V53.1118C111.823 53.0828 111.274 52.8996 110.883 52.5621C110.498 52.2198 110.305 51.7521 110.305 51.1591C110.305 50.5709 110.498 50.1104 110.883 49.7777C111.274 49.4451 111.823 49.2643 112.532 49.2353V47.7021H113.031V49.2353C113.745 49.2691 114.297 49.4523 114.687 49.785C115.078 50.1176 115.273 50.5757 115.273 51.1591ZM110.811 51.1591C110.811 51.6123 110.956 51.9667 111.245 52.2222C111.539 52.4777 111.968 52.6224 112.532 52.6561V49.6909C111.973 49.7199 111.546 49.8621 111.252 50.1176C110.958 50.3684 110.811 50.7155 110.811 51.1591ZM113.031 52.6561C113.595 52.6272 114.024 52.485 114.319 52.2294C114.617 51.9739 114.767 51.6171 114.767 51.1591C114.767 50.7107 114.617 50.3611 114.319 50.1104C114.024 49.8597 113.595 49.7199 113.031 49.6909V52.6561ZM117.784 53.1045C117.417 53.1045 117.087 53.0226 116.793 52.8586C116.499 52.6899 116.268 52.4584 116.099 52.1643C115.93 51.8702 115.846 51.5376 115.846 51.1663C115.846 50.7951 115.93 50.4624 116.099 50.1683C116.268 49.8742 116.499 49.6451 116.793 49.4812C117.087 49.3173 117.417 49.2353 117.784 49.2353C118.15 49.2353 118.481 49.3173 118.775 49.4812C119.069 49.6451 119.298 49.8742 119.462 50.1683C119.63 50.4624 119.715 50.7951 119.715 51.1663C119.715 51.5376 119.63 51.8702 119.462 52.1643C119.298 52.4584 119.069 52.6899 118.775 52.8586C118.481 53.0226 118.15 53.1045 117.784 53.1045ZM117.784 52.6489C118.054 52.6489 118.295 52.5886 118.507 52.4681C118.724 52.3427 118.893 52.1668 119.013 51.9401C119.134 51.7135 119.194 51.4556 119.194 51.1663C119.194 50.877 119.134 50.6191 119.013 50.3925C118.893 50.1659 118.724 49.9923 118.507 49.8718C118.295 49.7464 118.054 49.6837 117.784 49.6837C117.514 49.6837 117.27 49.7464 117.053 49.8718C116.841 49.9923 116.673 50.1659 116.547 50.3925C116.427 50.6191 116.366 50.877 116.366 51.1663C116.366 51.4556 116.427 51.7135 116.547 51.9401C116.673 52.1668 116.841 52.3427 117.053 52.4681C117.27 52.5886 117.514 52.6489 117.784 52.6489ZM122.628 49.2353C122.984 49.2353 123.307 49.3173 123.597 49.4812C123.886 49.6403 124.113 49.8669 124.276 50.161C124.44 50.4551 124.522 50.7902 124.522 51.1663C124.522 51.5472 124.44 51.8847 124.276 52.1788C124.113 52.4729 123.886 52.7019 123.597 52.8659C123.312 53.025 122.989 53.1045 122.628 53.1045C122.319 53.1045 122.039 53.0418 121.789 52.9165C121.543 52.7863 121.34 52.5983 121.181 52.3524V54.4714H120.668V49.2643H121.159V50.0164C121.314 49.7657 121.516 49.5728 121.767 49.4378C122.022 49.3028 122.309 49.2353 122.628 49.2353ZM122.591 52.6489C122.857 52.6489 123.098 52.5886 123.315 52.4681C123.532 52.3427 123.7 52.1668 123.821 51.9401C123.946 51.7135 124.009 51.4556 124.009 51.1663C124.009 50.877 123.946 50.6215 123.821 50.3997C123.7 50.1731 123.532 49.9971 123.315 49.8718C123.098 49.7464 122.857 49.6837 122.591 49.6837C122.321 49.6837 122.078 49.7464 121.861 49.8718C121.649 49.9971 121.48 50.1731 121.355 50.3997C121.234 50.6215 121.174 50.877 121.174 51.1663C121.174 51.4556 121.234 51.7135 121.355 51.9401C121.48 52.1668 121.649 52.3427 121.861 52.4681C122.078 52.5886 122.321 52.6489 122.591 52.6489ZM129.733 49.2643V53.0684H129.263V50.0598L127.723 52.6055H127.491L125.951 50.0526V53.0684H125.481V49.2643H126.002L127.614 52.0052L129.256 49.2643H129.733ZM132.359 49.2353C132.856 49.2353 133.236 49.3607 133.502 49.6114C133.767 49.8573 133.899 50.2237 133.899 50.7107V53.0684H133.408V52.4753C133.292 52.673 133.121 52.8273 132.894 52.9382C132.672 53.0491 132.407 53.1045 132.099 53.1045C131.674 53.1045 131.337 53.0033 131.086 52.8008C130.835 52.5983 130.71 52.3307 130.71 51.998C130.71 51.675 130.826 51.4146 131.057 51.2169C131.293 51.0193 131.667 50.9204 132.178 50.9204H133.386V50.689C133.386 50.3611 133.294 50.1128 133.111 49.9441C132.928 49.7705 132.66 49.6837 132.308 49.6837C132.067 49.6837 131.836 49.7247 131.614 49.8067C131.392 49.8838 131.202 49.9923 131.043 50.1321L130.811 49.7488C131.004 49.5849 131.236 49.4595 131.506 49.3727C131.776 49.2811 132.06 49.2353 132.359 49.2353ZM132.178 52.6995C132.467 52.6995 132.716 52.6344 132.923 52.5043C133.13 52.3693 133.285 52.1764 133.386 51.9257V51.3037H132.193C131.542 51.3037 131.216 51.5303 131.216 51.9835C131.216 52.2053 131.301 52.3813 131.469 52.5115C131.638 52.6368 131.874 52.6995 132.178 52.6995ZM134.825 50.8843H136.72V51.3326H134.825V50.8843ZM141.152 49.2643V53.0684H140.639V49.7199H138.252V53.0684H137.739V49.2643H141.152ZM144.037 53.1045C143.67 53.1045 143.34 53.0226 143.046 52.8586C142.752 52.6899 142.52 52.4584 142.351 52.1643C142.183 51.8702 142.098 51.5376 142.098 51.1663C142.098 50.7951 142.183 50.4624 142.351 50.1683C142.52 49.8742 142.752 49.6451 143.046 49.4812C143.34 49.3173 143.67 49.2353 144.037 49.2353C144.403 49.2353 144.733 49.3173 145.027 49.4812C145.321 49.6451 145.55 49.8742 145.714 50.1683C145.883 50.4624 145.968 50.7951 145.968 51.1663C145.968 51.5376 145.883 51.8702 145.714 52.1643C145.55 52.4584 145.321 52.6899 145.027 52.8586C144.733 53.0226 144.403 53.1045 144.037 53.1045ZM144.037 52.6489C144.307 52.6489 144.548 52.5886 144.76 52.4681C144.977 52.3427 145.145 52.1668 145.266 51.9401C145.387 51.7135 145.447 51.4556 145.447 51.1663C145.447 50.877 145.387 50.6191 145.266 50.3925C145.145 50.1659 144.977 49.9923 144.76 49.8718C144.548 49.7464 144.307 49.6837 144.037 49.6837C143.767 49.6837 143.523 49.7464 143.306 49.8718C143.094 49.9923 142.925 50.1659 142.8 50.3925C142.679 50.6191 142.619 50.877 142.619 51.1663C142.619 51.4556 142.679 51.7135 142.8 51.9401C142.925 52.1668 143.094 52.3427 143.306 52.4681C143.523 52.5886 143.767 52.6489 144.037 52.6489ZM151.173 49.2643V53.0684H150.703V50.0598L149.162 52.6055H148.931L147.39 50.0526V53.0684H146.92V49.2643H147.441L149.054 52.0052L150.695 49.2643H151.173ZM154.059 53.1045C153.692 53.1045 153.362 53.0226 153.068 52.8586C152.774 52.6899 152.542 52.4584 152.374 52.1643C152.205 51.8702 152.12 51.5376 152.12 51.1663C152.12 50.7951 152.205 50.4624 152.374 50.1683C152.542 49.8742 152.774 49.6451 153.068 49.4812C153.362 49.3173 153.692 49.2353 154.059 49.2353C154.425 49.2353 154.755 49.3173 155.05 49.4812C155.344 49.6451 155.573 49.8742 155.737 50.1683C155.905 50.4624 155.99 50.7951 155.99 51.1663C155.99 51.5376 155.905 51.8702 155.737 52.1643C155.573 52.4584 155.344 52.6899 155.05 52.8586C154.755 53.0226 154.425 53.1045 154.059 53.1045ZM154.059 52.6489C154.329 52.6489 154.57 52.5886 154.782 52.4681C154.999 52.3427 155.168 52.1668 155.288 51.9401C155.409 51.7135 155.469 51.4556 155.469 51.1663C155.469 50.877 155.409 50.6191 155.288 50.3925C155.168 50.1659 154.999 49.9923 154.782 49.8718C154.57 49.7464 154.329 49.6837 154.059 49.6837C153.789 49.6837 153.545 49.7464 153.328 49.8718C153.116 49.9923 152.947 50.1659 152.822 50.3925C152.701 50.6191 152.641 50.877 152.641 51.1663C152.641 51.4556 152.701 51.7135 152.822 51.9401C152.947 52.1668 153.116 52.3427 153.328 52.4681C153.545 52.5886 153.789 52.6489 154.059 52.6489ZM162.193 49.2643V53.0684H156.942V49.2643H157.456V52.62H159.322V49.2643H159.835V52.62H161.68V49.2643H162.193ZM162.779 52.62V53.9001H162.294V53.0684H161.651V52.62H162.779ZM163.514 49.2643H164.028V50.9493H166.422V49.2643H166.935V53.0684H166.422V51.3905H164.028V53.0684H163.514V49.2643ZM168.25 49.2643H168.764V52.2873L171.302 49.2643H171.758V53.0684H171.244V50.0453L168.713 53.0684H168.25V49.2643ZM174.466 51.376H173.598V53.0684H173.085V49.2643H173.598V50.9349H174.473L175.811 49.2643H176.368L174.871 51.1084L176.476 53.0684H175.869L174.466 51.376ZM178.89 49.2643H179.404V50.9493H181.798V49.2643H182.311V53.0684H181.798V51.3905H179.404V53.0684H178.89V49.2643ZM184.935 49.2353C185.432 49.2353 185.812 49.3607 186.078 49.6114C186.343 49.8573 186.475 50.2237 186.475 50.7107V53.0684H185.984V52.4753C185.868 52.673 185.697 52.8273 185.47 52.9382C185.248 53.0491 184.983 53.1045 184.675 53.1045C184.25 53.1045 183.913 53.0033 183.662 52.8008C183.411 52.5983 183.286 52.3307 183.286 51.998C183.286 51.675 183.402 51.4146 183.633 51.2169C183.869 51.0193 184.243 50.9204 184.754 50.9204H185.962V50.689C185.962 50.3611 185.87 50.1128 185.687 49.9441C185.504 49.7705 185.236 49.6837 184.884 49.6837C184.643 49.6837 184.412 49.7247 184.19 49.8067C183.968 49.8838 183.778 49.9923 183.619 50.1321L183.387 49.7488C183.58 49.5849 183.812 49.4595 184.082 49.3727C184.352 49.2811 184.636 49.2353 184.935 49.2353ZM184.754 52.6995C185.043 52.6995 185.292 52.6344 185.499 52.5043C185.706 52.3693 185.861 52.1764 185.962 51.9257V51.3037H184.769C184.118 51.3037 183.792 51.5303 183.792 51.9835C183.792 52.2053 183.877 52.3813 184.045 52.5115C184.214 52.6368 184.45 52.6995 184.754 52.6995ZM194.986 50.5299C194.986 51.2001 194.747 51.728 194.27 52.1137C193.797 52.4946 193.134 52.6971 192.281 52.7212V53.2419H191.782V52.7212C190.928 52.6923 190.263 52.4874 189.786 52.1065C189.313 51.7256 189.077 51.2001 189.077 50.5299C189.077 49.8597 189.313 49.3342 189.786 48.9533C190.263 48.5724 190.928 48.3675 191.782 48.3385V47.8323H192.281V48.3385C193.129 48.3675 193.792 48.5748 194.27 48.9605C194.747 49.3414 194.986 49.8645 194.986 50.5299ZM192.281 52.2945C192.98 52.2656 193.52 52.0993 193.901 51.7955C194.282 51.4918 194.472 51.0699 194.472 50.5299C194.472 49.9899 194.279 49.568 193.894 49.2643C193.513 48.9605 192.975 48.7966 192.281 48.7725V52.2945ZM189.591 50.5299C189.591 51.0699 189.781 51.4918 190.162 51.7955C190.548 52.0944 191.088 52.2608 191.782 52.2945V48.7725C191.078 48.8014 190.536 48.9677 190.155 49.2715C189.779 49.5704 189.591 49.9899 189.591 50.5299ZM197.502 53.1045C197.136 53.1045 196.806 53.0226 196.512 52.8586C196.218 52.6899 195.986 52.4584 195.817 52.1643C195.649 51.8702 195.564 51.5376 195.564 51.1663C195.564 50.7951 195.649 50.4624 195.817 50.1683C195.986 49.8742 196.218 49.6451 196.512 49.4812C196.806 49.3173 197.136 49.2353 197.502 49.2353C197.869 49.2353 198.199 49.3173 198.493 49.4812C198.787 49.6451 199.016 49.8742 199.18 50.1683C199.349 50.4624 199.433 50.7951 199.433 51.1663C199.433 51.5376 199.349 51.8702 199.18 52.1643C199.016 52.4584 198.787 52.6899 198.493 52.8586C198.199 53.0226 197.869 53.1045 197.502 53.1045ZM197.502 52.6489C197.772 52.6489 198.013 52.5886 198.226 52.4681C198.443 52.3427 198.611 52.1668 198.732 51.9401C198.852 51.7135 198.913 51.4556 198.913 51.1663C198.913 50.877 198.852 50.6191 198.732 50.3925C198.611 50.1659 198.443 49.9923 198.226 49.8718C198.013 49.7464 197.772 49.6837 197.502 49.6837C197.232 49.6837 196.989 49.7464 196.772 49.8718C196.56 49.9923 196.391 50.1659 196.266 50.3925C196.145 50.6191 196.085 50.877 196.085 51.1663C196.085 51.4556 196.145 51.7135 196.266 51.9401C196.391 52.1668 196.56 52.3427 196.772 52.4681C196.989 52.5886 197.232 52.6489 197.502 52.6489ZM200.386 49.2643H200.9V50.9493H203.293V49.2643H203.807V53.0684H203.293V51.3905H200.9V53.0684H200.386V49.2643ZM208.832 52.62V53.9868H208.347V53.0684H204.941V53.9868H204.456V52.62H204.673C204.929 52.6055 205.103 52.4175 205.194 52.0559C205.286 51.6943 205.348 51.188 205.382 50.5371L205.433 49.2643H208.239V52.62H208.832ZM205.852 50.566C205.828 51.106 205.782 51.552 205.715 51.904C205.647 52.2511 205.527 52.4898 205.353 52.62H207.725V49.7199H205.896L205.852 50.566ZM211.257 53.1045C210.891 53.1045 210.561 53.0226 210.267 52.8586C209.972 52.6899 209.741 52.4584 209.572 52.1643C209.403 51.8702 209.319 51.5376 209.319 51.1663C209.319 50.7951 209.403 50.4624 209.572 50.1683C209.741 49.8742 209.972 49.6451 210.267 49.4812C210.561 49.3173 210.891 49.2353 211.257 49.2353C211.624 49.2353 211.954 49.3173 212.248 49.4812C212.542 49.6451 212.771 49.8742 212.935 50.1683C213.104 50.4624 213.188 50.7951 213.188 51.1663C213.188 51.5376 213.104 51.8702 212.935 52.1643C212.771 52.4584 212.542 52.6899 212.248 52.8586C211.954 53.0226 211.624 53.1045 211.257 53.1045ZM211.257 52.6489C211.527 52.6489 211.768 52.5886 211.981 52.4681C212.198 52.3427 212.366 52.1668 212.487 51.9401C212.607 51.7135 212.668 51.4556 212.668 51.1663C212.668 50.877 212.607 50.6191 212.487 50.3925C212.366 50.1659 212.198 49.9923 211.981 49.8718C211.768 49.7464 211.527 49.6837 211.257 49.6837C210.987 49.6837 210.744 49.7464 210.527 49.8718C210.315 49.9923 210.146 50.1659 210.021 50.3925C209.9 50.6191 209.84 50.877 209.84 51.1663C209.84 51.4556 209.9 51.7135 210.021 51.9401C210.146 52.1668 210.315 52.3427 210.527 52.4681C210.744 52.5886 210.987 52.6489 211.257 52.6489ZM216.564 51.1012C217.08 51.2218 217.338 51.5327 217.338 52.0342C217.338 52.3668 217.215 52.6224 216.969 52.8008C216.723 52.9792 216.357 53.0684 215.87 53.0684H214.141V49.2643H215.819C216.253 49.2643 216.593 49.3486 216.839 49.5174C217.085 49.6861 217.208 49.9272 217.208 50.2406C217.208 50.4479 217.15 50.6263 217.034 50.7758C216.923 50.9204 216.766 51.0289 216.564 51.1012ZM214.64 50.9566H215.783C216.077 50.9566 216.301 50.9011 216.455 50.7902C216.614 50.6793 216.694 50.5178 216.694 50.3057C216.694 50.0935 216.614 49.9344 216.455 49.8284C216.301 49.7223 216.077 49.6693 215.783 49.6693H214.64V50.9566ZM215.848 52.6634C216.176 52.6634 216.422 52.6103 216.586 52.5043C216.749 52.3982 216.831 52.2318 216.831 52.0052C216.831 51.7786 216.757 51.6123 216.607 51.5062C216.458 51.3953 216.222 51.3399 215.898 51.3399H214.64V52.6634H215.848ZM219.966 53.1045C219.599 53.1045 219.269 53.0226 218.975 52.8586C218.681 52.6899 218.45 52.4584 218.281 52.1643C218.112 51.8702 218.028 51.5376 218.028 51.1663C218.028 50.7951 218.112 50.4624 218.281 50.1683C218.45 49.8742 218.681 49.6451 218.975 49.4812C219.269 49.3173 219.599 49.2353 219.966 49.2353C220.332 49.2353 220.663 49.3173 220.957 49.4812C221.251 49.6451 221.48 49.8742 221.644 50.1683C221.812 50.4624 221.897 50.7951 221.897 51.1663C221.897 51.5376 221.812 51.8702 221.644 52.1643C221.48 52.4584 221.251 52.6899 220.957 52.8586C220.663 53.0226 220.332 53.1045 219.966 53.1045ZM219.966 52.6489C220.236 52.6489 220.477 52.5886 220.689 52.4681C220.906 52.3427 221.075 52.1668 221.195 51.9401C221.316 51.7135 221.376 51.4556 221.376 51.1663C221.376 50.877 221.316 50.6191 221.195 50.3925C221.075 50.1659 220.906 49.9923 220.689 49.8718C220.477 49.7464 220.236 49.6837 219.966 49.6837C219.696 49.6837 219.452 49.7464 219.235 49.8718C219.023 49.9923 218.855 50.1659 218.729 50.3925C218.609 50.6191 218.548 50.877 218.548 51.1663C218.548 51.4556 218.609 51.7135 218.729 51.9401C218.855 52.1668 219.023 52.3427 219.235 52.4681C219.452 52.5886 219.696 52.6489 219.966 52.6489ZM227.102 49.2643V53.0684H226.632V50.0598L225.092 52.6055H224.86L223.32 50.0526V53.0684H222.85V49.2643H223.37L224.983 52.0052L226.625 49.2643H227.102ZM232.127 49.2353C232.483 49.2353 232.807 49.3173 233.096 49.4812C233.385 49.6403 233.612 49.8669 233.776 50.161C233.94 50.4551 234.022 50.7902 234.022 51.1663C234.022 51.5472 233.94 51.8847 233.776 52.1788C233.612 52.4729 233.385 52.7019 233.096 52.8659C232.811 53.025 232.488 53.1045 232.127 53.1045C231.818 53.1045 231.538 53.0418 231.288 52.9165C231.042 52.7863 230.839 52.5983 230.68 52.3524V54.4714H230.167V49.2643H230.659V50.0164C230.813 49.7657 231.015 49.5728 231.266 49.4378C231.522 49.3028 231.808 49.2353 232.127 49.2353ZM232.091 52.6489C232.356 52.6489 232.597 52.5886 232.814 52.4681C233.031 52.3427 233.199 52.1668 233.32 51.9401C233.445 51.7135 233.508 51.4556 233.508 51.1663C233.508 50.877 233.445 50.6215 233.32 50.3997C233.199 50.1731 233.031 49.9971 232.814 49.8718C232.597 49.7464 232.356 49.6837 232.091 49.6837C231.821 49.6837 231.577 49.7464 231.36 49.8718C231.148 49.9971 230.979 50.1731 230.854 50.3997C230.733 50.6215 230.673 50.877 230.673 51.1663C230.673 51.4556 230.733 51.7135 230.854 51.9401C230.979 52.1668 231.148 52.3427 231.36 52.4681C231.577 52.5886 231.821 52.6489 232.091 52.6489ZM236.578 50.6094C237.056 50.6143 237.42 50.7203 237.67 50.9276C237.921 51.135 238.047 51.4339 238.047 51.8244C238.047 52.2294 237.912 52.5404 237.642 52.7574C237.372 52.9743 236.986 53.0804 236.484 53.0756L234.98 53.0684V49.2643H235.494V50.595L236.578 50.6094ZM238.683 49.2643H239.196V53.0684H238.683V49.2643ZM236.455 52.6851C236.807 52.6899 237.073 52.62 237.251 52.4753C237.434 52.3259 237.526 52.1089 237.526 51.8244C237.526 51.5448 237.437 51.3375 237.258 51.2025C237.08 51.0675 236.812 50.9976 236.455 50.9927L235.494 50.9783V52.6706L236.455 52.6851ZM240.514 49.2643H241.027V50.9493H243.421V49.2643H243.935V53.0684H243.421V51.3905H241.027V53.0684H240.514V49.2643ZM246.631 51.376H245.763V53.0684H245.249V49.2643H245.763V50.9349H246.638L247.976 49.2643H248.533L247.036 51.1084L248.641 53.0684H248.034L246.631 51.376ZM252.5 51.3254H249.318C249.346 51.7208 249.498 52.0414 249.773 52.2873C250.048 52.5284 250.395 52.6489 250.815 52.6489C251.051 52.6489 251.268 52.6079 251.465 52.5259C251.663 52.4392 251.834 52.3138 251.979 52.1499L252.268 52.4826C252.1 52.6851 251.887 52.8393 251.632 52.9454C251.381 53.0515 251.104 53.1045 250.8 53.1045C250.41 53.1045 250.062 53.0226 249.759 52.8586C249.46 52.6899 249.226 52.4584 249.057 52.1643C248.888 51.8702 248.804 51.5376 248.804 51.1663C248.804 50.7951 248.884 50.4624 249.043 50.1683C249.207 49.8742 249.428 49.6451 249.708 49.4812C249.993 49.3173 250.311 49.2353 250.663 49.2353C251.015 49.2353 251.33 49.3173 251.61 49.4812C251.89 49.6451 252.109 49.8742 252.268 50.1683C252.427 50.4576 252.507 50.7902 252.507 51.1663L252.5 51.3254ZM250.663 49.6765C250.296 49.6765 249.988 49.7946 249.737 50.0309C249.491 50.2623 249.351 50.566 249.318 50.9421H252.015C251.981 50.566 251.839 50.2623 251.588 50.0309C251.343 49.7946 251.034 49.6765 250.663 49.6765Z" fill="#373943"/>
<circle cx="302" cy="19" r="3" fill="#199F27"/>
<path d="M294.147 34.3749C294.145 33.3372 294.349 32.3094 294.747 31.3509C295.144 30.3923 295.728 29.522 296.463 28.7899C297.199 28.0579 298.072 27.4787 299.033 27.0857C299.993 26.6927 301.022 26.4937 302.059 26.5002C306.39 26.5323 309.853 30.1315 309.853 34.4738V35.2499C309.853 39.1673 310.673 41.4404 311.395 42.6829C311.472 42.8156 311.514 42.9665 311.514 43.1204C311.515 43.2742 311.476 43.4256 311.399 43.5591C311.323 43.6927 311.213 43.8038 311.08 43.8812C310.947 43.9586 310.796 43.9995 310.642 43.9999H293.357C293.203 43.9995 293.052 43.9586 292.919 43.8812C292.786 43.8038 292.676 43.6926 292.6 43.559C292.523 43.4254 292.484 43.2741 292.484 43.1202C292.485 42.9663 292.527 42.8154 292.604 42.6827C293.327 41.4402 294.147 39.1671 294.147 35.2499L294.147 34.3749Z" stroke="#8C9BEA" stroke-width="1.75" stroke-linecap="round" stroke-linejoin="round"/>
<path d="M298.5 44V44.875C298.5 45.8033 298.869 46.6935 299.525 47.3499C300.182 48.0063 301.072 48.375 302 48.375C302.928 48.375 303.818 48.0063 304.475 47.3499C305.131 46.6935 305.5 45.8033 305.5 44.875V44" stroke="#8C9BEA" stroke-width="1.75" stroke-linecap="round" stroke-linejoin="round"/>
</g>
<defs>
<filter id="filter0_d_101_6777" x="-8" y="0" width="389" height="87" filterUnits="userSpaceOnUse" color-interpolation-filters="sRGB">
<feFlood flood-opacity="0" result="BackgroundImageFix"/>
<feColorMatrix in="SourceAlpha" type="matrix" values="0 0 0 0 0 0 0 0 0 0 0 0 0 0 0 0 0 0 127 0" result="hardAlpha"/>
<feMorphology radius="13" operator="erode" in="SourceAlpha" result="effect1_dropShadow_101_6777"/>
<feOffset dy="10"/>
<feGaussianBlur stdDeviation="10"/>
<feColorMatrix type="matrix" values="0 0 0 0 0.243137 0 0 0 0 0.329412 0 0 0 0 0.847059 0 0 0 0.21 0"/>
<feBlend mode="normal" in2="BackgroundImageFix" result="effect1_dropShadow_101_6777"/>
<feBlend mode="normal" in="SourceGraphic" in2="effect1_dropShadow_101_6777" result="shape"/>
</filter>
<linearGradient id="paint0_linear_101_6777" x1="186.5" y1="-49.6087" x2="186.5" y2="70" gradientUnits="userSpaceOnUse">
<stop stop-color="white"/>
<stop offset="1" stop-color="white" stop-opacity="0"/>
</linearGradient>
<clipPath id="clip0_101_6777">
<rect width="375" height="648" fill="white" transform="translate(-1)"/>
</clipPath>
<clipPath id="clip1_101_6777">
<rect width="28" height="28" fill="white" transform="translate(330 21)"/>
</clipPath>
</defs>
</svg>
