<svg width="1166" height="759" viewBox="0 0 1166 759" fill="none" xmlns="http://www.w3.org/2000/svg">
<path d="M1125 242.5C1125 222.894 1109.11 207 1089.5 207H1012V278H1089.5C1109.11 278 1125 262.106 1125 242.5Z" fill="#199F27"/>
<path d="M1094 615C1133.76 615 1166 647.486 1166 687.251C1166 726.739 1133.99 759 1094.5 759C1055.01 759 1023 726.988 1023 687.5L1023 615L1094 615Z" fill="#ED6373"/>
<path d="M80 -3.14722e-06C119.764 -1.40906e-06 152 32.2355 152 72L152 145L7.99999 145L8 72C8 32.2355 40.2355 -4.88538e-06 80 -3.14722e-06Z" fill="#F3B63F"/>
<circle cx="28.5" cy="624.5" r="28.5" fill="#3E54D8"/>
</svg>
