<svg width="368" height="864" viewBox="0 0 368 864" fill="none" xmlns="http://www.w3.org/2000/svg">
<circle cx="19.5" cy="589.5" r="19.5" fill="#3E54D8"/>
<path d="M352 832C360.837 832 368 839.163 368 848L368 848.5C368 857.06 361.06 864 352.5 864C343.94 864 337 857.06 337 848.5L337 832L352 832Z" fill="#ED6373"/>
<path d="M365 236.5C365 225.178 355.822 216 344.5 216H301V257H344.5C355.822 257 365 247.822 365 236.5Z" fill="#199F27"/>
<path d="M33.5 -1.42062e-06C51.4493 -6.36033e-07 66 14.5507 66 32.5L66 65L0.999997 65L0.999999 32.5C0.999999 14.5507 15.5507 -2.20521e-06 33.5 -1.42062e-06Z" fill="#F3B63F"/>
</svg>
